/* XPM */
static char *browser[] = {
/* columns rows colors chars-per-pixel */
"128 128 89 1 ",
"  c black",
". c #0C0C0C",
"X c gray7",
"o c #1A1A1A",
"O c #252525",
"+ c #2B2B2B",
"@ c #333333",
"# c #3A3A3A",
"$ c #434343",
"% c #4C4C4C",
"& c #545454",
"* c #5B5B5B",
"= c #646464",
"- c #6C6C6C",
"; c #747474",
": c #7B7B7B",
"> c #7E7E80",
", c #848484",
"< c #888787",
"1 c #878887",
"2 c #888887",
"3 c #878788",
"4 c #888788",
"5 c #878888",
"6 c #8B8B8B",
"7 c #908F8F",
"8 c #8F908F",
"9 c #90908F",
"0 c #8F8F90",
"q c #908F90",
"w c #8F9090",
"e c #949494",
"r c #989797",
"t c #979897",
"y c #989897",
"u c #979798",
"i c #989798",
"p c #979898",
"a c #9C9C9C",
"s c #9FA09F",
"d c #A0A09F",
"f c #A09FA0",
"g c #9FA0A0",
"h c #A3A3A3",
"j c #A7A8A7",
"k c #A8A8A7",
"l c #A7A7A8",
"z c #A8A7A8",
"x c #A7A8A8",
"c c #ABABAB",
"v c #B0AFAF",
"b c #AFB0AF",
"n c #B0B0AF",
"m c #AFAFB0",
"M c #B0AFB0",
"N c #AFB0B0",
"B c #B3B3B3",
"V c #B9B7B7",
"C c #BBBBBB",
"Z c #C0BFBF",
"A c #BFC0BF",
"S c #C0C0BF",
"D c #BFBFC0",
"F c #C0BFC0",
"G c #BFC0C0",
"H c #C4C4C4",
"J c #C8C7C7",
"K c #C7C8C7",
"L c #C8C8C7",
"P c #C7C7C8",
"I c #CBCBCB",
"U c #CFD0CF",
"Y c #D0D0CF",
"T c #CFCFD1",
"R c #CFD0D0",
"E c #D4D4D4",
"W c #D8D7D7",
"Q c #D8D8D7",
"! c #D6D6D8",
"~ c #D8D7D8",
"^ c #D7D8D8",
"/ c #DADADA",
"( c #DFE1E1",
") c #E4E4E4",
"_ c #E7E9E9",
"` c #ECECEC",
"' c #F4F4F4",
"] c #F9F9F9",
"[ c None",
/* pixels */
"[[[[[[[[[[[[[[[[[[[[[[[[[[[[[[[[[[[[[[[[[[[[[[[[[[[[[[[[[[[[[[[[[[[[[[[[[[[[[[[[[[[[[[[[[[[[[[[[[[[[[[[[[[[[[[[[[[[[[[[[[[[[[[[[",
"[[[[[[[[[[[[[[[[[[[[[[[[[[[[[[[[[[[[[[[[[[[[[[[[[[[[[[[[[[[[[[[[[[[[[[[[[[[[[[[[[[[[[[[[[[[[[[[[[[[[[[[[[[[[[[[[[[[[[[[[[[[[[[[[",
"[[[[[[[[[[[[[[[[[[[[[[[[[[[[[[[[[[[[[[[[[[[[[[[[[[[[[[[[[[[[[[[[[[[[[[[[[[[[[[[[[[[[[[[[[[[[[[[[[[[[[[[[[[[[[[[[[[[[[[[[[[[[[[[[",
"[[[[[[[[[[[[[[[[[[[[[[[[[[[[[[[[[[[[[[[[[[[[[[[[[[[[[[[[[[[[[[[[[[[[[[[[[[[[[[[[[[[[[[[[[[[[[[[[[[[[[[[[[[[[[[[[[[[[[[[[[[[[[[[[",
"[[[[[[[[[[[[[[[[[[[[[[[[[[[[[[[[[[[[[[[[[[[[[[[[[[[[[[[[[[[[[[[[[[[[[[[[[[[[[[[[[[[[[[[[[[[[[[[[[[[[[[[[[[[[[[[[[[[[[[[[[[[[[[[[",
"[[[[[[[[[[[[[[[[[[[[[[[[[[[[[[[[[[[[[[[[[[[[[[[[[[[[[[[[[[[[[[[[[[[[[[[[[[[[[[[[[[[[[[[[[[[[[[[[[[[[[[[[[[[[[[[[[[[[[[[[[[[[[[[[",
"[[[[[[[[[[[[[[[[[[[[[[[[[[[[[[[[[[[[[[[[[[[[[[[[[[[[[[[[[[[[[[[[[[[[[[[[[[[[[[[[[[[[[[[[[[[[[[[[[[[[[[[[[[[[[[[[[[[[[[[[[[[[[[[[",
"[[[[[[[[[[[[[[[[[[[[[[[[[[[[[[[[[[[[[[[[[[[[[[[[[[[[[[[[[[[[[[[[[[[[[[[[[[[[[[[[[[[[[[[[[[[[[[[[[[[[[[[[[[[[[[[[[[[[[[[[[[[[[[[[",
"[[[[[[[[[[[[[[[[[[[[[[[[[[[[[[[[[[[[[[[[[[[[[[[[[[[[[[[[[[[[[[[[[[[[[[[[[[[[[[[[[[[[[[[[[[[[[[[[[[[[[[[[[[[[[[[[[[[[[[[[[[[[[[[[",
"[[[[[[[[[[[[[[[[[[[[[[[[[[[[[[[[[[[[[[[[[[[[[[[[[[[[[[[[[[[[[[[[[[[[[[[[[[[[[[[[[[[[[[[[[[[[[[[[[[[[[[[[[[[[[[[[[[[[[[[[[[[[[[[[",
"[[[[[[[[[[[[[[[[[[[[[[[[[[[[[[[[[[[[[[[[[[[[[[[[[[[[[[[[[[[[[[[[[[[[[[[[[[[[[[[[[[[[[[[[[[[[[[[[[[[[[[[[[[[[[[[[[[[[[[[[[[[[[[[[",
"[[[[[[[[[[[[[[[[[[[[[[[[[[[[[[[[[[[[[[[[[[[[[[[[[[[[[[[[[[[[[[[[[[[[[[[[[[[[[[[[[[[[[[[[[[[[[[[[[[[[[[[[[[[[[[[[[[[[[[[[[[[[[[[[",
"[[[[[[[[[[[[[[[[[[[[[[[[[[[[[[[[[[[[[[[[[[[[[[[[[[[[[/(//(/(/((/((/((////W[[[[[[[[[[[[[[[[[[[[[[[[[[[[[[[[[[[[[[[[[[[[[[[[[[[[[[",
"[[[[[[[[[[[[[[[[[[[[[[[[[[[[[[[[[[[[[[[[[[[[[[[[[E///(/(///(///(/////(/(/(////[[[[[[[[[[[[[[[[[[[[[[[[[[[[[[[[[[[[[[[[[[[[[[[[[[",
"[[[[[[[[[[[[[[[[[[[[[[[[[[[[[[[[[[[[[[[[[[[[[[/////////////////////////////(/////[[[[[[[[[[[[[[[[[[[[[[[[[[[[[[[[[[[[[[[[[[[[[[[",
"[[[[[[[[[[[[[[[[[[[[[[[[[[[[[[[[[[[[[[[[[[[~~/////////////////////////////////////QE[[[[[[[[[[[[[[[[[[[[[[[[[[[[[[[[[[[[[[[[[[[[",
"[[[[[[[[[[[[[[[[[[[[[[[[[[[[[[[[[[[[[[[[[~Q////////////////Q///Q////WW//QQ/Q/QQ//^//Q/[[[[[[[[[[[[[[[[[[[[[[[[[[[[[[[[[[[[[[[[[[",
"[[[[[[[[[[[[[[[[[[[[[[[[[[[[[[[[[[[[[[[EQQ/QQ//Q/Q~Q/Q//^//QQQQ///WW//WYaaVE^/^^/^QQ^Q~~[[[[[[[[[[[[[[[[[[[[[[[[[[[[[[[[[[[[[[[[",
"[[[[[[[[[[[[[[[[[[[[[[[[[[[[[[[[[[[[[EEQ^^QQQQQQPh0hT~QQ~^^^QQQQ/WWWWWWE=$%=,lL~~~~Q^^~~~E[[[[[[[[[[[[[[[[[[[[[[[[[[[[[[[[[[[[[[",
"[[[[[[[[[[[[[[[[[[[[[[[[[[[[[[[[[[[[E~WE~~~~^QQQl*%$;cQQ~~~~~~~~WWWWEWWC;-=*%$*>hT~E^E~~~~W[[[[[[[[[[[[[[[[[[[[[[[[[[[[[[[[[[[[[",
"[[[[[[[[[[[[[[[[[[[[[[[[[[[[[[[[[[R~EW~~E~~E^EEE~Du=&%wQEE^E~~EEE^E^WWEcacfw:-*&$-aHE^E^~WEEE[[[[[[[[[[[[[[[[[[[[[[[[[[[[[[[[[[[",
"[[[[[[[[[[[[[[[[[[[[[[[[[[[[[[[[[EEE!WEEEEE^EIEEEEEVw**VE~E~EEEWE^EEEEC7P/QTHve:=&%=aHEEEEEWEE[[[[[[[[[[[[[[[[[[[[[[[[[[[[[[[[[[",
"[[[[[[[[[[[[[[[[[[[[[[[[[[[[[[[LEEE~EEEHBI~B3*,hIEEEH5=w~EEEEEEEEEEEEELCQ'''_)EVh5-&$=aHEEEEEEER[[[[[[[[[[[[[[[[[[[[[[[[[[[[[[[[",
"[[[[[[[[[[[[[[[[[[[[[[[[[[[[[[LEEEEEEEh-wEEHHa*%;pHERN::IEEEEEEEEEEEEEEEQ'[[[]'_/Hc7-&=cEEEEEEEEE[[[[[[[[[[[[[[[[[[[[[[[[[[[[[[[",
"[[[[[[[[[[[[[[[[[[[[[[[[[[[[[TEEEEEEYEi%hEBEEH:-*&-5cBe7YEREEEEEIHVCVDHHE'[[[[[]]`/HfcCEYEYEEEREET[[[[[[[[[[[[[[[[[[[[[[[[[[[[[[",
"[[[[[[[[[[[[[[[[[[[[[[[[[[[[IEEEEEREYEJ:,5%echkh5:;:hDhvEYEYEYCq-*&%&*-wC_][[[[[[]'QIREEYERRTEYEYEY[[[[[[[[[[[[[[[[[[[[[[[[[[[[[",
"[[[[[[[[[[[[[[[[[[[[[[[[[[[IEIIEYYYYERYa;-=-:cEEPBcvHIcHRERERh;&*==---:aL`][[[[[[]/EEEERHVRERYYYRRRR[[[[[[[[[[[[[[[[[[[[[[[[[[[[",
"[[[[[[[[[[[[[[[[[[[[[[[[[[IEREEIREYRTRBfhaeehJ)'`)/))ExHRRRRz&-,ehhccvBL)'[[[[[['/IEIEIB--JYEYYRRRRRY[[[[[[[[[[[[[[[[[[[[[[[[[[[",
"[[[[[[[[[[[[[[[[[[[[[[[[[PEIRYYYIRRRCa6CEEYIE_'[[]]]'EwBYYILq,kHEQ))/))`']`)][[])REIEIE8%wYIRRRRYRYRYI[[[[[[[[[[[[[[[[[[[[[[[[[[",
"[[[[[[[[[[[[[[[[[[[[[[[[KEIEIEEIYYRB:;hE_''''][[[[[['Ew3BILc3VQ`']]]]]]]]`/IQ']`IHIEEIIe-aYRIYIYIRIYYII[[[[[[[[[[[[[[[[[[[[[[[[[",
"[[[[[[[[[[[[[[[[[[[[[[[HIREIIEIIYYr-;fI__QW)][[[[[[['/h-=:::v/'][[[[[[[]'/HII/')VCIIIIEc3=eIYIRRYIIRIRYJ[[[[[[[[[[[[[[[[[[[[[[[[",
"[[[[[[[[[[[[[[[[[[[[[[VRIIIYIIITIa*>kY)_EIIIW)[[[[[[]_C6-=:hE'][[[[[[[])EHhHTI)Eh5BIIIHvf::FIIIIIIIYIIIIL[[[[[[[[[[[[[[[[[[[[[[[",
"[[[[[[[[[[[[[[[[[[[[[[IIIIIIIITIH;6V~`_TLIIIIE)][[[[[')ZhfBE`][[[[[[['/EIH5BIIEEh-*;6uelBBHIIIIIIYIIIIYII[[[[[[[[[[[[[[[[[[[[[[[",
"[[[[[[[[[[[[[[[[[[[[[HIIIIIIIIIIHfC/''/JIIIIIIT_][[[[]'_/Q)`][[[[[[[]_HVKV,gIIIEC6;*&=3BHHIIIIILIIIIIIIIIP[[[[[[[[[[[[[[[[[[[[[[",
"[[[[[[[[[[[[[[[[[[[[VILIKIIILIIIIHI_'_IPIIIIIILR_[[[[[[]'''[[[[[[[[['/v5ea,6IIH~EBCVcBCPPIIIIIIIIIIIIIJIIIH[[[[[[[[[[[[[[[[[[[[[",
"[[[[[[[[[[[[[[[[[[[[LIIIIIIIIILILIIE`EHILILILLILW'[[[[[[[[[[[[[[[[[[')Bw0hw-ehc~/PLILLILIKIKILIJJJJJJIJJLIL[[[[[[[[[[[[[[[[[[[[[",
"[[[[[[[[[[[[[[[[[[[DIILIKIILILLIILLITPILIKLLIILKI)'[[[[[[[[[[[[[[[[[]`ECCHB,;,BEIPKKLLLIPKKKLLLILLLLJJJILLLP[[[[[[[[[[[[[[[[[[[[",
"[[[[[[[[[[[[[[[[[[vKPLLLKKLLIPLLIJLLJJLLPILPLLLLJY'[[[[[[[[[[[[[[[[[[]')))EvfcCJPPPPHJLLPPPPLLKKPPPLJJPPHPLLG[[[[[[[[[[[[[[[[[[[",
"[[[[[[[[[[[[[[[[[[HJPPLJKPHKPPPKPJPPPJPJPPPPVlacZJ_][[[[[[[[[[[[[[[[[[[]]]`^LHHLKLPHLKKHPKPPKHHPPPHLHPHPKPLHH[[[[[[[[[[[[[[[[[[[",
"[[[[[[[[[[[[[[[[[BHHPHHJPPPHHPHPPHHJHPHKPHg:*&%&>B)][[[[[[[[[[[[[[[[[[[[[[')IPLHHKHPPHPPHLHHJHPHKHKHKPHHHKHHHH[[[[[[[[[[[[[[[[[[",
"[[[[[[[[[[[[[[[[[DHKHHJHHHHHPHHHJHJHHHHHHHva>-;:6B('[[[[[[[[[[[[[[[[[[[[[['EHHHHHPLHPHHLHHHHHKHHHHPHHHHHHKHHHH[[[[[[[[[[[[[[[[[[",
"[[[[[[[[[[[[[[[[vHHHHJHHHPHHHHJHHHHHHHHHPHHHBcNvBI)][[[[[[[[[[[[[[[[[[[[[])BHHHHHHHHHHHHHHHHHHHHHHHHHHHHHHHHHHV[[[[[[[[[[[[[[[[[",
"[[[[[[[[[[[[[[[[CHHHHHHHHHHHHHHHHHHHHHHHHHCvB^)))_'[[[[[[[[[[[[[[[[[[[[[]'IVHHHHHHHHHHHHHHGHHHHHHHHHHHHHHHHHHHH[[[[[[[[[[[[[[[[[",
"[[[[[[[[[[[[[[[hAHHHHHHHHHHHHHHHHHHHHHHHHh33C)']]][[[[[[[[[[[[[[[[[[[[[]'QHHHDHDHa;;eHHCAHHHHHHHHHHHHHCHHHHHHGHV[[[[[[[[[[[[[[[[",
"[[[[[[[[[[[[[[[BHHHHHHHHHHFHHCHCHHHHHCHc:=;fU`[[[[[[[[[[[[[[[[[[[[[[[[['/HHADHHH6&%%$3HaeGHHHGGGCHHFHCHHHCHHCHHC[[[[[[[[[[[[[[[[",
"[[[[[[[[[[[[[[[HCHFHHCHCHHHFHHHHHFHCHGe-=:hL_][[[[[[[[[[[[[[[[[[[[[[[[])HCHHHHCw*;:;**hc-cAAAHGGGASHFHCHCHCHHCCH[[[[[[[[[[[[[[[[",
"[[[[[[[[[[[[[[cCDFCHCHHHCHCHHCCHCHCHH7*;aVQ`][[[[[[[[[[[[[[[[[[[[[[[[['IBHCHCHe-wmCv7=:7%,AVecGGGAGCZCHSHZDGDCHDV[[[[[[[[[[[[[[[",
"[[[[[[[[[[[[[[VHHCHZZCCHCHCCSCHSHCHCw=5BI)'][[[[[[[[[[[[[[[[[[[[[[[[[]`CwcHCh3-aH)_/Vw;:-&;;$*8NCHCHCHCACZCHCHCFC[[[[[[[[[[[[[[[",
"[[[[[[[[[[[[[[GADCCHCCSCCGDDGCHCCCCw=wC('][[[[[[[[[[[[[[[[[[[[[[[[[[[]`C:-5w:;fCI/(`(Gxgp:-==&%=eGCGAGAACDCAGCGCD[[[[[[[[[[[[[[[",
"[[[[[[[[[[[[[pCACHHCCHCHDGCDCGCCCSa=wH)'[[[[[[[[[[[[[[[[[[[[[[[[[[[[[[`Lw-&-wNCCCGGGIT!!INggs5-&$;gGCCCCCGCGCDCGCB[[[[[[[[[[[[[[",
"[[[[[[[[[[[[[vCACCHCCHCCGCCDCGCHZc:wH)'[[[[[[[[[[[[[[[[[[[[[[[[[[[[[[['/VepvCCCCCCCCDGG_`(//^Gh,=%wGCCACCCCCCCCCCV[[[[[[[[[[[[[[",
"[[[[[[[[[[[[[VCCCCCCCCCCCCCCCCCCB,7C)'[[[[[[[[[[[[[[[[[[[[[[[[[[[[[[[[]'~VCCCCCDCCCCCCGPEE!()(EBw6cCCCCVCCCCCCCCCV[[[[[[[[[[[[[[",
"[[[[[[[[[[[[[CCCCCCCCCCCCCCCCCCCe3V)'[[[[[[[[[[[[[[[[[[[[[[[[[[[[[[[[[]`GCCCCCCCGCCCCDCVCCCCCAACVCCCCCCACVCCVCCCVC[[[[[[[[[[[[[[",
"[[[[[[[[[[[[wCVCCVCCVCVCCVCVVCVc3v/'[[[[[[[[[[[[[[[[[[[[[[[[[[[[[[[[[]`EGVCCCVVCBCCCCBCCCVCCCCVCCCCBCCVVCCCVCCVVCCl[[[[[[[[[[[[[",
"[[[[[[[[[[[[gCVCCVCVCVCVcpwpcCVaaI`][[[[[[[[[[[[[[[[[[[[[[[[[[[[[[[[['ECCCCVCVCVCCCCBCCCVCCVBCCCCCCCCBBCCCVCCNCVVCN[[[[[[[[[[[[[",
"[[[[[[[[[[[[cVCCBCVCVVj>*$$$&,BwC_][[[[[[[[[[[[[[[[[[[[[[[[[[[[[[[[['/CVCBVVVCVVBCBCBVBCVVBCCBBCBBBgCBCCBBCBw;NVVVB[[[[[[[[[[[[[",
"[[[[[[[[[[[[NVVVCCBCVg;*=;;=**6hW'[[[[[[[[[[[[[[[[[[[[[[[[[[[[[[[[[]_GCBBBBCBBCBCBCCBCVVCBBCBCBVVBN>hVVVVVVVw*NVVVB[[[[[[[[[[[[[",
"[[[[[[[[[[[[BVVVBVCBc;-6gBNhw5aH_][[[[[[[[[[[[[[[[[[[[[[[[[[[[[[[[[`ECBVBCCBBCBVBVBBBBVVBCBVBBCVBCV>:BVBVVBVx:cVVBB[[[[[[[[[[[[[",
"[[[[[[[[[[[[BBVBVBBBs:xK/__/IHK)'[[[[[[[[[[[[[[[[[[[[[[[[[[[[[[[[[]_GBCBBBBBBBVBBBBBCBCBBBBBBVBBBBBg&5BBVBBBBxNBBVB[[[[[[[[[[[[[",
"[[[[[[[[[[[;BVBBBBCBgxE`']]'```][[[[[[[[[[[[[[[[[[[[[[[[[[[[[[[[[[`RBBBBCBBCCVBVCBBBBBBBVBCBBBBVBVCN:=gBBBBBBBBBBBB[[[[[[[[[[[[[",
"[[[[[[[[[[[;BBBBBBBBxK`][[[[[]][[[[[[[[[[[[[[[[[[[[[[[[[[[[[[[[[[]_VcBBBBBBNBBBBBBBBBBBBBBBBBBBBBBBBa*;BBBBBBNBBBBB[[[[[[[[[[[[[",
"[[[[[[[[[[[;BBBBBBBBB^'`)_[[[[[[[[[[[[[[[[[[[[[[[[[[[[[[[[[[[[[[[]^cNBBBBBBBNBBBBBBBBBBBBBBBBBBBBBBBc>&wBBBBBBBBBBB[[[[[[[[[[[[[",
"[[[[[[[[[[[-BBBBBBBBBGGCBV_[[[[[[[[[[[[[[[[[[[[[[[[[[[[[[[[[[[[[[`KhBBBBBNBNBBBNBBNBBBBNBBBNBNNBNBBBBg-;vNBBBNBBBBB[[[[[[[[[[[[[",
"[[[[[[[[[[[-BBBvcBBBBNBBBBL'[[[[[[[[[[[[[[[[[[[[[[[[[[[[[[[[[[[[]`VgBcBBBNBNBNNBBcBBBcBNNBBNBNNBNNNBNc5=aNvNvBmBmmB[[[[[[[[[[[[[",
"[[[[[[[[[[[=BNNN5:BNBBNmNBV_][[[[[[[[[[[[[[[[[[[[[[[[[[[[[[[[[[[])NhBmbBvvNNBmMBBvvNNNNNBvmNNNNNNNNNNNg-1nBvvbBvvbN[[[[[[[[[[[[[",
"[[[[[[[[[[[-vBNb7#:hvNNvmmBR][[[[[[[[[[[[[[[[[[[[[[[[[[[[[[[[[[[])xpNNmNvBNNmmvvmNvvBvvbvvvbvbmvvvvbvvc,;cvvvvxNvvv[[[[[[[[[[[[[",
"[[[[[[[[[[[-vvvva=%=5lvvvvvC'[[[[[[[[[[[[[[[[[[[[[[[[[[[[[[[[[[[](h7mmvvvvvcvmvcmmmmvvcbvNvcNvvvvvvvcvva:jvcc,ebvvv[[[[[[[[[[[[[",
"[[[[[[[[[[[-cvbch,-*$=,gvvvBE][[[[[][[[[[[[[[[[[[[[[[[[[[[[[[[[[]/g,xmcvcvcvcmcvcvvccvvccNcmcmcbvccmvvbxacvv5$aNccv[[[[[[[[[[[[[",
"[[[[[[[[[[[%cvcvcch3-&%&;avcC`]]'TZCCHE)[[[[[[[[[[[[[[[[[[[[[[[[])c:avvcvcvcvccbcvcvcvcccvvccvvccbccccvchvvce*acvcc[[[[[[[[[[[[[",
"[[[[[[[[[[[#hcvcvCEAh5-*%&,jcH))HBcvccvBL)[[[[[[[[[[[[[[[[[[[[[[])B:,cccccccccccccccccccccccccccccccccccccccv3hvccc[[[[[[[[[[[[[",
"[[[[[[[[[[[[avccvH)_/Hcw;=*:gcbvcccccccccBL][[[[[[[[[[[[[[[[[[[[[`L7=eccccccccccccccccccccccccccccccccccccccc7hccch[[[[[[[[[[[[[",
"[[[[[[[[[[[[accccZ`]'`/Kc8;-,gccccccccccccvH'[[[[[[[[[[[[[[[[[[[['/h--eccxcxccxcczclccckcxcxcxcxcccxccxcccxcc5hcxch[[[[[[[[[[[[[",
"[[[[[[[[[[[[7czccB_][[]`)Hh3;-7ccxccxcccccccC][[[[[[[[[[[[[[[[[[[]_H7*=wcxcjcckccczkckccxckccjccxckcchcjcchch7cccca[[[[[[[[[[[[[",
"[[[[[[[[[[[[;cckcB_][[[[]`QB5--hhclcchchchhccL][[[[[[[[[[[[[[[[[[[')B:*=5hcchca535aczzzcckcchcxhcjchchxchccl63llhh3[[[[[[[[[[[[[",
"[[[[[[[[[[[[%lhcxcQ][[[[[]'/V3=achcjhcchxcczlBE][[[[[[[[[[[[[[[[[[['Ev:*%*:5:=&%$$*7czczhcchchcchchccchchche-ehkzh[[[[[[[[[[[[[[",
"[[[[[[[[[[[[#hcllcI'[[[[[[]'Qx,hhchczchjchhchcvE][[[[[[[[[[[[[[[[[[]`EM5-*%%&*---=%-hkhkxhhchchcchchhchckze--hzcch[[[[[[[[[[[[[[",
"[[[[[[[[[[[[[qkzkkC'[[[[[[[]_VahchzzlzhzhkhhchhvH'[[[[[[[[[[[[[[[[[[]'/Hh7,:5ehBce;*wzhhhhchxhxhhhchhcjhha-=,hkhhe[[[[[[[[[[[[[[",
"[[[[[[[[[[[[[-hzhhB_][[[[[[])BhhhchhhxhkchchhchhhBI][[[[[[[[[[[[[[[[[]'_QIHHLE/))Ia=,hkchkhhhhhjlhhkhhkhh5;:yhhhh,[[[[[[[[[[[[[[",
"[[[[[[[[[[[[[%hhhhkW][[[[[['QchhhhchhkhzhzhchhchhhcBE][[[[[[[[[[[[[[[[[]''``']]]'_H,;hhhhhhkhhhhhhhhhhhhh:eehhhhh=[[[[[[[[[[[[[[",
"[[[[[[[[[[[[[OahkhhH'[[[[[[`LhhhhhhhhhhhhhhhhhhhhhhhhC/[[[[[[[[[[[[[[[[[[[[[[[[[['Ea;hhhhhhhhhhhhhhhhhhhawcahhhha[[[[[[[[[[[[[[[",
"[[[[[[[[[[[[[[:hhhhN_][[[[])BhhhhhhhhhhhhhhhhhhhhhhhhhcI][[[[[[[[[[[[[[[[[[[[[[[[])v;ehhhhhhhhfhhdhdhghhpvMahhgh5[[[[[[[[[[[[[[[",
"[[[[[[[[[[[[[[*hghhhI][[[['EhhhhhhhhhhhahhhfdhhghhahhhhhC][[[[[[[[[[[[[[[[[[[[[[[]`C:7hhghhgfhhhhhhhhhhsaBchhfhh-[[[[[[[[[[[[[[[",
"[[[[[[[[[[[[[[X5dhhhB'[[[[_Hadhhfhhfahhafshhahahhhhhahhhv'[[[[[[[[[[[[[[[[[[[[[[[[`L33hfhhhfdahhahfhahhshBhaahh7[[[[[[[[[[[[[[[[",
"[[[[[[[[[[[[[[[-hhahhE][[]_V7hahhhahhfhhghahhhahahaahaahc)][[[[[[[[[[[[[[[[[[[[[[['Ew:haahahshfdhshahsahhhhshas:[[[[[[[[[[[[[[[[",
"[[[[[[[[[[[[[[[@ehhaaB'[[])B:whaahahhaahhahasahdhafhfffhl/][[[[[[[[[[[[[[[[[[[[[[[]/h:aadfashaahahahhahaahahahe[[[[[[[[[[[[[[[[[",
"[[[[[[[[[[[[[[[[-dahhhE][]_V;-6aaahahahaahahahhahaahahaac/'[[[[[[[[[[[[[[[[[[[[[[[])v;eaahdsahaaaaaaasaawaaaha:[[[[[[[[[[[[[[[[[",
"[[[[[[[[[[[[[[[[@whaaaB'[[`H7*-hhaghahahahasagaahaaddaaav)][[[[[[[[[[[[[[[[[[[[[[[]_C:yadaaaaaaaafhasaseesafae[[[[[[[[[[[[[[[[[[",
"[[[[[[[[[[[[[[[[ -afaahL][')v:&;aaaaaaaaaaahaafaadaadaaaV_][[[[[[[[[[[[[[[[[[[[[[[['H<yaaafahaaaaaaaaaaaaaaaa:[[[[[[[[[[[[[[[[[[",
"[[[[[[[[[[[[[[[[[@7aaaac']]'El;%;aaaaaaaaaaaaaaaaaaaaaaaH_[[[[[[[[[[[[[[[[[[[[[[[[['J6eaaaaaaaaaaaaaaaaaaaaaw[[[[[[[[[[[[[[[[[[[",
"[[[[[[[[[[[[[[[[[ =aaaaaH'[]`If;%;aaaaaaaaaaaaaaaaaaaaaaI'[[[[[[[[[[[[[[[[[[[[[[[[['J6eaaaaaaaaaaaaaaaaaaaaa-[[[[[[[[[[[[[[[[[[[",
"[[[[[[[[[[[[[[[[[[o,aaaahE][]_La-*5aaaaaaaaapapaaapaaiahE'[[[[[[[[[[[[[[[[[[[[[[[[['L7waaaaaaaaaaaraaaeaaaa3[[[[[[[[[[[[[[[[[[[[",
"[[[[[[[[[[[[[[[[[[ %aaraaB'[[]`Hw==eaeaaaaraaapaeaaauawz/][[[[[[[[[[[[[[[[[[[[[[[[[`L6ereuauiaeaaaiaeaeaeay*[[[[[[[[[[[[[[[[[[[[",
"[[[[[[[[[[[[[[[[[[[ -aaaaeV][[')C3&:ataeeaaaeaataeaapaeV_][[[[[[[[[[[[[[[[[[[[[[[[['L7eaaeaeaeaeaeaeaaeayy;[[[[[[[[[[[[[[[[[[[[[",
"[[[[[[[[[[[[[[[[[[[ +:eeeaaH][['/c;=7ueaaaeeaeaeaeaeppeL'[[[[[[[[[[[[[[[[[[[[[[[[[[`L35ypuiyeaiutaeaeuuer3@[[[[[[[[[[[[[[[[[[[[[",
"[[[[[[[[[[[[[[[[[[[[ $eaeaehL][]'Ie*:eeaeeeaeaeaeatpe7aQ'[[[[[[[[[[[[[[[[[[[[[[[[[['I55aeuetaieaetaeppuew%[[[[[[[[[[[[[[[[[[[[[[",
"[[[[[[[[[[[[[[[[[[[[[ *uuerphE][])V:-eeeeaaeeteeeaee>,V)][[[[[[[[[[[[[[[[[[[[[[[[[['Ew2eaeaeeeieteepeeea-[[[[[[[[[[[[[[[[[[[[[[[",
"[[[[[[[[[[[[[[[[[[[[[  =eaerehE]]'Yr=6reeueeeeerere:=aE`[[[[[[[[[[[[[[[[[[[[[[[[[[['Ey,eereeereeeereeae-[[[[[[[[[[[[[[[[[[[[[[[[",
"[[[[[[[[[[[[[[[[[[[[[[ +:eueeihI]](v-,eereerreeeee,-wH)][[[[[[[[[[[[[[[[[[[[[[[[[[['/d;weeeeeeeeeeeeee:@[[[[[[[[[[[[[[[[[[[[[[[[",
"[[[[[[[[[[[[[[[[[[[[[[[ @:eeeeehY]_H,,eeeeeeeeeeew:qH)'[[[[[[[[[[[[[[[[[[[[[[[[[[[[])c;7eeeeeeeeeewew,#[[[[[[[[[[[[[[[[[[[[[[[[[",
"[[[[[[[[[[[[[[[[[[[[[[[[ @:weeewhL`I6<eeeeeeeeeee43V)'[[[[[[[[[[[[[[[[[[[[[[[[[[[[[])B;3eeeweeeweeew:#[[[[[[[[[[[[[[[[[[[[[[[[[[",
"[[[[[[[[[[[[[[[[[[[[[[[[[ @:wweeeevEe5eweweweeewe5v/'[[[[[[[[[[[[[[[[[[[[[[[[[[[[[[[`H>:we9ewewewee:#[[[[[[[[[[[[[[[[[[[[[[[[[[[",
"[[[[[[[[[[[[[[[[[[[[[[[[[  @:wwwwewfw7wweweww77e7eL`[[[[[[[[[[[[[[[[[[[[[[[[[[[[[[[['I9-6we7wwewww:#[[[[[[[[[[[[[[[[[[[[[[[[[[[[",
"[[[[[[[[[[[[[[[[[[[[[[[[[[  @;ewwwww77ww7qww7www5v)'[[[[[[[[[[[[[[[[[[[[[[[[[[[[[[[[]/h-,777ww87w:#[[[[[[[[[[[[[[[[[[[[[[[[[[[[[",
"[[[[[[[[[[[[[[[[[[[[[[[[[[[  O=qwww70w0877w777q67H`[[[[[[[[[[[[[[[[[[[[[[[[[[[[[[[[[')B,37777777=+[[[[[[[[[[[[[[[[[[[[[[[[[[[[[[",
"[[[[[[[[[[[[[[[[[[[[[[[[[[[[   *7w776w077777777<hQ'[[[[[[[[[[[[[[[[[[[[[[[[[[[[[[[[['Lf77777773* [[[[[[[[[[[[[[[[[[[[[[[[[[[[[[[",
"[[[[[[[[[[[[[[[[[[[[[[[[[[[[[[  #;77678w676777:<D_][[[[[[[[[[[[[[[[[[[[[[[[[[[[[[['Ece5767667;$[[[[[[[[[[[[[[[[[[[[[[[[[[[[[[[[[",
"[[[[[[[[[[[[[[[[[[[[[[[[[[[[[[[  O*76w7667766,-k/'[[[[[[[[[[[[[[[[[[[[[[[[[[[[[]'Ice66767666=+[[[[[[[[[[[[[[[[[[[[[[[[[[[[[[[[[[",
"[[[[[[[[[[[[[[[[[[[[[[[[[[[[[[[[   $;6666666756kE][[[[[[[[[[[[[[[[[[[[[[[[[[[]/Chw66676666;% [[[[[[[[[[[[[[[[[[[[[[[[[[[[[[[[[[[",
"[[[[[[[[[[[[[[[[[[[[[[[[[[[[[[[[[   o&,766666666ehCE`[[[[[[[[[[[[[[[[[[[[]_EChe657756756>*o [[[[[[[[[[[[[[[[[[[[[[[[[[[[[[[[[[[[",
"[[[[[[[[[[[[[[[[[[[[[[[[[[[[[[[[[[[   O*>66566657567acBIE)```]]]]]```)EIBka75462655765,*+ [[[[[[[[[[[[[[[[[[[[[[[[[[[[[[[[[[[[[[",
"[[[[[[[[[[[[[[[[[[[[[[[[[[[[[[[[[[[[    O*:5<555565545576wrrahhhhharew7564466<665655>*O  [[[[[[[[[[[[[[[[[[[[[[[[[[[[[[[[[[[[[[[",
"[[[[[[[[[[[[[[[[[[[[[[[[[[[[[[[[[[[[[[    O&;56255654465455545<44155555555252<5555;&O  [[[[[[[[[[[[[[[[[[[[[[[[[[[[[[[[[[[[[[[[[",
"[[[[[[[[[[[[[[[[[[[[[[[[[[[[[[[[[[[[[[[[    .$=:22<32<3322221<33<<32<31<3331311:=$.  [[[[[[[[[[[[[[[[[[[[[[[[[[[[[[[[[[[[[[[[[[[",
"[[[[[[[[[[[[[[[[[[[[[[[[[[[[[[[[[[[[[[[[[[     o#&-,33333333333333333333,33,-&#o   [[[[[[[[[[[[[[[[[[[[[[[[[[[[[[[[[[[[[[[[[[[[[",
"[[[[[[[[[[[[[[[[[[[[[[[[[[[[[[[[[[[[[[[[[[[[[     .O#%-;:>,3,33,,,3,,>:;=&#O.   [[[[[[[[[[[[[[[[[[[[[[[[[[[[[[[[[[[[[[[[[[[[[[[[",
"[[[[[[[[[[[[[[[[[[[[[[[[[[[[[[[[[[[[[[[[[[[[[[[        .oO+#$$$$$$$$+Oo.      [[[[[[[[[[[[[[[[[[[[[[[[[[[[[[[[[[[[[[[[[[[[[[[[[[",
"[[[[[[[[[[[[[[[[[[[[[[[[[[[[[[[[[[[[[[[[[[[[[[[[[[[                       [[[[[[[[[[[[[[[[[[[[[[[[[[[[[[[[[[[[[[[[[[[[[[[[[[[[[[",
"[[[[[[[[[[[[[[[[[[[[[[[[[[[[[[[[[[[[[[[[[[[[[[[[[[[[[[[[[           [[[[[[[[[[[[[[[[[[[[[[[[[[[[[[[[[[[[[[[[[[[[[[[[[[[[[[[[[[[[",
"[[[[[[[[[[[[[[[[[[[[[[[[[[[[[[[[[[[[[[[[[[[[[[[[[[[[[[[[[[[[[[[[[[[[[[[[[[[[[[[[[[[[[[[[[[[[[[[[[[[[[[[[[[[[[[[[[[[[[[[[[[[[[[[[",
"[[[[[[[[[[[[[[[[[[[[[[[[[[[[[[[[[[[[[[[[[[[[[[[[[[[[[[[[[[[[[[[[[[[[[[[[[[[[[[[[[[[[[[[[[[[[[[[[[[[[[[[[[[[[[[[[[[[[[[[[[[[[[[[[",
"[[[[[[[[[[[[[[[[[[[[[[[[[[[[[[[[[[[[[[[[[[[[[[[[[[[[[[[[[[[[[[[[[[[[[[[[[[[[[[[[[[[[[[[[[[[[[[[[[[[[[[[[[[[[[[[[[[[[[[[[[[[[[[[[",
"[[[[[[[[[[[[[[[[[[[[[[[[[[[[[[[[[[[[[[[[[[[[[[[[[[[[[[[[[[[[[[[[[[[[[[[[[[[[[[[[[[[[[[[[[[[[[[[[[[[[[[[[[[[[[[[[[[[[[[[[[[[[[[[[",
"[[[[[[[[[[[[[[[[[[[[[[[[[[[[[[[[[[[[[[[[[[[[[[[[[[[[[[[[[[[[[[[[[[[[[[[[[[[[[[[[[[[[[[[[[[[[[[[[[[[[[[[[[[[[[[[[[[[[[[[[[[[[[[[[",
"[[[[[[[[[[[[[[[[[[[[[[[[[[[[[[[[[[[[[[[[[[[[[[[[[[[[[[[[[[[[[[[[[[[[[[[[[[[[[[[[[[[[[[[[[[[[[[[[[[[[[[[[[[[[[[[[[[[[[[[[[[[[[[[[",
"[[[[[[[[[[[[[[[[[[[[[[[[[[[[[[[[[[[[[[[[[[[[[[[[[[[[[[[[[[[[[[[[[[[[[[[[[[[[[[[[[[[[[[[[[[[[[[[[[[[[[[[[[[[[[[[[[[[[[[[[[[[[[[[[",
"[[[[[[[[[[[[[[[[[[[[[[[[[[[[[[[[[[[[[[[[[[[[[[[[[[[[[[[[[[[[[[[[[[[[[[[[[[[[[[[[[[[[[[[[[[[[[[[[[[[[[[[[[[[[[[[[[[[[[[[[[[[[[[[[",
"[[[[[[[[[[[[[[[[[[[[[[[[[[[[[[[[[[[[[[[[[[[[[[[[[[[[[[[[[[[[[[[[[[[[[[[[[[[[[[[[[[[[[[[[[[[[[[[[[[[[[[[[[[[[[[[[[[[[[[[[[[[[[[[[",
"[[[[[[[[[[[[[[[[[[[[[[[[[[[[[[[[[[[[[[[[[[[[[[[[[[[[[[[[[[[[[[[[[[[[[[[[[[[[[[[[[[[[[[[[[[[[[[[[[[[[[[[[[[[[[[[[[[[[[[[[[[[[[[[["
};
