/* XPM */
static char *ccc_large[] = {
/* columns rows colors chars-per-pixel */
"128 128 62 1",
"  c #000000",
". c #0B0B0B",
"X c #121212",
"o c #191919",
"O c #232323",
"+ c #2C2C2C",
"@ c #343434",
"# c #3A3A3A",
"$ c #444343",
"% c #4C4C4C",
"& c #515151",
"* c #5C5C5C",
"= c #605E5E",
"- c #646464",
"; c #6C6C6C",
": c #6E706E",
"> c #747474",
", c #787778",
"< c #7C7C7C",
"1 c #838383",
"2 c #8C8C8C",
"3 c #959595",
"4 c #989797",
"5 c #979897",
"6 c #979898",
"7 c #9C9C9C",
"8 c #A09F9F",
"9 c #A0A09F",
"0 c #9F9FA0",
"q c #9FA0A0",
"w c #A4A4A4",
"e c #A8A7A7",
"r c #A7A8A7",
"t c #A8A8A7",
"y c #A8A7A8",
"u c #A7A8A8",
"i c #ACACAB",
"p c #B0B0AF",
"a c #B0AFB0",
"s c #B3B3B3",
"d c #B8B7B7",
"f c #B7B8B7",
"g c #B8B8B7",
"h c #B7B7B8",
"j c #B8B7B8",
"k c #B7B8B8",
"l c #BBBBBB",
"z c #BFC0BF",
"x c #C0BFC0",
"c c #C4C4C4",
"v c #C8C7C7",
"b c #C7C8C7",
"n c #C8C8C7",
"m c #C8C7C8",
"M c #CCCCCC",
"N c #D1CFCF",
"B c #CFD0CF",
"V c #CFCFD0",
"C c #D0CFD0",
"Z c #CFD0D0",
"A c #D1D1D1",
"S c None",
/* pixels */
"SSSSSSSSSSSSSSSSSSSSSSSSSSSSSSSSSSSSSSSSSSSSSSSSSSSSSSSSSSSSSSSSSSSSSSSSSSSSSSSSSSSSSSSSSSSSSSSSSSSSSSSSSSSSSSSSSSSSSSSSSSSSSSSS",
"SSSSSSSSSSSSSSSSSSSSSSSSSSSSSSSSSSSSSSSSSSSSSSSSSSSSSSSSSSSSSSSSSSSSSSSSSSSSSSSSSSSSSSSSSSSSSSSSSSSSSSSSSSSSSSSSSSSSSSSSSSSSSSSS",
"SSSSSSSSSSSSSSSSSSSSSSSSSSSSSSSSSSSSSSSSSSSSSSSSSSSSSSSSSSSSSSSSSSSSSSSSSSSSSSSSSSSSSSSSSSSSSSSSSSSSSSSSSSSSSSSSSSSSSSSSSSSSSSSS",
"SSSSSSSSSSSSSSSSSSSSSSSSSSSSSSSSSSSSSSSSSSSSSSSSSSSSSSSSSSSSSSSSSSSSSSSSSSSSSSSSSSSSSSSSSSSSSSSSSSSSSSSSSSSSSSSSSSSSSSSSSSSSSSSS",
"SSSSSSSSSSSSSSSSSSSSSSSSSSSSSSSSSSSSSSSSSSSSSSSSSSSSSSSSSSSSSSSSSSSSSSSSSSSSSSSSSSSSSSSSSSSSSSSSSSSSSSSSSSSSSSSSSSSSSSSSSSSSSSSS",
"SSSSSSSSSSSSSSSSSSSSSSSSSSSSSSSSSSSSSSSSSSSSSSSSSSSSSSSSSSSSSSSSSSSSSSSSSSSSSSSSSSSSSSSSSSSSSSSSSSSSSSSSSSSSSSSSSSSSSSSSSSSSSSSS",
"SSSSSSSSSSSSSSSSSSSSSSSSSSSSSSSSSSSSSSSSSSSSSSSSSSSSSSSSSSSSSSSSSSSSSSSSSSSSSSSSSSSSSSSSSSSSSSSSSSSSSSSSSSSSSSSSSSSSSSSSSSSSSSSS",
"SSSSSSSSSSSSSSSSSSSSSSSSSSSSSSSSSSSSSSSSSSSSSSSSSSSSSSSSSSSSSSSSSSSSSSSSSSSSSSSSSSSSSSSSSSSSSSSSSSSSSSSSSSSSSSSSSSSSSSSSSSSSSSSS",
"SSSSSSSSSSSSSSSSSSSSSSSSSSSSSSSSSSSSSSSSSSSSSSSSSSSSSSSSSSSSSSSSSSSSSSSSSSSSSSSSSSSSSSSSSSSSSSSSSSSSSSSSSSSSSSSSSSSSSSSSSSSSSSSS",
"SSSSSSSSSSSSSSSSSSSSSSSSSSSSSSSSSSSSSSSSSSSSSSSSSSSSSSSSSSSSSSSSSSSSSSSSSSSSSSSSSSSSSSSSSSSSSSSSSSSSSSSSSSSSSSSSSSSSSSSSSSSSSSSS",
"SSSSSSSSSSSSSSSSSSSSSSSSSSSSSSSSSSSSSSSSSSSSSSSSSSSSSSSSSSSSSSSSSSSSSSSSSSSSSSSSSSSSSSSSSSSSSSSSSSSSSSSSSSSSSSSSSSSSSSSSSSSSSSSS",
"SSSSSSSSSSSSSSSSSSSSSSSSSSSSSSSSSSSSSSSSSSSSSSSSSSSSSSSSSSSSSSSSSSSSSSSSSSSSSSSSSSSSSSSSSSSSSSSSSSSSSSSSSSSSSSSSSSSSSSSSSSSSSSSS",
"SSSSSSSSSSSSSSSSSSSSSSSSSSSSSSSSSSSSSSSSSSSSSSSSSSSSSSSSSSSSSSSSSSSSSSSSSSSSSSSSSSSSSSSSSSSSSSSSSSSSSSSSSSSSSSSSSSSSSSSSSSSSSSSS",
"SSSSSSSSSSSSSSSSSSSSSSSSSSSSSSSSSSSSSSSSSSSSSSSSSSSSSSSSSSSSSSSSSSSSSSSSSSSSSSSSSSSSSSSSSSSSSSSSSSSSSSSSSSSSSSSSSSSSSSSSSSSSSSSS",
"SSSSSSSSSSSSSSSSSSSSSSSSSSSSSSSSSSSSSSSSSSSSSSSSSSSSSSSSSSSSSSSSSSSSSSSSSSSSSSSSSSSSSSSSSSSSSSSSSSSSSSSSSSSSSSSSSSSSSSSSSSSSSSSS",
"SSSSSSSSSSSSSSSSSSSSSSSSSSSSSSSSSSSSSSSSSSSSSSSSSSSSSSSSSSSSSSSSSSSSSSSSSSSSSSSSSSSSSSSSSSSSSSSSSSSSSSSSSSSSSSSSSSSSSSSSSSSSSSSS",
"SSSSSSSSSSSSSSSSSSSSSSSSSSSSSSSSSSSSSSSSSSSSSSSSSSSSSSSSSSSSSSSSSSSSSSSSSSSSSSSSSSSSSSSSSSSSSSSSSSSSSSSSSSSSSSSSSSSSSSSSSSSSSSSS",
"SSSSSSSSSSSSSSSSSSSSSSSSSSSSSSSSSSSSSSSSSSSSSSSSSSSSSSSSSSSSSSSSSSSSSSSSSSSSSSSSSSSSSSSSSSSSSSSSSSSSSSSSSSSSSSSSSSSSSSSSSSSSSSSS",
"SSSSSSSSSSSSSSSSSSSSSSSSSSSSSSSSSSSSSSSSSSSSSSSSSSSSSSSSSSSSSSSSSSSSSSSSSSSSSSSSSSSSSSSSSSSSSSSSSSSSSSSSSSSSSSSSSSSSSSSSSSSSSSSS",
"SSSSSSSSSSSSSSSSSSSSSSSSSSSSSSSSSSSSSSSSSSSSSSSSSSSSSSSSSSSSSSSSSSSSSSSSSSSSSSSSSSSSSSSSSSSSSSSSSSSSSSSSSSSSSSSSSSSSSSSSSSSSSSSS",
"SSSSSSSSSSSSSSSSSSSSSSSSSSSSSSSSSSSSSSSSSSSSSSSSSSSSSSSSSSSSSSSSSSSSSSSSSSSSSSSSSSSSSSSSSSSSSSSSSSSSSSSSSSSSSSSSSSSSSSSSSSSSSSSS",
"SSSSSSSSSSSSSSSSSSSSSSSSSSSSSSSSSSSSSSSSSSSSSSSSSSSSSSSSSSSSSSSSSSSSSSSSSSSSSSSSSSSSSSSSSSSSSSSSSSSSSSSSSSSSSSSSSSSSSSSSSSSSSSSS",
"SSSSSSSSSSSSSSSSSSSSSSSSSSSSSSSSSSSSSSSSSSSSSSSSSSSSSSSSSSSSSSSSSSSSSSSSSSSSSSSSSSSSSSSSSSSSSSSSSSSSSSSSSSSSSSSSSSSSSSSSSSSSSSSS",
"SSSSSSSSSSSSSSSSSSSSSSSSSSSSSSSSSSSSSSSSSSSSSSSSSSSSSSSSSSSSSSSSSSSSSSSSSSSSSSSSSSSSSSSSSSSSSSSSSSSSSSSSSSSSSSSSSSSSSSSSSSSSSSSS",
"SSSSSSSSSSSSSSSSSSSSSSSSSSSSSSSSSSSSSSSSSSSSSSSSSSSSSSSSSSSSSSSSSSSSSSSSSSSSSSSSSSSSSSSSSSSSSSSSSSSSSSSSSSSSSSSSSSSSSSSSSSSSSSSS",
"SSSSSSSSSSSSSSSSSSSSSSSSSSSSSSSSSSSSSSSSSSSSSSSSSSSSSSSSSSSSSSSSSSSSSSSSSSSSSSSSSSSSSSSSSSSSSSSSSSSSSSSSSSSSSSSSSSSSSSSSSSSSSSSS",
"SSSSSSSSSSSSSSSSSSSSSSSSSSSSSSSSSSSSSSSSSSSSSSSSSSSSSSSSSSSSSSSSSSSSSSSSSSSSSSSSSSSSSSSSSSSSSSSSSSSSSSSSSSSSSSSSSSSSSSSSSSSSSSSS",
"SSSSSSSSSSSSSSSSSSSSSSSSSSSSSSSSSSSSSSSSSSSSSSSSSSSSSSSSSSSSSSSSSSSSSSSSSSSSSSSSSSSSSSSSSSSSSSSSSSSSSSSSSSSSSSSSSSSSSSSSSSSSSSSS",
"SSSSSSSSSSSSSSSSSSSSSSSSSSSSSSSSSSSSSSSSSSSSSSSSSSSSSSSSSSSSSSSSSSSSSSSSSSSSSSSSSSSSSSSSSSSSSSSSSSSSSSSSSSSSSSSSSSSSSSSSSSSSSSSS",
"SSSSSSSSSSSSSSSSSSSSSSSSSSSSSSSSSSSSSSSSSSSSSSSSSSSSSSSSSSSSSSSSSSSSSSSSSSSSSSSSSSSSSSSSSSSSSSSSSSSSSSSSSSSSSSSSSSSSSSSSSSSSSSSS",
"SSSSSSSSSSSSSSSSSSSSSSSSSSSSSSSSSSSSSSSSSSSSSSSSSSSSSSSSSSSSSSSSSSSSSSSSSSSSSSSSSSSSSSSSSSSSSSSSSSSSSSSSSSSSSSSSSSSSSSSSSSSSSSSS",
"SSSSSSSSSSSSSSSSSSSSSSSSSSSSSSSSSSSSSSSSSSSSSSSSSSSSSSSSSSSSSSSSSSSSSSSSSSSSSSSSSSSSSSSSSSSSSSSSSSSSSSSSSSSSSSSSSSSSSSSSSSSSSSSS",
"SSSSSSSSSSSSSSSSSSSSSSSSSSSSSSSSSSSSSSSSSSSSSSSSSSSSSSSSSSSSSSSSSSSSSSSSSSSSSSSSSSSSSSSSSSSSSSSSSSSSSSSSSSSSSSSSSSSSSSSSSSSSSSSS",
"SSSSSSSSSSSSSSSSSSSSSSSSSSSSSSSSSSSSSSSSSSSSSSSSSSSSSSSSSSSSSSSSSSSSSSSSSSSSSSSSSSSSSSSSSSSSSSSSSSSSSSSSSSSSSSSSSSSSSSSSSSSSSSSS",
"SSSSSSSSSSSSSSSSSSSSSSSSSSSSSSSSSSSSSSSSSSSSSSSSSSSSSSSSSSSSSSSSSSSSSSSSSSSSSSSSSSSSSSSSSSSSSSSSSSSSSSSSSSSSSSSSSSSSSSSSSSSSSSSS",
"SSSSSSSSSSSSSSSSSSSSSSSSSSSSSSSSSSSSSSSSSSSSSSSSSSSSSSSSSSSSSSSSSSSSSSSSSSSSSSSSSSSSSSSSSSSSSSSSSSSSSSSSSSSSSSSSSSSSSSSSSSSSSSSS",
"SSSSSSSSSSSSSSSSSSSSSSSSSSSSSSSSSSSSSSSSSSSSSSSSSSSSSSSSSSSSSSSSSSSSSSSSSSSSSSSSSSSSSSSSSSSSSSSSSSSSSSSSSSSSSSSSSSSSSSSSSSSSSSSS",
"SSSSSSSSSSSSSSSSSSSSSSSSSSSSSSSSSSSSSSSSSSSSSSSSSSSSSSSSSSSSSSSSSSSSSSSSSSSSSSSSSSSSSSSSSSSSSSSSSSSSSSSSSSSSSSSSSSSSSSSSSSSSSSSS",
"SSSSSSSSSSSSSSSSSSSSSSSSSSSSSSSSSSSSSSSSSSSSSSSSSSSSAAAAAASSSSSSSSSSSAAAAAAAAAAAAAAAAAAAAAAAAAAAAAAAAASSSSSSSSSSSMAAAAASSSSSSSSS",
"SSSSSSSSSSSSSSSSSSSSSSSSSSSSSSSSSSSSSSSSSSSSSSSSSSSAAAAAAAAASSSSSSSSAAAAAAAAAAAAAAAAAAAAAAAAAAAAAAAAAAAASSSSSSSSAAAMMAACSSSSSSSS",
"SSSSSSSSSSSSSSSSSSSSSSSSSSSSSSSSSSSSSSSSSSSSSSSSSSAAAAAAAAAAMSSSSSSAAAAAAAAAAAAAAABAMZAMZZZAAZAAAAAAVAMASSSSSSSAAjSSSSlMZSSSSSSS",
"SSSSSSSSSSSSSSSSSSSSSSSSSSSSSSSSSSSSSSSSSSSSSSSSSMAAZVAAMAVAZSSSSSMACZAMZZMAMVAAAAAAAANAZZMAAMMAAAMNVVAZMSSSSSMMuSSSSSSSMMSSSSSS",
"SSSSSSSSSSSSSSSSSSSSSSSSSSSSSSSSSSSSSSSSSSSSSSSSMVMVMAVAAMAVVnSSSSAMMAMAMZVMCAMMAMBMMAMBMZVMMMAAAMNMVVVMMcSSSSMlSSSSSSSScMSSSSSS",
"SSSSSSSSSSSSSSSSSSSSSSSSSSSSSSSSSSSSSSSSSSSSSSSMVMVVAMMMAMMVMnSSScMAVMMMVMMVMMMZBBMNVMMMVMMVMCMMMAMMMMMMMcSSSxMwSSSSSSSSwncSSSSS",
"SSSSSSSSSSSSSSSSSSSSSSSSSSSSSSSSSSSSSSSSSSSSSSMMMMVMMMMMMMMMMcSSShMMMMMMMMMMMMMMMMMMMMMMMMMMMMMMMMMMnMMMMcSSSlMSSSSSSSSSSnjSSSSS",
"SSSSSSSSSSSSSSSSSSSSSSSSSSSSSSSSSSSSSSSSSSSSSMMMMMMMMMMMMMMMMcSSSuMMMMMMMMMbMMmMMnMMMnMMmMmMMnMMMnMMnMMMnlSSSln7SSSSSSSS7njSSSSS",
"SSSSSSSSSSSSSSSSSSSSSSSSSSSSSSSSSSSSSSSSSSSSbMnMMnMMMMMnMMnMMxSSS,bMMMnnbMbMbbMmbMMmnMnnbMbMbmMnnnMbMmnnniSSSjnlSSSSSSSSjnsSSSSS",
"SSSSSSSSSSSSSSSSSSSSSSSSSSSSSSSSSSSSSSSSSSSbnnnbmMbnbmmMnnnnbxSSSSjmmnnnbMbmmmbmmmnbmnMnmMbmmbnnnMmmmmbmcSSSSsnmiSSSSSS7mnsSSSSS",
"SSSSSSSSSSSSSSSSSSSSSSSSSSSSSSSSSSSSSSSSSScnnnbbnMbbmbbmnnnnblSSSS,cnnnnbmbmmmmcvvcnnnnbmnnmnncncmncnncc7SSSSscccjSSSSucmcpSSSSS",
"SSSSSSSSSSSSSSSSSSSSSSSSSSSSSSSSSSSSSSSSScbmmmcmcmbcmccmcbmcmlSSSSS<lcmccmcccbmbccmccmbcccmmccmccmccccc3SSSSSsccvcccclcccciSSSSS",
"SSSSSSSSSSSSSSSSSSSSSSSSSSSSSSSSSSSSSSSSccccccmccmcmmccmcccccjSSSSS.&wjcccccccccccccccccccccccccccccle:SSSSSSicccccccccccciSSSSS",
"SSSSSSSSSSSSSSSSSSSSSSSSSSSSSSSSSSSSSSScccccccccccccccccccccclSSSSSS .@%&&&&&-qcccccccccczccl,%&&&&&#oSSSSSSSicccccccczcccuSSSSS",
"SSSSSSSSSSSSSSSSSSSSSSSSSSSSSSSSSSSSSSccccccccccccccccccccccclSSSSSSS         *ccxccxcczcccz<.      SSSSSSSSSuccclxclczccceSSSSS",
"SSSSSSSSSSSSSSSSSSSSSSSSSSSSSSSSSSSSSccxczxcczcczczczcczzcxccjSSSSSSSSSS      &lczlczczczzzz-    SSSSSSSSSSSSecllcczzzxclleSSSSS",
"SSSSSSSSSSSSSSSSSSSSSSSSSSSSSSSSSSSSlclcccczxlczxxcxxczzzzzczsSSSSSSSSSSSSSSS &lzcccxzzzxzzx;SSSSSSSSSSSSSSSSelcczzcxclzzlwSSSSS",
"SSSSSSSSSSSSSSSSSSSSSSSSSSSSSSSSSSSlclclzzlxxzlclxzzlzlxclxlzfSSSSSSSSSSSSSSSS*lxlllxlzzxlxl>SSSSSSSSSSSSSSSSelzlllllllxzlwSSSSS",
"SSSSSSSSSSSSSSSSSSSSSSSSSSSSSSSSSSlzcllclcllzzllzzxxzlzzlclzlgSSSSSSSSSSSSSSSS*jlzlzlzzlzlzl<SSSSSSSSSSSSSSSSellllllllllllwSSSSS",
"SSSSSSSSSSSSSSSSSSSSSSSSSSSSSSSSSjlllzzlllcllzlzlllllllllllllsSSSSSSSSSSSSSSSSSlllllllllllllSSSSSSSSSSSSSSSSSwllllllllllllwSSSSS",
"SSSSSSSSSSSSSSSSSSSSSSSSSSSSSSSSlllllllllllllllllllllllllllllsSSSSSSSSSSSSSSSSSjllllllllllljSSSSSSSSSSSSSSSSSwjjllljllllljwSSSSS",
"SSSSSSSSSSSSSSSSSSSSSSSSSSSSSSSjlllljllljlljjllljlljljlljlljlsSSSSSSSSSSSSSSSSSllljjjjljjjljSSSSSSSSSSSSSSSSS8gjljgljjjjjj7SSSSS",
"SSSSSSSSSSSSSSSSSSSSSSSSSSSSSSkljjllfjjjljjjljjjlkljlfljjlljlsSSSSSSSSSSSSSSSSSjjjjljjjjjlffSSSSSSSSSSSSSSSSSwfjffffggfjjj7SSSSS",
"SSSSSSSSSSSSSSSSSSSSSSSSSSSSSsjjljjjjjjkjjjjljjfjkjjjfjjjjjjfpSSSSSSSSSSSSSSSSSfskjjfffgjjffSSSSSSSSSSSSSSSSSqsgfssffjsjss7SSSSS",
"SSSSSSSSSSSSSSSSSSSSSSSSSSSSsjfjjjjjffffjffffss7ssjkffksfsfjspSSSSSSSSSSSSSSSSSsjfjsskjfsfssSSSSSSSSSSSSSSSSS7fssffsjssffs7SSSSS",
"SSSSSSSSSSSSSSSSSSSSSSSSSSSsjjsjfsfsffsfffsffs:X<ffssssfsfssfiSSSSSSSSSSSSSSSSSfsfsdsssksfssSSSSSSSSSSSSSSSSS7ssssssssssss7SSSSS",
"SSSSSSSSSSSSSSSSSSSSSSSSSSsssssssssssssssssss;. ;ssssssssssssiSSSSSSSSSSSSSSSSSssssssssspssaSSSSSSSSSSSSSSSSS7ssssssssssss7SSSSS",
"SSSSSSSSSSSSSSSSSSSSSSSSSsssssssssssssssssss>.  ;ssssssssssssiSSSSSSSSSSSSSSSSSsspssspsssspsSSSSSSSSSSSSSSSSS7issssisisiis7SSSSS",
"SSSSSSSSSSSSSSSSSSSSSSSSssspsssssssassssspi;    ;ssaspssaasssuSSSSSSSSSSSSSSSSSssspsasaasaapSSSSSSSSSSSSSSSSS3isisisassass3SSSSS",
"SSSSSSSSSSSSSSSSSSSSSSSisiaspsisassapppspi;SSSSS>ispsiissaissuSSSSSSSSSSSSSSSSSippppaaaapapaSSSSSSSSSSSSSSSSS7sisisisiipii3SSSSS",
"SSSSSSSSSSSSSSSSSSSSSSssisisaaaapsaasissu;SSSSSS>ippsipaisisseSSSSSSSSSSSSSSSSSipaapppisaippSSSSSSSSSSSSSSSSS4isiisiiasipi3SSSSS",
"SSSSSSSSSSSSSSSSSSSSSpipsisippisipaiisiu-SSSSSSS,iiaaiipiiiiitSSSSSSSSSSSSSSSSSiiaiiiiiiaiiiSSSSSSSSSSSSSSSSS3iiiiiiiiiiiu3SSSSS",
"SSSSSSSSSSSSSSSSSSSSiiisiiiiippiipiiiiu-SSSSSSSS,iipippiiiisieSSSSSSSSSSSSSSSSSiiiiiiiiiiiiiSSSSSSSSSSSSSSSSS3iiiiiiiiuiii3SSSSS",
"SSSSSSSSSSSSSSSSSSSiiiiiiiiiiiiiiiiii7=SSSSSSSSS,iiiiiiiiiiiueSSSSSSSSSSSSSSSSSiiiiiiiiiiiiiSSSSSSSSSSSSSSSSS3uuiiuiiiiiiu3SSSSS",
"SSSSSSSSSSSSSSSSSSiiiiiuiiiiiiiiiiii3$SSSSSSSSSS,iiuiiiiuiiiieSSSSSSSSSSSSSSSSSuuiuiuiuuiiuuSSSSSSSSSSSSSSSSS3euuuueuuuuuu3SSSSS",
"SSSSSSSSSSSSSSSSSuiiuiiiiuuiiuuiuiu3$SSS13SSSSSS,uuuuuuuuuuuewSSSSSSSSSSSSSSSSSuuuuiuuueuuueSSSSSSSSSSSSSSSSS3eruuueuuueuu2SSSSS",
"SSSSSSSSSSSSSSSSuuuuuueeuuuuuuiuuu3$SS<euuuwSSSS,uuuuuuuuuueewSSSSSSSSSSSSSSSSSerruuyeeeeeewSSSSSSSSSSSSSSSSS3eeueeeuueeue2SSSSS",
"SSSSSSSSSSSSSSSeyyuuyeeeeuuruueeu3$SS,eueuueeSSS>rreeetyweeee7SSSSSSSSSSSSSSSSSeeweeeeeeeeeeSSSSSSSSSSSSSSSSS2wweeeweeweee2SSSSS",
"SSSSSSSSSSSSSSweeeeweeeereweeeee3$SSS7eeeewee7SS>ewweewewwewewSSSSSSSSSSSSSSSSSeewewwewwewwwSSSSSSSSSSSSSSSSS3wwwwwwwwwwww2SSSSS",
"SSSSSSSSSSSSSwwwwwweewwwwewewww2$SSSSwewwewwwwSS>wwwwwwwwwwww7SSSSSSSSSSSSSSSSSwwwwwwwwwwwwwSSSSSSSSSSSSSSSSS2wwwwwwwwwwww2SSSSS",
"SSSSSSSSSSSSwewwwwwwwwwwwwwwww3#SSSSSwwwwwwww7SS;wwwwwwwwwwww7SSSSSSSSSSSSSSSSSwwwwwwwww0ww0SSSSSSSSSSSSSSSSS2www8w8wwwwwq2SSSSS",
"SSSSSSSSSSSqwwwwwwwwwwwwwwwwq2#SSSSSS7wq7wwqw7SS;www9w8wwww7w7SSSSSSSSSSSSSSSSSw7wqqw7w7www7SSSSSSSSSSSSSSSSS2wq7w8w7w97w02SSSSS",
"SSSSSSSSSSwqww007www7ww0wqw72#SSSSSSS<ww7ww7w,SS;www0wwqww7w77SSSSSSSSSSSSSSSSSw7w7w87w7w0wwSSSSSSSSSSSSSSSSS17wqw770000871SSSSS",
"SSSSSSSSS70w7ww7wwqq999q7w82#SSSSSSSSS279qwq<SSS;070887w7qq777SSSSSSSSSSSSSSSSS7w7w77w7w7w77SSSSSSSSSSSSSSSSS2q7797w0778702SSSSS",
"SSSSSSSS30q8807w077w7w7w7w2@SSSSSSSSSSO-111*SSSS;07078787w7777SSSSSSSSSSSSSSSSS7707w7q797777SSSSSSSSSSSSSSSSS277w7777070772SSSSS",
"SSSSSSSS377q79778077078771@SSSSSSSSSSSS ...SSSSS;7777770777q77SSSSSSSSSSSSSSSSS7777777777777SSSSSSSSSSSSSSSSS17777777777771SSSSS",
"SSSSSSSS7777777q777777771SSSSSSSSSSSSSSSSSSSSSSS;7777777777773SSSSSSSSSSSSSSSSS7777777777777SSSSSSSSSSSSSSSSS17777777477771SSSSS",
"SSSSSSSS3777777777777771SSSSSSSSSSSSSSSSSSSSSSSS-7774777777733SSSSSSSSSSSSSSSSS3757577777737SSSSSSSSSSSSSSSSS17437574766371SSSSS",
"SSSSSSSS277337777557771SSSSSSSSSSSSSSSSSSSSSSSSS*5747575747772SSSSSSSSSSSSSSSSS2377747377373SSSSSSSSSSSSSSSSS>4457345444331SSSSS",
"SSSSSSSS;3757737737731SSSSSSSSSSSSSSSSSSSSSSSSSSS255554537333<SSSSSSSSSSSSSSSSS,333733333732SSSSSSSSSSSSSSSSS$343455555573SSSSSS",
"SSSSSSSSS23733737337<SSSSSSSSSSSSSSSSSSSSSSSSSSSS-73737353332SSSSSSSSSSSSSSSSSS#25333333333SSSSSSSSSSSSSSSSSSS>33334333331SSSSSS",
"SSSSSSSSS%333753333;SSSSSSSSSSSSSSSSSSSSSSSSSSSSSS;333333332SSSSSSSSSSSSSSSSSSSS&233333333,SSSSSSSSSSSSSSSSSSS+1333333331SSSSSSS",
"SSSSSSSSS #,333332-XSSSSSSSSSSSSSSSSSSSSSSSSSSSSSSo-2333331%SSSSSSSSSSSSSSSSSSSS $<333231-SSSSSSSSSSSSSSSSSSSSSO;223322,SSSSSSSS",
"SSSSSSSSSS X@&&&%+SSSSSSSSSSSSSSSSSSSSSSSSSSSSSSSS  +%%&%$SSSSSSSSSSSSSSSSSSSSSSS o$%&&%OSSSSSSSSSSSSSSSSSSSSSS  +%&&&#SSSSSSSSS",
"SSSSSSSSSSS      SSSSSSSSSSSSSSSSSSSSSSSSSSSSSSSSSS      SSSSSSSSSSSSSSSSSSSSSSSSS      SSSSSSSSSSSSSSSSSSSSSSSS      SSSSSSSSSS",
"SSSSSSSSSSSSSSSSSSSSSSSSSSSSSSSSSSSSSSSSSSSSSSSSSSSSSSSSSSSSSSSSSSSSSSSSSSSSSSSSSSSSSSSSSSSSSSSSSSSSSSSSSSSSSSSSSSSSSSSSSSSSSSSS",
"SSSSSSSSSSSSSSSSSSSSSSSSSSSSSSSSSSSSSSSSSSSSSSSSSSSSSSSSSSSSSSSSSSSSSSSSSSSSSSSSSSSSSSSSSSSSSSSSSSSSSSSSSSSSSSSSSSSSSSSSSSSSSSSS",
"SSSSSSSSSSSSSSSSSSSSSSSSSSSSSSSSSSSSSSSSSSSSSSSSSSSSSSSSSSSSSSSSSSSSSSSSSSSSSSSSSSSSSSSSSSSSSSSSSSSSSSSSSSSSSSSSSSSSSSSSSSSSSSSS",
"SSSSSSSSSSSSSSSSSSSSSSSSSSSSSSSSSSSSSSSSSSSSSSSSSSSSSSSSSSSSSSSSSSSSSSSSSSSSSSSSSSSSSSSSSSSSSSSSSSSSSSSSSSSSSSSSSSSSSSSSSSSSSSSS",
"SSSSSSSSSSSSSSSSSSSSSSSSSSSSSSSSSSSSSSSSSSSSSSSSSSSSSSSSSSSSSSSSSSSSSSSSSSSSSSSSSSSSSSSSSSSSSSSSSSSSSSSSSSSSSSSSSSSSSSSSSSSSSSSS",
"SSSSSSSSSSSSSSSSSSSSSSSSSSSSSSSSSSSSSSSSSSSSSSSSSSSSSSSSSSSSSSSSSSSSSSSSSSSSSSSSSSSSSSSSSSSSSSSSSSSSSSSSSSSSSSSSSSSSSSSSSSSSSSSS",
"SSSSSSSSSSSSSSSSSSSSSSSSSSSSSSSSSSSSSSSSSSSSSSSSSSSSSSSSSSSSSSSSSSSSSSSSSSSSSSSSSSSSSSSSSSSSSSSSSSSSSSSSSSSSSSSSSSSSSSSSSSSSSSSS",
"SSSSSSSSSSSSSSSSSSSSSSSSSSSSSSSSSSSSSSSSSSSSSSSSSSSSSSSSSSSSSSSSSSSSSSSSSSSSSSSSSSSSSSSSSSSSSSSSSSSSSSSSSSSSSSSSSSSSSSSSSSSSSSSS",
"SSSSSSSSSSSSSSSSSSSSSSSSSSSSSSSSSSSSSSSSSSSSSSSSSSSSSSSSSSSSSSSSSSSSSSSSSSSSSSSSSSSSSSSSSSSSSSSSSSSSSSSSSSSSSSSSSSSSSSSSSSSSSSSS",
"SSSSSSSSSSSSSSSSSSSSSSSSSSSSSSSSSSSSSSSSSSSSSSSSSSSSSSSSSSSSSSSSSSSSSSSSSSSSSSSSSSSSSSSSSSSSSSSSSSSSSSSSSSSSSSSSSSSSSSSSSSSSSSSS",
"SSSSSSSSSSSSSSSSSSSSSSSSSSSSSSSSSSSSSSSSSSSSSSSSSSSSSSSSSSSSSSSSSSSSSSSSSSSSSSSSSSSSSSSSSSSSSSSSSSSSSSSSSSSSSSSSSSSSSSSSSSSSSSSS",
"SSSSSSSSSSSSSSSSSSSSSSSSSSSSSSSSSSSSSSSSSSSSSSSSSSSSSSSSSSSSSSSSSSSSSSSSSSSSSSSSSSSSSSSSSSSSSSSSSSSSSSSSSSSSSSSSSSSSSSSSSSSSSSSS",
"SSSSSSSSSSSSSSSSSSSSSSSSSSSSSSSSSSSSSSSSSSSSSSSSSSSSSSSSSSSSSSSSSSSSSSSSSSSSSSSSSSSSSSSSSSSSSSSSSSSSSSSSSSSSSSSSSSSSSSSSSSSSSSSS",
"SSSSSSSSSSSSSSSSSSSSSSSSSSSSSSSSSSSSSSSSSSSSSSSSSSSSSSSSSSSSSSSSSSSSSSSSSSSSSSSSSSSSSSSSSSSSSSSSSSSSSSSSSSSSSSSSSSSSSSSSSSSSSSSS",
"SSSSSSSSSSSSSSSSSSSSSSSSSSSSSSSSSSSSSSSSSSSSSSSSSSSSSSSSSSSSSSSSSSSSSSSSSSSSSSSSSSSSSSSSSSSSSSSSSSSSSSSSSSSSSSSSSSSSSSSSSSSSSSSS",
"SSSSSSSSSSSSSSSSSSSSSSSSSSSSSSSSSSSSSSSSSSSSSSSSSSSSSSSSSSSSSSSSSSSSSSSSSSSSSSSSSSSSSSSSSSSSSSSSSSSSSSSSSSSSSSSSSSSSSSSSSSSSSSSS",
"SSSSSSSSSSSSSSSSSSSSSSSSSSSSSSSSSSSSSSSSSSSSSSSSSSSSSSSSSSSSSSSSSSSSSSSSSSSSSSSSSSSSSSSSSSSSSSSSSSSSSSSSSSSSSSSSSSSSSSSSSSSSSSSS",
"SSSSSSSSSSSSSSSSSSSSSSSSSSSSSSSSSSSSSSSSSSSSSSSSSSSSSSSSSSSSSSSSSSSSSSSSSSSSSSSSSSSSSSSSSSSSSSSSSSSSSSSSSSSSSSSSSSSSSSSSSSSSSSSS",
"SSSSSSSSSSSSSSSSSSSSSSSSSSSSSSSSSSSSSSSSSSSSSSSSSSSSSSSSSSSSSSSSSSSSSSSSSSSSSSSSSSSSSSSSSSSSSSSSSSSSSSSSSSSSSSSSSSSSSSSSSSSSSSSS",
"SSSSSSSSSSSSSSSSSSSSSSSSSSSSSSSSSSSSSSSSSSSSSSSSSSSSSSSSSSSSSSSSSSSSSSSSSSSSSSSSSSSSSSSSSSSSSSSSSSSSSSSSSSSSSSSSSSSSSSSSSSSSSSSS",
"SSSSSSSSSSSSSSSSSSSSSSSSSSSSSSSSSSSSSSSSSSSSSSSSSSSSSSSSSSSSSSSSSSSSSSSSSSSSSSSSSSSSSSSSSSSSSSSSSSSSSSSSSSSSSSSSSSSSSSSSSSSSSSSS",
"SSSSSSSSSSSSSSSSSSSSSSSSSSSSSSSSSSSSSSSSSSSSSSSSSSSSSSSSSSSSSSSSSSSSSSSSSSSSSSSSSSSSSSSSSSSSSSSSSSSSSSSSSSSSSSSSSSSSSSSSSSSSSSSS",
"SSSSSSSSSSSSSSSSSSSSSSSSSSSSSSSSSSSSSSSSSSSSSSSSSSSSSSSSSSSSSSSSSSSSSSSSSSSSSSSSSSSSSSSSSSSSSSSSSSSSSSSSSSSSSSSSSSSSSSSSSSSSSSSS",
"SSSSSSSSSSSSSSSSSSSSSSSSSSSSSSSSSSSSSSSSSSSSSSSSSSSSSSSSSSSSSSSSSSSSSSSSSSSSSSSSSSSSSSSSSSSSSSSSSSSSSSSSSSSSSSSSSSSSSSSSSSSSSSSS",
"SSSSSSSSSSSSSSSSSSSSSSSSSSSSSSSSSSSSSSSSSSSSSSSSSSSSSSSSSSSSSSSSSSSSSSSSSSSSSSSSSSSSSSSSSSSSSSSSSSSSSSSSSSSSSSSSSSSSSSSSSSSSSSSS",
"SSSSSSSSSSSSSSSSSSSSSSSSSSSSSSSSSSSSSSSSSSSSSSSSSSSSSSSSSSSSSSSSSSSSSSSSSSSSSSSSSSSSSSSSSSSSSSSSSSSSSSSSSSSSSSSSSSSSSSSSSSSSSSSS",
"SSSSSSSSSSSSSSSSSSSSSSSSSSSSSSSSSSSSSSSSSSSSSSSSSSSSSSSSSSSSSSSSSSSSSSSSSSSSSSSSSSSSSSSSSSSSSSSSSSSSSSSSSSSSSSSSSSSSSSSSSSSSSSSS",
"SSSSSSSSSSSSSSSSSSSSSSSSSSSSSSSSSSSSSSSSSSSSSSSSSSSSSSSSSSSSSSSSSSSSSSSSSSSSSSSSSSSSSSSSSSSSSSSSSSSSSSSSSSSSSSSSSSSSSSSSSSSSSSSS",
"SSSSSSSSSSSSSSSSSSSSSSSSSSSSSSSSSSSSSSSSSSSSSSSSSSSSSSSSSSSSSSSSSSSSSSSSSSSSSSSSSSSSSSSSSSSSSSSSSSSSSSSSSSSSSSSSSSSSSSSSSSSSSSSS",
"SSSSSSSSSSSSSSSSSSSSSSSSSSSSSSSSSSSSSSSSSSSSSSSSSSSSSSSSSSSSSSSSSSSSSSSSSSSSSSSSSSSSSSSSSSSSSSSSSSSSSSSSSSSSSSSSSSSSSSSSSSSSSSSS",
"SSSSSSSSSSSSSSSSSSSSSSSSSSSSSSSSSSSSSSSSSSSSSSSSSSSSSSSSSSSSSSSSSSSSSSSSSSSSSSSSSSSSSSSSSSSSSSSSSSSSSSSSSSSSSSSSSSSSSSSSSSSSSSSS",
"SSSSSSSSSSSSSSSSSSSSSSSSSSSSSSSSSSSSSSSSSSSSSSSSSSSSSSSSSSSSSSSSSSSSSSSSSSSSSSSSSSSSSSSSSSSSSSSSSSSSSSSSSSSSSSSSSSSSSSSSSSSSSSSS",
"SSSSSSSSSSSSSSSSSSSSSSSSSSSSSSSSSSSSSSSSSSSSSSSSSSSSSSSSSSSSSSSSSSSSSSSSSSSSSSSSSSSSSSSSSSSSSSSSSSSSSSSSSSSSSSSSSSSSSSSSSSSSSSSS",
"SSSSSSSSSSSSSSSSSSSSSSSSSSSSSSSSSSSSSSSSSSSSSSSSSSSSSSSSSSSSSSSSSSSSSSSSSSSSSSSSSSSSSSSSSSSSSSSSSSSSSSSSSSSSSSSSSSSSSSSSSSSSSSSS",
"SSSSSSSSSSSSSSSSSSSSSSSSSSSSSSSSSSSSSSSSSSSSSSSSSSSSSSSSSSSSSSSSSSSSSSSSSSSSSSSSSSSSSSSSSSSSSSSSSSSSSSSSSSSSSSSSSSSSSSSSSSSSSSSS"
};
