/* XPM */
static char *cmake[] = {
/* columns rows colors chars-per-pixel */
"128 128 61 1",
"  c #000000",
". c #0A0A0A",
"X c #343434",
"o c #3F3F3F",
"O c #434343",
"+ c #4B4B4B",
"@ c #545454",
"# c #5D5D5D",
"$ c #656565",
"% c #6C6C6C",
"& c #747474",
"* c #7E7E7E",
"= c #807F7F",
"- c #7F807F",
"; c #80807F",
": c #7F7F80",
"> c #807F80",
", c #7E8080",
"< c #838383",
"1 c #888787",
"2 c #878887",
"3 c #888887",
"4 c #878788",
"5 c #888788",
"6 c #878888",
"7 c #8B8B8B",
"8 c #908F8F",
"9 c #8F908F",
"0 c #90908F",
"q c #908F90",
"w c #8F9090",
"e c #939393",
"r c #989797",
"t c #979897",
"y c #989897",
"u c #979898",
"i c #9B9B9B",
"p c #A09F9F",
"a c #A0A09F",
"s c #9F9FA0",
"d c #A09FA0",
"f c #A4A4A3",
"g c #A8A7A7",
"h c #A7A8A7",
"j c #A8A8A7",
"k c #A7A7A8",
"l c #A8A7A8",
"z c #ACACAC",
"x c #B0AFAF",
"c c #AFB0AF",
"v c #B0AFB0",
"b c #B3B3B3",
"n c #B7B7B8",
"m c #BBBBBB",
"M c #C3C3C3",
"N c #CBCBCB",
"B c #D0CFCF",
"V c #CFD0D0",
"C c #D3D3D3",
"Z c #DADADA",
"A c None",
/* pixels */
"AAAAAAAAAAAAAAAAAAAAAAAAAAAAAAAAAAAAAAAAAAAAAAAAAAAAAAAAAAAAAAAAAAAAAAAAAAAAAAAAAAAAAAAAAAAAAAAAAAAAAAAAAAAAAAAAAAAAAAAAAAAAAAAA",
"AAAAAAAAAAAAAAAAAAAAAAAAAAAAAAAAAAAAAAAAAAAAAAAAAAAAAAAAAAAAAAAAAAAAAAAAAAAAAAAAAAAAAAAAAAAAAAAAAAAAAAAAAAAAAAAAAAAAAAAAAAAAAAAA",
"AAAAAAAAAAAAAAAAAAAAAAAAAAAAAAAAAAAAAAAAAAAAAAAAAAAAAAAAAAAAAAAAAAAAAAAAAAAAAAAAAAAAAAAAAAAAAAAAAAAAAAAAAAAAAAAAAAAAAAAAAAAAAAAA",
"AAAAAAAAAAAAAAAAAAAAAAAAAAAAAAAAAAAAAAAAAAAAAAAAAAAAAAAAAAAAAAAAAAAAAAAAAAAAAAAAAAAAAAAAAAAAAAAAAAAAAAAAAAAAAAAAAAAAAAAAAAAAAAAA",
"AAAAAAAAAAAAAAAAAAAAAAAAAAAAAAAAAAAAAAAAAAAAAAAAAAAAAAAAAAAAAAAAAAAAAAAAAAAAAAAAAAAAAAAAAAAAAAAAAAAAAAAAAAAAAAAAAAAAAAAAAAAAAAAA",
"AAAAAAAAAAAAAAAAAAAAAAAAAAAAAAAAAAAAAAAAAAAAAAAAAAAAAAAAAAAAAAAAAAAAAAAAAAAAAAAAAAAAAAAAAAAAAAAAAAAAAAAAAAAAAAAAAAAAAAAAAAAAAAAA",
"AAAAAAAAAAAAAAAAAAAAAAAAAAAAAAAAAAAAAAAAAAAAAAAAAAAAAAAAAAAAAAAAAAAAAAAAAAAAAAAAAAAAAAAAAAAAAAAAAAAAAAAAAAAAAAAAAAAAAAAAAAAAAAAA",
"AAAAAAAAAAAAAAAAAAAAAAAAAAAAAAAAAAAAAAAAAAAAAAAAAAAAAAAAAAAAAAAAZAAAAAAAAAAAAAAAAAAAAAAAAAAAAAAAAAAAAAAAAAAAAAAAAAAAAAAAAAAAAAAA",
"AAAAAAAAAAAAAAAAAAAAAAAAAAAAAAAAAAAAAAAAAAAAAAAAAAAAAAAAAAAAAAAZZZAAAAAAAAAAAAAAAAAAAAAAAAAAAAAAAAAAAAAAAAAAAAAAAAAAAAAAAAAAAAAA",
"AAAAAAAAAAAAAAAAAAAAAAAAAAAAAAAAAAAAAAAAAAAAAAAAAAAAAAAAAAAAAAAZZZAAAAAAAAAAAAAAAAAAAAAAAAAAAAAAAAAAAAAAAAAAAAAAAAAAAAAAAAAAAAAA",
"AAAAAAAAAAAAAAAAAAAAAAAAAAAAAAAAAAAAAAAAAAAAAAAAAAAAAAAAAAAAAACZZZZAAAAAAAAAAAAAAAAAAAAAAAAAAAAAAAAAAAAAAAAAAAAAAAAAAAAAAAAAAAAA",
"AAAAAAAAAAAAAAAAAAAAAAAAAAAAAAAAAAAAAAAAAAAAAAAAAAAAAAAAAAAAAAZZZZZAAAAAAAAAAAAAAAAAAAAAAAAAAAAAAAAAAAAAAAAAAAAAAAAAAAAAAAAAAAAA",
"AAAAAAAAAAAAAAAAAAAAAAAAAAAAAAAAAAAAAAAAAAAAAAAAAAAAAAAAAAAAANZZZZZZAAAAAAAAAAAAAAAAAAAAAAAAAAAAAAAAAAAAAAAAAAAAAAAAAAAAAAAAAAAA",
"AAAAAAAAAAAAAAAAAAAAAAAAAAAAAAAAAAAAAAAAAAAAAAAAAAAAAAAAAAAAAZZZZZZZAAAAAAAAAAAAAAAAAAAAAAAAAAAAAAAAAAAAAAAAAAAAAAAAAAAAAAAAAAAA",
"AAAAAAAAAAAAAAAAAAAAAAAAAAAAAAAAAAAAAAAAAAAAAAAAAAAAAAAAAAAANZZZZZZZZAAAAAAAAAAAAAAAAAAAAAAAAAAAAAAAAAAAAAAAAAAAAAAAAAAAAAAAAAAA",
"AAAAAAAAAAAAAAAAAAAAAAAAAAAAAAAAAAAAAAAAAAAAAAAAAAAAAAAAAAAACZCZZZZZZAAAAAAAAAAAAAAAAAAAAAAAAAAAAAAAAAAAAAAAAAAAAAAAAAAAAAAAAAAA",
"AAAAAAAAAAAAAAAAAAAAAAAAAAAAAAAAAAAAAAAAAAAAAAAAAAAAAAAAAAANZCZCZZZCZCAAAAAAAAAAAAAAAAAAAAAAAAAAAAAAAAAAAAAAAAAAAAAAAAAAAAAAAAAA",
"AAAAAAAAAAAAAAAAAAAAAAAAAAAAAAAAAAAAAAAAAAAAAAAAAAAAAAAAAAAZCZCZZCCZCCAAAAAAAAAAAAAAAAAAAAAAAAAAAAAAAAAAAAAAAAAAAAAAAAAAAAAAAAAA",
"AAAAAAAAAAAAAAAAAAAAAAAAAAAAAAAAAAAAAAAAAAAAAAAAAAAAAAAAAAMCCCCCCCZCZCCAAAAAAAAAAAAAAAAAAAAAAAAAAAAAAAAAAAAAAAAAAAAAAAAAAAAAAAAA",
"AAAAAAAAAAAAAAAAAAAAAAAAAAAAAAAAAAAAAAAAAAAAAAAAAAAAAAAAAACZCCCCCCCCCCZAAAAAAAAAAAAAAAAAAAAAAAAAAAAAAAAAAAAAAAAAAAAAAAAAAAAAAAAA",
"AAAAAAAAAAAAAAAAAAAAAAAAAAAAAAAAAAAAAAAAAAAAAAAAAAAAAAAAAMCCCCCCCCCCCCCCAAAAAAAAAAAAAAAAAAAAAAAAAAAAAAAAAAAAAAAAAAAAAAAAAAAAAAAA",
"AAAAAAAAAAAAAAAAAAAAAAAAAAAAAAAAAAAAAAAAAAAAAAAAAAAAAAAAACCCCCCCCCCCCCCCAAAAAAAAAAAAAAAAAAAAAAAAAAAAAAAAAAAAAAAAAAAAAAAAAAAAAAAA",
"AAAAAAAAAAAAAAAAAAAAAAAAAAAAAAAAAAAAAAAAAAAAAAAAAAAAAAAAMCCCBCCCCCCBCCVCNAAAAAAAAAAAAAAAAAAAAAAAAAAAAAAAAAAAAAAAAAAAAAAAAAAAAAAA",
"AAAAAAAAAAAAAAAAAAAAAAAAAAAAAAAAAAAAAAAAAAAAAAAAAAAAAAAAVNCBCCNCNCCCNVCVCAAAAAAAAAAAAAAAAAAAAAAAAAAAAAAAAAAAAAAAAAAAAAAAAAAAAAAA",
"AAAAAAAAAAAAAAAAAAAAAAAAAAAAAAAAAAAAAAAAAAAAAAAAAAAAAAAMNCCCNCCNCNCCCBCCNCAAAAAAAAAAAAAAAAAAAAAAAAAAAAAAAAAAAAAAAAAAAAAAAAAAAAAA",
"AAAAAAAAAAAAAAAAAAAAAAAAAAAAAAAAAAAAAAAAAAAAAAAAAAAAAAANBBNBCNCNNCNNNCNVBNAAAAAAAAAAAAAAAAAAAAAAAAAAAAAAAAAAAAAAAAAAAAAAAAAAAAAA",
"AAAAAAAAAAAAAAAAAAAAAAAAAAAAAAAAAAAAAAAAAAAAAAAAAAAAAAmCBBBBNCNCNVCNVNVNNCNAAAAAAAAAAAAAAAAAAAAAAAAAAAAAAAAAAAAAAAAAAAAAAAAAAAAA",
"AAAAAAAAAAAAAAAAAAAAAAAAAAAAAAAAAAAAAAAAAAAAAAAAAAAAAANNNNNNNNNNNBNNBNNNNNNAAAAAAAAAAAAAAAAAAAAAAAAAAAAAAAAAAAAAAAAAAAAAAAAAAAAA",
"AAAAAAAAAAAAAAAAAAAAAAAAAAAAAAAAAAAAAAAAAAAAAAAAAAAAAmNNNNNNNNNNNNNNNNNNNNNNAAAAAAAAAAAAAAAAAAAAAAAAAAAAAAAAAAAAAAAAAAAAAAAAAAAA",
"AAAAAAAAAAAAAAAAAAAAAAAAAAAAAAAAAAAAAAAAAAAAAAAAAAAAANNNNNNNNNNNNBNNNNNNVNNNAAAAAAAAAAAAAAAAAAAAAAAAAAAAAAAAAAAAAAAAAAAAAAAAAAAA",
"AAAAAAAAAAAAAAAAAAAAAAAAAAAAAAAAAAAAAAAAAAAAAAAAAAAAmNNNNNNNNNNNNNNNNNNNNNNNNAAAAAAAAAAAAAAAAAAAAAAAAAAAAAAAAAAAAAAAAAAAAAAAAAAA",
"AAAAAAAAAAAAAAAAAAAAAAAAAAAAAAAAAAAAAAAAAAAAAAAAAAAANNNNMNNNNNNNNNNNNNNNNNNNNAAAAAAAAAAAAAAAAAAAAAAAAAAAAAAAAAAAAAAAAAAAAAAAAAAA",
"AAAAAAAAAAAAAAAAAAAAAAAAAAAAAAAAAAAAAAAAAAAAAAAAAAAmNMNMNNNMNNMMNMMNNNNMNMNNNNAAAAAAAAAAAAAAAAAAAAAAAAAAAAAAAAAAAAAAAAAAAAAAAAAA",
"AAAAAAAAAAAAAAAAAAAAAAAAAAAAAAAAAAAAAAAAAAAAAAAAAAANMNNMNMMNMNNNNNNNMMNNNNMNMMAAAAAAAAAAAAAAAAAAAAAAAAAAAAAAAAAAAAAAAAAAAAAAAAAA",
"AAAAAAAAAAAAAAAAAAAAAAAAAAAAAAAAAAAAAAAAAAAAAAAAAAmMNNMNMNNMMNMNMMNMNMMNMMNMNMNAAAAAAAAAAAAAAAAAAAAAAAAAAAAAAAAAAAAAAAAAAAAAAAAA",
"AAAAAAAAAAAAAAAAAAAAAAAAAAAAAAAAAAAAAAAAAAAAAAAAAAMNMMNMMMNMMNMMMNMMNMMNMNMMNMMAAAAAAAAAAAAAAAAAAAAAAAAAAAAAAAAAAAAAAAAAAAAAAAAA",
"AAAAAAAAAAAAAAAAAAAAAAAAAAAAAAAAAAAAAAAAAAAAAAAAAmMMMNMMMNMMNMMNMNMMMMNMMNMMMNMMAAAAAAAAAAAAAAAAAAAAAAAAAAAAAAAAAAAAAAAAAAAAAAAA",
"AAAAAAAAAAAAAAAAAAAAAAAAAAAAAAAAAAAAAAAAAAAAAAAAAMMMMMMMMMMMMMMMMMMMMMMMMMMMMMMMAAAAAAAAAAAAAAAAAAAAAAAAAAAAAAAAAAAAAAAAAAAAAAAA",
"AAAAAAAAAAAAAAAAAAAAAAAAAAAAAAAAAAAAAAAAAAAAAAAAbMMMMMMMMMMMMMMMMMMMMMNMMMMMMMMMMAAAAAAAAAAAAAAAAAAAAAAAAAAAAAAAAAAAAAAAAAAAAAAA",
"AAAAAAAAAAAAAAAAAAAAAAAAAAAAAAAAAAAAAAAAAAAAAAAAMMMMMMMMMMMMMMMMMMMMMMMMMMMMMMMMMAAAAAAAAAAAAAAAAAAAAAAAAAAAAAAAAAAAAAAAAAAAAAAA",
"AAAAAAAAAAAAAAAAAAAAAAAAAAAAAAAAAAAAAAAAAAAAAAAbMMMMMMMmMMmMmMMmMMMMMMMMMMMMMmMMMMAAAAAAAAAAAAAAAAAAAAAAAAAAAAAAAAAAAAAAAAAAAAAA",
"AAAAAAAAAAAAAAAAAAAAAAAAAAAAAAAAAAAAAAAAAAAAAAAmmMMmMmMMmMMMMMMMMMmMMmMmMmmMMMmMmMAAAAAAAAAAAAAAAAAAAAAAAAAAAAAAAAAAAAAAAAAAAAAA",
"AAAAAAAAAAAAAAAAAAAAAAAAAAAAAAAAAAAAAAAAAAAAAAbMmMmMMMMMMmmMmMMMmMmMMMMmMMMmmMmMMMmAAAAAAAAAAAAAAAAAAAAAAAAAAAAAAAAAAAAAAAAAAAAA",
"AAAAAAAAAAAAAAAAAAAAAAAAAAAAAAAAAAAAAAAAAAAAAAmmMmMmmmmmMmMmMmmMMmMmmmMmmMmMMmMmmmMAAAAAAAAAAAAAAAAAAAAAAAAAAAAAAAAAAAAAAAAAAAAA",
"AAAAAAAAAAAAAAAAAAAAAAAAAAAAAAAAAAAAAAAAAAAAAbmMmMmMmMmMmMmMmmMmMmMmmMmMMmmmmmmMmMMmAAAAAAAAAAAAAAAAAAAAAAAAAAAAAAAAAAAAAAAAAAAA",
"AAAAAAAAAAAAAAAAAAAAAAAAAAAAAAAAAAAAAAAAAAAAAmmmmMmmmmmmmmmmMmmmmmmmmmmmmmMmmMmmmmmmAAAAAAAAAAAAAAAAAAAAAAAAAAAAAAAAAAAAAAAAAAAA",
"AAAAAAAAAAAAAAAAAAAAAAAAAAAAAAAAAAAAAAAAAAAAbmmmmmmmmmmmmmmmmmmmmmmmmmmmMmmmMmmmmMmmmAAAAAAAAAAAAAAAAAAAAAAAAAAAAAAAAAAAAAAAAAAA",
"AAAAAAAAAAAAAAAAAAAAAAAAAAAAAAAAAAAAAAAAAAAAmmmmmmmmmmmmmmmmmmmmmmmmMmmmmmmmmmmmmmmmmAAAAAAAAAAAAAAAAAAAAAAAAAAAAAAAAAAAAAAAAAAA",
"AAAAAAAAAAAAAAAAAAAAAAAAAAAAAAAAAAAAAAAAAAAzmmnmmmmmmmmmmmmmmmmmmmmmmmmmmmmmmmmmmmmmmbAAAAAAAAAAAAAAAAAAAAAAAAAAAAAAAAAAAAAAAAAA",
"AAAAAAAAAAAAAAAAAAAAAAAAAAAAAAAAAAAAAAAAAAAmmmmmnmmmnmmnnmmnmnmnmmmmnmmnnmnmmnmmmmnmmmAAAAAAAAAAAAAAAAAAAAAAAAAAAAAAAAAAAAAAAAAA",
"AAAAAAAAAAAAAAAAAAAAAAAAAAAAAAAAAAAAAAAAAAznmnmnnmnnnmnmnmmbnnmmmmnnmmnmnnmmmbbmmnnmnmnAAAAAAAAAAAAAAAAAAAAAAAAAAAAAAAAAAAAAAAAA",
"AAAAAAAAAAAAAAAAAAAAAAAAAAAAAAAAAAAAAAAAAAbmbmbmnnnmnnnnmbmmnnnnbbmnbmnnnnnnnmnnnmnnnnnAAAAAAAAAAAAAAAAAAAAAAAAAAAAAAAAAAAAAAAAA",
"AAAAAAAAAAAAAAAAAAAAAAAAAAAAAAAAAAAAAAAAAbbnmbbmnnnnnnbmnnbmnnnnnnnnnnnnbmnnbmbmnnnbnnnbAAAAAAAAAAAAAAAAAAAAAAAAAAAAAAAAAAAAAAAA",
"AAAAAAAAAAAAAAAAAAAAAAAAAAAAAAAAAAAAAAAAAbmbbmbbbnbnbnbbnbnbbbnnnbbnnnbnmbnnmbnbnnnnnnnmAAAAAAAAAAAAAAAAAAAAAAAAAAAAAAAAAAAAAAAA",
"AAAAAAAAAAAAAAAAAAAAAAAAAAAAAAAAAAAAAAAAzbbmbbbbbnnbbnnbbnbnnbnbbnbnbnnnbbnbbnbnnnbnbnbbbAAAAAAAAAAAAAAAAAAAAAAAAAAAAAAAAAAAAAAA",
"AAAAAAAAAAAAAAAAAAAAAAAAAAAAAAAAAAAAAAAAbbbbbbbbbbbbnbbbnbbbnbbbnbnbbnbbnbnbnnbbbnbnbbbbnAAAAAAAAAAAAAAAAAAAAAAAAAAAAAAAAAAAAAAA",
"AAAAAAAAAAAAAAAAAAAAAAAAAAAAAAAAAAAAAAAzbbbbbbbbbbbbbbbbbbbbbbbbbbbbbbbbbbbbbbbbbbbbbbbbbbAAAAAAAAAAAAAAAAAAAAAAAAAAAAAAAAAAAAAA",
"AAAAAAAAAAAAAAAAAAAAAAAAAAAAAAAAAAAAAAAbbbbbbbbbbbbbbbbbbbbbbbbbbbbbbbbbbbbbbbbbbbbbbbbbbbAAAAAAAAAAAAAAAAAAAAAAAAAAAAAAAAAAAAAA",
"AAAAAAAAAAAAAAAAAAAAAAAAAAAAAAAAAAAAAAgbcbcbxbbbbbbbbbcccbbcbbcbbbcbcbbbbbbbxbbbvbbbbbbbbvbAAAAAAAAAAAAAAAAAAAAAAAAAAAAAAAAAAAAA",
"AAAAAAAAAAAAAAAAAAAAAAAAAAAAAAAAAAAAAAzbbbbzbbzbccbcccbccbcbcbxbcxbcbcccxxxxbbxxbbzbzbzbzbbAAAAAAAAAAAAAAAAAAAAAAAAAAAAAAAAAAAAA",
"AAAAAAAAAAAAAAAAAAAAAAAAAAAAAAAAAAAAAgbvzbbvbzbccccccxxxxbxccccccccbccccccxxcxxxbzbccbzbbcbzAAAAAAAAAAAAAAAAAAAAAAAAAAAAAAAAAAAA",
"AAAAAAAAAAAAAAAAAAAAAAAAAAAAAAAAAAAAAzzbxzzbbzzbccccccxxxxzcccccxxxxxxcccxxxcccbzbzbbzbbzbzbAAAAAAAAAAAAAAAAAAAAAAAAAAAAAAAAAAAA",
"AAAAAAAAAAAAAAAAAAAAAAAAAAAAAAAAAAAAgzzczbzzzzbzxxzcxxxxxxcxcxxzxxxxxxxcccxcxxxxcvbzzzbzbzbzxAAAAAAAAAAAAAAAAAAAAAAAAAAAAAAAAAAA",
"AAAAAAAAAAAAAAAAAAAAAAAAAAAAAAAAAAAAzzczzzzxzxzzxzxzxxzxxzzxxxzxcxzxxxzczczcczccvzzbzvzzzbzzzAAAAAAAAAAAAAAAAAAAAAAAAAAAAAAAAAAA",
"AAAAAAAAAAAAAAAAAAAAAAAAAAAAAAAAAAAfzzzzzzzzzzzzzzzzzzzzvzzzzzzzzzxzzzzzczzzzczvzzzzvzzzvzzvzzAAAAAAAAAAAAAAAAAAAAAAAAAAAAAAAAAA",
"AAAAAAAAAAAAAAAAAAAAAAAAAAAAAAAAAAAzzzzzzzzzzzzzzzzhzzzzzzzzzzzzzzzzzgzzzzzzzzzzzzzzzzzzzzzzzzAAAAAAAAAAAAAAAAAAAAAAAAAAAAAAAAAA",
"AAAAAAAAAAAAAAAAAAAAAAAAAAAAAAAAAAizzzzzzzzzzzzzzzzzzzzzzzzzzzzzzzzj&&gzzzzzzzzzzzzzzzzzzzzzzzzAAAAAAAAAAAAAAAAAAAAAAAAAAAAAAAAA",
"AAAAAAAAAAAAAAAAAAAAAAAAAAAAAAAAAAgzzhzhzhzzhzzzzzzzzzhzzzhzzzzzjjj$.OgzzzhzzhzzzhzzzzzhhzzzkzzAAAAAAAAAAAAAAAAAAAAAAAAAAAAAAAAA",
"AAAAAAAAAAAAAAAAAAAAAAAAAAAAAAAAAfgghhzzhzkzhhhhzhzhhhzzkzkzhhhkjj#. ogghzzhhzkzhhzhzzhhhzzhzkzkAAAAAAAAAAAAAAAAAAAAAAAAAAAAAAAA",
"AAAAAAAAAAAAAAAAAAAAAAAAAAAAAAAAAzhghhhhhhgggghzgkzhhhhhkkgggghze+   XfzghhhkhgghhghghhhkkhhgzhhAAAAAAAAAAAAAAAAAAAAAAAAAAAAAAAA",
"AAAAAAAAAAAAAAAAAAAAAAAAAAAAAAAAikgggkfkggggkkggkgggkkgggggggkz7X AA AghggfhkkggkghgggghkkhhgkhggAAAAAAAAAAAAAAAAAAAAAAAAAAAAAAA",
"AAAAAAAAAAAAAAAAAAAAAAAAAAAAAAAAkkkggfkkkfkkkfkgkgfkkfkfkfkkgg7AAAAAAAihggkkkkkgkkkkkkgggggggggggAAAAAAAAAAAAAAAAAAAAAAAAAAAAAAA",
"AAAAAAAAAAAAAAAAAAAAAAAAAAAAAAAifkfkfkfffkffkfgfffffgffgfkkkf&AAAAAAAA7fkkkfgfgkfkkkkkkfkfkgkgfkgfAAAAAAAAAAAAAAAAAAAAAAAAAAAAAA",
"AAAAAAAAAAAAAAAAAAAAAAAAAAAAAAAfffffffkffkkfgffffkkffkffkgfa$.AAAAAAAAwkfffkfkfffkkffffkfkffffkkkfAAAAAAAAAAAAAAAAAAAAAAAAAAAAAA",
"AAAAAAAAAAAAAAAAAAAAAAAAAAAAAAiffffffffffffffffffffffffffff$AAAAAAAAAA7fffffffffffffffffffffffffgffAAAAAAAAAAAAAAAAAAAAAAAAAAAAA",
"AAAAAAAAAAAAAAAAAAAAAAAAAAAAAAfgffffffffffffffffffffffffg7OAAAAAAAAAAA6ffffffffffffffffffffffffffffAAAAAAAAAAAAAAAAAAAAAAAAAAAAA",
"AAAAAAAAAAAAAAAAAAAAAAAAAAAAAisfsfsfffaffafffffasfsfffaa7XAAAAAAAAAAAA<kafakffafffffsfsffffaffaaafaaAAAAAAAAAAAAAAAAAAAAAAAAAAAA",
"AAAAAAAAAAAAAAAAAAAAAAAAAAAAAsaffafsaaaaafaasaaffaffafa7AAAAAAAAAAAAAA$asfssaaaasaaafafaifaaaaafaafaAAAAAAAAAAAAAAAAAAAAAAAAAAAA",
"AAAAAAAAAAAAAAAAAAAAAAAAAAAAefaaaaaaaaaafsafsafsssaaaa%AAAAAAAAAAAAAAA@iasssafaasffsasaffafafffffafafAAAAAAAAAAAAAAAAAAAAAAAAAAA",
"AAAAAAAAAAAAAAAAAAAAAAAAAAAAdisasasssaaaaisissaissaai$.AAAAAAAAAAAAAAAAsfsaaassaaaassaassaaaifissssasAAAAAAAAAAAAAAAAAAAAAAAAAAA",
"AAAAAAAAAAAAAAAAAAAAAAAAAAAifiiasissfiifiiifiififiii#AAAAAAAAAAAAAAAAAAififfifififfiffiffiffififififaaAAAAAAAAAAAAAAAAAAAAAAAAAA",
"AAAAAAAAAAAAAAAAAAAAAAAAAAAiiiiasiiiiipiipsaisfiii7OAAAAAAAAAAAAAAAAAAAiifiiiifiiiisiiiiiaiiiisasisisiuAAAAAAAAAAAAAAAAAAAAAAAAA",
"AAAAAAAAAAAAAAAAAAAAAAAAAAeiiiiiaiisisiiifiiiiiii7XAAAAAAAAAAAAAAAAAAAAiiiiiisiaifiifiipiiiiifiiiiasiiiAAAAAAAAAAAAAAAAAAAAAAAAA",
"AAAAAAAAAAAAAAAAAAAAAAAAAAiiiiiiiiiiiiiiiiiiiiii<AAAAAAAAAAAAAAAAAAAAAA7iiiiiiiiiiiiiiiiiiiiiiiiiiiiiiieAAAAAAAAAAAAAAAAAAAAAAAA",
"AAAAAAAAAAAAAAAAAAAAAAAAAiiiiiiiiiiiiiiiiiiiiii$AAAAAAAAAAAAAAAAAAAAAAA7iiiiiiiiiiiiiiiiiiiiiiiiiiiiiiieAAAAAAAAAAAAAAAAAAAAAAAA",
"AAAAAAAAAAAAAAAAAAAAAAAAAiiieiiiuiuiirriiieiii$AAAAAAAAAAAAAAAAAAAAAAAA<iiiriuiiuiriiiieiiiiiriiiiiiiiiiAAAAAAAAAAAAAAAAAAAAAAAA",
"AAAAAAAAAAAAAAAAAAAAAAAAeiieieiiuuiiuiuiieiie<AAAAAAAAAAAAAAAAAAAAAAAAA<ieieeieiieiiiuiiieriuiiuitiiiyuiiAAAAAAAAAAAAAAAAAAAAAAA",
"AAAAAAAAAAAAAAAAAAAAAAAAeieiriieuiuueieieieiri7$AAAAAAAAAAAAAAAAAAAAAAA*ieiiieiyrieieuieieiyieuietitieiieeAAAAAAAAAAAAAAAAAAAAAA",
"AAAAAAAAAAAAAAAAAAAAAAAeieeieiieeieiuiieieeieeiee7AAAAAAAAAAAAAAAAAAAAA$iieiitrteirrieieieiieirritieieieieAAAAAAAAAAAAAAAAAAAAAA",
"AAAAAAAAAAAAAAAAAAAAAAAeeieereeiueureeeiieieeieieeeeAAAAAAAAAAAAAAAAAAA@eeetereiieieeieieieeieeiieieeieieieAAAAAAAAAAAAAAAAAAAAA",
"AAAAAAAAAAAAAAAAAAAAAAeeeeeieeeeeeueereeeeiteeeueiereeeAAAAAAAAAAAAAAAA+eeueieieieeeieeeeuieeieeeieieieiieuAAAAAAAAAAAAAAAAAAAAA",
"AAAAAAAAAAAAAAAAAAAAAAeeeeeeteeeerereeueeeeeireeeieeieeeeAAAAAAAAAAAAAAAeeieeeeeeeieeueeereeuereeeeeeeeeeee7AAAAAAAAAAAAAAAAAAAA",
"AAAAAAAAAAAAAAAAAAAAA7eereeeeeeeeeeeeeeeeeeeeeeeeeeeeeeeeeeeAAAAAAAAAAAAeeeeeeeeeeeeeeeeeeeeeeeeeeeeeeeeeeeeAAAAAAAAAAAAAAAAAAAA",
"AAAAAAAAAAAAAAAAAAAAAeeeeeeeeeeeeeeeeeeeeeeeeeeeeeeeeeeeeeeeeeAAAAAAAAAAeeeeeeeeeeeeeeeeeeeeeeeeeeeeeeeeeeee7AAAAAAAAAAAAAAAAAAA",
"AAAAAAAAAAAAAAAAAAAA7eee7eeeee8eqeeee7eeeeee8eeeeee7e7eeeeweeee97AAAAAAA<e7eeeeeeeeeeeeeeeeeeeeeeeeeeeeeeeeeeAAAAAAAAAAAAAAAAAAA",
"AAAAAAAAAAAAAAAAAAAAwe7eeeeee7eeweeeee7ee7e7eewe7eeeeeee7ee77eqeee7AAAAA<eeeeq7eeeqee7eeeeeeee0eeeeeeeeeeqeee7AAAAAAAAAAAAAAAAAA",
"AAAAAAAAAAAAAAAAAAA77e97eee7e7eeee7e7ee7e7eewe7ee70e7ee77eq8e7e9e7ew7*AA*eeee9ee7eeee8eeee7eeewe7ee7eee7we7ee7AAAAAAAAAAAAAAAAAA",
"AAAAAAAAAAAAAAAAAAA7e77e777e7e777ee7e77e7e77e7q77ee7w77ee77eq97e7e7e7e7<7e777e7eee777e7e77ee7e7qewe7e7qeeee7ee7AAAAAAAAAAAAAAAAA",
"AAAAAAAAAAAAAAAAAA777e77e7e97ee7777e77e07ee77e7e98707ee77ee77e77e7e7e77e7e7eq7e77e7ew7e7e7e77e7e7e7ee77eq77e7e7AAAAAAAAAAAAAAAAA",
"AAAAAAAAAAAAAAAAAA777e7777777777e7777q7777q77e7778e78707e77ee77ee777e7e777e77e7w77e77e7we77e77e777e77e777e777q7AAAAAAAAAAAAAAAAA",
"AAAAAAAAAAAAAAAAA777777778777e77777777777q777777q77777e777777777777e7777977e77777e7777777777777w797q7797797e7777AAAAAAAAAAAAAAAA",
"AAAAAAAAAAAAAAAAA777q77777777777777777777777777777777777777777777777777777777777777777777707777777777777q7777777AAAAAAAAAAAAAAAA",
"AAAAAAAAAAAAAAAA<777777777777777777777777777777777777777777777777777777777777777777777777777777777777777777777777AAAAAAAAAAAAAAA",
"AAAAAAAAAAAAAAAA777<777777<777777777772777777777777<777737777777<777773727777767777777777777777777777777777777777AAAAAAAAAAAAAAA",
"AAAAAAAAAAAAAAA<777<674773<777<771767<77<777<777767<77<7<17<73377767377777277777777<77777747777<777<7777777777777<AAAAAAAAAAAAAA",
"AAAAAAAAAAAAAAA7<<7717<77177<77667<7<7<777<<77<<<7<757757777177<76737<76777<7<7<7277747<777<7<777777<77<7<7<<7<777AAAAAAAAAAAAAA",
"AAAAAAAAAAAAAA;77<7<<77<<7<<7<<<7<1<7<75<757<777<7777<7<<7<7<7<7<77777<77<7<7777<7<7<7<77<7<7777<7<7<7<7777<<7<7<77AAAAAAAAAAAAA",
"AAAAAAAAAAAAAA<<7<<7<<<7<644<7<7<7<7<7<57<5<7<<3<7<<<7<7745<7<7<2<<4<<4<<7<7<<<1<72<7<7<<7<7<<<<7<7<7<7<<<<77<767<<AAAAAAAAAAAAA",
"AAAAAAAAAAAAA<<<<<<<7<<<<<7<<7<<<5<4<<<7<3<7<<737<<7<<7<<<<<7<<77<7<<<<77<<<<<<27<<<<7<<7<<<<<<<<<6<7<<7<7<7<<7<<7<<AAAAAAAAAAAA",
"AAAAAAAAAAAAA<<<<<<<<<<<<<<<<<<<<34<62<<<<<<<<<<<<<77<<<<<7<<<<7<<<3<7<<<4<717<<<<77<<<1<1<727<<<<<<<<<7<<<77<<1<<7<*AAAAAAAAAAA",
"AAAAAAAAAAAA*<<<<<6<<<<<4<<<4<<<<<<<<<<<<<<<<<<<<<<<<<<<<<1<<<<<<<<<<<<<<<<<<<<<<<<<<<<<<<<<<<<<<<7<<<6<<<<<<<<<<<<<<AAAAAAAAAAA",
"AAAAAAAAAAAA<<<<<<<<<<<<<<<<<<<<<<<<<<<<<<<<<<<<<<<<<<<<<<<<<<<<<<<<<<<<<<<<<<<<<<<<<<<<<<<<<<<<<<<<<<<<<<<<<<<<2<<<<*AAAAAAAAAA",
"AAAAAAAAAAA*<<*<<<<=*<<<<*<<<<<<<<<<*<<=<<<*<<<<<<><*<<<-<<<*<<<<<><<<:<<<<><<<:<<,<;<<<<<<;<<<<<<<<<<<<<<<<<<<<<<<<<<AAAAAAAAAA",
"AAAAAAAAAAA***<<<<*<<<*<*<*<*,<**<*<*<<,*<*<*<*<**<<<<*<<<*=<<*<<<<=:<<,<=<<><<<=<<<:<;<;<<<<<*<*<<<*<<<*<<<<,<<<<<<<*AAAAAAAAAA",
"AAAAAAAAAA***<<**<*<<**<**=<*<**<**<*<*<*<=<<****<<****:*=><*,*-<-*<*<<**<**<<*<*<<<<<<<<**<*<<*<*<*<*<*<*<*=<<*<-*<<<>AAAAAAAAA",
"AAAAAAAAAA***************<****=********==***-:><;*;**<<**<=*<;<**<**<**<*<*<*;**<********<-*<-*<<==*<,*<<**<***<*<****<AAAAAAAAA",
"AAAAAAAAA%*********************************************************************************-***,**><<*<**<**<*<=*<<<**<*AAAAAAAA",
"AAAAAAAAAAAOOOOOOOOOOOOOOOOOOOOOOOOOOOOOOOOOOOOOOOOOOOOOOOOOOOOOOOOOOOOOOOOOOOOOOOOOOOOOOOOOOOOOOOOOOOOOOOOOOOOOOOO++@AAAAAAAAAA",
"AAAAAAAAAAAA                                                                                                        AAAAAAAAAAAA",
"AAAAAAAAAAAAA                                                                                                     AAAAAAAAAAAAAA",
"AAAAAAAAAAAAAAAAAAAAAAAAAAAAAAAAAAAAAAAAAAAAAAAAAAAAAAAAAAAAAAAAAAAAAAAAAAAAAAAAAAAAAAAAAAAAAAAAAAAAAAAAAAAAAAAAAAAAAAAAAAAAAAAA",
"AAAAAAAAAAAAAAAAAAAAAAAAAAAAAAAAAAAAAAAAAAAAAAAAAAAAAAAAAAAAAAAAAAAAAAAAAAAAAAAAAAAAAAAAAAAAAAAAAAAAAAAAAAAAAAAAAAAAAAAAAAAAAAAA",
"AAAAAAAAAAAAAAAAAAAAAAAAAAAAAAAAAAAAAAAAAAAAAAAAAAAAAAAAAAAAAAAAAAAAAAAAAAAAAAAAAAAAAAAAAAAAAAAAAAAAAAAAAAAAAAAAAAAAAAAAAAAAAAAA",
"AAAAAAAAAAAAAAAAAAAAAAAAAAAAAAAAAAAAAAAAAAAAAAAAAAAAAAAAAAAAAAAAAAAAAAAAAAAAAAAAAAAAAAAAAAAAAAAAAAAAAAAAAAAAAAAAAAAAAAAAAAAAAAAA",
"AAAAAAAAAAAAAAAAAAAAAAAAAAAAAAAAAAAAAAAAAAAAAAAAAAAAAAAAAAAAAAAAAAAAAAAAAAAAAAAAAAAAAAAAAAAAAAAAAAAAAAAAAAAAAAAAAAAAAAAAAAAAAAAA",
"AAAAAAAAAAAAAAAAAAAAAAAAAAAAAAAAAAAAAAAAAAAAAAAAAAAAAAAAAAAAAAAAAAAAAAAAAAAAAAAAAAAAAAAAAAAAAAAAAAAAAAAAAAAAAAAAAAAAAAAAAAAAAAAA",
"AAAAAAAAAAAAAAAAAAAAAAAAAAAAAAAAAAAAAAAAAAAAAAAAAAAAAAAAAAAAAAAAAAAAAAAAAAAAAAAAAAAAAAAAAAAAAAAAAAAAAAAAAAAAAAAAAAAAAAAAAAAAAAAA",
"AAAAAAAAAAAAAAAAAAAAAAAAAAAAAAAAAAAAAAAAAAAAAAAAAAAAAAAAAAAAAAAAAAAAAAAAAAAAAAAAAAAAAAAAAAAAAAAAAAAAAAAAAAAAAAAAAAAAAAAAAAAAAAAA"
};
