/* XPM */
static char *control_center_[] = {
/* columns rows colors chars-per-pixel */
"128 128 78 1",
"  c #000000",
". c #0F0F0F",
"X c #121212",
"o c #1C1C1C",
"O c #272727",
"+ c #282628",
"@ c #2B2B2B",
"# c #2F312F",
"$ c #333333",
"% c #3C3C3C",
"& c #444444",
"* c #4C4C4C",
"= c #545454",
"- c #5C5C5C",
"; c #615F5F",
": c #5F615F",
"> c #5F5F61",
", c #605F60",
"< c #5F6161",
"1 c #636363",
"2 c #686668",
"3 c #6A6A6A",
"4 c #767676",
"5 c #787877",
"6 c #7A7A7A",
"7 c #807F80",
"8 c #848484",
"9 c #868886",
"0 c #878888",
"q c #8D8D8D",
"w c #908F8F",
"e c #8F908F",
"r c #90908F",
"t c #8F8F90",
"y c #908F90",
"u c #8F9090",
"i c #949494",
"p c #989797",
"a c #979897",
"s c #989897",
"d c #979798",
"f c #989798",
"g c #979898",
"h c #9B9B9B",
"j c #A09F9F",
"k c #A0A09F",
"l c #9F9FA0",
"z c #A09FA0",
"x c #9FA0A0",
"c c #A3A3A3",
"v c #A8A7A7",
"b c #A7A8A7",
"n c #A8A8A7",
"m c #A7A7A8",
"M c #A8A7A8",
"N c #A7A8A8",
"B c #ACACAC",
"V c #B0AFAF",
"C c #AFB0AF",
"Z c #B0B0AF",
"A c #AFAFB0",
"S c #B0AFB0",
"D c #AFB0B0",
"F c #B3B3B3",
"G c #B8B7B7",
"H c #B7B8B7",
"J c #B8B8B7",
"K c #B7B7B8",
"L c #B8B7B8",
"P c #BBBBBB",
"I c #C0C0BF",
"U c #C4C4C4",
"Y c #C7C7C8",
"T c #CBCBCB",
"R c #D0D0CF",
"E c #CFD0D0",
"W c #D2D2D2",
"Q c None",
/* pixels */
"QQQQQQQQQQQQQQQQQQQQQQQQQQQQQQQQQQQQQQQQQQQQQQQQQQQQQQQQQQQQQQQQQQQQQQQQQQQQQQQQQQQQQQQQQQQQQQQQQQQQQQQQQQQQQQQQQQQQQQQQQQQQQQQQ",
"QQQQQQQQQQQQQQQQQQQQQQQQQQQQQQQQQQQQQQQQQQQQQQQQQQQQQQQQQQQQQQQQQQQQQQQQQQQQQQQQQQQQQQQQQQQQQQQQQQQQQQQQQQQQQQQQQQQQQQQQQQQQQQQQ",
"QQQQQQQQQQQQQQQQQQQQQQQQQQQQQQQQQQQQQQQQQQQQQQQQQQQQQQQQQQQQQQQQQQQQQQQQQQQQQQQQQQQQQQQQQQQQQQQQQQQQQQQQQQQQQQQQQQQQQQQQQQQQQQQQ",
"QQQQQQQQQQQQQQQQQQQQQQQQQQQQQQQQQQQQQQQQQQQQQQQQQQQQQQQQQQQQQQQQQQQQQQQQQQQQQQQQQQQQQQQQQQQQQQQQQQQQQQQQQQQQQQQQQQQQQQQQQQQQQQQQ",
"QQQQQQQQQQQQQQQQQQQQQQQQQQQQQQQQQQQQQQQQQQQQQQQQQQQQQQQQQQQQQQQQQQQQQQQQQQQQQQQQQQQQQQQQQQQQQQQQQQQQQQQQQQQQQQQQQQQQQQQQQQQQQQQQ",
"QQQQQQQQQQQQQQQQQQQQQQQQQQQQQQQQQQQQQQQQQQQQQQQQQQQQQQQQQQQQQQQQQQQQQQQQQQQQQQQQQQQQQQQQQQQQQQQQQQQQQQQQQQQQQQQQQQQQQQQQQQQQQQQQ",
"QQQQQQQQQQQQQQQQQQQQQQQQQQQQQQQQQQQQQQQQQQQQQQQQQQQQQQQQQQQQQQQQQQQQQQQQQQQQQQQQQQQQQQQQQQQQQQQQQQQQQQQQQQQQQQQQQQQQQQQQQQQQQQQQ",
"QQQQQQQQQQQQQQQQQQQQQQQQQQQQQQQQQQQQQQQQQQQQQQQQQQQQQQQQQQQQQQQQQQQQQQQQQQQQQQQQQQQQQQQQQQQQQQQQQQQQQQQQQQQQQQQQQQQQQQQQQQQQQQQQ",
"QQQQQQQQQQQQQQQQQQQQQQQQQQQQQQQQQQQQQQQQQQQQQQQQQQQQQQQQQQQQQQQQQQQQQQQQQQQQQQQQQQQQQQQQQQQQQQQQQQQQQQQQQQQQQQQQQQQQQQQQQQQQQQQQ",
"QQQQQQQQQQQQQQQQQQQQQQQQQQQQQQQQQQQQQQQQQQQQQQQQQQQQQQQQQQQQQQQQQQQQQQQQQQQQQQQQQQQQQQQQQQQQQQQQQQQQQQQQQQQQQQQQQQQQQQQQQQQQQQQQ",
"QQQQQQQQQQQQQQQQQQQQQQQQQQQQQQQQQQQQQQQQQQQQQQQQQQQQQQQQQQQQQQQQQQQQQQQQQQQQQQQQQQQQQQQQQQQQQQQQQQQQQQQQQQQQQQQQQQQQQQQQQQQQQQQQ",
"QQQQQQQQQQQQQQQQQQQQQQQQQQQQQQQQQQQQQQQQQQQQQQQQQQQQQQQQQQQQQQQQQQQQQQQQQQQQQQQQQQQQQQQQQQQQQQQQQQQQQQQQQQQQQQQQQQQQQQQQQQQQQQQQ",
"QQQQQQQQQQQQQQQQQQQQQQQQQQQQQQQQQQQQQQQQQQQQQQQQQQQQQQQQQQQQQQQQQQQQQQQQQQQQQQQQQQQQQQQQQQQQQQQQQQQQQQQQQQQQQQQQQQQQQQQQQQQQQQQQ",
"QQQQQQQQQQQQQQQQQQQQQQQQQQQQQQQQQQQQQQQQQQQQQQQQQQQQQQQQQQQQQQQQQQQQQQQQQQQQQQQQQQQQQQQQQQQQQQQQQQQQQQQQQQQQQQQQQQQQQQQQQQQQQQQQ",
"QQQQQQQQQQQQQQQQQQQQQQQQQQQQQQQQQQQQQQQQQQQQQQQQQQQQQQQQQQQQQQQQQQQQQQQQQQQQQQQQQQQQQQQQQQQQQQQQQQQQQQQQQQQQQQQQQQQQQQQQQQQQQQQQ",
"QQQQQQQQQQQQQQQQQQQQQQQQQQQQQQQQQQQQQQQQQQQQQQQQQQQQQQQQQQQQQQQQQQQQQQQQQQQQQQQQQQQQQQQQQQQQQQQQQQQQQQQQQQQQQQQQQQQQQQQQQQQQQQQQ",
"QQQQQQQQQQQQQQQQQQQQQQQQQQQQQQQQQQQQQQQQQQQQQQQQQQQQQQQQQQQQQQQQQQQQQQQQQQQQQQQQQQQQQQQQQQQQQQQQQQQQQQQQQQQQQQQQQQQQQQQQQQQQQQQQ",
"QQQQQQQQQQQQQQQQQQQQQQQQQQQQQQQQQQQQQQQQQQQQQQQQQQQQQQQQQQQQQQQQQQQQQQQQQQQQQQQQQQQQQQQQQQQQQQQQQQQQQQQQQQQQQQQQQQQQQQQQQQQQQQQQ",
"QQQQQQQQQQQQQQQQQQQQQQQQQQQQQQQQQQQQQQQQQQQQQQQQQQQQQQQQQQQQQQQQQQQQQQQQQQQQQQQQQQQQQQQQQQQQQQQQQQQQQQQQQQQQQQQQQQQQQQQQQQQQQQQQ",
"QQQQQQQQQQQQQQQQQQQQQQQQQQQQQQQQQQQQQQQQQQQQQQQQQQQQQQQQQQQQQQQQQQQQQQQQQQQQQQQQQQQQQQQQQQQQQQQQQQQQQQQQQQQQQQQQQQQQQQQQQQQQQQQQ",
"QQQQQQQQQQQQQQQQQQQQQQQQQQQQQQQQQQQQQQQQQQQQQQQQQQQQQQQQQQQQQQQQQQQQQQQQQQQQQQQQQQQQQQQQQQQQQQQQQQQQQQQQQQQQQQQQQQQQQQQQQQQQQQQQ",
"QQQQQQQQQQQQQQQQQQQQQQQQQQQQQQQQQQQQQQQQQQQQQQQQQQQQQQQQQQQQQQQQQQQQQQQQQQQQQQQQQQQQQQQQQQQQQQQQQQQQQQQQQQQQQQQQQQQQQQQQQQQQQQQQ",
"QQQQQQQQQQQQQQQQQQQQQQTWWWWWWWWWWWWWQQQQQQQQQQQQQQQQQQQQQQWWWWWWWWWWWWWQQQQQQQQQQQQQQQQQQQQQQWWWWWWWWWWWWWWQQQQQQQQQQQQQQQQQQQQQ",
"QQQQQQQQQQQQQQQQQQQQQQWWWWWWWWWWWWWWRQQQQQQQQQQQQQQQQQQQQWWWWWWWWWWWWWWWQQQQQQQQQQQQQQQQQQQQTWWWWWWWWWWWWWWQQQQQQQQQQQQQQQQQQQQQ",
"QQQQQQQQQQQQQQQQQQQQQTWWWWWWWWWWWWWWWQQQQQQQQQQQQQQQQQQQQWWWWWWWWWWWWWWWRQQQQQQQQQQQQQQQQQQQRWWWWWWWWWWWWWWWQQQQQQQQQQQQQQQQQQQQ",
"QQQQQQQQQQQQQQQQQQQQQTWWWWWWWWWWWWWWWQQQQQQQQQQQQQQQQQQQQWWWWWWWWWWWWWWWYQQQQQQQQQQQQQQQQQQQWWWWWWWWWWWWWWWTQQQQQQQQQQQQQQQQQQQQ",
"QQQQQQQQQQQQQQQQQQQQQYWWWWWWWWWWWWEWEQQQQQQQQQQQQQQQQQQQQWRWWWWWWWWWWWEEYQQQQQQQQQQQQQQQQQQQTWWWWWWWWWWWWWTTQQQQQQQQQQQQQQQQQQQQ",
"QQQQQQQQQQQQQQQQQQQQQUEEWWWWWWWWEWEERQQQQQQQQQQQQQQQQQQQiWRWWETWWWWWEEERYQQQQQQQQQQQQQQQQQQQTWTRWWWWWWWWTWWTQQQQQQQQQQQQQQQQQQQQ",
"QQQQQQQQQQQQQQQQQQQQQUTETWTEWWWWEEREWQQQQQQQQQQQQQQQQQQQ9RTRRRTRWWRTRRRRIQQQQQQQQQQQQQQQQQQQTTWRTWTWEREEWTWTQQQQQQQQQQQQQQQQQQQQ",
"QQQQQQQQQQQQQQQQQQQQQITWWTWWWWWTEERTEQQQQQQQQQQQQQQQQQQQ8TRTRTRRWWRRRTREPQQQQQQQQQQQQQQQQQQQTRTWWTWTETRTTRTTQQQQQQQQQQQQQQQQQQQQ",
"QQQQQQQQQQQQQQQQQQQQQPTRTTETRTTTTTTETQQQQQQQQQQQQQQQQQQQ7RTRTTTRRRTRTRTEPQQQQQQQQQQQQQQQQQQQYTTTTTTWRTTTTRTUQQQQQQQQQQQQQQQQQQQQ",
"QQQQQQQQQQQQQQQQQQQQQPTTETTTTETTRTTTTQQQQQQQQQQQQQQQQQQQ6TTTTTTTRTTTTTTTPQQQQQQQQQQQQQQQQQQQYTTTTTTTTETTTTTYQQQQQQQQQQQQQQQQQQQQ",
"QQQQQQQQQQQQQQQQQQQQQPTTTTTTTTTTTTTTYQQQQQQQQQQQQQQQQQQQ6TTTTTTTTTTTTTTTPQQQQQQQQQQQQQQQQQQQYTTTTTTTTTTTTTTUQQQQQQQQQQQQQQQQQQQQ",
"QQQQQQQQQQQQQQQQQQQQQPTTTTTTTTTTTTTTTQQQQQQQQQQQQQQQQQQQ9TTTTTTTTTTTTTTYFQQQQQQQQQQQQQQQQQQQUTYTTTTYTYYTTTYIQQQQQQQQQQQQQQQQQQQQ",
"QQQQQQQQQQQQQQQQQQQQQKTTTTTTYTTTTTTTYQQQQQQQQQQQQTTYYUIPPTTYTTTTTTTTYTTTYUYYTTTUQQQQQQQQQQQQUTTTTTYTTTTTTYYUQQQQQQQQQQQQQQQQQQQQ",
"QQQQQQQQQQQQQQQQQQQQQGTYYYTYTTUTYYTYYQQQQQQQQQQUUTYTTYTYTYTYYTUTTITITYTYYTTYTYYTYYQQQQQQQQQQUYYTTTTYYYYYYYTIQQQQQQQQQQQQQQQQQQQQ",
"QQQQQQQQQQQQQQQQQQQQQKYYYYYYTUTYYYTYIQQQQQQQQQQYYYYTYYYYYYTUTUUTTTTITUTTYYYYYYYYYYQQQQQQQQQQUYYYTTTTYYYYYYYIQQQQQQQQQQQQQQQQQQQQ",
"QQQQQQQQQQQQQQQQQQQQQFYYYYYUUYUTIYUTTQQQQQQQQQJYYYYUYYYYYYYYUTTUITTTYYUYYYUYUYYYYYUQQQQQQQQQIYYYUUUUYYTUYYYPQQQQQQQQQQQQQQQQQQQQ",
"QQQQQQQQQQQQQQQQQQQQQGUYUYUYTUTUTITUIQQQQQQQQQGYYUUYYYYYUUYYUTUTYTITYYUYUTYUYYYYUYIQQQQQQQQQUUYUUUTUUTUUYYYIQQQQQQQQQQQQQQQQQQQQ",
"QQQQQQQQQQQQQQQQQQQQQFYYUYUYUUUUITITUQQQQQQQQQBUUYUUUUUYUYUUUUUUIIYIUYUUUUYUUUUUUYPQQQQQQQQQIUUUUUUUUUYUUUYPQQQQQQQQQQQQQQQQQQQQ",
"QQQQQQQQQQQQQQQQQQQQQKYUUYUUYUUYUUUUUQQQQQQQQQnYUUUUUUUPh61<:<<<111;115hPUUUYUUUUUGQQQQQQQQQIUUUUUUUUUUUUUUPQQQQQQQQQQQQQQQQQQQQ",
"QQQQQQQQQQQQQQQQQQQQQFUUUUUUIUUUUUUUPQQQQQQQQQcUUUUUUUm=                =cUUUUUUUUGQQQQQQQQQIUUUUUUUUUUUIUUPQQQQQQQQQQQQQQQQQQQQ",
"QQQQQQQQQQQQQQQQQQQQQAUIUUUUUUUIUUUUUQQQQQQQQQhUUUUUUU1                  1UUUUUUUUFQQQQQQQQQPUUUYUIUUIUUUIULQQQQQQQQQQQQQQQQQQQQ",
"QQQQQQQQQQQQQQQQQQQQQFUUUIIUUIUUUIUYPQQQQQQQQQhUUIIUUcXQQQQQQQQQQQQQQQQ  XhUIUPUUIBQQQQQQQQQPUUIIUIUUUPUIUULQQQQQQQQQQQQQQQQQQQQ",
"QQQQQQQQQQQQQQQQQQQQQAIIIIIIIIIIPUUIIQQQQQQQQQhUUUIIPdQQQQQQQQQQQQQQQQQQ  iUUPUUPUBQQQQQQQQQPUIIIIUIUPUUUIUKQQQQQQQQQQQQQQQQQQQQ",
"QQQQQQQQQQQQQQQQQQQQQAIUIIIIIIIUUPUPPQQQQQQQQQhPPUIIUcQQQQQQQQQQQQQQQQQQQ hPUUPPUUBQQQQQQQQQPIIUIIIIPUPUIIIKQQQQQQQQQQQQQQQQQQQQ",
"QQQQQQQQQQQQQQQQQQQQQFIPIIIUIIIIPUPUPQQQQQQQQQhPPIPUPGQQQQQQQQQQQQQQQQQQQ%FPPPPUPUBQQQQQQQQQPIUPIIIIUUPPIIIKQQQQQQQQQQQQQQQQQQQQ",
"QQQQQQQQQQQQQQQQQQQQQAIIPIIPPIIIPPIPPQQQQQQQQQhIUPIPIPmQQQQQQQQQQQQQQQQQQiPUPIUPPPBQQQQQQQQQKPPIIIPIPPPUPIPFQQQQQQQQQQQQQQQQQQQQ",
"QQQQQQQQQQQQQQQQQQQQQBPPPIIIPIPPIIIIPQQQQQQQQQaPPIPIPPIFQQQQQQQQQQQQQQQQcPPUPIPPPPBQQQQQQQQQJPPIPIPIIPPPPPPGQQQQQQQQQQQQQQQQQQQQ",
"QQQQQQQQQQQQQQQQQQQQQBUPPPPPIPIPPPPIKQQQQQQQQQaPPPPUPIPPPPPPPPPPPPPPPPPPPPPPPPPIPPBQQQQQQQQQHPPPPPPPPIPPPPPFQQQQQQQQQQQQQQQQQQQQ",
"QQQQQQQQQQQQQQQQQQQQQBPPPPPPPPPPPPPPPQQQQQQQQQdPPPPPPPPPPPPPPPPPPPPPPPPPPPPPPPPPPPBQQQQQQQQQGPPPPPPPPPPPPPPFQQQQQQQQQQQQQQQQQQQQ",
"QQQQQQQQQQQQQQQQQQQQQBPPPPPPPPPPPPPPKQQQQQQQQQdPPPPPPPPPPPPPPPPPPPPPPPPPPPPPPPPPPPmQQQQQQQQQGPPPPPPPPPPPPPPFQQQQQQQQQQQQQQQQQQQQ",
"QQQQQQQQQQQQQQQQQQQQQmPPPPKPPPPPKPPKKQQQQQQQQQqPPPPPPPPPPPKPPPPKPPPPPKKPPPPPPPPKPKcQQQQQQQQQGPPKPPPKPPKPPPPAQQQQQQQQQQQQQQQQQQQQ",
"QQQQQQQQQQQQQQQQQQQQQBHGPKKPHKHPPPKKHQQQQQQQQQ-FHKGKPPKGHPPHHPKPPLKKHPPGGGGPPKHPPGQQQQQQQQQQFHPKPKKPKKPKPPGFQQQQQQQQQQQQQQQQQQQQ",
"QQQQQQQQQQQQQQQQQQQQQbGKHHPKGKKKHKGGGQQQQQQQQQQ6HKGGGPGKKKKHHHKKGGKKHKKPGHHJGGHHPqQQQQQQQQQQFGKKHPKKGGGPKKGBQQQQQQQQQQQQQQQQQQQQ",
"QQQQQQQQQQQQQQQQQQQQQmGHGGGHGHHHHHGGGQQQQQQQQQQ -icxxhcxNGGGGGGHGGGGHGHHDxxxxcca3QQQQQQQQQQQFGGGGHHKGGGHHGGDQQQQQQQQQQQQQQQQQQQQ",
"QQQQQQQQQQQQQQQQQQQQQmGGGHGFGGFHGGGGFQQQQQQQQQQQ XXXXXXX2GGGGFKHFGFGGHFG9.XXXXXXQQQQQQQQQQQQDFGFGFHGFGFKGGFBQQQQQQQQQQQQQQQQQQQQ",
"QQQQQQQQQQQQQQQQQQQQQcGFFGGHGFGFGFHFFQQQQQQQQQQQQ       -FGFFGFHFHFGGFGG9     QQQQQQQQQQQQQQDGFGGFFGGFHFFGGBQQQQQQQQQQQQQQQQQQQQ",
"QQQQQQQQQQQQQQQQQQQQQmGFFKFFFGGFGKFFFQQQQQQQQQQQQQQQQ   -FFFGFFGHFGFFFFFq QQQQQQQQQQQQQQQQQQDGFFFGFFFKFFFFFBQQQQQQQQQQQQQQQQQQQQ",
"QQQQQQQQQQQQQQQQQQQQQcFFFFFFFFFFFFFFFQQQQQQQQQQQQQQQQQQ -GFFFFFFFFFFFFFFqQQQQQQQQQQQQQQQQQQQBFFFFFFFFFFFFFFBQQQQQQQQQQQQQQQQQQQQ",
"QQQQQQQQQQQQQQQQQQQQQcFFFFFFFFFFFFFFCQQQQQQQQQQQQQQQQQQQ1FFFFFFFFFFFFFFFdQQQQQQQQQQQQQQQQQQQBGFFFFFFFFFFFFFBQQQQQQQQQQQQQQQQQQQQ",
"QQQQQQQQQQQQQQQQQQQ65nFFFFDFAFFFFDFFBhQQQQQQQQQQQQQQQQQQ1FFFFCFFFFFDFFFFhQQQQQQQQQQQQQQQQQQQBFFFFFBFFFFDFFFBQQQQQQQQQQQQQQQQQQQQ",
"QQQQQQQQQQQQBFFZFFCBFFBFDDFFFAFADFFDFFBFFFBFFBQQQQQQQQQQ2CDCCFSBDFDFFBBFhQQQQQQQQQQQQQQQQQQQBBFBBFFFDFDFFBVBQQQQQQQQQQQQQQQQQQQQ",
"QQQQQQQQQQQQFBBFBFVFBFFBFDCCBFBFDDCDBFFBBFFBBFQQQQQQQQQQ2CDFCCCFADDDFBFFhQQQQQQQQQQQQQQQQQQQBFAFFBBFDDDDVFBBQQQQQQQQQQQQQQQQQQQQ",
"QQQQQQQQQQQBZBFBFZBFBFVCBFCVFBVVBFCFBFZBFBABZABQQQQQQQQQ3BBFBZFBCVBFBFBFhQQQQQQQQQQQQQQQQQQQBBBBFBBFBZBFFBCBQQQQQQQQQQQQQQQQQQQQ",
"QQQQQQQQQQQBCFBFBVSBBFBZBZBCBFBFCCBDFBCFBFBFBBFQQQQQQQQQ3FBZFZBZBCBBFBCBhQQQQQQQQQQQQQQQQQQQBBBFZBFBBABBBCBNQQQQQQQQQQQQQQQQQQQQ",
"QQQQQQQQQQQBBBBBBBBFFBBCFBBCBZBBBBBBBBBZBFFBFBBQQQQQQQQQ2BVBBBBBBFSBFBBBhQQQQQQQQQQQQQQQQQQQBBBBBBSVBFSBBBBmQQQQQQQQQQQQQQQQQQQQ",
"QQQQQQQQQQQBBSBBBVBBBmgdddddaddpahdBBBBBBBBBBBBQQQQQQQQQ2BBVBBBBBBVBBBBBhQQQQQQQQQQQQQQQQQQQBBBBBABBBBABBBBcQQQQQQQQQQQQQQQQQQQQ",
"QQQQQQQQQQQBBBBBBBBh1@X............$1dBBBBBBBBmQQQQQQQQQ2BBBBBBBBBBBBBBBhQQQQQQQQQQQQQQQQQQQnBBBBBBBBBBBBBBcQQQQQQQQQQQQQQQQQQQQ",
"QQQQQQQQQQQmBBBBBBh%                 %hBBBBBBBmQQQQQQQQQ2BBBBBBBBBmBBBBBhQQQQQQQQQQQQQQQQQQQmBnBBnBBBBBBBBBcQQQQQQQQQQQQQQQQQQQQ",
"QQQQQQQQQQQmBnBBNB6  QQQQQQQQQQQQQ    4nBBBnBBBQQQQQQQQQ1BBbBnBBBBmBnBmnhQQQQQQQQQQQQQQQQQQQmBnBBmBBBBBnBBBcQQQQQQQQQQQQQQQQQQQQ",
"QQQQQQQQQQQcvBnnBm&QQQQQQQQQQQQQQQQQ  %cmnmBnmmQQQQQQQQQ2bBbBnnnBmnBBmnBhQQQQQQQQQQQQQQQQQQQcnBmBnnmmnmBnbmcQQQQQQQQQQQQQQQQQQQQ",
"QQQQQQQQQQQmmbnnmc%QQQQQQQQQQQQQQQQQQQ$cnnnBbbmQQQQQQQQQ1nnBmnnnnnnnnnnvhQQQQQQQQQQQQmcchsrqvvvmmmmmvnnnnnnmskmccmmQQQQQQQQQQQQQ",
"QQQQQQQQQQQcBnnmmm3QQQQQQQQQQQQQQQQQQQ=mbnnnbnmQQQQQQQQQ1bnnmbnnnvmbnmvmdQQQQQQQQQQmbmbnBvmmvmmmmmmmmvmmmmmmvnmmnmmvmQQQQQQQQQQQ",
"QQQQQQQQQQQcmmmmmmiQQQQQQQQQQQQQQQQQQQqmvmcmmmcQQQQQQQQQ1mmmmvmmmmmbmmmmdQQQQQQQQQkmmmmcmmnbcnmmmvcvcmcmvncmcvcmmmcmmQQQQQQQQQQQ",
"QQQQQQQQQQQkcmcmcmcrQQQQQQQQQQQQQQQQQ6cmmcmmmmkQQQQQQQQQ1mcmcmcmcmcmcmmciQQQQQQQQQmcmccmcmcvcmcmmcvcmcmmmnccmcmmmcmcmcQQQQQQQQQQ",
"QQQQQQQQQQQxcccccmccchQQQQQQQQQQQQQihmccmccmmcmQQQQQQQQQ1cmccmcccmccmcmcdQQQQQQQQQbmcmcccmcmcmcmccmcmcmcccmccmccccmcccQQQQQQQQQQ",
"QQQQQQQQQQQccmcccccccccmccmccmccmcccmccccccccccQQQQQQQQQ1ccccccccccccccciQQQQQQQQ6mcccccccccccccccccccccccccccccccccmcQQQQQQQQQQ",
"QQQQQQQQQQQkcccccccccccccccccccccccckccccccccchQQQQQQQQQ1ccccccccccccccciQQQQQQQQ3ccccccccci95555555555557qcccccccccchQQQQQQQQQQ",
"QQQQQQQQQQQhcccjcccczckccchcccccckkccccccchcckcQQQQQQQQQ-cxcjccckccccchciQQQQQQQQ2cckccckk4@X             .=9kccckccchQQQQQQQQQQ",
"QQQQQQQQQQQiccxccjccjccxccxcccxlhjcxcckjcjhccchQQQQQQQQQ1cxcccjckcckcchciQQQQQQQQ2cchccch6                  &hlckckcchQQQQQQQQQQ",
"QQQQQQQQQQQ2hczxzcjkchchhcchhczccckxhcxchcccxk6QQQQQQQQQ;kxxhchckkkkhcckiQQQQQQQQ1xlchchh* QQQQQQQQQQQQQQ    5jljkchjhQQQQQQQQQQ",
"QQQQQQQQQQQQ2dxcckjcchcccchchchccckxhcczcchhd5QQQQQQQQQQ,zhkczllkjkkxchkiQQQQQQQQ1hczchxqXQQQQQQQQQQQQQQQQQ  -hchcjhkhQQQQQQQQQQ",
"QQQQQQQQQQQQ @******=ihchhchchcchhchd1****==$QQQQQQQQQQQ-kkkhchcxxhchhxxeQQQQQQQQ-chhhchiQQQQQQQQQQQQQQQQQQQ -chxhjjhhQQQQQQQQQQ",
"QQQQQQQQQQQQQ       .qhxhzhchhhhhchcp@     QQQQQQQQQQQQQ-cchhcxhhhhcckhcqQQQQQQQQ;chchchh-QQQQQQQQQQQQQQQQQQQ5hchchchhQQQQQQQQQQ",
"QQQQQQQQQQQQQQQ     .qhhhhhcchchhhhch@   QQQQQQQQQQQQQQQ-hhxhhhccchhhhhhqQQQQQQQQ-hhhhjhhqQQQQQQQQQQQQQQQQQQ=hhhhhhchdQQQQQQQQQQ",
"QQQQQQQQQQQQQQQQQQQ .qhhhjhhhhhhhhhhd#QQQQQQQQQQQQQQQQQQ-hhhhhhhhhjhhhhhqQQQQQQQQ-hchhhhhhqQQQQQQQQQQQQQQQQ3qhhhhhhhhiQQQQQQQQQQ",
"QQQQQQQQQQQQQQQQQQQQ.0hhhhhhhhhhhhhhd%QQQQQQQQQQQQQQQQQQ;hhhhhhhhhhhhhhhqQQQQQQQQ-hhhhhhhhhhsdddshggsdpddidhhhhhhhhhhiQQQQQQQQQQ",
"QQQQQQQQQQQQQQQQQQQQQqhhhhshhhhhshhhdQQQQQQQQQQQQQQQQQQQ-hhhhhhhhhshhhshqQQQQQQQQ-hhhhhhahhshshhhhhhhhshhhshhshshhhhhiQQQQQQQQQQ",
"QQQQQQQQQQQQQQQQQQQQQqshhahhhshshhahdQQQQQQQQQQQQQQQQQQQ-haassahhhhdshhdqQQQQQQQQ-hhshahhddhhhshdhshphhphshddhhsasdhdiQQQQQQQQQQ",
"QQQQQQQQQQQQQQQQQQQQQqdsahhsphshphshdQQQQQQQQQQQQQQQQQQQ-dahhsssssdhdsshqQQQQQQQQ-ghaassdhpsssssdsssssddhpssdshadsssdiQQQQQQQQQQ",
"QQQQQQQQQQQQQQQQQQQQQqddddspddssddsddQQQQQQQQQQQQQQQQQQQ-dddhpsspaddhsps9QQQQQQQQ$qddhssdssdssssdpaphssdaspaadddhdaps7QQQQQQQQQQ",
"QQQQQQQQQQQQQQQQQQQQQ0ssddadsdasdsddiQQQQQQQQQQQQQQQQQQQ=ddpddidpdadisss0QQQQQQQQQ2ddddddddddddddspsdddddddppddddssaqQQQQQQQQQQQ",
"QQQQQQQQQQQQQQQQQQQQQ0dsidsidsididsidQQQQQQQQQQQQQQQQQQQ-ddidisddddpipid9QQQQQQQQQQ-8qeqwwwqaidsdaisdiaiididqwqqqqi5QQQQQQQQQQQQ",
"QQQQQQQQQQQQQQQQQQQQQ0diipiiiiiaipiiiQQQQQQQQQQQQQQQQQQQ=siiidiiiidiisia9QQQQQQQQQQ o@@@O@@*eidiiidiisiidii8$@@@@@@QQQQQQQQQQQQQ",
"QQQQQQQQQQQQQQQQQQQQQ0iiiiiiiidiiiiiiQQQQQQQQQQQQQQQQQQQ-iiiiiiiiiiiiiii9QQQQQQQQQQQ       Oqiiiiiiiiiiiiii8.     QQQQQQQQQQQQQQ",
"QQQQQQQQQQQQQQQQQQQQQ9iiiiiiiiiiiiiiuQQQQQQQQQQQQQQQQQQQ-iiiiiiiiiiiiiii9QQQQQQQQQQQQQQ    @qiiiiiiiiiiiiii8.  QQQQQQQQQQQQQQQQQ",
"QQQQQQQQQQQQQQQQQQQQQ8iiiyitwiiuiiiuiQQQQQQQQQQQQQQQQQQQ=iirwiiiuiuiiiqi8QQQQQQQQQQQQQQQQQ @qiqiririieiwqii8QQQQQQQQQQQQQQQQQQQQ",
"QQQQQQQQQQQQQQQQQQQQQ9iyuiiiiiiiiqwiqQQQQQQQQQQQQQQQQQQQ=itiiiiriuiuqiiw8QQQQQQQQQQQQQQQQQQ@qeqirriwitqiyii8QQQQQQQQQQQQQQQQQQQQ",
"QQQQQQQQQQQQQQQQQQQQQ8qiitqiqtiqiqiiqQQQQQQQQQQQQQQQQQQQ=qiiqiqiqiiqiwiu8QQQQQQQQQQQQQQQQQQ@qiiiirriqiuriyq8QQQQQQQQQQQQQQQQQQQQ",
"QQQQQQQQQQQQQQQQQQQQQ8iqqiiqtqiqiiqqiQQQQQQQQQQQQQQQQQQQ=ieqwiywiiqiiqii8QQQQQQQQQQQQQQQQQQ$qqyyiiiqwquyrri9QQQQQQQQQQQQQQQQQQQQ",
"QQQQQQQQQQQQQQQQQQQQQ8qiiqqiqiiqqqqiqQQQQQQQQQQQQQQQQQQQ=yqiqqwwqqqqqiqq6QQQQQQQQQQQQQQQQQQ$qyqyqqqiqiqtyyqqQQQQQQQQQQQQQQQQQQQQ",
"QQQQQQQQQQQQQQQQQQQQQ6reqqqqiqqqqiqqqQQQQQQQQQQQQQQQQQQQ=qiqqywqqrquqqqq7QQQQQQQQQQQQQQQQQQ$0qqqqquqqqqiyqq0QQQQQQQQQQQQQQQQQQQQ",
"QQQQQQQQQQQQQQQQQQQQQ8qqqqqqqqqqqqqqqQQQQQQQQQQQQQQQQQQQ=qqqqqqqqqqqqqqq8QQQQQQQQQQQQQQQQQQQqqqqqqqqqqqqqqq9QQQQQQQQQQQQQQQQQQQQ",
"QQQQQQQQQQQQQQQQQQQQQ4qqqqqqqqqqqqqq9QQQQQQQQQQQQQQQQQQQ*qqqqqqqqqqqqqqq5QQQQQQQQQQQQQQQQQQQ8qqqqqqqqq0qqqq6QQQQQQQQQQQQQQQQQQQQ",
"QQQQQQQQQQQQQQQQQQQQQ*0qqqqqq0qqqqqq3QQQQQQQQQQQQQQQQQQQQ40q0qq0qq0qq0q7QQQQQQQQQQQQQQQQQQQQ-q0qqqqqqqqq0qq2QQQQQQQQQQQQQQQQQQQQ",
"QQQQQQQQQQQQQQQQQQQQQQ-8qqq0qq0qqq92QQQQQQQQQQQQQQQQQQQQQ$3q0qqqqq0qqq5QQQQQQQQQQQQQQQQQQQQQQ-9qq090q0qqq82QQQQQQQQQQQQQQQQQQQQQ",
"QQQQQQQQQQQQQQQQQQQQQQ +&&&&&&&&&&%QQQQQQQQQQQQQQQQQQQQQQQ.%&&&&&&&&&&QQQQQQQQQQQQQQQQQQQQQQQ #&&&&&&&&&&#QQQQQQQQQQQQQQQQQQQQQQ",
"QQQQQQQQQQQQQQQQQQQQQQQ          QQQQQQQQQQQQQQQQQQQQQQQQQ           QQQQQQQQQQQQQQQQQQQQQQQQQ          QQQQQQQQQQQQQQQQQQQQQQQQ",
"QQQQQQQQQQQQQQQQQQQQQQQQQ      QQQQQQQQQQQQQQQQQQQQQQQQQQQQQ       QQQQQQQQQQQQQQQQQQQQQQQQQQQQQ      QQQQQQQQQQQQQQQQQQQQQQQQQQ",
"QQQQQQQQQQQQQQQQQQQQQQQQQQQQQQQQQQQQQQQQQQQQQQQQQQQQQQQQQQQQQQQQQQQQQQQQQQQQQQQQQQQQQQQQQQQQQQQQQQQQQQQQQQQQQQQQQQQQQQQQQQQQQQQQ",
"QQQQQQQQQQQQQQQQQQQQQQQQQQQQQQQQQQQQQQQQQQQQQQQQQQQQQQQQQQQQQQQQQQQQQQQQQQQQQQQQQQQQQQQQQQQQQQQQQQQQQQQQQQQQQQQQQQQQQQQQQQQQQQQQ",
"QQQQQQQQQQQQQQQQQQQQQQQQQQQQQQQQQQQQQQQQQQQQQQQQQQQQQQQQQQQQQQQQQQQQQQQQQQQQQQQQQQQQQQQQQQQQQQQQQQQQQQQQQQQQQQQQQQQQQQQQQQQQQQQQ",
"QQQQQQQQQQQQQQQQQQQQQQQQQQQQQQQQQQQQQQQQQQQQQQQQQQQQQQQQQQQQQQQQQQQQQQQQQQQQQQQQQQQQQQQQQQQQQQQQQQQQQQQQQQQQQQQQQQQQQQQQQQQQQQQQ",
"QQQQQQQQQQQQQQQQQQQQQQQQQQQQQQQQQQQQQQQQQQQQQQQQQQQQQQQQQQQQQQQQQQQQQQQQQQQQQQQQQQQQQQQQQQQQQQQQQQQQQQQQQQQQQQQQQQQQQQQQQQQQQQQQ",
"QQQQQQQQQQQQQQQQQQQQQQQQQQQQQQQQQQQQQQQQQQQQQQQQQQQQQQQQQQQQQQQQQQQQQQQQQQQQQQQQQQQQQQQQQQQQQQQQQQQQQQQQQQQQQQQQQQQQQQQQQQQQQQQQ",
"QQQQQQQQQQQQQQQQQQQQQQQQQQQQQQQQQQQQQQQQQQQQQQQQQQQQQQQQQQQQQQQQQQQQQQQQQQQQQQQQQQQQQQQQQQQQQQQQQQQQQQQQQQQQQQQQQQQQQQQQQQQQQQQQ",
"QQQQQQQQQQQQQQQQQQQQQQQQQQQQQQQQQQQQQQQQQQQQQQQQQQQQQQQQQQQQQQQQQQQQQQQQQQQQQQQQQQQQQQQQQQQQQQQQQQQQQQQQQQQQQQQQQQQQQQQQQQQQQQQQ",
"QQQQQQQQQQQQQQQQQQQQQQQQQQQQQQQQQQQQQQQQQQQQQQQQQQQQQQQQQQQQQQQQQQQQQQQQQQQQQQQQQQQQQQQQQQQQQQQQQQQQQQQQQQQQQQQQQQQQQQQQQQQQQQQQ",
"QQQQQQQQQQQQQQQQQQQQQQQQQQQQQQQQQQQQQQQQQQQQQQQQQQQQQQQQQQQQQQQQQQQQQQQQQQQQQQQQQQQQQQQQQQQQQQQQQQQQQQQQQQQQQQQQQQQQQQQQQQQQQQQQ",
"QQQQQQQQQQQQQQQQQQQQQQQQQQQQQQQQQQQQQQQQQQQQQQQQQQQQQQQQQQQQQQQQQQQQQQQQQQQQQQQQQQQQQQQQQQQQQQQQQQQQQQQQQQQQQQQQQQQQQQQQQQQQQQQQ",
"QQQQQQQQQQQQQQQQQQQQQQQQQQQQQQQQQQQQQQQQQQQQQQQQQQQQQQQQQQQQQQQQQQQQQQQQQQQQQQQQQQQQQQQQQQQQQQQQQQQQQQQQQQQQQQQQQQQQQQQQQQQQQQQQ",
"QQQQQQQQQQQQQQQQQQQQQQQQQQQQQQQQQQQQQQQQQQQQQQQQQQQQQQQQQQQQQQQQQQQQQQQQQQQQQQQQQQQQQQQQQQQQQQQQQQQQQQQQQQQQQQQQQQQQQQQQQQQQQQQQ",
"QQQQQQQQQQQQQQQQQQQQQQQQQQQQQQQQQQQQQQQQQQQQQQQQQQQQQQQQQQQQQQQQQQQQQQQQQQQQQQQQQQQQQQQQQQQQQQQQQQQQQQQQQQQQQQQQQQQQQQQQQQQQQQQQ",
"QQQQQQQQQQQQQQQQQQQQQQQQQQQQQQQQQQQQQQQQQQQQQQQQQQQQQQQQQQQQQQQQQQQQQQQQQQQQQQQQQQQQQQQQQQQQQQQQQQQQQQQQQQQQQQQQQQQQQQQQQQQQQQQQ",
"QQQQQQQQQQQQQQQQQQQQQQQQQQQQQQQQQQQQQQQQQQQQQQQQQQQQQQQQQQQQQQQQQQQQQQQQQQQQQQQQQQQQQQQQQQQQQQQQQQQQQQQQQQQQQQQQQQQQQQQQQQQQQQQQ",
"QQQQQQQQQQQQQQQQQQQQQQQQQQQQQQQQQQQQQQQQQQQQQQQQQQQQQQQQQQQQQQQQQQQQQQQQQQQQQQQQQQQQQQQQQQQQQQQQQQQQQQQQQQQQQQQQQQQQQQQQQQQQQQQQ",
"QQQQQQQQQQQQQQQQQQQQQQQQQQQQQQQQQQQQQQQQQQQQQQQQQQQQQQQQQQQQQQQQQQQQQQQQQQQQQQQQQQQQQQQQQQQQQQQQQQQQQQQQQQQQQQQQQQQQQQQQQQQQQQQQ"
};
