/* XPM */
static char *evince[] = {
/* columns rows colors chars-per-pixel */
"128 128 86 1",
"  c #010101",
". c #0C0C0C",
"X c #131313",
"o c #191719",
"O c #1A1A1A",
"+ c #242424",
"@ c #292927",
"# c #2C2C2C",
"$ c #302E2E",
"% c #343334",
"& c #3B3B3B",
"* c #403F40",
"= c #444444",
"- c #494947",
"; c #4B4B4B",
": c #545453",
"> c #585758",
", c #5E5D5E",
"< c #5F605F",
"1 c #636363",
"2 c #6C6C6C",
"3 c #747474",
"4 c #787777",
"5 c #777877",
"6 c #7E7E7E",
"7 c #80807E",
"8 c #807F80",
"9 c #7F8080",
"0 c #848484",
"q c #888787",
"w c #878887",
"e c #888887",
"r c #878788",
"t c #888788",
"y c #878888",
"u c #8C8C8C",
"i c #908F8F",
"p c #8F908F",
"a c #90908F",
"s c #908F90",
"d c #8F9090",
"f c #949494",
"g c #989797",
"h c #979897",
"j c #989897",
"k c #979798",
"l c #989798",
"z c #979898",
"x c #9B9B9B",
"c c #A09F9F",
"v c #9FA09F",
"b c #A0A09F",
"n c #9F9FA0",
"m c #A09FA0",
"M c #9FA0A0",
"N c #A3A3A3",
"B c #A8A7A7",
"V c #A8A8A7",
"C c #A7A7A8",
"Z c #A8A7A8",
"A c #ABABAB",
"S c #B0AFAF",
"D c #AFB0AF",
"F c #AFAFB0",
"G c #AFB0B0",
"H c #B3B3B3",
"J c #B8B7B7",
"K c #B8B8B7",
"L c #B8B7B8",
"P c #BBBBBB",
"I c #BFC0BF",
"U c #C4C4C4",
"Y c #CCCCCC",
"T c #CFD0CF",
"R c #D0D0CF",
"E c #CFCFD0",
"W c #D0CFD0",
"Q c #CFD0D0",
"! c #D3D3D3",
"~ c #D8D7D7",
"^ c #D7D8D7",
"/ c #D8D8D7",
"( c #D8D7D8",
") c #DBDBDB",
"_ c #E0E0E0",
"` c None",
/* pixels */
"````````````````````````````````````````````````````````````````````````````````````````````````````````````````````````````````",
"````````````````````````````````````````````````````````````````````````````````````````````````````````````````````````````````",
"````````````````````````````````````````````````````````````````````````````````````````````````````````````````````````````````",
"````````````````````````````````````````````````````````````````````````````````````````````````````````````````````````````````",
"````````````````````````````````````````````````````````````````````````````````````````````````````````````````````````````````",
"```````````````````````````````````````````))_))````````````````````````````````````````````````````````````````````````````````",
"````````````````````````````````````````~)_______)``````````````````````````````````````````````````````````````````````````````",
"```````````````````````````````````````)_)___)____)`````````````````````````````````````````````````````````````````````````````",
"``````````````````````````````````````)____)_))_))_)````````````````````````````````````````````````````````````````````````````",
"`````````````````````````````````````)_))))_)_)))_)_)```````````````````````````````````````````````````````````````````````````",
"````````````````````````````````````Y)))))))_)))))))))``````````````````````````````````````````````````````````````````````````",
"````````````````````````````````````))))))))))))))))))``````````````````````````````````````````````````````````````````````````",
"```````````````````````````````````Y))))))))))))))))()!`````````````````````````````````````````````````````````````````````````",
"```````````````````````````````````Y^^)()(^^YY~^))^))(^`````````````````````````````````````````````````````````````````````````",
"```````````````````````````````````Y)^())()U,-n~^((^~^~`````````````````````````````````````````````````````````````````````````",
"```````````````````````````````````U^^^^^^^A. 2~(~~~~~~Y````````````````````````````````````````````````````````````````````````",
"```````````````````````````````````U~~^^!^^A. #I~^^!~~~Y````````````````````````````````````````````````````````````````````````",
"```````````````````````````````````U!!!~~!^HX +P!^!~!!~!````````````````````````````````````````````````````````````````````````",
"```````````````````````````````````H~!!!!~!Q,`.x!!!!!!!!````````````````````````````````````````````````````````````````````````",
"```````````````````````````````````eQ!~!!!!!l``0!!!!!!!!````````````````````````````````````````````````````````````````````````",
"```````````````````````````````````2Y!!!!!!!U``0E!!!!!!Y````````````````````````````````````````````````````````````````````````",
"```````````````````````````````````#K!!!W!!!Y0`xE!E!Q!Y!P```````````````````````````````````````````````````````````````````````",
"````````````````````````````````````xR!Y!E!WWUJYW!Q!QQE!U```````````````````````````````````````````````````````````````````````",
"````````````````````````````````````1YT!EEEEQQ!YEY!Y!YTQP```````````````````````````````````````````````````````````````````````",
"````````````````````````````````````+HQQY!!YY!!YY!!YQ!Y!I```````````````````````````````````````````````````````````````````````",
"`````````````````````````````````````0YYYYY!YYYYYYYQYYYYP```````````````````````````````````````````````````````````````````````",
"`````````````````````````````````````*JYYYYYYRYYYYQYRYYYP```````````````````````````````````````````````````````````````````````",
"``````````````````````````````````````0YYYYYYYYYYYYYYYYYN```````````````````````````````````````````````````````````````````````",
"``````````````````````````````````````%VYYYYYUYYYYYYYYYU````````````````````````````````````````````````````````````````````````",
"```````````````````````````````````````1UYUYYYYYYUYYYYYU````````````````````````````````````````````````````````````````````````",
"```````````````````````````````````````XcYYYYYYUUYUYUYYU````````````````````````````````````````````````````````````````````````",
"````````````````````````````````````````1PYUUYUYYUYUYYUU````````````````````````````````````````````````````````````````````````",
"````````````````````````````````````````XuUYUUYUYUUUYUUU````````````````````````````````````````````````````````````````````````",
"`````````````````````````````````````````&AYUYYUUYYUYUYU````````````````````````````````````````````````````````````````````````",
"````````````````````````````````````````` 1PUUUUUUUUUUUF````````````````````````````````````````````````````````````````````````",
"``````````````````````````````````````````XwUUUUUUUUUUUF````````````````````````````````````````````````````````````````````````",
"```````````````````````````````````````````&VUUUUUUUUUUI````````````````````````````````````````````````````````````````````````",
"``````````````````````````````````````````` 1IUUUIIUIUIUL```````````````````````````````````````````````````````````````````````",
"````````````````````````````````````````````XxPUIUUIUIUIIL``````````````````````````````````````````````````````````````````````",
"````````````````````````````````````````````XxPUIIIUIIIIII``````````````````````````````````````````````````````````````````````",
"`````````````````````````````````````````````CUPIIIIIIIIIIP`````````````````````````````````````````````````````````````````````",
"`````````````````````````````````````````````VUPPIIIIPPIPIIK````````````````````````````````````````````````````````````````````",
"````````````````````````````````````````````2PPPPIPPPPIIIPPIK```````````````````````````````````````````````````````````````````",
"````````````````````````````````````````````2PPPIPPPPPPPPPPPKH``````````````````````````````````````````````````````````````````",
"````````````````````````````````````````````0KPPPPPPPPPPPPPPPP``````````````````````````````````````````````````````````````````",
"````````````````````````````````````````````NKPPPPPLPPKPPPPLPPL`````````````````````````````````````````````````````````````````",
"````````````````````````````````````````````CPKPPLPKLLKPPLLKPKPG````````````````````````````````````````````````````````````````",
"````````````````````````````````````````````AKKKKLLPKLLLLLPKKKKLJ```````````````````````````````````````````````````````````````",
"````````````````````````````````````````````LLHLKLKKKAKKKJJKKHKLJH``````````````````````````````````````````````````````````````",
"```````````````````````````````````````````5HLLLJJHLG3fLHJJHHKKHJHV`````````````````````````````````````````````````````````````",
"```````````````````````````````````````````lJJHHHHKLG;=CKJJHLHLKJHJ`````````````````````````````````````````````````````````````",
"```````````````````````````````````````````nHJHJHHHHM@ 1AHHHHHHHHHJH````````````````````````````````````````````````````````````",
"```````````````````````````````````````````VHHHHHHHHzX  2AHHHHHHHHHHH```````````````````````````````````````````````````````````",
"```````````````````````````````````````````HHHHHHHHH5    5HHHGHHFHHHHH``````````````````````````````````````````````````````````",
"``````````````````````````````````````````uHHAHHHFHF1``` %uHDHHDHGHGAHV`````````````````````````````````````````````````````````",
"``````````````````````````````````````````lAHHGHHFFA:```` %uHAGHAHAHHAHV````````````````````````````````````````````````````````",
"``````````````````````````````````````````MHHFFSAHAN`````` %eHDAHFFHGGGGV```````````````````````````````````````````````````````",
"``````````````````````````````````````````AAAHAHFFAf``````` &lAHAFAAAFGAFA``````````````````````````````````````````````````````",
"`````````````````````````````````````````5AAHAFFAGA6```````` 1CFAFAHAGAFAAV`````````````````````````````````````````````````````",
"`````````````````````````````````````````fHAAAAAGAV`````````` 1VAAAADAAAAFAC````````````````````````````````````````````````````",
"`````````````````````````````````````````NAAAAAAAAN``````````  1CVAAAAAAAAAAC```````````````````````````````````````````````````",
"`````````````````````````````````````````CAAAAAAAAl```````````  1NAAAAAAACAAVC``````````````````````````````````````````````````",
"````````````````````````````````````````eAVAAVAAAV0````````````  1NVAVACCAACAVV`````````````````````````````````````````````````",
"````````````````````````````````````````fVVAVAVAVC``````````````  ,NCACACVACCAVV````````````````````````````````````````````````",
"````````````````````````````````````````vVVCVVVCVx```````````````  1MVVCVVCCCCBCC```````````````````````````````````````````````",
"```````````````````````````````````````3NBCBCCCCVe````````````````  1xCCCCCCCBBBNBl`````````````````````````````````````````````",
"```````````````````````````````````````eVCCBCBCNC6`````````````````  1xCCNCNNBNBNBNN````````````````````````````````````````````",
"```````````````````````````````````````lNNNNBNNBx```````````````````  1nNCNCNNBbBNNNN```````````````````````````````````````````",
"```````````````````````````````````````vNNCNNNNNs````````````````````  1xNNNNNNNNNNNNx``````````````````````````````````````````",
"``````````````````````````````````````wNNNNNNNNN6`````````````````````  <xNNNNNNNNNNNNN`````````````````````````````````````````",
"``````````````````````````````````````hNNNbNNNCx1``````````````````````  <aNNNNNNcNmNmNN````````````````````````````````````````",
"``````````````````````````````````````xNvvNvcNbf````````````````````````  &9vbvvcNmNNxmNNl``````````````````````````````````````",
"`````````````````````````````````````0NMNnMNxNN9`````````````````````````  %6MNxNxNvNxNxMNxxvxxhzxNxvxbxllvxx```````````````````",
"`````````````````````````````````````hMnxNmcNxl1``````````````````````````  %6xNvbxNxnxNnxbNvvvvvvNxvvvxbvxvvxvlv```````````````",
"`````````````````````````````````````xxNNxcNnNf````````````````````````````%&2xxxvvvNvxxxMNxxvxvxmxMxvxvxNvxvvvxxxx`````````````",
"````````````````````````````````````0vxxxcxxxx6`````````````````````````5eefxlxnvxxxxxxNxxxxxxvxnxxxxvxxxxxxxxxxvxxxl```````````",
"````````````````````````````````````fxbxxxxxxf,````````````````````hzhxxxxxxxxvxxxxvxxxxxbxxxvxxxxxxxxxxxxxxxxxxxxxxxx``````````",
"````````````````````````````````````lxxxxxxcxf`````````````````hllxxxxxxxxxxxxxxxxxxxxxxxxxxxxxxxlxxxxxxxxxxxlxxlxxxxxl`````````",
"```````````````````````````````````0lxxxxxxxx6`````````````hlxxxxxxxxxxxxxxxxxxxxxxxxxxxlxxxxhlxxxxlxlxzlxxxzjxllxlxlxlf````````",
"```````````````````````````````````fxxxxxxlxf,`````````fhhlxxlxljlxlzxllxlxllxlllxllxllxlxlllhxxlllxhzlxxllllxhhhllzxllx````````",
"``````````````````````````````````5fxlxllxllp```````flhlllllllxhhlllllxhllllxhlllllllllllllllllllllkzzllhflflllfhhfjjhfff```````",
"``````````````````````````````````0lzlzzllff2````ffllljlzhhjllhhhhlllhhhllllhhzjhhzzhhhhzlhhhhllllfhfzhff6,>,20fhhlfhflhf```````",
"``````````````````````````````````fflllfhjzf<10ffjlfjzhjfhhhhfhffhflhfhflfkffhfhfffffd00elhlffllhhlhkffff:    +:0hhffffff```````",
"`````````````````````````````````7fjfzfffhffufffzfhkfhffhhffzffhhffffhfffffffffe061--&XX%3fffhffffffkffff2%     1ffffffffu``````",
"`````````````````````````````````ufffffffffffffffffffffffffffffffffffffffu641--#X.       X,0ffffffffffffff02;# .2fffdffff```````",
"````````````````````````````````3fffffffffffffffffffffffffffffffffffd65,&%..       ````    &6sffffffffffffffs055pfffffffs```````",
"````````````````````````````````0ffffffffffffaffsffffsffffpffffuu52;%X       `````````````  +1ufuffffsdfsffffsfufdfpuffau```````",
"```````````````````````````````3fffsffsfafffafffffufsfsffffue52-%X     ````````````````````  .-6ffdpfufifufpfuffdfuffupp6```````",
"``````````````````````````````0ufsfffufsfpufffuffufafufftr2:%X     ``````````````````````````  +:0ufuufufufufufufuufiff0````````",
"````````````````````````````uuffufuuufuffufiudfusfuffr5,&@     ```````````````````````````````   &3eufufufuffussufusuuu5````````",
"``````````````````````````ufpuduufuffuddufufufuffue5,&o    `````````````````````````````````````  .&3euduufuuufuuduaiu5`````````",
"````````````````````````uuuuufsduuufuuusuauuuuu05<&o   ``````````````````````````````````````````   .&2euuuuuuuuuuuuu4&`````````",
"``````````````````````uuuuussuuuuuuduusuuuuue5,&o   ```````````````````````````````````````````````   .&,5tuuuuuuuu81%``````````",
"````````````````````euuuuuuuuuuuuuuuuuuuuu82=o   ````````````````````````````````````````````````````    X&;255452:$````````````",
"```````````````````yuuuuuuuuueuueuuuuuer5,+.  `````````````````````````````````````````````````````````     .X.XXX `````````````",
"`````````````````0ueuueueueuueueuueuee0-.  ````````````````````````````````````````````````````````````````      ```````````````",
"````````````````0ueueueyutueeureeeueue1  ```````````````````````````````````````````````````````````````````````````````````````",
"```````````````reeueuetutreeeurueeeer6%`````````````````````````````````````````````````````````````````````````````````````````",
"``````````````rettrttettetyetyrrwwwer1``````````````````````````````````````````````````````````````````````````````````````````",
"`````````````0rrt0rrte0rrr0e00r0w0we6&``````````````````````````````````````````````````````````````````````````````````````````",
"````````````0er00ter0ttrrt00eer000001```````````````````````````````````````````````````````````````````````````````````````````",
"```````````6000000000000000000q00009=```````````````````````````````````````````````````````````````````````````````````````````",
"``````````30000000000055000000000001````````````````````````````````````````````````````````````````````````````````````````````",
"``````````50006000002=X=80008000005`````````````````````````````````````````````````````````````````````````````````````````````",
"`````````26000900002$  &6000608006:`````````````````````````````````````````````````````````````````````````````````````````````",
"`````````3606070662%  X,6006060682``````````````````````````````````````````````````````````````````````````````````````````````",
"`````````560060665% `o,6606060665*``````````````````````````````````````````````````````````````````````````````````````````````",
"`````````666666665O``16668666866<```````````````````````````````````````````````````````````````````````````````````````````````",
"`````````568670666,-106086606662````````````````````````````````````````````````````````````````````````````````````````````````",
"`````````1860666666666666666603-````````````````````````````````````````````````````````````````````````````````````````````````",
"`````````;66666666666669066966:`````````````````````````````````````````````````````````````````````````````````````````````````",
"`````````+20660660666606666661``````````````````````````````````````````````````````````````````````````````````````````````````",
"``````````;50660666606606696,```````````````````````````````````````````````````````````````````````````````````````````````````",
"``````````.,666660966666666<o```````````````````````````````````````````````````````````````````````````````````````````````````",
"```````````@16688660666663,o````````````````````````````````````````````````````````````````````````````````````````````````````",
"``````````` +:56666660662=.`````````````````````````````````````````````````````````````````````````````````````````````````````",
"```````````` .&,5666652;O```````````````````````````````````````````````````````````````````````````````````````````````````````",
"`````````````  .$=,1-%o ````````````````````````````````````````````````````````````````````````````````````````````````````````",
"```````````````    .  ``````````````````````````````````````````````````````````````````````````````````````````````````````````",
"````````````````````````````````````````````````````````````````````````````````````````````````````````````````````````````````",
"````````````````````````````````````````````````````````````````````````````````````````````````````````````````````````````````",
"````````````````````````````````````````````````````````````````````````````````````````````````````````````````````````````````",
"````````````````````````````````````````````````````````````````````````````````````````````````````````````````````````````````",
"````````````````````````````````````````````````````````````````````````````````````````````````````````````````````````````````",
"````````````````````````````````````````````````````````````````````````````````````````````````````````````````````````````````",
"````````````````````````````````````````````````````````````````````````````````````````````````````````````````````````````````",
"````````````````````````````````````````````````````````````````````````````````````````````````````````````````````````````````",
"````````````````````````````````````````````````````````````````````````````````````````````````````````````````````````````````"
};
