/* XPM */
static char *gcolor_[] = {
/* columns rows colors chars-per-pixel */
"128 128 77 1",
"  c #000000",
". c #0D0D0D",
"X c #131313",
"o c #1B1B1B",
"O c #222323",
"+ c #2B2B2B",
"@ c #2F312F",
"# c #343434",
"$ c #3B3B3B",
"% c #413F3F",
"& c #444444",
"* c #4B4B4B",
"= c #555555",
"- c #5B5B5B",
"; c #646363",
": c #686867",
"> c #6C6C6C",
", c #6F6F70",
"< c #737373",
"1 c #7C7C7C",
"2 c #7F817F",
"3 c #80807E",
"4 c #7F7F80",
"5 c #848484",
"6 c #868886",
"7 c #888887",
"8 c #878788",
"9 c #888788",
"0 c #878888",
"q c #8C8C8C",
"w c #908F8F",
"e c #8F908F",
"r c #91918F",
"t c #8F8F90",
"y c #8F9090",
"u c #939393",
"i c #989897",
"p c #979798",
"a c #989798",
"s c #9B9B9B",
"d c #9FA09F",
"f c #A0A09F",
"g c #9F9FA0",
"h c #A09FA0",
"j c #9FA0A0",
"k c #A4A4A4",
"l c #A8A7A7",
"z c #A7A7A8",
"x c #ABABAB",
"c c #AEB0AE",
"v c #AFAFB0",
"b c #B0AFB0",
"n c #AFB0B0",
"m c #B4B4B4",
"M c #B8B7B7",
"N c #B7B8B7",
"B c #B7B7B8",
"V c #B8B7B8",
"C c #B7B8B8",
"Z c #BCBCBC",
"A c #BFC0BF",
"S c #BFBFC0",
"D c #BFC0C0",
"F c #C3C3C3",
"G c #C7C8C7",
"H c #C8C8C7",
"J c #C8C7C8",
"K c #C7C8C8",
"L c #CCCCCC",
"P c #D0CFCF",
"I c #CFD0CF",
"U c #D0CFD0",
"Y c #CFD0D0",
"T c #D4D4D4",
"R c #D8D8D7",
"E c #DADADA",
"W c None",
/* pixels */
"WWWWWWWWWWWWWWWWWWWWWWWWWWWWWWWWWWWWWWWWWWWWWWWWWWWWWWWWWWWWWWWWWWWWWWWWWWWWWWWWWWWWWWWWWWWWWWWWWWWWWWWWWWWWWWWWWWWWWWWWWWWWWWWW",
"WWWWWWWWWWWWWWWWWWWWWWWWWWWWWWWWWWWWWWWWWWWWWWWWWWWWWWWWWWWWWWWWWWWWWWWWWWWWWWWWWWWWWWWWWWWWWWWWWWWWWWWWWWWWWWWWWWWWWWWWWWWWWWWW",
"WWWWWWWWWWWWWWWWWWWWWWWWWWWWWWWWWWWWWWWWWWWWWWWWWWWWWWWWWWWWWWWWWWWWWWWWWWWWWWWWWWWWWWWWWWWWWWWWWWWWWWWWWWWWWWWWWWWWWWWWWWWWWWWW",
"WWWWWWWWWWWWWWWWWWWWWWWWWWWWWWWWWWWWWWWWWWWWWWWWWWWWWWWWWWWWWWWWWWWWWWWWWWWWWWWWWWWWWWWWWWWWWWWWWWWWWWWWWWWWWWWWWWWWWWWWWWWWWWWW",
"WWWWWWWWWWWWWWWWWWWWWWWWWWWWWWWWWWWWWWWWWWWWWWWWWWWWWWWWWWWWWWWWWWWWWWWWWWWWWWWWWWWWWWWWWWWWWWWWWWWWWWWWWWWWWWWWWWWWWWWWWWWWWWWW",
"WWWWWWWWWWWWWWWWWWWWWWWWWWWWWWWWWWWWWWWWWWWWWWWWWWWWWWWWWWWWWWWEEEWWWWWWWWWWWWWWWWWWWWWWWWWWWWWWWWWWWWWWWWWWWWWWWWWWWWWWWWWWWWWW",
"WWWWWWWWWWWWWWWWWWWWWWWWWWWWWWWWWWWWWWWWWWWWWWWWWWWWWWWWWWWWWEEEEEEEWWWWWWWWWWWWWWWWWWWWWWWWWWWWWWWWWWWWWWWWWWWWWWWWWWWWWWWWWWWW",
"WWWWWWWWWWWWWWWWWWWWWWWWWWWWWWWWWWWWWWWWWWWWWWWWWWWWWWWWWWEEEEEEEEEEEEEWWWWWWWWWWWWWWWWWWWWWWWWWWWWWWWWWWWWWWWWWWWWWWWWWWWWWWWWW",
"WWWWWWWWWWWWWWWWWWWWWWWWWWWWWWWWWWWWWWWWWWWWWWWWWWWWWWWWEEEEEEEEEEEEEEEEEWWWWWWWWWWWWWWWWWWWWWWWWWWWWWWWWWWWWWWWWWWWWWWWWWWWWWWW",
"WWWWWWWWWWWWWWWWWWWWWWWWWWWWWWWWWWWWWWWWWWWWWWWWWWWWWWEEEEEEEEEEEEEEEEEEEEEWWWWWWWWWWWWWWWWWWWWWWWWWWWWWWWWWWWWWWWWWWWWWWWWWWWWW",
"WWWWWWWWWWWWWWWWWWWWWWWWWWWWWWWWWWWWWWWWWWWWWWWWWWWREEEEEEEEEEEEEEEEEEEEEEEEEEWWWWWWWWWWWWWWWWWWWWWWWWWWWWWWWWWWWWWWWWWWWWWWWWWW",
"WWWWWWWWWWWWWWWWWWWWWWWWWWWWWWWWWWWWWWWWWWWWWWWWWRREEEEEEEEEEEEEEEEEEEEEEEEEEEEEWWWWWWWWWWWWWWWWWWWWWWWWWWWWWWWWWWWWWWWWWWWWWWWW",
"WWWWWWWWWWWWWWWWWWWWWWWWWWWWWWWWWWWWWWWWWWWWWWWREREEEREREEREEEEYLLERREEEEEEEEEEEERWWWWWWWWWWWWWWWWWWWWWWWWWWWWWWWWWWWWWWWWWWWWWW",
"WWWWWWWWWWWWWWWWWWWWWWWWWWWWWWWWWWWWWWWWWWWWTREEREEREREEEERTRJz-O;uSRRREEEEEEEEEREERRWWWWWWWWWWWWWWWWWWWWWWWWWWWWWWWWWWWWWWWWWWW",
"WWWWWWWWWWWWWWWWWWWWWWWWWWWWWWWWWWWWWWWWWWTRRRRRRRRRRRRRERRS4%X    $5ZYREREEEEEERRRRRRRWWWWWWWWWWWWWWWWWWWWWWWWWWWWWWWWWWWWWWWWW",
"WWWWWWWWWWWWWWWWWWWWWWWWWWWWWWWWWWWWWWWWTRRRRRRRRRRRRRRRYv4$         +-zYREEEEEETRRRRRRTTWWWWWWWWWWWWWWWWWWWWWWWWWWWWWWWWWWWWWWW",
"WWWWWWWWWWWWWWWWWWWWWWWWWWWWWWWWWWWWWTTRTRRTRRRRRRRTRTGk-X  WWWWWWW    X-kGTTRRRTRRRRRRTRRTWWWWWWWWWWWWWWWWWWWWWWWWWWWWWWWWWWWWW",
"WWWWWWWWWWWWWWWWWWWWWWWWWWWWWWWWWWWTTTRRRTTRTRTTRTTTZ5$X WWWWWWWWWWWWW   X$4ZTTTRTTTTTRTTTTRTTWWWWWWWWWWWWWWWWWWWWWWWWWWWWWWWWWW",
"WWWWWWWWWWWWWWWWWWWWWWWWWWWWWWWWWTTTTTTTRTTTTTTTTLl1$  WWWWWWWWWWWWWWWWW    $<kLTTTTTTTTTTTTTTTTWWWWWWWWWWWWWWWWWWWWWWWWWWWWWWWW",
"WWWWWWWWWWWWWWWWWWWWWWWWWWWWWWLTTTTTTTTTTTTTTTTGk-X  WWWWWWWWWWWWWWWWWWWWW    X-zLTTTTTTTTTTTTTTTTWWWWWWWWWWWWWWWWWWWWWWWWWWWWWW",
"WWWWWWWWWWWWWWWWWWWWWWWWWWWWYTTTTTTTPTTTTYTTYB5$X WWWWWWWWWWWWWWWWWWWWWWWWWWW   X-qmTTTTTTTTTTTYTTITLWWWWWWWWWWWWWWWWWWWWWWWWWWW",
"WWWWWWWWWWWWWWWWWWWWWWWWWWLTTTTPTTLTTTTTTYKz1$  WWWWWWWWWWWWWWWWWWWWWWWWWWWWWWW    $5BKYTTLTTYTTTTPTTTLWWWWWWWWWWWWWWWWWWWWWWWWW",
"WWWWWWWWWWWWWWWWWWWWWWWLTLTTYTLTTYTTLTTLDj-o  WWWWWWWWWWWWWWWWWWWWWWWWWWWWWWWWWWW    O-gLLYTLTTTTTITTPITLWWWWWWWWWWWWWWWWWWWWWWW",
"WWWWWWWWWWWWWWWWWWWWWLLTUTLTLPTLLTLLTLmq%o WWWWWWWWWWWWWWWWWWWWWWWWWWWWWWWWWWWWWWWWW   o-dZLTLLTLLTLITLYTTLTWWWWWWWWWWWWWWWWWWWW",
"WWWWWWWWWWWWWWWWWWWLTLLTLTTPLITLLYYLl1$  WWWWWWWWWWWWWWWWWWWWWWWWWWWWWWWWWWWWWWWWWWWWW   X$5mLTLPLULTTLTTLTTLLWWWWWWWWWWWWWWWWWW",
"WWWWWWWWWWWWWWWWLLLTLPPLLLLLTLTLLFg-o  WWWWWWWWWWWWWWWWWWWWWWWWWWWWWWWWWWWWWWWWWWWWWWWWW    #,sLLTULLLLLLULLTLLLWWWWWWWWWWWWWWWW",
"WWWWWWWWWWWWWWGLLYILLTLPYTLTTLLmq*o WWWWWWWWWWWWWWWWWWWWWWWWWWWWWWWWWWWWWWWWWWWWWWWWWWWWWW    o-sGLLLULUPLLLLPLILLWWWWWWWWWWWWWW",
"WWWWWWWWWWWWWLLLLLLLLLLLLLLLGl4#  WWWWWWWWWWWWWWWWWWWWWWWWWWWWWWWWWWWWWWWWWWWWWWWWWWWWWWWWWWW   o=5mLLLLLYLLLLLLLLLLWWWWWWWWWWWW",
"WWWWWWWWWWWWWLLLLLLLLLLLLLFs-o  WWWWWWWWWWWWWWWWWWWWWWWWWWWWWWWWWWWWWWWWWWWWWWWWWWWWWWWWWWWWWWW    #5xGLLLLLLLLLLLLLLWWWWWWWWWWW",
"WWWWWWWWWWWWxLLLLLLLLLLLm5*o WWWWWWWWWWWWWWWWWWWWWWWWWWWWWWWWWWWWWWWWWWWWWWWWWWWWWWWWWWWWWWWWWWWW    o-sGLLLLJLLLLLLLWWWWWWWWWWW",
"WWWWWWWWWWWWkJLKJLLLLJLGq. WWWWWWWWWWWWWWWWWWWWWWWWWWWWWWWWWWWWWWWWWWWWWWWWWWWWWWWWWWWWWWWWWWWWWWWWW   o-xLLLLLLLLLLJWWWWWWWWWWW",
"WWWWWWWWWWWWuLJLJLJLJLJLSu$WWWWWWWWWWWWWWWWWWWWWWWWWWWWWWWWWWWWWWWWWWWWWWWWWWWWWWWWWWWWWWWWWWWWWWWWWWW .>bGJGGJGGGLHJWWWWWWWWWWW",
"WWWWWWWWWWWWtGLGLJLJJLLJJLm5WWWWWWWWWWWWWWWWWWWWWWWWWWWWWWWWWWWWWWWWWWWWWWWWWWWWWWWWWWWWWWWWWWWWWWWWWW$rZLJLGJLGJKLGFWWWWWWWWWWW",
"WWWWWWWWWWWWqGJJJJGJGGJJJKGFbWWWWWWWWWWWWWWWWWWWWWWWWWWWWWWWWWWWWWWWWWWWWWWWWWWWWWWWWWWWWWWWWWWWWWWWWqmGJJJKJJJJJGGGFWWWWWWWWWWW",
"WWWWWWWWWWWW5GGGGFJJGJGJFGGGJFWWWWWWWWWWWWWWWWWWWWWWWWWWWWWWWWWWWWWWWWWWWWWWWWWWWWWWWWWWWWWWWWWWWWWWbFGGGGGGGGFJFGGGFWWWWWWWWWWW",
"WWWWWWWWWWWW5FFGGGGFFGFGJGGFFGGFWWWWWWWWWWWWWWWWWWWWWWWWWWWWWWWWWWWWWWWWWWWWWWWWWWWWWWWWWWWWWWWWWWmFGGFGJFFGGGGFGGGFZWWWWWWWWWWW",
"WWWWWWWWWWWW5FGFGFFskFGFFGFJFJFGGFWWWWWWWWWWWWWWWWWWWWWWWWWWWWWWWWWWWWWWWWWWWWWWWWWWWWWWWWWWWWWWWSFFFGFGFGFFFFFGFFFFSWWWWWWWWWWW",
"WWWWWWWWWWWW4FFFFFF<+1VGFFFFFFFFFFFWWWWWWWWWWWWWWWWWWWWWWWWWWWWWWWWWWWWWWWWWWWWWWWWWWWWWWWWWWWWZFFFFFFFFGFFFhsFFFFFFZWWWWWWWWWWW",
"WWWWWWWWWWWW4FGFFFG< .-uFFFFFFFFFFFZFWWWWWWWWWWWWWWWWWWWWWWWWWWWWWWWWWWWWWWWWWWWWWWWWWWWWWWWWWZFFFFFFFFFGFx<+<FFFFFFbWWWWWWWWWWW",
"WWWWWWWWWWWW4FFFFFF<   X<xFFFFFFFFFFFZWWWWWWWWWWWWWWWWWWWWWWWWWWWWWWWWWWWWWWWWWWWWWWWWWWWWWWZFFFFFFFFFFFZu&  <AFFFFFsWWWWWWWWWWW",
"WWWWWWWWWWWW5AFFFFF1W    *uZFFFFFFFFFFFZWWWWWWWWWWWWWWWWWWWWWWWWWWWWWWWWWWWWWWWWWWWWWWWWWWmZFFFFFSFFFFZx<X   <FFFFSFuWWWWWWWWWWW",
"WWWWWWWWWWWW1FFAZFZqWWWW  .:kFZFZFZFZFFFFZWWWWWWWWWWWWWWWWWWWWWWWWWWWWWWWWWWWWWWWWWWWWWWWZFFZFZFSFFZFm5+ WWW <FAAZFFsWWWWWWWWWWW",
"WWWWWWWWWWWW1FZFZFFxWWWWW   #1mFFZFZFZFZFFZWWWWWWWWWWWWWWWWWWWWWWWWWWWWWWWWWWWWWWWWWWWWVZFZFFFZFFFZSk-.WWWWWW1ZFAAFZsWWWWWWWWWWW",
"WWWWWWWWWWWW;VAZFZAmWWWWWWW  .=kZFFZZFZFZZFZZWWWWWWWWWWWWWWWWWWWWWWWWWWWWWWWWWWWWWWWWWVFFZFFZAFZZZz<# WWWWWWW5ZFAAAZsWWWWWWWWWWW",
"WWWWWWWWWWWWWbZFDAACWWWWWWWWW  @>lFZAZAZZFZAAZWWWWWWWWWWWWWWWWWWWWWWWWWWWWWWWWWWWWWWVZFZZAZZZDZFZu* WWWWWWWWWlAZZAZAsWWWWWWWWWWW",
"WWWWWWWWWWWWWxZZZDZVWWWWWWWWWW   *uZAZZFZZAAZAZZWWWWWWWWWWWWWWWWWWWWWWWWWWWWWWWWWWmZZAZZAAZDZZZk>XWWWWWWWWWWWmZAZAZZWWWWWWWWWWWW",
"WWWWWWWWWWWWWxZZSZZCWWWWWWWWWWWW  X>kZZZZSAZZZZAZWWWWWWWWWWWWWWWWWWWWWWWWWWWWWWWWVZZZZZFZZAZZm5+ WWWWWWWWWWWWvVZZAZmWWWWWWWWWWWW",
"WWWWWWWWWWWWWvZZZZZmWWWWWWWWWWWWW   +5mZZZZZZZZZZZVWWWWWWWWWWWWWWWWWWWWWWWWWWWWVZZSZZZZVZZZZs=.WWWWWWWWWWWWWWmZZZZZmWWWWWWWWWWWW",
"WWWWWWWWWWWWWxZVZZZmWWWWWWWWWWWWWWW  .=hVZZZZZZZZZZVNWWWWWWWWWWWWWWWWWWWWWWWWWVZZZZZZVZZZZk>+WWWWWWWWWWWWWWWWxVZZZZmWWWWWWWWWWWW",
"WWWWWWWWWWWWWxZZCZZmWWWWWWWWWWWWWWWWW  +>kZVVZVZZNZZZNWWWWWWWWWWWWWWWWWWWWWWmZZVZVNZVZZVmq* WWWWWWWWWWWWWWWWWcZZVZZbWWWWWWWWWWWW",
"WWWWWWWWWWWWWxVZVZNmWWWWWWWWWWWWWWWWWW   *qBVZVZNVZVVZVNWWWWWWWWWWWWWWWWWWmNNZVZZZVZZNNd;XWWWWWWWWWWWWWWWWWWWxVZVVVbWWWWWWWWWWWW",
"WWWWWWWWWWWWWxVVCVNmWWWWWWWWWWWWWWWWWWWW  o>kVNVNVNNNVVVNWWWWWWWWWWWWWWWWmmVNVVVVVVVNc5+ WWWWWWWWWWWWWWWWWWW;mVVVMMmWWWWWWWWWWWW",
"WWWWWWWWWWWWWxNVVVmmWWWWWWWWWWWWWWWWWWWWW   $8xVNVNVNNNNVNmWWWWWWWWWWWWmNVCVNVNNVCCmq*.WWWWWWWWWWWWWWWWWWWWW4mCVVNmkWWWWWWWWWWWW",
"WWWWWWWWWWWWWlMVCVmcWWWWWWWWWWWWWWWWWWWWWWW  .=smBmCNNNmCVCNmWWWWWWWWWmVmVmVmNMMVmk>oWWWWWWWWWWWWWWWWWWWWWWW5mmVVmmuWWWWWWWWWWWW",
"WWWWWWWWWWWWWlCmNmNmWWWWWWWWWWWWWWWWWWWWWWWW   +5lmmVVmNVmmBmmWWWWWWmmmmCNVmmNmmxq* WWWWWWWWWWWWWWWWWWWWWWWW5mmmMBmqWWWWWWWWWWWW",
"WWWWWWWWWWWWWlmmNmmcWWWWWWWWWWWWWWWWWWWWWWWWWW  .&qmmmmmmMmmBmmmWWxmmmmMmmmVmmms=.WWWWWWWWWWWWWWWWWWWWWWWWWW1mmmmmmuWWWWWWWWWWWW",
"WWWWWWWWWWWWWlmmmmmxWWWWWWWWWWWWWWWWWWWWWWWWWWWW  o>kmmmmmmmmmmmnmmmmmmmmmmmml5+ WWWWWWWWWWWWWWWWWWWWWWWWWWW1mmmmmmrWWWWWWWWWWWW",
"WWWWWWWWWWWWWkmmmmmxWWWWWWWWWWWWWWWWWWWWWWWWWWWWW   &5lmmmmmmmmnmmnmmnmmmmmn5&.WWWWWWWWWWWWWWWWWWWWWWWWWWWWW1mmmmmmuWWWWWWWWWWWW",
"WWWWWWWWWWWWWkmmmnmmWWWWWWWWWWWWWWWWWWWWWWWWWWWWWWW  X=ummnmmmmmnmmmmbmmmmk>oWWWWWWWWWWWWWWWWWWWWWWWWWWWWWWWtmvmcmmuWWWWWWWWWWWW",
"WWWWWWWWWWWWWsxmnmnmsWWWWWWWWWWWWWWWWWWWWWWWWWWWWWWW   +1kmcnmxnbmnmnnmmz5& WWWWWWWWWWWWWWWWWWWWWWWWWWWWWWWWkmmxmbxWWWWWWWWWWWWW",
"WWWWWWWWWWWWW1xmnnnmiWWWWWWWWWWWWWWWWWWWWWWWWWWWWWWWWW  .&5xmmxmbmbnmnxu-.WWWWWWWWWWWWWWWWWWWWWWWWWWWWWWWWWWknxmxmlWWWWWWWWWWWWW",
"WWWWWWWWWWWWW<bnnmbbaWWWWWWWWWWWWWWWWWWWWWWWWWWWWWWWWWWW  o>kxmmnnmnnz1+ WWWWWWWWWWWWWWWWWWWWWWWWWWWWWWWWWWWkvmnmxlWWWWWWWWWWWWW",
"WWWWWWWWWWWWW<xbncbbuWWWWWWWWWWWWWWWWWWWWWWWWWWWWWWWWWWWW   &5xxcbcci&.WWWWWWWWWWWWWWWWWWWWWWWWWWWWWWWWWWWWWknxnxmlWWWWWWWWWWWWW",
"WWWWWWWWWWWWW<xbccxbuWWWWWWWWWWWWWWWWWWWWWWWWWWWWWWWWWWWWWW  &lmxcbxq WWWWWWWWWWWWWWWWWWWWWWWWWWWWWWWWWWWWWWkxmxnxlWWWWWWWWWWWWW",
"WWWWWWWWWWWWW<cxxbnxuWWWWWWWWWWWWWWWWWWWWWWWWWWWWWWWWWWWWWWW &lxxxbxqWWWWWWWWWWWWWWWWWWWWWWWWWWWWWWWWWWWWWWWkccxxxzWWWWWWWWWWWWW",
"WWWWWWWWWWWWW<xxbxxxqWWWWWWWWWWWWWWWWWWWWWWWWWWWWWWWWWWWWWWWW&zvbxxxuWWWWWWWWWWWWWWWWWWWWWWWWWWWWWWWWWWWWWWWkxxxcxkWWWWWWWWWWWWW",
"WWWWWWWWWWWWW<xxxxxxqWWWWWWWWWWWWWWWWWWWWWWWWWWWWWWWWWWWWWWWW&lxxxxxuWWWWWWWWWWWWWWWWWWWWWWWWWWWWWWWWWWWWWW<xxxxxlsWWWWWWWWWWWWW",
"WWWWWWWWWWWWW<xxxxxxqWWWWWWWWWWWWWWWWWWWWWWWWWWWWWWWWWWWWWWWW*kxxxxxuWWWWWWWWWWWWWWWWWWWWWWWWWWWWWWWWWWWWWW<lxxxxlqWWWWWWWWWWWWW",
"WWWWWWWWWWWWW<lxlxxlqWWWWWWWWWWWWWWWWWWWWWWWWWWWWWWWWWWWWWWWW*kxlxxxaWWWWWWWWWWWWWWWWWWWWWWWWWWWWWWWWWWWWWW<xlxxxl5WWWWWWWWWWWWW",
"WWWWWWWWWWWWW<llxllxqWWWWWWWWWWWWWWWWWWWWWWWWWWWWWWWWWWWWWWWW*llllllsWWWWWWWWWWWWWWWWWWWWWWWWWWWWWWWWWWWWWW<lxzlxlqWWWWWWWWWWWWW",
"WWWWWWWWWWWWW<lllxllqWWWWWWWWWWWWWWWWWWWWWWWWWWWWWWWWWWWWWWWW=kzllxlsWWWWWWWWWWWWWWWWWWWWWWWWWWWWWWWWWWWWWW<llzzzl6WWWWWWWWWWWWW",
"WWWWWWWWWWWWW<lllzzzqWWWWWWWWWWWWWWWWWWWWWWWWWWWWWWWWWWWWWWWW*klllllaWWWWWWWWWWWWWWWWWWWWWWWWWWWWWWWWWWWWWW,llllllqWWWWWWWWWWWWW",
"WWWWWWWWWWWWW>kllkll0WWWWWWWWWWWWWWWWWWWWWWWWWWWWWWWWWWWWWWWW=kkkllksWWWWWWWWWWWWWWWWWWWWWWWWWWWWWWWWWWWWWW1lkzlkkqWWWWWWWWWWWWW",
"WWWWWWWWWWWWW<klklkl0WWWWWWWWWWWWWWWWWWWWWWWWWWWWWWWWWWWWWWWW*kkklklaWWWWWWWWWWWWWWWWWWWWWWWWWWWWWWWWWWWWWWukkklkkWWWWWWWWWWWWWW",
"WWWWWWWWWWWWW>kkklkkpWWWWWWWWWWWWWWWWWWWWWWWWWWWWWWWWWWWWWWWW*kklkklaWWWWWWWWWWWWWWWWWWWWWWWWWWWWWWWWWWWWWWskkkkkdWWWWWWWWWWWWWW",
"WWWWWWWWWWWWW>kkkkkkdWWWWWWWWWWWWWWWWWWWWWWWWWWWWWWWWWWWWWWWW*kkkkkkuWWWWWWWWWWWWWWWWWWWWWWWWWWWWWWWWWWWWWWukkkkksWWWWWWWWWWWWWW",
"WWWWWWWWWWWWW$ukkkkkdWWWWWWWWWWWWWWWWWWWWWWWWWWWWWWWWWWWWWWWW*skkkkjuWWWWWWWWWWWWWWWWWWWWWWWWWWWWWWWWWWWWWWskkkjksWWWWWWWWWWWWWW",
"WWWWWWWWWWWWWWukskjkdWWWWWWWWWWWWWWWWWWWWWWWWWWWWWWWWWWWWWWWW*gkkkjkuWWWWWWWWWWWWWWWWWWWWWWWWWWWWWWWWWWWWWWpskkkksWWWWWWWWWWWWWW",
"WWWWWWWWWWWWWWukkkkdsWWWWWWWWWWWWWWWWWWWWWWWWWWWWWWWWWWWWWWWW*fkkdkjuWWWWWWWWWWWWWWWWWWWWWWWWWWWWWWWWWWWWWWukskkksWWWWWWWWWWWWWW",
"WWWWWWWWWWWWWWuffffksWWWWWWWWWWWWWWWWWWWWWWWWWWWWWWWWWWWWWWWW*sssdkjuWWWWWWWWWWWWWWWWWWWWWWWWWWWWWWWWWWWWWWujkskksWWWWWWWWWWWWWW",
"WWWWWWWWWWWWWWukkskdhsWWWWWWWWWWWWWWWWWWWWWWWWWWWWWWWWWWWWWWW*skjjskuWWWWWWWWWWWWWWWWWWWWWWWWWWWWWWWWWWWWW>sghkssuWWWWWWWWWWWWWW",
"WWWWWWWWWWWWWWusskskkssWWWWWWWWWWWWWWWWWWWWWWWWWWWWWWWWWWWWWW*sgddksuWWWWWWWWWWWWWWWWWWWWWWWWWWWWWWWWWWWW2skghskj3WWWWWWWWWWWWWW",
"WWWWWWWWWWWWWWuskskssksksWWWWWWWWWWWWWWWWWWWWWWWWWWWWWWWWWWWW*ssssskuWWWWWWWWWWWWWWWWWWWWWWWWWWWWWWWWWWWuskssggss5WWWWWWWWWWWWWW",
"WWWWWWWWWWWWWW1sssssssssssWWWWWWWWWWWWWWWWWWWWWWWWWWWWWWWWWWW*ssskdsqWWWWWWWWWWWWWWWWWWWWWWWWWWWWWWWWWWsssssgssss1WWWWWWWWWWWWWW",
"WWWWWWWWWWWWWWo<sssssssssssiWWWWWWWWWWWWWWWWWWWWWWWWWWWWWWWWW*ssssssyWWWWWWWWWWWWWWWWWWWWWWWWWWWWWWWWussssssssssuWWWWWWWWWWWWWWW",
"WWWWWWWWWWWWWWWo;qsssssssssssWWWWWWWWWWWWWWWWWWWWWWWWWWWWWWWW*psssssqWWWWWWWWWWWWWWWWWWWWWWWWWWWWWWWussssssssssu:WWWWWWWWWWWWWWW",
"WWWWWWWWWWWWWWWW $<pssssssssspWWWWWWWWWWWWWWWWWWWWWWWWWWWWWWW*usssssqWWWWWWWWWWWWWWWWWWWWWWWWWWWWWWpssssisssss1*WWWWWWWWWWWWWWWW",
"WWWWWWWWWWWWWWWW  o>ussssssspssuWWWWWWWWWWWWWWWWWWWWWWWWWWWWW*usssssqWWWWWWWWWWWWWWWWWWWWWWWWWWWWuusussusssst,OWWWWWWWWWWWWWWWWW",
"WWWWWWWWWWWWWWWWW  .*qsussasasiauWWWWWWWWWWWWWWWWWWWWWWWWWWWW*usspasqWWWWWWWWWWWWWWWWWWWWWWWWWWWussisssupspq*XWWWWWWWWWWWWWWWWWW",
"WWWWWWWWWWWWWWWWWWW  $<uususuiassasWWWWWWWWWWWWWWWWWWWWWWWWWW&uaussuqWWWWWWWWWWWWWWWWWWWWWWWWWWusuusuapssu<$WWWWWWWWWWWWWWWWWWWW",
"WWWWWWWWWWWWWWWWWWWW  o-qususuiiusuuWWWWWWWWWWWWWWWWWWWWWWWWW&uaususqWWWWWWWWWWWWWWWWWWWWWWWWWuuuussppusu>oWWWWWWWWWWWWWWWWWWWWW",
"WWWWWWWWWWWWWWWWWWWWW   *1uiupuauuauuWWWWWWWWWWWWWWWWWWWWWWWW*upuauuqWWWWWWWWWWWWWWWWWWWWWWWeupsusuuuuuq*.WWWWWWWWWWWWWWWWWWWWWW",
"WWWWWWWWWWWWWWWWWWWWWWW  O>uuuausuuauuuWWWWWWWWWWWWWWWWWWWWWW&uuupup0WWWWWWWWWWWWWWWWWWWWWWtuuuuuuuuuu<$WWWWWWWWWWWWWWWWWWWWWWWW",
"WWWWWWWWWWWWWWWWWWWWWWWW  o-9uuauuuuuuuuWWWWWWWWWWWWWWWWWWWWW&uuuupuqWWWWWWWWWWWWWWWWWWWWWuuuuuuuuuuq>OWWWWWWWWWWWWWWWWWWWWWWWWW",
"WWWWWWWWWWWWWWWWWWWWWWWWWW  $>uuuuuuuuuuuWWWWWWWWWWWWWWWWWWWW&yuuuuu5WWWWWWWWWWWWWWWWWWWquuuuuuuuuuq*.WWWWWWWWWWWWWWWWWWWWWWWWWW",
"WWWWWWWWWWWWWWWWWWWWWWWWWWW  o>uuuuuuuuuuutWWWWWWWWWWWWWWWWWW&yuuuuu6WWWWWWWWWWWWWWWWWWuuuuuuuuuuu>$WWWWWWWWWWWWWWWWWWWWWWWWWWWW",
"WWWWWWWWWWWWWWWWWWWWWWWWWWWW  o=5uuuuuuuuuuqWWWWWWWWWWWWWWWWW&ruuuuu5WWWWWWWWWWWWWWWWqquuuuuquuuu>OWWWWWWWWWWWWWWWWWWWWWWWWWWWWW",
"WWWWWWWWWWWWWWWWWWWWWWWWWWWWWW  &1uququqquququWWWWWWWWWWWWWWW&qyuquq5WWWWWWWWWWWWWWWqquuququuue6=oWWWWWWWWWWWWWWWWWWWWWWWWWWWWWW",
"WWWWWWWWWWWWWWWWWWWWWWWWWWWWWWW  o:8tuquuquqtqqWWWWWWWWWWWWWW&ququtu5WWWWWWWWWWWWWWquqquuquqqu1*WWWWWWWWWWWWWWWWWWWWWWWWWWWWWWWW",
"WWWWWWWWWWWWWWWWWWWWWWWWWWWWWWWW   *5equququuqutWWWWWWWWWWWWW&qyqquq5WWWWWWWWWWWWqququuqququq>OWWWWWWWWWWWWWWWWWWWWWWWWWWWWWWWWW",
"WWWWWWWWWWWWWWWWWWWWWWWWWWWWWWWWWW  #>queqquqqrqqqWWWWWWWWWWW&qququq4WWWWWWWWWWWqqquququtuq5=XWWWWWWWWWWWWWWWWWWWWWWWWWWWWWWWWWW",
"WWWWWWWWWWWWWWWWWWWWWWWWWWWWWWWWWWW  o-5qeyqqtqrqrqWWWWWWWWWW&qqqqqq5WWWWWWWWWWqqqqqwqqqqq<*WWWWWWWWWWWWWWWWWWWWWWWWWWWWWWWWWWWW",
"WWWWWWWWWWWWWWWWWWWWWWWWWWWWWWWWWWWW   *1qqqquqqqrqqWWWWWWWWW&qqqqqu4WWWWWWWW5qqqqqqwqqqq>OWWWWWWWWWWWWWWWWWWWWWWWWWWWWWWWWWWWWW",
"WWWWWWWWWWWWWWWWWWWWWWWWWWWWWWWWWWWWWW  o>qqqqqqqqqqqqWWWWWWW$qqqqqq5WWWWWWW5qqqqeqqqqq4=oWWWWWWWWWWWWWWWWWWWWWWWWWWWWWWWWWWWWWW",
"WWWWWWWWWWWWWWWWWWWWWWWWWWWWWWWWWWWWWWW  X*4qqqqqqqqqqqWWWWWW&5qqqqq1WWWWWW5qqqqqqqqqq<* WWWWWWWWWWWWWWWWWWWWWWWWWWWWWWWWWWWWWWW",
"WWWWWWWWWWWWWWWWWWWWWWWWWWWWWWWWWWWWWWWWW  #>55qqq0q8q8q5WWWW&9qqqqq1WWWW5qqqq9qqq0q5>OWWWWWWWWWWWWWWWWWWWWWWWWWWWWWWWWWWWWWWWWW",
"WWWWWWWWWWWWWWWWWWWWWWWWWWWWWWWWWWWWWWWWWW  X*5qq7q50q0q55WWW&75q7q94WWW5q5q7q5qqq6<*XWWWWWWWWWWWWWWWWWWWWWWWWWWWWWWWWWWWWWWWWWW",
"WWWWWWWWWWWWWWWWWWWWWWWWWWWWWWWWWWWWWWWWWWW   &<5q9qq5q0qq5>W$5q5q771W<5q5q889q705>OWWWWWWWWWWWWWWWWWWWWWWWWWWWWWWWWWWWWWWWWWWWW",
"WWWWWWWWWWWWWWWWWWWWWWWWWWWWWWWWWWWWWWWWWWWWW  O:5q5055q5q55>-5q9q5q5<q9697899755*XWWWWWWWWWWWWWWWWWWWWWWWWWWWWWWWWWWWWWWWWWWWWW",
"WWWWWWWWWWWWWWWWWWWWWWWWWWWWWWWWWWWWWWWWWWWWWW  .*155qq565q55550557555q5q55q577<& WWWWWWWWWWWWWWWWWWWWWWWWWWWWWWWWWWWWWWWWWWWWWW",
"WWWWWWWWWWWWWWWWWWWWWWWWWWWWWWWWWWWWWWWWWWWWWWWW  +>505q559q5q58955qq555q55q95>OWWWWWWWWWWWWWWWWWWWWWWWWWWWWWWWWWWWWWWWWWWWWWWWW",
"WWWWWWWWWWWWWWWWWWWWWWWWWWWWWWWWWWWWWWWWWWWWWWWWW  O-155575555555555595555551*XWWWWWWWWWWWWWWWWWWWWWWWWWWWWWWWWWWWWWWWWWWWWWWWWW",
"WWWWWWWWWWWWWWWWWWWWWWWWWWWWWWWWWWWWWWWWWWWWWWWWWW   &<55555555555555555555>& WWWWWWWWWWWWWWWWWWWWWWWWWWWWWWWWWWWWWWWWWWWWWWWWWW",
"WWWWWWWWWWWWWWWWWWWWWWWWWWWWWWWWWWWWWWWWWWWWWWWWWWWW  O:155555555555455551>OWWWWWWWWWWWWWWWWWWWWWWWWWWWWWWWWWWWWWWWWWWWWWWWWWWWW",
"WWWWWWWWWWWWWWWWWWWWWWWWWWWWWWWWWWWWWWWWWWWWWWWWWWWWW  X*1542554545555551*XWWWWWWWWWWWWWWWWWWWWWWWWWWWWWWWWWWWWWWWWWWWWWWWWWWWWW",
"WWWWWWWWWWWWWWWWWWWWWWWWWWWWWWWWWWWWWWWWWWWWWWWWWWWWWW   $:542555535453>% WWWWWWWWWWWWWWWWWWWWWWWWWWWWWWWWWWWWWWWWWWWWWWWWWWWWWW",
"WWWWWWWWWWWWWWWWWWWWWWWWWWWWWWWWWWWWWWWWWWWWWWWWWWWWWWWW  O-1531445451:OWWWWWWWWWWWWWWWWWWWWWWWWWWWWWWWWWWWWWWWWWWWWWWWWWWWWWWWW",
"WWWWWWWWWWWWWWWWWWWWWWWWWWWWWWWWWWWWWWWWWWWWWWWWWWWWWWWWW  .&<4544331*XWWWWWWWWWWWWWWWWWWWWWWWWWWWWWWWWWWWWWWWWWWWWWWWWWWWWWWWWW",
"WWWWWWWWWWWWWWWWWWWWWWWWWWWWWWWWWWWWWWWWWWWWWWWWWWWWWWWWWWW  +:1414>$ WWWWWWWWWWWWWWWWWWWWWWWWWWWWWWWWWWWWWWWWWWWWWWWWWWWWWWWWWW",
"WWWWWWWWWWWWWWWWWWWWWWWWWWWWWWWWWWWWWWWWWWWWWWWWWWWWWWWWWWWW  O&&*&OWWWWWWWWWWWWWWWWWWWWWWWWWWWWWWWWWWWWWWWWWWWWWWWWWWWWWWWWWWWW",
"WWWWWWWWWWWWWWWWWWWWWWWWWWWWWWWWWWWWWWWWWWWWWWWWWWWWWWWWWWWWWW     WWWWWWWWWWWWWWWWWWWWWWWWWWWWWWWWWWWWWWWWWWWWWWWWWWWWWWWWWWWWW",
"WWWWWWWWWWWWWWWWWWWWWWWWWWWWWWWWWWWWWWWWWWWWWWWWWWWWWWWWWWWWWWWWWWWWWWWWWWWWWWWWWWWWWWWWWWWWWWWWWWWWWWWWWWWWWWWWWWWWWWWWWWWWWWWW",
"WWWWWWWWWWWWWWWWWWWWWWWWWWWWWWWWWWWWWWWWWWWWWWWWWWWWWWWWWWWWWWWWWWWWWWWWWWWWWWWWWWWWWWWWWWWWWWWWWWWWWWWWWWWWWWWWWWWWWWWWWWWWWWWW",
"WWWWWWWWWWWWWWWWWWWWWWWWWWWWWWWWWWWWWWWWWWWWWWWWWWWWWWWWWWWWWWWWWWWWWWWWWWWWWWWWWWWWWWWWWWWWWWWWWWWWWWWWWWWWWWWWWWWWWWWWWWWWWWWW",
"WWWWWWWWWWWWWWWWWWWWWWWWWWWWWWWWWWWWWWWWWWWWWWWWWWWWWWWWWWWWWWWWWWWWWWWWWWWWWWWWWWWWWWWWWWWWWWWWWWWWWWWWWWWWWWWWWWWWWWWWWWWWWWWW",
"WWWWWWWWWWWWWWWWWWWWWWWWWWWWWWWWWWWWWWWWWWWWWWWWWWWWWWWWWWWWWWWWWWWWWWWWWWWWWWWWWWWWWWWWWWWWWWWWWWWWWWWWWWWWWWWWWWWWWWWWWWWWWWWW",
"WWWWWWWWWWWWWWWWWWWWWWWWWWWWWWWWWWWWWWWWWWWWWWWWWWWWWWWWWWWWWWWWWWWWWWWWWWWWWWWWWWWWWWWWWWWWWWWWWWWWWWWWWWWWWWWWWWWWWWWWWWWWWWWW",
"WWWWWWWWWWWWWWWWWWWWWWWWWWWWWWWWWWWWWWWWWWWWWWWWWWWWWWWWWWWWWWWWWWWWWWWWWWWWWWWWWWWWWWWWWWWWWWWWWWWWWWWWWWWWWWWWWWWWWWWWWWWWWWWW"
};
