/* XPM */
static char *geany[] = {
/* columns rows colors chars-per-pixel */
"128 128 73 1 ",
"  c #010101",
". c #0B0B0B",
"X c #131313",
"o c #1D1D1D",
"O c #222222",
"+ c #262828",
"@ c #2C2C2C",
"# c #333333",
"$ c #3D3D3D",
"% c #444444",
"& c #464846",
"* c #4A4A4A",
"= c #525252",
"- c #5D5D5D",
"; c #626262",
": c #6C6C6C",
"> c #6F706F",
", c #6E7070",
"< c #737473",
"1 c #787676",
"2 c #7C7C7C",
"3 c #7E8080",
"4 c #838383",
"5 c #888787",
"6 c #878887",
"7 c #888887",
"8 c #878788",
"9 c #888788",
"0 c #878888",
"q c #8B8B8B",
"w c #908F8F",
"e c #8F908F",
"r c #90908F",
"t c #8F8F90",
"y c #908F90",
"u c #8F9090",
"i c #939393",
"p c #989897",
"a c #979798",
"s c #989798",
"d c #979898",
"f c #9A9A9A",
"g c #A0A09F",
"h c #A09FA0",
"j c #A3A3A3",
"k c #A8A7A7",
"l c #ACACAC",
"z c #B3B3B3",
"x c #B8B7B7",
"c c #B7B8B7",
"v c #B7B7B8",
"b c #B8B7B8",
"n c #B7B8B8",
"m c #BBBBBB",
"M c #BEC0BE",
"N c #C0C0BF",
"B c #BFBFC0",
"V c #C0BFC0",
"C c #BFC0C0",
"Z c #C3C3C3",
"A c #C7C8C7",
"S c #C8C8C7",
"D c #C7C7C9",
"F c #C8C7C8",
"G c #CBCBCB",
"H c #CFD0CF",
"J c #D4D4D4",
"K c #D8D6D6",
"L c #D7D8D7",
"P c #D8D8D6",
"I c #D7D8D8",
"U c #DADADA",
"Y c None",
/* pixels */
"YYYYYYYYYYYYYYYYYYYYYYYYYYYYYYYYYYYYYYYYYYYYYYYYYYYYYYYYYYYYYYYYYYYYYYYYYYYYYYYYYYYYYYYYYYYYYYYYYYYYYYYYYYYYYYYYYYYYYYYYYYYYYYYY",
"YYYYYYYYYYYYYYYYYYYYYYYYYYYYYYYYYYYYYYYYYYYYYYYYYYYYYYYYYYYYYYYYYYYYYYYYYYYYYYYYYYYYYYYYYYYYYYYYYYYYYYYYYYYYYYYYYYYYYYYYYYYYYYYY",
"YYYYYYYYYYYYYYYYYYYYYYYYYYYYYYYYYYYYYYYYYYYYYYYYYYYYYYYYYYYYYYYYYYYYYYYYYYYYYYYYYYYYYYYYYYYYYYYYYYYYYYYYYYYYYYYYYYYYYYYYYYYYYYYY",
"YYYYYYYYYYYYYYYYYYYYYYYYYYYYYYYYYYYYYYYYYYYYYYYYYYYYYYYYYYYYYYYYYYYYYYYYYYYYYYYYYYYYYYYYYYYYYYYYYYYYYYYYYYYYYYYYYYYYYYYYYYYYYYYY",
"YYYYYYYYYYYYYYYYYYYYYYYYYYYYYYYYYYYYYYYYYYYYYYYYYYYYYYYYYYYYYYYYYYYYYYYYYYYYYYYYYYYYYYYYYYYYYYYYYYYYYYYYYYYYYYYYYYYYYYYYYYYYYYYY",
"YYYYYYYYYYYYYYYYYYYYYYYYYYYYYYYYYYYYYYYYYYYYYYYYYYYYYYYYYYYYYYYYYYYYYYYYYYYYYYYYYYYYYYYYYYYYYYYYYYYYYYYYYYYYYYYYYYYYYYYYYYYYYYYY",
"YYYYYYYYYYYYYYYYYYYYYYYYYYYYYYYYYYYYYYYYYYYYYYYYYYYYYYYYYYYYYYYYYYYYYYYYYYYYYYYYYYYYYYYYYYYYYYYYYYYYYYYYYYYYYYYYYYYYYYYYYYYYYYYY",
"YYYYYYYYYYYYYYYYYYYYYYYYYYYYYYYYYYYYYYYYYYYYYYYYYYYYYYYYYYYYYYYYYYYYYYYYYYYYYYYYYYYYYYYYYYYYYYYYYYYYYYYYYYYYYYYYYYYYYYYYYYYYYYYY",
"YYYYYYYYYYYYYYYYYYYYYYYYYYYYYYYYYYYYYYYYYYYYYYYYYYYYYYYYYYYYYYYYYYYYYYYYYYYYYYYYYYYYYYYYYYYYYYYYYYYYYYYYYYYYYYYYYYYYYYYYYYYYYYYY",
"YYYYYYYYYYYYYYYYYYYYYYYYYYYYYYYYYYYYYYYYYYYYYYYYYYYYYYYYYYYYYYYYYYYYYYYYYYYYYYYYYYYYYYYYYYYYYYYYYYYYYYYYYYYYYUUUYYYYYYYYYYYYYYYY",
"YYYYYYYYYYYYYYYYYYYYYYYYYYYYYYYYYYYYYYYYYYYYYYYYYYYYYYYYYYYYYYYYYYYYYYYYYYYYYYYYYYYYYYYYYYYYYYYYYYYYYYYYYUUUUUUYYYYYYYYYYYYYYYYY",
"YYYYYYYYYYYYYYYYYYYYYYYYYYYYYYYYYYYYYYYYYYYYYYYYYYYYYYYYYYYYYYYYYYYYYYYYYYYYYYYYYYYYYYYYYYYYYYYYYYYYYUUUUUUUUJYYYYYYYYYYYYYYYYYY",
"YYYYYYYYYYYYYYYYYYYYYYYYYYYYYYYYYYYYYYYYYYYYYYYYYYYYYYYYYYYYYYYYYYYYYYYYYYYYYYYYYYYYYYYYYYYYYYYPIUUUUUUUUUUUJYYYYYYYYYYYYYYYYYYY",
"YYYYYYYYYYYYYYYYYYYYYYYYYYYYYYYYYYYYYYYYYYYYYYYYYYYYYYYYYYYYYYYYYYYYYYYYYYYYYYYYYYYYYYYYYYPUUUUUUUUUUUUUUUGlYYYYYYYYYYYYYYYYYYYY",
"YYYYYYYYYYYYYYYYYYYYYYYYYYYYYYYYYYYYYYYYYYYYYYYYYYYYYYYYYYYYYYYYYYYYYYYYYYYYYYYYYYYYYPPIUUUUUUUUUUUUUUUPJzYYYYYYYYYYYYYYYYYYYYYY",
"YYYYYYYYYYYYYYYYYYYYYYYYYYYYYYYYYYYYYYYYYYYYYYYYYYYYYYYYYYYYYYYYYYYYYYYYYYYYYYYYYPPIUIUUIUIUUIUIUUIUUJbaYYYYYYYYYYYYYYYYYYYYYYYY",
"YYYYYYYYYYYYYYYYYYYYYYYYYYYYYYYYYYYYYYYYYYYYYYYYYYYYYYYYYYYYYYYYYYYYYYYYYYYYYYKKIIIIIIIIIIIIIIPIJJHzu-YYYYYYYYYYYYYYYYYYYYYYYYYY",
"YYYYYYYYYYYYYYYYYYYYYYYYYYYYYYYYYYYYYYYYYYYYYYYYYYYYYYYYYYYYYYYYYYYYYYYYYYYJJIPIKKKIIKKIIIPIKJGza:%YYYYYYYYYYYYYYYYYYYYYYYYYYYYY",
"YYYYYYYYYYYYYYYYYYYYYYYYYYYYYYYYYYYYYYYYYYYYYYYYYYYYYYYYYYYYYYYYYYYYYYYYJJJJPIIIKIKIJIKKJJFzw:#oYYYYYYYYYYYYYYYYYYYYYYYYYYYYYYYY",
"YYYYYYYYYYYYYYYYYYYYYYYYYYYYYYYYYYYYYYYYYYYYYYYYYYYYYYYYYYYYYYYYYYYYYYJJJJPJJJJJJJJJJJCh7:#oYYYYYYYYYYYYYYYYYYYYYYYYYYYYYYYYYYYY",
"YYYYYYYYYYYYYYYYYYYYYYYYYYYYYYYYYYYYYYYYYYYYYYYYYYYYYYYYYYYYYYYYYYYYGJJJJJJJJJJJJJFzq:#   YYYYYYYYYYYYYYYYYYYYYYYYYYYYYYYYYYYYYY",
"YYYYYYYYYYYYYYYYYYYYYYYYYYYYYYYYYYYYYYYYYYYYYYYYYYYYYYYYYYYYYYYYYYGHJJJJJHJJJJJFz7=O  YYYYYYYYYYYYYYYYYYYYYYYYYYYYYYYYYYYYYYYYYY",
"YYYYYYYYYYYYYYYYYYYYYYYYYYYYYYYYYYYYYYYYYYYYYYYYYYYYYYYYYYYYYYYYYHJJJJJJJJJJJz4=o  YYYYYYYYYYYYYYYYYYYYYYYYYYYYYYYYYYYYYYYYYYYYY",
"YYYYYYYYYYYYYYYYYYYYYYYYYYYYYYYYYYYYYYYYYYYYYYYYYYYYYYYYYYYYYYYYGJJGJHJJJJFp:@  YYYYYYYYYYYYYYYYYYYYYYYYYYYYYYYYYYYYYYYYYYYYYYYY",
"YYYYYYYYYYYYYYYYYYYYYYYYYYYYYYYYYYYYYYYYYYYYYYYYYYYYYYYYYYYYYYZJJJHHJHJJFp-X YYYYYYYYYYYYYYYYYYYYYYYYYYYYYYYYYYYYYYYYYYYYYYYYYYY",
"YYYYYYYYYYYYYYYYYYYYYYYYYYYYYYYYYYYYYYYYYYYYYYYYYYYYYYYYYYYYYAJHHHHHHJFz2. YYYYYYYYYYYYYYYZYYYYYYYYYYYYYYYYYYYYYYYYYYYYYYYYYYYYY",
"YYYYYYYYYYYYYYYYYYYYYYYYYYYYYYYYYYYYYYYYYYYYYYYYYYYYYYYYYYYYZJGJHHHHJZ4@ YYYYYYYYYYYYYYYYFGYYYYYYYYYYYYYYYYYYYYYYYYYYYYYYYYYYYYY",
"YYYYYYYYYYYYYYYYYYYYYYYYYYYYYYYYYYYYYYYYYYYYYYYYYYYYYYYYYYYCHGHGHGHHz< YYYYYYYYYYYYYYYYYFGYYYYYYYYYYYYYYYYYYYYYYYYYYYYYYYYYYYYYY",
"YYYYYYYYYYYYYYYYYYYYYYYYYYYYYYYYYYYYYYYYYYYYYYYYYYYYYYYYYYYGGGGHGHGl%YYYYYYYYYYYYYYYYYYAHZYYYYYYYYYYYYYYYYYYYYYYYYYYYYYYYYYYYYYY",
"YYYYYYYYYYYYYYYYYYYYYYYYYYYYYYYYYYYYYYYYYYYYYYYYYYYYYYYYYYFGHHGGGFp%YYYYYYYYYYYYYYYYYYZGGYYYYYYYYYYYYYYYYYYYYYYYYYYYYYYYYYYYYYYY",
"YYYYYYYYYYYYYYYYYYYYYYYYYYYYYYYYYYYYYYYYYYYYYYYYYYYYYYYYYFGGGGGGF3.YYYYYYYYYYYYYYYYYYSFGzYYYYYYYYYYYYYYYYYYYYYYYYYYYYYYYYYYYYYYY",
"YYYYYYYYYYYYYYYYYYYYYYYYYYYYYYYYYYYYYYYYYYYYYYYYYYYYYYYYZGGGGGGZ3YYYYYYYYYYYYYYYYYYYFGGZYYYYYYYYYYYYYYYYYYYYYYYYYYYYYYYYYYYYYYYY",
"YYYYYYYYYYYYYYYYYYYYYYYYYYYYYYYYYYYYYYYYYYYYYYYYYYYYYYYmFGGGFFZ4YYYYYYYYYYYYYYYYYYYAFFZjYYYYYYYYYYYYYYYYYYYYYYYYYYYYYYYYYYYYYYYY",
"YYYYYYYYYYYYYYYYYYYYYYYYYYYYYYYYYYYYYYYYYYYYYYYYYYYYYYMFGFFFFZ4YYYYYYYYYYYYYYYYYYZAFFFzYYYYYYYYYYYYYYYYYYYYYYYYYYYYYYYYYYYYYYYYY",
"YYYYYYYYYYYYYYYYYYYYYYYYYYYYYYYYYYYYYYYYYYYYYYYYYYYYYmFFFSFFZ4YYYYYYYYYYYYYYYYYYMAAFGmYYYYYYYYYYYYYYYYYYYYYYYYYYYYYYYYYYYYYYYYYY",
"YYYYYYYYYYYYYYYYYYYYYYYYYYYYYYYYYYYYYYYYYYYYYYYYYYYYzZZFAAAZ2YYYYYYYYYYYYYYYYYYZFZAAZuYYYYYYYYYYYYYYYYYYYYYYYYYYYYYYYYYYYYYYYYYY",
"YYYYYYYYYYYYYYYYYYYYYYYYYYYYYYYYYYYYYYYYYYYYYYYYYYYYZFFFAZZ3YYYYYYYYYYYYYYYYYYZZAFAZjYYYYYYYYYYYYYYYYYYYYYYYYYYYYYYYYYYYYYYYYYYY",
"YYYYYYYYYYYYYYYYYYYYYYYYYYYYYYYYYYYYYYYYYYYYYYYYYYYZZZZZZZ2YYYYYYYYYYYYYYYYYmZZSZZAb-YYYYYYYYYYYYYYYYYYYYYYYYYYYYYYYYYYYYYYYYYYY",
"YYYYYYYYYYYYYYYYYYYYYYYYYYYYYYYYYYYYYYYYYYYYYYYYYYZZZZZZC4YYYYYYYYYYYYYYYYYZZZZZZZM0YYYYYYYYYYYYYYYYYYYYYYYYYYYYYYYYYYYYYYYYYYYY",
"YYYYYYYYYYYYYYYYYYYYYYYYYYYYYYYYYYYYYYYYYYYYYYYYcZZAZZZM2YYYYYYYYYYYYYYYYmZZZZZZZm4YYYYYYYYYYYYYYYYYYYYYYYYYYYYYYYYYYYYYYYYYYYYY",
"YYYYYYYYYYYYYYYYYYYYYYYYYYYYYYYYYYYYYYYYYYYYYYYmZZZZZVm2YYYYYYYYYYYYYYYYmZZZZZZZZiYYYYYYYYYYYYYYYYYYYYYYYYYYYYYYYYYYYYYYYYYYYYYY",
"YYYYYYYYYYYYYYYYYYYYYYYYYYYYYYYYYYYYYYYYYYYYYYZZZmZZZk<YYYYYYYYYYYYYYYbZVZZMZmVZj%YYYYYYYYYYYYYYYYYYYYYYYYYYYYYYYYYYYYYYYYYYYYYY",
"YYYYYYYYYYYYYYYYYYYYYYYYYYYYYYYYYYYYYYYYYYYYbmmZZZMZj*YYYYYYYYYYYYYYYmZZVVVZmZmj%YYYYYYYYYYYYYYYYYYYYYYYYYYYYYYYYYYYYYYYYYYYYYYY",
"YYYYYYYYYYYYYYYYYYYYYYYYYYYYYYYYYYYYYYYYYYYmZZmZVZmg&YYYYYYYYYYYYYYbZmZmZVMNZBf%YYYYYYYYYYYYYYYYYYYYYYYYYYYYYYYYYYYYYYYYYYYYYYYY",
"YYYYYYYYYYYYYYYYYYYYYYYYYYYYYYYYYYYYYYYYYbmCmZmZCz2@YYYYYYYYYYYYYbmmmZmCNNNVb7$YYYYYYYYYYYYYYYYYYYYYYYYYYYYYYYYYYYYYYYYYYYYYYYYY",
"YYYYYYYYYYYYYYYYYYYYYYYYYYYYYYYYYYYYYYYYmmCCBmmbf=YYYYYYYYYYYYYYmmZVMmCmMmmb2YYYYYYYYYYYYYYYYYYYYYYYYYYYYYYYYYYYYYYYYYYYYYYYYYYY",
"YYYYYYYYYYYYYYYYYYYYYYYYYYYYYYYYYYYYYYbVmMmmmmz2+YYYYYYYYYYYYYmmmmmMmZmmmmf;YYYYYYYYYYYYYYYYYYYYYYYYYYYYYYYYYYYYYYYYYYYYYYYYYYYY",
"YYYYYYYYYYYYYYYYYYYYYYYYYYYYYYYYYYYYYmmmmmmmzq%YYYYYYYYYYYYYmmmmmmmmmmmmxi%YYYYYYYYYYYYYYYYYYYYYYYYYYYYYYYYYYYYYYYYYYYYYYYYYYYYY",
"YYYYYYYYYYYYYYYYYYYYYYYYYYYYYYYYYYYcmmmmmbz4%YYYYYYYYYYYYYbbmmmmmmmmbmbf;oYYYYYYYYYYYYYYYYYYYYYYYYYYYYYYYYYYYYYYYYYYYYYYYYYYYYYY",
"YYYYYYYYYYYYYYYYYYYYYYYYYYYYYYYYYzbmmmbzf<%YYYYYYYYYYYYzbmmmmmmmmmmbcl2#YYYYYYYYYYYYYYYYYYYYYYYYYYYYYYYYYYYYYYYYYYYYYYYYYYYYYYYY",
"YYYYYYYYYYYYYYYYYYYYYYYYYYYYYYYYvnbbzg2%YYYYYYYYYYYYYcbbbmbmcbbbbbbl2#.YYYYYYYYYYYYYYYYYYYYYYYYYYYYYYYYYYYYYYYYYYYYYYYYYYYYYYYYY",
"YYYYYYYYYYYYYYYYYYYYYYYYYYYYYYzvzzj4YYYYYYYYYYYYYjzzbbbbmbbbccbmcl<# YYYYYYYYYYYYYYYYYYYYYYYYYYYYYYYYYYYYYYYYYYYYYYYYYYYYYYYYYYY",
"YYYYYYYYYYYYYYYYYYYYYYYYYYYYYllpYYYYYYYYYYYYYYplzxbccbbbnvzbzczj<# YYYYYYYYYYYYYYYYYYYYYYYYYYYYYYYYYYYYYYYYYYYYYYYYYYYYYYYYYYYYY",
"YYYYYYYYYYYYYYYYYYYYYYYYYYYYYYYYYYYYYYYYY<7jzzzbbcccczcnczczli-#.YYYYYYYYYYYYYYYYYYYYYYYYYYYYYYYYYYYYYYYYYYYYYYYYYYYYYYYYYYYYYYY",
"YYYYYYYYYYYYYYYYYYYYYYYYYYYYYYYYYYYY22iklzzbzzzbznzbxzzczzk1%X YYYYYYYYYYYYYYYYYYYYYYYYYYYYYYYYYYYYYYYYYYYYYYYYYYYYYYYYYYYYYYYYY",
"YYYYYYYYYYYYYYYYYYYYYYYYYYYYYpiqflllzzzzzzcznzvzzzxzzzlp2-@  YYYYYYYYYYYYYYYYYYYYYYYYYYYYYYYYYYYYYYYYYYYYYYYYYYYYYYYYYYYYYYYYYYY",
"YYYYYYYYYYYYYYYYYYYYYYYYzzzlzzzzzzzzzzzzzzzzzzzzzzjp1:%o  YYYYYYYYYYYYYYYYYYYYYYYYYYYYYYYYYYYYYYYYYYYYYYYYYYYYYYYYYYYYYYYYYYYYYY",
"YYYYYYYYYYYYYYYYYYlzzzzzzzzzzzzzzzzzzzzzzzzzljp21;@O   YYYYYYYYYYYYYYYYYYYYYYYYYYYYYYYYYYYYYYYYYYYYYYYYYYYYYYYYYYYYYYYYYYYYYYYYY",
"YYYYYYYYYYYYYYYllzzzzlzzzzzzzzzzlzzzzkjji<<:#OO    YYYYYYYYYYYYYYYYYYYYYYYYYYYYYYYYYYYYYYYYYYYYYYYYYYYYYYYYYYYYYYYYYYYYYYYYYYYYY",
"YYYYYYYYYYYYYYlzzzzzzzlzlzzllzkjja2>:$YOYYYYYYYYYYYYYYYYYYYYYYYYYYYYYYYYYYYYYYYYYYYYYYYYYYYYYYYYYYYYYYYYYYYYYYYYYYYYYYYYYYYYYYYY",
"YYYYYYYYYYYYllzzzlzzlzzlzlgq:;*YYYYYYYYYYYYYYYYYYYYYYYYYYYYYYYYYYYYYYYYYYYYYYYYYYYYYYYYYYYYYYYYYYYYYYYYYYYYYYYYYYYYYYYYYYYYYYYYY",
"YYYYYYYYYYYkzzlzlzlzlja2-*YYYYYYYYYYYYYYYYYYYYYYYYYYYYYYYYYYYYYYYYYYYYYYYYYYYYYYYYYYYYYYYYYYYYYYYYYYYYYYYYYYYYYYYYYYYYYYYYYYYYYY",
"YYYYYYYYYYjllzlzzlj7;@XYYYYYYYYYYYYYYYYYYYYYYYYYYYYYYYYYYYYYYYYYYYYYYYYYYYYYYYYYYYYYYYYYYYYYYYYYYYYYYYYYYYYYYYYYYYYYYYYYYYYYYYYY",
"YYYYYYYYYjlzllllh<@.YYYYYYYYYYYYYYYYYYYYYYYYYYYYYYYYYYYYYYYYYYYYYYYYYYYYYYYYYYYYYYYYYYYYYYYYYYYYYYYYYYYYYYYYYYYYYYYYYYYYYYYYYYYY",
"YYYYYYYYYlllllj<# YYYYYYYYYYYYYYYYYYYYYYYYYYYYYYYYYYYYYYYYYYYYYYYYYYYYYYYYYYYYYYYYYYYYYYYYYYYYYYYYYYYYYYYYYYYYYYYYYYYYYYYYYYYYYY",
"YYYYYYYYjllllp* YYYYYYYYYYYYYYYYYYYYYYYYYYYYYYYYYYYYYYYYYYYYYYYYYYYYYYYYYYYYYYYYYYYYYYYYYYYYYYYYYYYYYYYYYYYYYYYYYYYYYYYYYYYYYYYY",
"YYYYYYYYllllf=YYYYYYYYYYYYYYYYYYYYYYYYYYYYYYYYYYYYYYYYYYYYYYYYYYYYYYYYYYYYYYYYYYYYYYYYYYYYYYYYYYYYYYYYYYYYYYYYYYYYYYYYYYYYYYYYYY",
"YYYYYYYalklh=YYYYYYYYYYYYYYYYYYYYYYYYYYYYYYYYYYYYYYYYYYYYYYYYYYYYYYYYYYYYYYYYYYYYYYYYYYYYYYYYYYYYYYYYYYYYYYYYYYYYYYYYYYYYYYYYYYY",
"YYYYYYYfkkk2YYYYYYYYYYYYYYYYYYYYYYYYYYYYYYYYYYYYYYYYYYYYYYYYYYYYYYYYYYYYYYYYYYYYYYYYYYYYYYYYYYYYYYYYYYYYYYYYYYYYYYYYYYYYYYYYYYYY",
"YYYYYYYjklf$YYYYYYYYYYYYYYYYYYYYYYYYYYYYYYYYYYYYYYYYYYYYYYYYYYYYYYYYYYYYYYYYYYYYYYYYYYYYYYYYYYYYYYYYYYYYYYYYYYYYYYYYYYYYYYYYYYYY",
"YYYYYYYjkkiYYYYYYYYYYYYYYYYYYYYYYYYYYYYYYYYYYYYYYYYYYYYYYYYYYYYYYYYYYYYYYYYYYYYYYYYYYYYYYYYYYYYYYYYYYYYYYYYYYYYYYYYYYYYYYYYYYYYY",
"YYYYYYYfkkaYYYYYYYYYYYYYYYYYYYYYYYYYYYYYYYYYYYYYYYYYYYYYYYYYYYYYYYYYYYYYYYYYYYYYYYYYYYYYYYYYYYYYYYYYYYYYYYYYYYYYYYYYYYYYYYYYYYYY",
"YYYYYYY4kkaYYYYYYYYYYYYYYYYYYYYYYYYYYYYYYYYYYYYYYYYYYYYYYYYYYYYYYYYYYYYYYYYYYYYYYYYYYYYYYYYYYYYYYYYYYYYYYYYYYYYYYYYYYYYYYYYYYYYY",
"YYYYYYY<jkfYYYYYYYYYYYYYYYYYYYYYYYYYYYYYYYYYYYYYYYYYYYYYYYYYYYYYYYYYYYYYYYYYYYYYYYYYYYYYYYYYYYYYYYYYYYYYYYYYYYYYYYYYYYYYYYYYYYYY",
"YYYYYYY%fjjYYYYYYYYYYYYYYYYYYYYYYYYYYYYYYYYYYYYYYYYYYYYYYYYYYYYYYYYYYYYYYYYYYYYYYYYYYYYYYYYYYYYYYYYYYYYYYYYYYYYYYYYYYYYYYYYYYYYY",
"YYYYYYYY7jjqYYYYYYYYYYYYYYYYYYYYYYYYYYYYYYYYYYYYYYYYYYYYYYYYYYYYYYYYYYYYYYYYYYYYYYYYYYYYYYYYYYYYYYYYYYYYYYYYYYYYYYYYYYYYYYYYYYYY",
"YYYYYYYY-fjpYYYYYYYYYYYYYYYYYYYYYYYYYYYYYYYYYYYYYYYYYYYYYYYYYYYYYYYYYYYYYYYYYYYYYYYYYYYYYYYYYYYYYYYYYYYYYYYYYYYYYYYYYYYYYYYYYYYY",
"YYYYYYYYY2jgYYYYYYYYYYYYYYYYYYYYYYYYYYYYYYYYYYYYYYYYYYYYYYYYYYYYYYYYYYYYYYYYYYYYYYYYYYYYYYYYYYYYYYYYYYYYYYYYYYYYYYYYYYYYYYYYYYYY",
"YYYYYYYYYY4hfYYYYYYYYYYYYYYYYYYYYYYYYYYYYYYYYYYYYYYYYYYYYYYYYYYYYYYYYYYYYYYYYYYYYYYYYYYYYYYYYYYYYYYYYYYYYYYYYYYYYYYYYYYYYYYYYYYY",
"YYYYYYYYYYYajYYYYYYYYYYYYYYYYYYYYYYYYYYYYYYYYYYYYYYYYYYYYYYYYYYYYYYYYYYYYYYYYYYYYYYYYYYYYYYYYYYYYYYYYYYYYYYYYYYYYYYYYYYYYYYYYYYY",
"YYYYYYYYYYYYafYYYYYYYYYYYYYYYYYYYYYYYYYYYYYYYYYYYYYYYYYYYYYYYYYYYYYYYYYYYYYYYYYYYYYYYYYYYYYYYYYYYYYYYYYYYYYYYYYYYYYYYYYYYYYYYYYY",
"YYYYYYYYYYYYYqpYYYYYYYYYYYYYYYYYYYYYYYYYYYYYYYYYYYYYYYYYfffjffhffffYYYYYYYYYYYYYYYYYYYYYYYYYYYYYYYYYYYYYYYYYYYYYYYYYYYYYYYYYYYYY",
"YYYYYYYYYYYYYYYYYYYYYYYYYYYYYYYYYYYYYYYYYYYYYYYYYYYYYYpffjfffhfhfjffffYYYYYYYYYYYYYYYYYYYYYYYYYYYYYYYfffhfffffffYYYYYYYYYYYYYYYY",
"YYYYYYYYYYYYYYYYYYYYYYYYYYYYYYYYYYYYYYYYYYYYYYYYYYYYYYffffffffffffffffYYYYYYYYYYYYYYYYYYYYYYYYYYYYYppfffffffffffpYYYYYYYYYYYYYYY",
"YYYYYYYYYYYYYYYYYYYYYYYYYYYYYYYYYYYYYYYYYYYYYYYYYYYYYY4affffffffffpppYYYYYYYYYYYYYYYYYYYYYYYYYYYYaappfffpfpfpppfppiYYYYYYYYYYYYY",
"YYYYYYYYYYYYYYYaaYYYYYYYYYYYYYYYYYYYYYYYYYYYYYYYYYYYYYY-tpppfppfffp4YYYYYYYYYYYYYYYYYYYYYYYYYYYisffpppsppfpaspppfpaiYYYYYYYYYYYY",
"YYYYYYYYYYYqiappppYYYYYYYYYYYYYYYYYYYYYYYYYYYYYYYYYYYYYY$<pdpppppi2YYYYYYYYYYYYYYYYYYYYYYYYYYaaaaaaaaasait8qiaapdaaaiYYYYYYYYYYY",
"YYYYYYYYYYYaapppppYYYYYYYYYYYYYYYYYYYYYYYYYYYYYYYYYYYYYYYX:apaaat=YYYYYYYYYYYYYYYYYYYYYYYYYiiaapaaaaaaq,*#X#-2ipaaaapYYYYYYYYYYY",
"YYYYYYYYYYYYiaaaaiaYYYYYYYYYYYYYYYYYYYYYYYYYYYYYYYYYYYYYY &eaaaa4oYYYYYYYYYYYYYYYYYYYYYYYqaaaiapaiaai3*.     X=qiaiaiiYYYYYYYYYY",
"YYYYYYYYYYYY<iiaaaipYYYYYYYYYYYYYYYYYYYYYYYYYYYYYYYYYYYYY=4piiiai<YYYYYYYYYYYYYYYYYYYYYiiaaiaiiiiaai>o YYYYY   %4iaiaaYYYYYYYYYY",
"YYYYYYYYYYYYY<iaaiaiaYYYYYYYYYYYYYYYYYYYYYYYYYYYYYYYYYYY<eiiiiiiaiq4YYYYYYYYYYYYYYYYYiiiiiiiaiiiia7=oYYYYYYYYY  &2iiiiiYYYYYYYYY",
"YYYYYYYYYYYYYO<iiiiaiiYYYYYYYYYYYYYYYYYYYYYYYYYYYYYYYY4qiiaiiiiiiiiiiqYYYYYYYYYYYYqiyiiiiiiiiiiii7=YYYYYYYYYYYYY #4iiiaYYYYYYYYY",
"YYYYYYYYYYYYYYO>iiiiiiiYYYYYYYYYYYYYYYYYYYYYYYYYYYYqqriiiiiiiiiiiiiiiiiwiieiqitiiiiiiiiiiiiiiiiiy-YYYYYYYYYYYYYYYY&7yiyqYYYYYYYY",
"YYYYYYYYYYYYYYYo:iiiiiiiuYYYYYYYYYYYYYYYYYYYYYYiqiiiiiiiiiriiuiriiyiiyiwiqiiiiiiqieiiqwiriqiqiyi:OYYYYYYYYYYYYYYYYX<iirqYYYYYYYY",
"YYYYYYYYYYYYYYY o:iwyiiritYYYYYYYYYYYYYYYYYYYYqiiiiiiiitiqieiieiqiiiyiyiiiyueuuuiiqiqiiiriiiiee:OYYYYYYYYYYYYYYYYYY>qiiqYYYYYYYY",
"YYYYYYYYYYYYYYYY o:irueieyiqYYYYYYYYYYYYYYYYYqqiqieqiqiqiireqiwiiqrryuqiqiqieuueewiqiqqwrqqrqi<OYYYYYYYYYYYYYYYYYY%4iqww4YYYYYYY",
"YYYYYYYYYYYYYYYYY o:qiqueeiqtYYYYYYYYYYYYYYY7utuqiiqiiqiqiqiqiiqqryrqtttqyyyttqtqiqiqttqqtqiq4%YYYYYYYYYYYYYYYYYY;2tiqti2YYYYYYY",
"YYYYYYYYYYYYYYYYYY o:qqiiqqitqqYYYYYYYYYYYY7tqquqqqiqqqqtttqqqqiiuqqitqqiqtqqqttwqrqqtqtuqtq7=YYYYYYYYYYYYYYYYY24qqqqqqqYYYYYYYY",
"YYYYYYYYYYYYYYYYYYY o:qiqiqqqttqqYYYYYYYYY8qqtqquqwqqqqiqqqqqqwqqqqiqqqtqqqyqqtqqqqyqtqqqqtq:YYYYYYY7qqqq0qqqqqqqqqqqqq4YYYYYYYY",
"YYYYYYYYYYYYYYYYYYYY o:qqqqeqqyqqqqqqYYYY7qqtqqqqqqqqqqqqtqqqtqqqqqqqqqqqqqqwqqqqqqqqqqqqqq1YYYYYYYqqqq7qqqqqqqqqqqqq74YYYYYYYYY",
"YYYYYYYYYYYYYYYYYYYYY X=3qqqqqqqqqqqqqq7qqqqqqqqqqqqqqqqqqqqqqqqqqqqqqqqqqqqqqqqqqqqqq7qqq2*YYYYYY4qqqq7qqqqqq7qq7774:$YYYYYYYYY",
"YYYYYYYYYYYYYYYYYYYYYY  &4qqqqqqqqqqqqq7qqqqq7qqqqqqqq7qq70q7q7qq77qq77qq77q7qq7qqq7qqqqq4*YYYYYYY27q77qq7779q7994:=@YYYYYYYYYYY",
"YYYYYYYYYYYYYYYYYYYYYYY  &3q7qqq7q7qqqqq7qqqqq7q0qq07q7qqq9qq9q7q77q9q77qqq7q8q7q777q7777-YYYYYYYYY282<1<<<<<<;&$@.YYYYYYYYYYYYY",
"YYYYYYYYYYYYYYYYYYYYYYYY  %<7q77q9q7887qq70777q9000q7777770799778q778q78877777978q777q74:YYYYYYYYYYY$YYYYYYYYYYYYYYYYYYYYYYYYYYY",
"YYYYYYYYYYYYYYYYYYYYYYYYY  o;7q777q87777995555550066577777887997888867709995557088778772#YYYYYYYYYYYYYYYYYYYYYYYYYYYYYYYYYYYYYYY",
"YYYYYYYYYYYYYYYYYYYYYYYYYY  o;487788887755554555087459477788974794804774495554748477842%YYYYYYYYYYYYYYYYYYYYYYYYYYYYYYYYYYYYYYYY",
"YYYYYYYYYYYYYYYYYYYYYYYYYYYY X*2744548474555555577045455404054544640474745444546447444=YYYYYYYYYYYYYYYYYYYYYYYYYYYYYYYYYYYYYYYYY",
"YYYYYYYYYYYYYYYYYYYYYYYYYYYYY  $:4848474444544454448454444844544844744845444445448444;YYYYYYYYYYYYYYYYYYYYYYYYYYYYYYYYYYYYYYYYYY",
"YYYYYYYYYYYYYYYYYYYYYYYYYYYYYY  o;44544445444444444444444944444444444494444444444444;YYYYYYYYYYYYYYYYYYYYYYYYYYYYYYYYYYYYYYYYYYY",
"YYYYYYYYYYYYYYYYYYYYYYYYYYYYYYY  X%<44444444444444444444444444444444444444444444444-YYYYYYYYYYYYYYYYYYYYYYYYYYYYYYYYYYYYYYYYYYYY",
"YYYYYYYYYYYYYYYYYYYYYYYYYYYYYYYYY  O;244444443444444444444444434444244444444434343-XYYYYYYYYYYYYYYYYYYYYYYYYYYYYYYYYYYYYYYYYYYYY",
"YYYYYYYYYYYYYYYYYYYYYYYYYYYYYYYYYY  X$;333444424443343334424343444442434342434433-XYYYYYYYYYYYYYYYYYYYYYYYYYYYYYYYYYYYYYYYYYYYYY",
"YYYYYYYYYYYYYYYYYYYYYYYYYYYYYYYYYYYY  O=>234333334244333242433332424433334242442-XYYYYYYYYYYYYYYYYYYYYYYYYYYYYYYYYYYYYYYYYYYYYYY",
"YYYYYYYYYYYYYYYYYYYYYYYYYYYYYYYYYYYYY   o=<23334324324334243333442423333434242<&XYYYYYYYYYYYYYYYYYYYYYYYYYYYYYYYYYYYYYYYYYYYYYYY",
"YYYYYYYYYYYYYYYYYYYYYYYYYYYYYYYYYYYYYYY   o$-22433244233243334224224332424242-@YYYYYYYYYYYYYYYYYYYYYYYYYYYYYYYYYYYYYYYYYYYYYYYYY",
"YYYYYYYYYYYYYYYYYYYYYYYYYYYYYYYYYYYYYYYYY   .@%-:22222222222222224244244321;&XYYYYYYYYYYYYYYYYYYYYYYYYYYYYYYYYYYYYYYYYYYYYYYYYYY",
"YYYYYYYYYYYYYYYYYYYYYYYYYYYYYYYYYYYYYYYYYYY     .@@@@@@@@@@@@@@%-;;;;-;;=#O.YYYYYYYYYYYYYYYYYYYYYYYYYYYYYYYYYYYYYYYYYYYYYYYYYYYY",
"YYYYYYYYYYYYYYYYYYYYYYYYYYYYYYYYYYYYYYYYYYYYYY                          .  YYYYYYYYYYYYYYYYYYYYYYYYYYYYYYYYYYYYYYYYYYYYYYYYYYYYY",
"YYYYYYYYYYYYYYYYYYYYYYYYYYYYYYYYYYYYYYYYYYYYYYYYYYYYYYYYYYYYY           YYYYYYYYYYYYYYYYYYYYYYYYYYYYYYYYYYYYYYYYYYYYYYYYYYYYYYYY",
"YYYYYYYYYYYYYYYYYYYYYYYYYYYYYYYYYYYYYYYYYYYYYYYYYYYYYYYYYYYYYYYYYYYYYYYYYYYYYYYYYYYYYYYYYYYYYYYYYYYYYYYYYYYYYYYYYYYYYYYYYYYYYYYY",
"YYYYYYYYYYYYYYYYYYYYYYYYYYYYYYYYYYYYYYYYYYYYYYYYYYYYYYYYYYYYYYYYYYYYYYYYYYYYYYYYYYYYYYYYYYYYYYYYYYYYYYYYYYYYYYYYYYYYYYYYYYYYYYYY",
"YYYYYYYYYYYYYYYYYYYYYYYYYYYYYYYYYYYYYYYYYYYYYYYYYYYYYYYYYYYYYYYYYYYYYYYYYYYYYYYYYYYYYYYYYYYYYYYYYYYYYYYYYYYYYYYYYYYYYYYYYYYYYYYY",
"YYYYYYYYYYYYYYYYYYYYYYYYYYYYYYYYYYYYYYYYYYYYYYYYYYYYYYYYYYYYYYYYYYYYYYYYYYYYYYYYYYYYYYYYYYYYYYYYYYYYYYYYYYYYYYYYYYYYYYYYYYYYYYYY",
"YYYYYYYYYYYYYYYYYYYYYYYYYYYYYYYYYYYYYYYYYYYYYYYYYYYYYYYYYYYYYYYYYYYYYYYYYYYYYYYYYYYYYYYYYYYYYYYYYYYYYYYYYYYYYYYYYYYYYYYYYYYYYYYY",
"YYYYYYYYYYYYYYYYYYYYYYYYYYYYYYYYYYYYYYYYYYYYYYYYYYYYYYYYYYYYYYYYYYYYYYYYYYYYYYYYYYYYYYYYYYYYYYYYYYYYYYYYYYYYYYYYYYYYYYYYYYYYYYYY",
"YYYYYYYYYYYYYYYYYYYYYYYYYYYYYYYYYYYYYYYYYYYYYYYYYYYYYYYYYYYYYYYYYYYYYYYYYYYYYYYYYYYYYYYYYYYYYYYYYYYYYYYYYYYYYYYYYYYYYYYYYYYYYYYY",
"YYYYYYYYYYYYYYYYYYYYYYYYYYYYYYYYYYYYYYYYYYYYYYYYYYYYYYYYYYYYYYYYYYYYYYYYYYYYYYYYYYYYYYYYYYYYYYYYYYYYYYYYYYYYYYYYYYYYYYYYYYYYYYYY",
"YYYYYYYYYYYYYYYYYYYYYYYYYYYYYYYYYYYYYYYYYYYYYYYYYYYYYYYYYYYYYYYYYYYYYYYYYYYYYYYYYYYYYYYYYYYYYYYYYYYYYYYYYYYYYYYYYYYYYYYYYYYYYYYY"
};
