/* XPM */
static char *google_earth[] = {
/* columns rows colors chars-per-pixel */
"128 128 86 1",
"  c #000000",
". c #0C0C0C",
"X c #121212",
"o c #1A1A1A",
"O c #252525",
"+ c #2C2C2C",
"@ c #353535",
"# c #3C3C3C",
"$ c #444544",
"% c #484747",
"& c #4B4B4B",
"* c #4F4F50",
"= c #535353",
"- c #5B5B5B",
"; c #646363",
": c #686767",
"> c #686867",
", c #6B6A6B",
"< c #747474",
"1 c #7C7C7C",
"2 c #858585",
"3 c #898787",
"4 c #888887",
"5 c #878788",
"6 c #8C8C8C",
"7 c #908F8F",
"8 c #8F908F",
"9 c #8F8F90",
"0 c #8F9090",
"q c #949494",
"w c #979897",
"e c #989897",
"r c #989798",
"t c #979898",
"y c #9C9C9C",
"u c #A09F9F",
"i c #9FA09F",
"p c #A0A09F",
"a c #9F9FA0",
"s c #A09FA0",
"d c #9FA0A0",
"f c #A4A4A4",
"g c #A8A7A7",
"h c #A7A8A7",
"j c #A8A8A7",
"k c #A7A7A8",
"l c #A8A7A8",
"z c #A7A8A8",
"x c #ACACAC",
"c c #AFB0AF",
"v c #B0B0AF",
"b c #AFAFB0",
"n c #B0AFB0",
"m c #AFB0B0",
"M c #B4B4B4",
"N c #B8B7B7",
"B c #B7B8B7",
"V c #B8B8B7",
"C c #B7B7B8",
"Z c #B8B7B8",
"A c #B7B8B8",
"S c #BBBBBB",
"D c #C0BFBF",
"F c #C0C0BF",
"G c #BFBFC0",
"H c #C0BFC0",
"J c #BFC0C0",
"K c #C3C3C3",
"L c #C8C7C7",
"P c #C7C8C7",
"I c #C8C8C7",
"U c #C7C7C8",
"Y c #CCCCCC",
"T c #CFD0CF",
"R c #D0D0CF",
"E c #CFCFD0",
"W c #CFD0D0",
"Q c #D4D4D4",
"! c #D8D7D7",
"~ c #D7D8D7",
"^ c #D8D8D7",
"/ c #D7D7D8",
"( c #D8D7D8",
") c #D7D8D8",
"_ c #D9D9D9",
"` c None",
/* pixels */
"````````````````````````````````````````````````````````````````````````````````````````````````````````````````````````````````",
"````````````````````````````````````````````````````````````````````````````````````````````````````````````````````````````````",
"````````````````````````````````````````````````````````````````````````````````````````````````````````````````````````````````",
"````````````````````````````````````````````````````````````````````````````````````````````````````````````````````````````````",
"````````````````````````````````````````````````````````````````````````````````````````````````````````````````````````````````",
"````````````````````````````````````````````````````````````````````````````````````````````````````````````````````````````````",
"````````````````````````````````````````````````````````````````````````````````````````````````````````````````````````````````",
"````````````````````````````````````````````````````````````````````````````````````````````````````````````````````````````````",
"````````````````````````````````````````````````````````````````````````````````````````````````````````````````````````````````",
"````````````````````````````````````````````````````````````````````````````````````````````````````````````````````````````````",
"````````````````````````````````````````````````````````````````````````````````````````````````````````````````````````````````",
"````````````````````````````````````````````````````````````````````````````````````````````````````````````````````````````````",
"````````````````````````````````````````````````````````````````````````````````````````````````````````````````````````````````",
"`````````````````````````````````````````````~_________________`````````````````````````````````````````````````````````````````",
"``````````````````````````````````````````YQ_______________________Q````````````````````````````````````````````````````````````",
"````````````````````````````````````````PQ_____________________________`````````````````````````````````````````````````````````",
"``````````````````````````````````````KQQ______________________________QQ```````````````````````````````````````````````````````",
"````````````````````````````````````YQ____)~)_Q___Q___Q_Q___Q_(___/_Q__Q_QR`````````````````````````````````````````````````````",
"```````````````````````````````````YQ_(__)~)_^!^~Q!~Q__(_Q(Q_QQ__Q_/Q^^Q___QQ```````````````````````````````````````````````````",
"`````````````````````````````````UQQ_Q/QQ)Q~Q!!__(!_Q!Q//__Q_Q!)Q_Q__/Q_Q/Q)QQY`````````````````````````````````````````````````",
"````````````````````````````````YQQ__Q_QQ_Q^Q_^QQ_Q(Q_Q_Q/Q(QQ!^Q!!QQ!!QQQ~Q~QQW````````````````````````````````````````````````",
"```````````````````````````````QQQQQQQQQQQQQQQQQQQQQQQQQQQQQQQQQQQQQQQQQQQQQQQQQQY``````````````````````````````````````````````",
"`````````````````````````````KYYYUMfq445522qCKYQQQQQQQQQQQQQQQQQQQQQQQQQQQQQQQQQQQY`````````````````````````````````````````````",
"`````````````````````````````Mx``````      .OO-1hYQQQQQQQQQQRQQQQQQQQQQQQQQQQQQQQQQU````````````````````````````````````````````",
"```````````````````````````````````````         o&6VQQQQWQQQWQQQQQQRQEQQRQRQRQQQQQEQQ```````````````````````````````````````````",
"`````````````````````````````````````````````      #4VEEQTYQQYREQRTQQREEQEREQRYQYQQEYQ``````````````````````````````````````````",
"`````````````````````````````````````````````````    #5MWQQYQYQQQYTTQERRYQRRRQRRRRYQQTY`````````````````````````````````````````",
"```````````````````````````````````````````````````    #yYYQYQEEYQWRERRRERERRYQYEEEYYTQY````````````````````````````````````````",
"`````````````````````````````````````````````````````   o<MYEEEEQYEEEEREEERREEERYQERYRYTY```````````````````````````````````````",
"```````````````````````````````````````````````````````   #fYEYETYEEEYRYRYYERYREYYYQYRQYQY``````````````````````````````````````",
"`````````````````````````````````````````````````````````  @2KYYYEYEYRYRYEYEYEYEYRYYYQYYYYY`````````````````````````````````````",
"``````````````````````````````````````````````````````````   <NYYYYYYYYYYYYYYYYYYYYYYYYYYYYK````````````````````````````````````",
"````````````````````````````````````````````````````````````  &fYYYYYYYYYYYYYYYYYYYYYYYYYYYYK```````````````````````````````````",
"`````````````````````````````````````````````````````````````  #yIYYIYYYYLYYYYYYYYIYYIYYYIUYL```````````````````````````````````",
"``````````````````````````````````````````````````````````````  @tYYYYYYYUYYUYYULYYYIYYIIYYYYU``````````````````````````````````",
"```````````````````````````````````````````````````````````````  +eIUUPYUYIYIUYLIUIUYLYIYPIUYIK`````````````````````````````````",
"````````````````````````````````````````````````````````````````` @qFYPIUIIIIIIYLIIYIIYLUPIIIIPN````````````````````````````````",
"`````````````````````````````UIK`````````````````````````````````` X,VPPPLUPIILLUUUUIILUUUUPULUK````````````````````````````````",
"`````````````````````````VFUUUKPUKKF``````````````````````````````` .,SIUIUUIIIIPIUKIKLULIUKILKUK```````````````````````````````",
"```````````````````````KUULUUUPLIUULUUS`````````````````````````````  ,VKLKUIKUKUKUPIKUKUKUIKUULUM``````````````````````````````",
"`````````````````````GKUUIUPUUUUKUPKKUUKK````````````````````````````  ,VUUUKUPUKKPUKPKUKUKUKLUKUK``````````````````````````````",
"```````````````````CKUUKKKKPKKKULPKPUKKUKUS``````````````````````````` .,VKKKKKKPKKKKKKKKKKKKKKKKKS`````````````````````````````",
"``````````````````SKKKUKKKKKKKKKKKKKKKKKKKUFV``````````````````````````  ,MUKKKKKKKKKKKKKKKKKKKKKKKS````````````````````````````",
"`````````````````ZKKKKKKKKKKKKKKKKKKKKKKKKKKUKM`````````````````````````  ,AKKKFKKFKKFKKKKKKKKKFKKKKV```````````````````````````",
"````````````````VKKHGKKKKKKKKKKKKKKKKKJKKKKKKKSF`````````````````````````  ,MJKKKKKKKFKFJKHKDKKJDFKFS```````````````````````````",
"```````````````JFKKKKKDFKFKFKKSKFFKFKJKDJKSKFKKKGV````````````````````````  ,MFJFKSJFKKFKHKSFKSKKHDKKV``````````````````````````",
"`````````````lSKGKKKGKDKFKDKKSJKKKFFKGHKSKSKSKSKGHS````````````````````````  >MGFFKKKFFFKKKKDJKJSHKJFKV`````````````````````````",
"`````````````SHKKKSSKSKFDDDDKSKKSSKFJHDHFFKJKFDDGGKSV```````````````````````  %qFSSFSKSFSDSSKSSKHDSJFSSx````````````````````````",
"````````````MSKSKSKSFKSKKSKSKSDSJJKSKKFSGSKHSKJSKSKSKS```````````````````````  +6GSDSDSJSSGSSGGSSKSSSGGSx```````````````````````",
"````````````MSSGGFGSSGSSSGSGSKJSFSSGSSSJGGSDGSFSSFSFSSSB``````````````````````  +0KSDSKSSKKSGSSGSSFKGSSGSx``````````````````````",
"````````````SDSSSSGKKSSFGSSSSKSKSKSJGSGSGSGSSGSKSSKSKSSSC``````````````````````  +9VSSSSSKSSGSSSSFSSSSSSSSx```````MV````````````",
"```````````5SSSKSGSSSDSSSGSGSSSSSSSSSSJSSSSSSSSSDSSSSSDSSSV`````````````````````` O<nSSFSSSSSSSSSSSGSSSSSSSC`````MSS````````````",
"```````````fSSSSSSSSSSSSSSSSSSSSSSSSSSSSSSSSSSSSSSSSSSSSSSSM`````````````````````` .;xSVSSSSSSSSSSSSSSSSSSSSSCxbMSSS````````````",
"```````````xSSSSSSSSSSSSSSSSSSSSSSSSSSSSSSSSSVSSSSSSSVSSSSSAVb`````````````````````  ;lVSVVSSSSSSVVSSASASSSVASVVVSVSb```````````",
"```````````bSSSSSSSASVSSZSZSSSSSASSSSSSSSSSSSSSSVSSSSVSVSSVSSVM`````````````````````  $5VVSSCSVSSVSVSSVCSVVSVSVSSSASM```````````",
"``````````<CSCVSVSSZSSSVSSVSVCVCSVSVVVSVVVCASVSVSVZSVSVSVCSSVSVC`````````````````````  +4CVVCCZVASVVVVZSCVACSVVVVVCVx```````````",
"``````````<MVSVSVSVAVVSSZSZVVVSSCZVVSVVSCAAVVVSVCCZVVVSVVVVVVVVSCM````````````````````  o<xVAVVVVVVCCVVVCCAVZVVVBCACM```````````",
"``````````<MVVVVAVSVVVAVCVVVVVACCCSVVVVVCCVAVVVZCCCVVVACCCCZMNVVMAM````````````````````` .;xCCCZCCCVCMVVCAMVCCMCMCCVM```````````",
"``````````qNVCVVCCCCVCVVCCCCVVVVAACCAMAAMCCCAMVVAVCCZMZVBCCMVVMVVCMBM````````````````````  =qMVZCCMCAMCCVCCMCCMCCMVVC```````````",
"``````````hMVMCVCMCMCMCVMCMCMCCMMMCMCMCMACMCCVMMMVMMZMCMMVMZMCZMBMVMMv````````````````````  O5xMMMCMMCMMMMMMMMMVAMMMM```````````",
"``````````hMMNZMMMBMNMMMCMMMNMCMCMCMMCMCMMMBMMMMCMMMMCMMMMMMCMMMMMVMMMMx```````````````````  X-hMMMMMMMCMMMMMMMMMMMMM5``````````",
"``````````fMMMMMCMMMVMMMMMMNCMMMMMMMMMMMMBMMMMMMMMMMMMMMMMMMMMMMMMMMMMMMx````````````````````  &6MMMMMMMMMMMMMMMMMMMMy``````````",
"``````````fMMMMMMMMMMMMMMMMMMMMMMMMMMMMMMMMMBMMMMMMMMMMMMMMMMMMMMMMMMMMMMMl```````````````````  o,hMMMMMMMMMMMMMMnMMMk``````````",
"``````````yMMMMMMMMMMMMMMMMMMMMMMMMMMMMMMMMMMMMMMMMMMMMMMMMMMMMMMMMMMMxMMMMx```````````````````   &6xMMMMbMnMnMnMMMMMx``````````",
"``````````ynMmxMMMMMMMMMMMMMMMMMMMMMMMMMMMMMmMMmxMxMnMMMmMMmMnMMbbMbMcMmMcnMxl```````````````````  O,hMxMxMxMMMxMMMxMh``````````",
"``````````yMxMMMxMxMxMxvxMxMxMxMxMxMxMxvxMxMMMmMMMMMMMxvMMxMnMxMmMMncMxMMcMMnvv```````````````````   %4lnMnMMxccMxxMvy``````````",
"``````````yMMnxMMccmMxMnMnMxMxMxMxMxMxMnMxMxxMMmxMMnxMMMxMxMnvMxMmxMMxxMxMvxcMMxl```````````````````  X-txxMxxMMMxMxx5``````````",
"``````````tMvnMMMxcMxMxMMnxMxMccxMnvxMxMxMxMxxxcMxxMxxxnbxMxMxxMxMxxmxMmcxxMxxMxMlz``````````````````   @,txxMxxxxMxc<``````````",
"``````````qMMxxxxMxvcxMMxMxMMxbmbmxmxxMxxnxMxcccxnxvMxxvxMxxcxcvxxxvxMMxMxxbcMxxcxch```````````````````   +,wlxxxxcxx1``````````",
"``````````<xxMMxnxMxxMxxxxxxxcxmxcMxMxxnMxxxccxcxbnxxxnxxxxmxcxxxnnxxxxxxmxxxxxxcxxxxl```````````````````   +>qhxvxxx```````````",
"``````````-lmxcxxnxxnxxbxxxMcxxxcxxxxccxcxxccxxxxvxxMxxvxxxmcxxxxcxvxxxbxxxbxbbxxxxxcxxf```````````````````   o$5tlxl```````````",
"``````````;lxxxxxxxxxxxxxxxxxxxxxxxxxxxxxxxxxxxxxxxxxxxxxxxxxxxxxxxxxxxxxxxxxxxxxxxxxxxxlf```````````````````   .@;5q```````````",
"``````````&hxxxxxxxxxxxxxlxxxxxxxxxlxxjxxxxxxxxxxxxxxxxxxxxxxxxxxxxxxxxxxxxxxlxxxxxxxjlxxxhf```````````````````   ``````````````",
"```````````qxxxxxxxxxxxxxxxxlxxxlxxxxxxxlxxljxxxxxlxxllxlxxllxlxxlxxxllxlxxxlxlxxxlxlxxxxlxxly``````````````````````````````````",
"```````````6lxxxxxxxlxlxxxxlxxxxxlxxxlhxxxxlxxllllxjlxxjlxxllxjxhlxllllllxllxlxzxlllxlxlhhxllxha````````````````````````````````",
"```````````,lllllllllxljlxllllzllxlxhxlhlllljlxhlxlxzjxjlllllxjllzlllxlllllxjlzhllllhhhhzhllllllhff`````````````````````````````",
"```````````-hlllkkkhjllxllllllllllllzlllllllllllkhhhlllllllllhhhlzlhgglkgklljhkhllllklkkhhhhfgglhhlfs```````````````````````````",
"```````````@qzllkkkhhlhhfgllhhhhhhhlhhjhhghhhlllhhhhhhhhfhllhhhhhhhhhlhhhllfhhhhfhllhkflhhfhhhhffhlfhhfu````````````````````````",
"````````````4llkhhhhhhhhghfhhhfkhhhfhhhhhfhhhhgfhfhhhhhhghlffhhfhhhhlhhhhhkhfhhflhfhhflkhkhfghhhfkfkffgghfyy````````````````````",
"````````````;hfhfhhfhhfhhfhhkfhfhffhffhhfhffhhlffhfhfffhfgfhffhffffhffffffffhffhflffhffffffhffffhfhffhfffhfhffyf````````````````",
"````````````#yhhffhhhfhfffhffhfhffkfffhffhfhffhffffhffffhfffffffffffffffffffffffffffhfffffffffffffffffffffffffffffy`````````````",
"````````````X4ffffy65555sffffffffffffffffffffffffffffffffffffffffffffffffdffffffffffffffffffffffffffffffffffffffffq`````````````",
"`````````````;fff2-X...X#;5yhfffsfffffffffffffffffffffffffffffffffdffffffffffffffffffffsffifsffffufdfyfpfyffyfffff``````````````",
"`````````````+6f<o       ..&<qyffffffdfffufisfsfffifffuffuffaffffffffufuffafffyffifyafafyffffssssffdffffffyfuffyaq``````````````",
"``````````````1q# `````     .O-1ysfyfffdfifpffufdfiufufiyfffiffyfyfuuufyffyffpfpfyfidyffffyfufpffyffyffyyffyfdyfy2``````````````",
"``````````````%-```````````    .%<qyfddfifpfyffyfysfyfyfpuyffyfyufyfyfyfyffyyfypufyfaffyyffyuyfpyffyffyffyyfyffiq```````````````",
"`````````````````````````````    .O;2tfyyffyyfyffffypfaduyuyyyffyfsusyfyysyfpyuuyffyyayyfyydyfpufyyydyyfyfayfyfy1```````````````",
"````````````````````````````````    X%<qyyyfyyfyyuyfyyssyfyfyfyyayyfyfyufyuyyfuuyyyyfyfyyyfiyyyuyyfyyfyyyyyfpyy6````````````````",
"``````````````````````````````````    .+;6tfyfyyayasyfysyfyuuyyuyaayuyuuypyfyuyyyyfyyyuyuayuyyuyyyyyyyyyyyuyyyy<````````````````",
"`````````````````````````````````````   .O%<qyyyyyyyyysyyyyyyuyyyyyyyyyyyyyyyyyuydyyyuyyyyyyuyyyyyyyydsyyyyyyy6`````````````````",
"```````````````````````````````````````    .#-4tyyyyyyyyyyyyyyyyyyyayyyyyyyyyyyyyyyyyyyyyyyyyyyyyyyyyyyyyyyyyt,`````````````````",
"``````````````````````````````````````````    o$:4qttyyyyyyyyyyyyyyyyyyyyytyyyyyytyytyyyyyyyeyyyyyyytyyyyytyy1``````````````````",
"````````````````````````````````````````````    .o%,4qyytyyyyytytyyrytyeyyytyyeytyyeyeyetyytyyyrrytyyyytyytyq*``````````````````",
"```````````````````````````````````````````````    .O%,1qtytytytytyytyyeytryeeyeytyeytytryryrryttryytteyttyq,```````````````````",
"``````````````````````````````````````````````````    .X#;16qqttttytyetyretyyeeyttyerttrryrtrttyrettttreq61;````````````````````",
"`````````````````````````````````````````````````````     .+$,1qqqttrrttrettrrtttyrreeryrtreetetyettt74<=+.`````````````````````",
"````````````````````````````````````````````````````````      .+@-,<77qqttrrtqttttrtqerttqtqrttqq76<;#O. ```````````````````````",
"````````````````````````````````````````````````````````````      ..++-,,<4676q6qqqeerqqq77665,;*++    `````````````````````````",
"````````````````````````````````````````````````````````````````      .  .O++O@@#-,;,>,=#@+++O .    ````````````````````````````",
"`````````````````````````````````````````````````````````````````````                           ````````````````````````````````",
"``````````````````````````````````````````````````````````````````````````````           ```````````````````````````````````````",
"````````````````````````````````````````````````````````````````````````````````````````````````````````````````````````````````",
"````````````````````````````````````````````````````````````````````````````````````````````````````````````````````````````````",
"`````````````````````````````````````````4q6q6q64```````````````````````````````````````````````````````````````````````````````",
"````````````````````````````````````````66q0q7q7q694`````````````````````````````````````````````5``````````````````````````````",
"````````````````````````````````````````6q6q6q6q7q6qq666````````````````````````````````````25666```````````````````````````````",
"```````````````````````````````````````1q96090q669q6q66qq66454`````````````````````````524666775````````````````````````````````",
"```````````````````````````````````````169q6996qq6q68686686qq6946664554444446555254694668767662`````````````````````````````````",
"```````````````````````````````````````<q66q7676668676q66678667906694766696669608766686669665;``````````````````````````````````",
"```````````````````````````````````````&566669696660766668666866666666766669666666666666665,````````````````````````````````````",
"````````````````````````````````````````2666666666666666666666666666666666666666666666664<&`````````````````````````````````````",
"````````````````````````````````````````;5664666666666666666666666666666666666646666645<$```````````````````````````````````````",
"````````````````````````````````````````X#,246466666666666566464666466464664646644661,$`````````````````````````````````````````",
"````````````````````````````````````````` .@-<545456644454664644444644466464565552<-OX``````````````````````````````````````````",
"``````````````````````````````````````````   X#-<255444454646544444645455454552<-#X ````````````````````````````````````````````",
"```````````````````````````````````````````    .X@&,<1545444455564554445551<;%@X  ``````````````````````````````````````````````",
"``````````````````````````````````````````````     .X+$$;<<<<<1221<<<<<-$$OX.   ````````````````````````````````````````````````",
"`````````````````````````````````````````````````       .XXX.o+#@OXXXX..     ```````````````````````````````````````````````````",
"``````````````````````````````````````````````````````                  ````````````````````````````````````````````````````````",
"````````````````````````````````````````````````````````````````````````````````````````````````````````````````````````````````",
"````````````````````````````````````````````````````````````````````````````````````````````````````````````````````````````````",
"````````````````````````````````````````````````````````````````````````````````````````````````````````````````````````````````",
"````````````````````````````````````````````````````````````````````````````````````````````````````````````````````````````````",
"````````````````````````````````````````````````````````````````````````````````````````````````````````````````````````````````",
"````````````````````````````````````````````````````````````````````````````````````````````````````````````````````````````````",
"````````````````````````````````````````````````````````````````````````````````````````````````````````````````````````````````",
"````````````````````````````````````````````````````````````````````````````````````````````````````````````````````````````````",
"````````````````````````````````````````````````````````````````````````````````````````````````````````````````````````````````"
};
