/* XPM */
static char *graveman[] = {
/* columns rows colors chars-per-pixel */
"128 128 92 1",
"  c #010101",
". c #0C0C0C",
"X c #131313",
"o c #1C1C1C",
"O c #1F1F21",
"+ c #242424",
"@ c #292927",
"# c #2B2B2B",
"$ c #343434",
"% c #3C3C3C",
"& c #3F3F41",
"* c #3F4141",
"= c #434343",
"- c #4C4C4C",
"; c #514F51",
": c #525252",
"> c #565856",
", c #5C5C5C",
"< c #5F605F",
"1 c #646464",
"2 c #686666",
"3 c #6C6C6C",
"4 c #706F6F",
"5 c #6F7070",
"6 c #747474",
"7 c #7C7C7C",
"8 c #848484",
"9 c #888787",
"0 c #888887",
"q c #878788",
"w c #888788",
"e c #8C8C8C",
"r c #908F8F",
"t c #8F908F",
"y c #90908F",
"u c #8F8F90",
"i c #908F90",
"p c #8F9090",
"a c #949493",
"s c #989797",
"d c #979897",
"f c #989897",
"g c #979798",
"h c #989798",
"j c #979898",
"k c #9C9C9B",
"l c #A09F9F",
"z c #9FA09F",
"x c #A0A09F",
"c c #9F9FA0",
"v c #A09FA0",
"b c #9FA0A0",
"n c #A3A3A3",
"m c #A8A7A7",
"M c #A7A8A7",
"N c #A8A8A7",
"B c #A7A7A8",
"V c #A8A7A8",
"C c #A7A8A8",
"Z c #ABABAB",
"A c #B0AFAF",
"S c #AFB0AF",
"D c #B0B0AF",
"F c #AFAFB0",
"G c #B0AFB0",
"H c #AFB0B0",
"J c #B3B3B3",
"K c #B8B7B7",
"L c #B7B8B7",
"P c #B8B8B7",
"I c #B7B7B8",
"U c #B7B8B8",
"Y c #BBBBBB",
"T c #C0BFBF",
"R c #C0C0BF",
"E c #C0BFC0",
"W c #BFC0C0",
"Q c #C3C3C3",
"! c #C8C8C7",
"~ c #C7C7C8",
"^ c #C8C7C8",
"/ c #C7C8C8",
"( c #CCCCCC",
") c #D0CFCF",
"_ c #CFD0CF",
"` c #CFCFD0",
"' c #D4D4D4",
"] c #D7D8D7",
"[ c #D7D7D8",
"{ c #D7D8D8",
"} c #DBDBDB",
"| c None",
/* pixels */
"||||||||||||||||||||||||||||||||||||||||||||||||||||||||||||||||||||||||||||||||||||||||||||||||||||||||||||||||||||||||||||||||",
"||||||||||||||||||||||||||||||||||||||||||||||||||||||||||||||||||||||||||||||||||||||||||||||||||||||||||||||||||||||||||||||||",
"||||||||||||||||||||||||||||||||||||||||||||||||||||||||||||||||||||||||||||||||||||||||||||||||||||||||||||||||||||||||||||||||",
"||||||||||||||||||||||||||||||||||||||||||||||||||||||||||||||||||||||||||||||||||||||||||||||||||||||||||||||||||||||||||||||||",
"||||||||||||||||||||||||||||||||||||||||||||||||||||||||||||||||||||||||||||||||||||||||||||||||||||||||||||||||||||||||||||||||",
"|||||||||||||||||||||||||||||||||||||||||||||||||||||||||}}}}}}}}}}}}}}}}|||||||||||||||||||||||||||||||||||||||||||||||||||||||",
"||||||||||||||||||||||||||||||||||||||||||||||||||||}}}}}}}}}}}}}}}}}}}}}}}}}}||||||||||||||||||||||||||||||||||||||||||||||||||",
"||||||||||||||||||||||||||||||||||||||||||||||||}}}}}}}}}}}}}}}}}}}}}}}}}}}}}}}}}}||||||||||||||||||||||||||||||||||||||||||||||",
"||||||||||||||||||||||||||||||||||||||||||||||}}}}}}}}}}}}}}}}}}}}}}}}}}}}}}}}}}}}}}}|||||||||||||||||||||||||||||||||||||||||||",
"|||||||||||||||||||||||||||||||||||||||||||}}}}}}}}}}}}}}}}}}}}}}}}}}}}}}}}}}}}}}}}}}}}|||||||||||||||||||||||||||||||||||||||||",
"|||||||||||||||||||||||||||||||||||||||||}}}}}}}}}}}}}}}}}}}}}}}}}}}}}}}}}}}}}}}}}}}}}}}}[||||||||||||||||||||||||||||||||||||||",
"|||||||||||||||||||||||||||||||||||||||[}}}}}}}}}}}}}}}}}}}}}}}}}}}}}}{}}}}}}}}}]}}}}}}}}}{'||||||||||||||||||||||||||||||||||||",
"|||||||||||||||||||||||||||||||||||||[]}}}}}}}}}}}}}}}}}}}}}}}]}}}}}}{}}}}}}}}}}]}}}}}]}[}}[}|||||||||||||||||||||||||||||||||||",
"|||||||||||||||||||||||||||||||||||']}]}}}]]]}[}}}}}}[]]}}]}}[}}}}}}}{{}}}}}}}}}}][]]]}]}[][]}[|||||||||||||||||||||||||||||||||",
"||||||||||||||||||||||||||||||||||[]]}]]]]]][][[}}}}[[[]}}}][[[]][}}]]{{}{}}}}}}]}]]]]]][[}[]]][]|||||||||||||||||||||||||||||||",
"||||||||||||||||||||||||||||||||)[[[[[[]]]]][][[}}}}[[[]}}}}[[[[[}}}[[[[[{}}}}}}[[[[[]]]][[[[[[[}[||||||||||||||||||||||||||||||",
"|||||||||||||||||||||||||||||||''{{{'{]]]]]]]']['[[[[{'[[[{{{'{'[[]']]''[[[[['['[][[]]]''']{['][{''(||||||||||||||||||||||||||||",
"|||||||||||||||||||||||||||||!''[''{'['['[]'['[[[['[''[['['''['[']']']]'''''['[''''[''''''''']'''''''|||||||||||||||||||||||||||",
"||||||||||||||||||||||||||||('[''''''['[''']''''''''']'''['''''''']']'''''''''['''''''''''''''''''''''||||||||||||||||||||||||||",
"|||||||||||||||||||||||||||'''''''''''''''''''''''''''''''__QZNIJZZZZJ))`''''''''''''''''''''''''''''''|||||||||||||||||||||||||",
"||||||||||||||||||||||||||('''''''''''''''')''''''')''^Ine>;$..=6....o;-7kZ~!'''`''''')'')'''''''`''''``||||||||||||||||||||||||",
"|||||||||||||||||||||||||(''''''`'`'('_'')'')'')'''QN7=@ .     oa%       XX&1aY('')')')'')'``)'''''`')`''|||||||||||||||||||||||",
"||||||||||||||||||||||||!''('))'_'_'''('))'))')'(n6=.    |||||||Zh||||   o.XXX#1aY`''''`'''`'('('))`''''('||||||||||||||||||||||",
"|||||||||||||||||||||||!`'''(''('`'___'''))''(Ya,o   |||||||||||I!3||||||||.Xo+oX=7m())`('('(''(()')('((''(|||||||||||||||||||||",
"||||||||||||||||||||||~')'('('('___'``'(`''(Ye%  |||||||||||||||Y'n|||||||||||.o@o.+6n()('`(___'))'(''(')))(||||||||||||||||||||",
"|||||||||||||||||||||!(_(('('(`(___````_((!n:  |||||||||||||||||!(Q||||||||||||||.oX +9Q)(``('(`_(()((((()(`(|||||||||||||||||||",
"||||||||||||||||||||Y`'(_'(''(('_(`(('(`(I3X ||||||||||||||||||k()!|||||||||||||||| X..=g!(``((``('()(())(())(||||||||||||||||||",
"|||||||||||||||||||Y(((((((((((((_(`((((a% ||||||||||||||||||||E()(||||||||||||||||||.  o3Y(((`(((((()((()((()!|||||||||||||||||",
"|||||||||||||||||||!(`(`(_(((((_(((`((Y7o||||||||||||||||||||||!(((Y|||||||||||||||||||.  ,n!((((((((((((((()()Q||||||||||||||||",
"||||||||||||||||||Q(((((((((((((((((!Y2 ||||||||||||||||||||||Y(((!I|||||||||||||||||||||  $k!((((((((((((((!(!^||||||||||||||||",
"|||||||||||||||||I((((((((((((((((((k:|||||||||||||||||||||||Y((((!J||||||||||||||||||||||  @7E!!((((((!(!(((!((!|||||||||||||||",
"|||||||||||||||||~(!!((!(!(!(!(!(!(h@|||||||||||||||||||||||F!(((!~|||||||||||||||||||||||||  3E!^!(!!!((!^!(!^(^Q||||||||||||||",
"||||||||||||||||Y!!(!((/!~(~!!!!(!h#|||||||||||||||||||||||Z!!!!!!Y||||||||||||||||||||||||||  6E~~!/!!!!!!!!!!!!~||||||||||||||",
"|||||||||||||||Z^!(!/^!!!(^~!~!!!k#||||||||||||||||||||||||~!!!!!!k|||||||||||||||||||||||||||  5Y~~~^!^!!!!!!!Q/!Q|||||||||||||",
"|||||||||||||||Q!!!!^!!!^!~~~~!!U,||||||||||||||||||||||||Y!~Q~~!Q|||||||||||||||||||||||||||||  8~~~~~~!~Q~^~~~~~~|||||||||||||",
"||||||||||||||Z~~!!!~~~~~~~~~~!I3||||||||||||||||||||||||Y/!~!QQ~k|||||||||||||||||||||||||||||| $g~Q~~~~Q~~~~~~~Q~Q||||||||||||",
"||||||||||||||Y~~Q!Q~~~~~~~Q~QY4||||||||||||||||||||||||J~~~Q~~~Y|||||||||||||||||||||||||||||||| $MQQQ~~QQ~Q~QQQQ~Q||||||||||||",
"|||||||||||||N~~Q~Q~QQQQQQQ~!Qa|||||||||||||||||||||||||Q~QQQQQQB||||||||||||||||||||||||||||||||| 2IQQQQQQQQQQQQQQQY|||||||||||",
"|||||||||||||YQQQQQQQQQQQQQQQN$||||||||||||||||||||||||YQQQQQQQQq|||||||||||||||||||||||||||||||||| 6RQQQQQQQQQQQQQQ~|||||||||||",
"||||||||||||nQQQQQQQQQQQQQQQR6||||||||||||||||||||||||JQQQQQQQQY||||||||||||||||||||||||||||||||||||+kQQEQQQQQQQQQQTQY||||||||||",
"||||||||||||YQQQQQWWQQQQWQQWa|||||||||||||||||||||||||YQQQQQWQQZ|||||||||||||||||||||||||||||||||||| >IQEQQTWQEWQQQQQY||||||||||",
"|||||||||||aYQQQQQQQQTRQRQRI-||||||||||||||||||||||||ZEQYWEWQQWJ|||||||||||||||||||||||||||||||||||||XaQQTYQQQWQYQYQQQY|||||||||",
"|||||||||||ZQQTQQWYQYQQQQWQa|||||||||||||||||||||||||YQEQWRQYQQY||||||||||||||||||||||||||||||||||||||-ZQYQYQYYQQYQYYQY|||||||||",
"|||||||||||YYYQYQYQQQYYQRWJ:||||||||||||||||||||||||nQYQQWWEQYWWN||||||||||||||||||||||||||||||||||||| 6YQYQQYRQYQTTTYW|||||||||",
"||||||||||hYQQYQRTTYYQTRYYa|||||||||||||||||||||||||YYYQYWEYEYQQYJ|||||||||||||||||||||||||||||||||||||=JYQYEYRYYQYTQYYU||||||||",
"||||||||||ZEYYEYRYYQYRYTRJ>||||||||||||||||||||||||aYQYYYEYQYQYYYYYY|||||||||||||||||||||||||||||||||||.yYYYQYYWTYTYYEEY||||||||",
"||||||||||YYYQYTYQYTWYTYYa|||||||||||||||||||||||||NYYYQYYYYEYYYEYWYYEYY||||||||||||||||||||||||||||||||,IYYYYYWYEYYYYYY||||||||",
"|||||||||qYYYYYYYRYTYYYYY4|||||||||||||||||Y|||||||YYYYWYWYYYYYYYYYYYYYYYYY|||||||||||||||||||||||||||||.hYYYYYYYYYYYYYYJ|||||||",
"|||||||||hYYYYYYYYYYYYYYn|||||||||||||||||||Y|||||eYYYYYYYYYYYYYYYYYYYYYYYYL|||||||||||||||||||||||||||||6IYYYYYYYYYYYYYI|||||||",
"|||||||||NYYYYYYYYYYYYYYe|||||||||||||||||||Y|||||aYYYYYYYYYYYPYYYYYYYYYYIYYY||||||||||Y|||||||||||||||||=ZYLYYPYYYYYYPYI|||||||",
"|||||||||JPYYYYYYUYYPYYI2|||||||||||||||||||YI||||nUYYYYYPPYIUYYYUYYYPPYYPPYPI||||||||JU|||||||||||||||||XkYUYYYPYYIYKPPP|||||||",
"||||||||7UPYYYUYLYIYPYPZ|||||||||||||||||||nYJ||||JYIYIIYPYPPYPYUYIYPYPYKYYPYII|||||||JI||||||||||||||||||8LIIPPIIKIPYPPYN||||||",
"||||||||eLPPYLPPYPPPYLPn|||||||||||||||||||kII||||DPIIKLPPPPPPPLIYPPPPPPIYPPIKI|||||||IPJ|||||||||||||||||2LPPPLLPPKKIIIIJ||||||",
"||||||||aPYILLYPIPPKIIIe|||||||||||||||||||nII||||ZKIILIIIIIIIIIIIIIIIPPIPPPIIIJ||||||JKJ|||||||||||||||||=NJIPPIIIPPJIIJJ||||||",
"||||||||NPIIIIIJIIPPIIJ||||||||||||||||||||DIJ||||sIJIJKIILJIJIJJIJJIILJJIIJIPJJ||||||ZII|||||||||||||||||OnIIIIIIJKLPIPIJ||||||",
"||||||||NLJILJIIIJJIJIJ|||||||||||||||||||fJIJ||||7JIIPJJIJIJIJIIJIIJJJIJJJIJJJIN|||||kJJJ|||||||||||||||||aJJJJJJIJJJJJJJ||||||",
"||||||||NIIJIJIJJJIJIJn|||||||||||||||||||ZIJN||||:NIJIIJIJJJJJIIJIJJJJJJIJIJIJJZ|||||qJJIH||||||||||||||||6IJJJJJJJJJJJJJ||||||",
"||||||||ZIJJJJJJJJJJJJN||||||||||||||||||NJIIn|||||5ZIJJJJJJJJJJJJJJJJIJJJJJJJJJJ||||||ZJJJZ|||||||||||||||6JJJJJJJJJJJJJJ||||||",
"|||||||6SJJJJJJJJJJJJJn|||||||||||||||||nJJJIe||||| 3ZJJJJJJJJJJJJJJJJJJJJJJJJJJJ||||||tJJJJJ||||||||||||||6DJJJJDJJJHJJJJn|||||",
"|||||||6JJJJJJJJJJJJDJq||||||||||||||||ZJJDJN||||||| 2kHJJDJJJGJJDGJJJJJJDJDJDJJJ||||||,NJZJJJ|||||||||||||-nJDJHJHJHJHJDJn|||||",
"|||||||6SJDJJAJZDJHJJZ8|||||||||||||||NJJJJJa|||||||| #6kDJJFJJFAFJZJZJZJZSJDJAJJ|||||||eJZJJJZZ||||||||||||nJZJJZJJJJZJAJN|||||",
"|||||||3ZDJJZJJAJDJDJJ8||||||||||||||NJJJZHJ4|||||||||  #3kNJZJZFJZJJZHJJJSHZJJZZ|||||||;NJHZJJZZ|||||||||||nZJJZJJZDJJZZJn|||||",
"|||||||3JJJJJJZJZJZJZZq|||||||||||||JZJZZJZn|||||||||||   @:enHJHJJZGJJZZZSSZJZSx||||||||0ZZZJZJJZ||||||||||nJJZZJZJJZZJJZn|||||",
"|||||||3ZZZZZHJZSSJZZJ|||||||||||||ZZJZJJZJe|||||||||||||   .%8NZZZJSDZJZJSSDZJZe||||||||-nJHDZZJZZZ||||||||nZZZJZZZZGZZJZn|||||",
"|||||||3ZGZFFZFFZJZJFH||||||||||||VZZFZFJZN8|||||||||||||||   X-eZZHFZHZHZZDSJZm||||||||||eZFZZFZFZGZ|||||||nZZFZZZJZZFZZFn|||||",
"|||||||2ZZGGZFZZZZZZZZe||||||||||nZFZFZZZZB||||||||||||||||||   $eZZZZZFZFHZZZZe||||||||||6ZFZFZZZFZZZ||||||nZZFZFZZFZZZZZn|||||",
"|||||||3ZGFZZFFZZDZDZDk||||||||||NZZZZZFZZm||||||||||||||||||||  $hZZZZZZZZZZZn|||||||||||6ZZZZZZZZZZZn||||3ZZZZZZZZZZZZZZj|||||",
"|||||||:nZZZZZZZZZZZZZn|||||||||aZZZFZZZZZZa||||||||||||||||||||  6ZZZZZZZZZZN7|||||||||||7NZZZZZZZZZZN||||7NZZZZNZZZZZZZZq|||||",
"||||||||kZZZZZZZZZZZZZn|||||||||eZZZZZZZZZZc||||||||||||||||||||| -nNNZZZZZZZ8||||||||||||gZNZNZZNZNZZZk|||7NZZZZZZNZZZZNN||||||",
"||||||||kZZNNZZNZNNZZNn|||||||||aNZNNZZNZNZNk|||||||||||||||||||||+kNZCZNNNNp=|||||||||||7NNZNZNBZVZNNBn|||uZNBZNNZNNBNBNN||||||",
"||||||||hZNNNZZNZNNZZZN|||||||||uBVNNZZNZNNZn|||||||||||||||||||||+kNCNCNZNt=||||||||||||nNNCNNVCNBBNNBn|||kBBNNNCNNBNNZNN||||||",
"||||||||8NNZNNCNBZNNNNN|||||||||7ZNNNCBVVNVVNM||||||||||||||||||||@kNZNZNNh%||||||||||||nnBNBBZBZVZNNNNk|||kCBNNZCCBBNVVBc||||||",
"||||||||3NNNCNMNBNCNNNNk||||||||6BNBCCBBnNNBnNn|||||||||||||||||||,nBNBCNn3||||||||||||nBNNNBVMMBBBBNNVk||3nNNNnnMBNnMnMBh||||||",
"||||||||1nNVBBBNBBBVBnnn||||||||6BNNBBBBBVVVVNNn||||||||||||||||||qnnCnnc3||||||||||||nNnBnNnNnnnBnnNnnq||6nnCBBNNnBCBNMna||||||",
"||||||||$kNnnCnBBBBNCNBn||||||||6BnnmnnBNVnnnVnBnn||||||||||||||||hMnNnn2|||||||||||nnnnnNBnnNnnnBBnnnn|||ennnnnnBnNnnnnn7||||||",
"|||||||||annBnnNnnnnnnnna|||||||%anBnBnnnnBnBnnVnnn||||||||||||||qnNnnk2||||||||||knnnMnBnnnnnnnnnnnnn8|||knnnnnnnnBnnnnb|||||||",
"|||||||||7nnnnnnnnnnnnnnk||||||||3nnnnnnnnnnnnnnnnnnn||||||||||||nnnnk2|||||||||knnnnnnnnnnnnnnnnnnnk7|||6nnnnnnnnnnnnnnh|||||||",
"|||||||||,nnnnnnnnnnnnnnn||||||||Oqnnnnnnnnnnnnnnnnnnb||||||||||annnn3|||||||||knnnnnnnnnnnnnnnnnnk7=||||exnnbnnnnnnnznze|||||||",
"|||||||||$annnnnnnnnnnnnna||||||||>hxnnnnnnnnnncnknnnn|||||||||alnnnq@||||||||knnknnxnnnnnnnnnnnnh,X|||||knnnnbnnnnvnnnn7|||||||",
"||||||||||qnnvbnnnxnbnnnnk||||||||.7nnnnnknknlncnnznkn||||||||aznnka%|||||||||nnnznknxnknknbvnknh, |||||8knxknnckcnvnknh||||||||",
"||||||||||2knncnknnnknnnlv|||||||||>knxnbvnncnvnncznbvh||||||annknn6|||||||||8knnkvvnnnknnknnkcb3|||||||hlbnxxxxnnkncnke||||||||",
"||||||||||%aknnknnknknknknh||||||||Xqnxxknknknnkknnkkna|||||hknknka%|||||||||exxknnkkkcvkbbkknne$||||||6knkkknkzkvnknkz6||||||||",
"|||||||||||8nkkzlkknkvkbknz|||||||||3xknlnkkknkkknknbna||||ekxkxkn9||||||||||akxbnkckbknbbkzkxk6|||||||abkknvkkzkkkkkna|||||||||",
"|||||||||||,hlvkknkknknkxkxh||||||||=hzkkcknlkknknkbkce||||knkxzlk7||||||||||qkkkckcxckkkkzzlkh=||||||ekklxkkzzkznkkkke|||||||||",
"|||||||||||@tkxkzkxnzkzkkkkka|||||||oekzkzkkkknkzkzkkk7|||hzkkzkzka||||||||||2kkzkkkklkkkkzkkka|||||||jkknkkkkkzkkkkkh1|||||||||",
"||||||||||||3kzkkkkkkkkkkzckk|||||||oekkkkkkkkkkkkkkka|||hkkzkkkkkh||||||||||-hkklkkkkkkkkkkkh8||||||ekkkkkkkkkkkkkkke||||||||||",
"||||||||||||$ykkkkkkkkkkkkkkkj|||||||ekkkkkkkkkkkkkkh3||akkkkkkkkkhe||||||||||6kkkkkkkkkkkkkkk8||||||hkkkkkkkkkkkkkkh6||||||||||",
"|||||||||||| 6hkkkkkkkkkkkkkkk|||||||ekkkkkkkkkkhkkk7||8kkhkkhkhkkkh||||||||||#qkhkhkhkkkkhkhk0|||||akhkhkkhkkhkkkhka|||||||||||",
"|||||||||||||$ikkkkkkhkkdkhkkkh||||||ehkkkkkhkkhhka3$|1dhkhkhkhkhkhhh||||||||||=7hhkkhkkhfkhkha||||ehkkhkfhdkdkhhkhd5|||||||||||",
"||||||||||||| 5hhhdhdkjkhkhkdhkd||||5dkkhhhhkhkhae1 |@ehkkhkkkhkhkhkkha|||||||| +3ajhhhhkfkjhha3||ehhhhhhhhkjdhhjhhe||||||||||||",
"||||||||||||||$eddhhjjhhfhhhjdhha|||adhhhkdfdddd7% ||3ahddhhdfhhhhdhhhhfa||||||| X:0gshjffddjhhe|7ajddjjhfhhjjghdjh3||||||||||||",
"|||||||||||||| 2dkhhddjjkffdhjhhaq|qddhhhhdfadd2+ |||ehjddadddadddddaddhahe||||||  $5ddhdddddhhheahhdddddfhhddafdd7|||||||||||||",
"|||||||||||||||+7hhhdhddddddhhhhafaahjjhjhshjj8+ |||2fafaafajahdddadadafdafae3||||  @8hhaahahdhfadafahhdhahahahaaa:|||||||||||||",
"||||||||||||||| -edaasadaddaaddaahhaajaadaahaa: ||||8afaadadaddadaddaadhfaadaa5||||  2aaadhaaaahahahaaaaajadadaaa6||||||||||||||",
"||||||||||||||||.3faagdaadaaahjahaadjaadaadaaa-||||=paaffaahaaaaaadaafaaaasaaaa2|||| =eaaaaaaaaagaaaaaaaaaaaaaaa8%||||||||||||||",
"|||||||||||||||||+7aaaaaaaaaaaaaaaaaaaaaaaaaaa:||||,aaaaaaaaaaaaaaaaaaaaaaaaaaaq|||| =eaaaaaaaaaaaaaaaaaaaaaaaae>|||||||||||||||",
"||||||||||||||||| -waaaaaaaaaaaaaaaaaaaaaaaaaa3||||6aaaaaaaaaaapaaaaaaaaaaaaaaae||||.3aaaaaaaaaiaaaaaaaaaraaaaa3||||||||||||||||",
"|||||||||||||||||| 1aaaiiaaataaeraattaaataaetae||||8aaaauaaeaaaaaeaaaeaaeapauaaa3|||@7eaaeaaaraaaayaapaiaaaeya7|||||||||||||||||",
"|||||||||||||||||||o3eraayaaaeayraeaaauataapaay7||:eaaeaaaaeeauaaeaiaeapaaaaaeau6|||2eaaiaaueaaaauauaueaautaa8=|||||||||||||||||",
"||||||||||||||||||| o6aaraeaaaayaiaaeaaeaaeaeaye332eeeareauaaueaeataeayyaeeaeaue2||>qaeaaeaeaeeaeaeaeaeapaea8=||||||||||||||||||",
"|||||||||||||||||||| %8eaaeaeaaeaaeaeaapeaeataea0eeeaaaeappyeraearripiyreaeattee1;<8yyreeeirreaaaeepeyreaeue,|||||||||||||||||||",
"||||||||||||||||||||| &7eerpyeeaeupeptepeeaeeeaeeq8peeeyeaeaaaeteraeeaeareiettae77qeeaeaeapeuyeeeeauaeeaeee1||||||||||||||||||||",
"|||||||||||||||||||||| =7aaeeeepaeaeeytetaeauaeaeeeeeaaeeeeieeeraeeeyeaeaeeaete878euteaeeuueieeeeaepereuee1|||||||||||||||||||||",
"||||||||||||||||||||||| %7ereaeeeeeteeeteeeeeeeeeyieeeeeeaeereeeeeaeeeeeeeeeteeeeeeeeeeueeueeeeeeeeueeeee1||||||||||||||||||||||",
"|||||||||||||||||||||||| =7eueeeeeeeeeeeeeeeeeeeeeeeeeeeeeeeeeeeeeeeeeeeeeeeeeeeeeeeeeeeeeeeeeeeeeeeeeee,|||||||||||||||||||||||",
"||||||||||||||||||||||||  %7eeeeeeeeeeeeeeeeeeeeeeeeeeeeeeeeeeeeeeeeeeeeeeeeeeqeeeeeeeeeeeeeeeeeeeeeee8,||||||||||||||||||||||||",
"|||||||||||||||||||||||||| $2eeeeeeeee0eeeeeeeeeeeeeeeqee9eeeeeeeee0eeeeeeee0qeeeeqeeeqeeeqe0e0eeeeee6=|||||||||||||||||||||||||",
"||||||||||||||||||||||||||| o1eeeqeeeee0eq0eeqeeeeeeqeeeeee90eqee00ewqe00e0e0eqeqeeqeqeq00eeqeqeqqe07%||||||||||||||||||||||||||",
"|||||||||||||||||||||||||||| X-70qeqeqeq00eqe009q000e0e0q000e0e0e000e9e900e09ee0qee0q0eq00eqqq09qqe,#|||||||||||||||||||||||||||",
"|||||||||||||||||||||||||||||  %3e0000000q0q000e0q0000000q000000qe00qq0q00009000q000q0qq0000qe0qq7-X||||||||||||||||||||||||||||",
"||||||||||||||||||||||||||||||  o>7qqqqq00qqq88qqqqqqqq0qqqqqqq0qq0qqqqq9q8qqqq8qqq800qq9q8qqqe82%||||||||||||||||||||||||||||||",
"||||||||||||||||||||||||||||||||  %27qqq800qqqqqqq8qqq88qq8qqq8888q88q8q98qq8qq8q8q8q8q898qq8q6-X|||||||||||||||||||||||||||||||",
"|||||||||||||||||||||||||||||||||  X-6qqq8q88q8q08q0888888q88qq889q888888q88888888888888q8887,+ ||||||||||||||||||||||||||||||||",
"||||||||||||||||||||||||||||||||||   o:6888888888888q88808888888888888888888888888888888887<% ||||||||||||||||||||||||||||||||||",
"||||||||||||||||||||||||||||||||||||   o-688888q8888888888q88888888888878888788888888q8871$.||||||||||||||||||||||||||||||||||||",
"||||||||||||||||||||||||||||||||||||||   O=27888887888888878888q88888888888888888888875-@  |||||||||||||||||||||||||||||||||||||",
"||||||||||||||||||||||||||||||||||||||||   .$,677888888888788877788788888888888788761=o  |||||||||||||||||||||||||||||||||||||||",
"||||||||||||||||||||||||||||||||||||||||||    X$>37778787878788878888787787878876,=+. ||||||||||||||||||||||||||||||||||||||||||",
"|||||||||||||||||||||||||||||||||||||||||||||    X$=12777887788787877878877731-$o.  ||||||||||||||||||||||||||||||||||||||||||||",
"|||||||||||||||||||||||||||||||||||||||||||||||      .@#=<<<26777767731<1-$#X.   |||||||||||||||||||||||||||||||||||||||||||||||",
"|||||||||||||||||||||||||||||||||||||||||||||||||||         .++@@+@@@X        ||||||||||||||||||||||||||||||||||||||||||||||||||",
"||||||||||||||||||||||||||||||||||||||||||||||||||||||||                 |||||||||||||||||||||||||||||||||||||||||||||||||||||||",
"||||||||||||||||||||||||||||||||||||||||||||||||||||||||||||||||||||||||||||||||||||||||||||||||||||||||||||||||||||||||||||||||",
"||||||||||||||||||||||||||||||||||||||||||||||||||||||||||||||||||||||||||||||||||||||||||||||||||||||||||||||||||||||||||||||||",
"||||||||||||||||||||||||||||||||||||||||||||||||||||||||||||||||||||||||||||||||||||||||||||||||||||||||||||||||||||||||||||||||",
"||||||||||||||||||||||||||||||||||||||||||||||||||||||||||||||||||||||||||||||||||||||||||||||||||||||||||||||||||||||||||||||||",
"||||||||||||||||||||||||||||||||||||||||||||||||||||||||||||||||||||||||||||||||||||||||||||||||||||||||||||||||||||||||||||||||",
"||||||||||||||||||||||||||||||||||||||||||||||||||||||||||||||||||||||||||||||||||||||||||||||||||||||||||||||||||||||||||||||||"
};
