/* XPM */
static char *kommander[] = {
/* columns rows colors chars-per-pixel */
"128 128 84 1",
"  c #000000",
". c #0C0C0C",
"X c #141414",
"o c #1C1C1C",
"O c #222222",
"+ c #2C2C2C",
"@ c #343434",
"# c #3B3B3B",
"$ c #444444",
"% c #4C4C4B",
"& c #545454",
"* c #5C5C5C",
"= c #5F5F61",
"- c #5E6060",
"; c #636363",
": c #6C6C6C",
"> c #737373",
", c #7B7B7B",
"< c #807F80",
"1 c #838383",
"2 c #888787",
"3 c #878887",
"4 c #878788",
"5 c #878888",
"6 c #8C8C8C",
"7 c #908F8F",
"8 c #8F908F",
"9 c #90908F",
"0 c #8F8F90",
"q c #908F90",
"w c #8F9090",
"e c #949494",
"r c #989797",
"t c #979897",
"y c #989897",
"u c #979798",
"i c #989798",
"p c #979898",
"a c #9B9B9B",
"s c #A09F9F",
"d c #A0A09F",
"f c #9F9FA0",
"g c #9FA0A0",
"h c #A4A4A4",
"j c #A8A7A7",
"k c #A7A8A7",
"l c #A8A8A7",
"z c #A7A7A8",
"x c #A8A7A8",
"c c #A7A8A8",
"v c #ACACAC",
"b c #B0AFAF",
"n c #AFB0AF",
"m c #AFAFB0",
"M c #AFB0B0",
"N c #B3B3B3",
"B c #B8B7B7",
"V c #B7B8B7",
"C c #B8B8B7",
"Z c #B7B7B8",
"A c #B8B7B8",
"S c #B7B8B8",
"D c #BCBCBC",
"F c #C0BFBF",
"G c #BFC0BF",
"H c #C0C0BF",
"J c #BFBFC0",
"K c #C0BFC0",
"L c #BFC0C0",
"P c #C4C4C4",
"I c #C8C7C7",
"U c #C7C8C7",
"Y c #C8C8C7",
"T c #C8C7C8",
"R c #C7C8C8",
"E c #CCCCCC",
"W c #D0CFCF",
"Q c #CFD0CF",
"! c #D0CFD0",
"~ c #D2D2D2",
"^ c #D8D7D7",
"/ c #D7D8D7",
"( c #DBDBDB",
") c None",
/* pixels */
"))))))))))))))))))))))))))))))))))))))))))))))))))))))))))))))))))))))))))))))))))))))))))))))))))))))))))))))))))))))))))))))))",
"))))))))))))))))))))))))))))))))))))))))))))))))))))))))))))))))))))))))))))))))))))))))))))))))))))))))))))))))))))))))))))))))",
"))))))))))))))))))))))))))))))))))))))))))))))))))))))))))))))))))))))))))))))))))))))))))))))))))))))))))))))))))))))))))))))))",
"))))))))))))))))))))))))))))))))))))))))))))))))))))))))))))))))))))))))))))))))))))))))))))))))))))))))))))))))))))))))))))))))",
"))))))))))))))))))))))))))))))))))))))))))))))))))))))))))))))))))))))))))))))))))))))))))))))))))))))))))))))))))))))))))))))))",
"))))))))))))))))))))))))))))))))))))))))))))))))))))))))))))))))))))))))))))))))))))))))))))))))))))))))))))))))))))))))))))))))",
"))))))))))))))))))))))))))))))))))))))))))))))))))))))))))))))))))))))))))))))))))))))))))))))))))))))))))))))))))))))))))))))))",
"))))))))))))))))))))))))))))))))))))))))))))))))))))))))))))))))))))))))))))))))))))))))))))))))))))))))))))))))))))))))))))))))",
"))))))))))))))))))))))))))))))))))))))))))))))))))))))))))))))))))))))))))))))))))))))))))))))))))))))))))))))))))))))))))))))))",
"))))))))))))))))))))))))))))))))))))))))))))))))))))))))))))))))))))))))))))))))))))))))))))))))))))))))))))))))))))))))))))))))",
"))))))))))))))))))))))))))))))))))))))))))))))))))))))))))))))))))))))))))))))))))))))))))))))))))))))))))))))))))))))))))))))))",
"))))))))))))))))))))))))))))))))))))))))))))))))))))))))))))))))))))))))))))))))))))))))))))))))))))))))))))))))))))))))))))))))",
"))))))))))))))))))))))))))))))))))))))))))))))))))))))))))))))))))))))))))))))))))))))))))))))))))))))))))))))))))))))))))))))))",
"))))))))))))))))))))))))))))))))))))))))))))))))))))))))))))((((((((()))))))))))))))))))))))))))))))))))))))))))))))))))))))))))",
"))))))))))))))))))))))))))))))))))))))))))))))))))))))))))(((((((((((())))))))))))))))))))))))))))))))))))))))))))))))))))))))))",
"))))))))))))))))))))))))))))))))))))))))))))))))))))))))))((((((((((((()))))))))))))))))))))))))))))))))))))))))))))))))))))))))",
"))))))))))))))))))))))))))))))))))))))))))))))))))))))))))(((((((((((((())))))))))))))))))))))))))))))))))))))))))))))))))))))))",
")))))))))))))))))))))))))))))))))))))))))))))))))))))))))E(((((((((((((())))))))))))))))))))))))))))))))))))))))))))))))))))))))",
")))))))))))))))))))))))))))))))))))))))))))))))))))))))))~(/(/(/(((((((())))))))))))))))))))))))))))))))))))))))))))))))))))))))",
"))))))))))))))))))))))))))))))))))))))))))))))))))))))))z(//(///(((((((())))))))))))))))))))))))))))))))))))))))))))))))))))))))",
"))))))))))))))))))))))))))))))))))))))))))))))))))))))))D^^/^^^^^^/^((^/Y)))))))))))))))))))))))))))))))))))))))))))))))))))))))",
"))))))))))))))))))))))))))))))))))))))))))))))))))))))))!^//^^/~^^~/((//~)))))))))))))))))))))))))))))))))))))))))))))))))))))))",
")))))))))))))))))))))))))))))))))))))))))))))))))))))))E~/~~^~~/~^~//~/~~E))))))))))))))))))))))))))))))))))))))))))))))))))))))",
"))))))))))))))))))))))))))))))))))))))))))))))))))))))J~~~/~~/~~~~/~~/~~//E))))))))))))))))))~))))))))))))))))))))))))))))))))))",
"))))))))))))))))))))))))))))))))))))))))))))))))))))TE~/~~~~~~~~~~~~~~~~~~~~~Q)))))))))))))Q~~~~))))))))))))))))))))))))))))))))",
"))))))))))))))))))))))))))))))))E~~~~~~)))))))))))Q~~~~~~~~~~~~~~~~~~~~~~~~~~~Q~)))))))))TQ~~~~~~E))))))))))))))))))))))))))))))",
")))))))))))))))))))))))))))))))T!~!!~Q~!)))))))E~~~~~!Q!~~~~~~!~!~~~~~~!~!~~~~~~~EE))))TE~~~~~!~~~E)))))))))))))))))))))))))))))",
"))))))))))))))))))))))))))))))PQ~!!!!~QQ~E))EQ!QQ!Q!!Q~!!!!!QQ!~!!~!!!!!E~WWE~Q~~~W~QEQ~~!!QE~!!E~~)))))))))))))))))))))))))))))",
")))))))))))))))))))))))))))))P~EQQ!QQ!Q!Q!QQQQ!Q!Q!!QQ!!Q!!!QQQQ!Q!QQQ!Q~E~E~E~EE~E~E~~EEQ!QQQ!QQ!QQT)))))))))))))))))))))))))))",
"))))))))))))))))))))))))))))PE~E!!E!!EQ!QEQEE!E!EQEQQ!!EQQEEEQEE!EQ!!EQ!~EEWE~E!EE~EWEEQQQ!E!E!EE!EQE)))))))))))))))))))))))))))",
")))))))))))))))))))))))))))CEWEEQEEQEEEE!EE!EQ!EE!QEQEEEQEQEEQEQEEQEEE!EEEE!EE~EE~EEEEQEEEEQEEEWEQQEET))))))))))))))))))))))))))",
")))))))))))))))))))))))))))TEEEEEEEEEEEEEEEEEEEEEEEEEEEEEEEEEEEEEEEEEEEEEEEEEEEEEEEEEEEEEEEEEEEEEEEEET))))))))))))))))))))))))))",
")))))))))))))))))))))))))))TEEEEEEEEEEEEEEEEEEEEEEEEEEEETEEEEEEEEEEEEEEEEEEEEEEEEEEEEEEEEEEEEEEEEEEEET))))))))))))))))))))))))))",
")))))))))))))))))))))))))))PTETEEYETTEETREETTEERTEERETEEEEEUETTEUETEETEEUETETETEYETEETEEYETEETETETEETP))))))))))))))))))))))))))",
")))))))))))))))))))))))))))kTETTTTTEEUETTEYEEUUTTETTUTETYEUTTETTTEEYUTETTETEEUETRTERUTTTTEERYTTETTETEN))))))))))))))))))))))))))",
"))))))))))))))))))))))))))))dETTTYYUTTUTUTRYUETTUETTUYURUTRYUETTUURTTRTTUURTYUTTYTTTYYRRUUTUYUTTTTTTD)))))))))))))))))))))))))))",
"))))))))))))))))))))))))))))*DTUTUTTTUTYUTUTUUUUTTRURTPYUPTTTUTTUTUYTYPTUUUURTPTUUUUPTTRUUPRIPTRPRPC,)))))))))))))))))))))))))))",
"))))))))))))))))))))))))))))XeYTUUPRTPTPUTPTPPRPTPPYPPUPPRPUPUIPPPPPTPYPPPYPPTTPUPPPTTPPPUUPIPPYUTP6))))))))))))))))))))))))))))",
")))))))))))))))))))))))))))));PPPPUPPUPUPPTPPTPPPYRPPUPPPTPYPUPURPPUPYYPPYPPPPPPPPPUTPPPRPPPPPPPPPF)))))))))))))))))))))))))))))",
")))))))))))))))))))))))))))))OvPPPPPPPPPPPPPPPPPPPPPPPPPPPPPPPPPPPPPPPPPPPPPPPPPPPPPPPPPPPPPPPPPPPc)))))))))))))))))))))))))))))",
"))))))))))))))))))))))))))))).kPPPPPPPPPPPPPPPPPPPPPPPPPPPPPPPPLPPPPPPLPPPPPPHPPPPHPPPPPLPPPPLKPPPa)))))))))))))))))))))))))))))",
"))))))))))))))))))))))))))))))tPDPPPPPHPPPPPDPDPHPPGPLPLDPKPLPHPPPPKGPLPLPPJHPGPLPPPPHPDPPGPFPPKPPD)))))))))))))))))))))))))))))",
"))))))))))))))))))))))))))))))iPPKPDDPDPPGPJPPPKDPHPDPPPPDPKHPHPGHPPDPLLPFFPHPDPLPGDDPKPPDPPDPJPPPDe))))))))))))))))))))))))))))",
"))))))))))))))))))))))))))))))cPDPPDPDPPDPDPDDPKPPDDPDDPDPDPLDPDGHDHLLLLDPDKGGLHLLGPKKKDLLDDPDDPDDGN))))))))))))))))))))))))))))",
")))))))))))))))))))))))))))))6LLDDPDHGDDDPDPDPDPPDGPDPDPLJDPkh,%%%:ahvPDDPDFDPDKDPJLDKPDLLJLJKDJGDPC))))))))))))))))))))))))))))",
")))))))))))))))))))))))))))))vJDPDPDDPPDDDKDHDDDDGDLDDDDDv6&...    ..+-wBDDFDDFFJDDJLDJDDJDLDJDJHDHDv)))))))))))))))))))))))))))",
"))))))))))))))))))))))))))))1DJDDDDDDDKDFDDJDHDDDLDDLDCN6+X            X&eNDDDDDDDDDDDDDDDDDDDDDDDDDC)))))))))))))))))))))))))))",
"))))))))))))))))))))))))))))hDDDDDDDDDDDDDDDDDDDDDDDDDe&.   ))))))))     o*mDDDDDDDDDDDDDDDDDDDDDDDDD)))))))))))))))))))))))))))",
"))))))))))))))))))))))))))))NDDDDDDDDDDDCDCDDCDDDDDCZ>.  ))))))))))))))    ;NCCDDCDDCDDCDDDDDCDDCDDDDN))))))))))))))))))))))))))",
")))))))))))))))))))))))))))iCDCDDCDDZCZDDDDSSDADAZDZ> )))))))))))))))))))   #tCCDCDZDSDCACCZDCCCCDCCDC))))))))))))))))))))))))))",
")))))))))))))))))))))))))))vCCDDCDACCCADDSCCSDSCDAC<.))))))))))))))))))))))  :mCCCCDZCCCCCSCCCDCSCCCCCv)))))))))))))))))))))))))",
"))))))))))))))))))))))))))wZCCCCCCCSCZZZCSCSSCCAZZh@))))))))))))))))))))))))  =vAAACZZSZSSZZBAACSCZZSSZ)))))))))))))))))))))))))",
")))))))))))))))))))))))))iNCCCASZZCCZZNACCZZBANBNv*))))))))))))))))))))))))))  >NCSCCCSNSZSZNSZNZZNZCZNNM)))))))))))))))))))))))",
"))))))))))))))))))))))))hNVNANNZNANNZNBNNANZNNBNC6)))))))))))))))))))))))))))) #hNNNNNNNNNNZNNCNNZZNNCNCNNN)))))))))))))))))))))",
")))))))))))))))))))))nNNBNNANNNNNNNZSNNNNNNBNNNNN&))))))))))))))))))))))))))))) ,NNNNZNNNZNNNNSNNNNNNNSNNNNNNNN)))))))))))))))))",
"))))))))))))))))))vNNNNNNNNNNNNNNNNNNNNNNNNNNNNNh)))))))))))))))))))))))))))))) @hNNNNNNNNNNNNNNNNNNNNNNNNNNNNNN))))))))))))))))",
")))))))))))))))))vNNNNNNNNNNNNNNNNNNNmNNNNNNNNNN4)))))))))))))))))))))))))))))))oqNNNNNNNNNNNNmNNNNNNNNNNNnNNmNNN)))))))))))))))",
")))))))))))))))))NNNNnMNMNNNNMNvNNNNNNNnNNNnmNbN*))))))))))))))))))))))))))))))));NnNbNbvNMNNvNNNNNNvNNvNNNbbNbNN)))))))))))))))",
"))))))))))))))))iNmmMNNMvNvNNNNNmmmmNmNNnNbbNbNa)))))))))))))))))))))))))))))))))*nNvNNNNvNvvNNNvNbvNnmNNvvNvNvNm)))))))))))))))",
"))))))))))))))))qmmvNvvNNnnvvMvNmNvbvNvvvmnvbnva)))))))))))))))))))))))))))))))))$zvbvvMvNbbnvvNNvvNvNvvnvNbNvNvv)))))))))))))))",
"))))))))))))))))4vbvmvnvvvmvMvmvbvnvnbNvmvNvbvna))))))))))))))))))))))))))))))))))iNvNvNvNvmnbvvvmvnvNvvvvNbvNvNm)))))))))))))))",
"))))))))))))))))1vmvvmmvnnvmvnvnvvvbvvvvvbvmbvvd))))))))))))))))))))))))))))))))))ivvvvvvvvvvnvbbvbvvvNvNvvvvvvvv)))))))))))))))",
")))))))))))))))),vvmvmvvvvvvvvvnbvvvbvvvvvvvvvva))))))))))))))))))))))))))))))))))ivvvvvvvvvvvvvvvvvvvvvvvvvvvvvv)))))))))))))))",
"))))))))))))))))>vvvvvvvvvvvvvvvvvvvvvvvvvvvvvva)))))))))))))))))))))))))))))))))%kvvvvvvvvvvcvvvvvvvvvccvvvvvvvv)))))))))))))))",
"))))))))))))))))>vvvvvvcvvvccvvcvvvvcvcvvvcvvvcs))))))))))))))))))))))))))))))))):cvvvvvvvcvvxvvvcvvcvxvcvvvvcvcv)))))))))))))))",
"))))))))))))))))>cccxccxjxvccvcclcxcvcvcjcvcxvcx))))))))))))))))))))))))))))))))):cccjccjcvcvcxcvccccvcxxxxcvccxc)))))))))))))))",
"))))))))))))))))*kccxckxjjjjcvxxxcccxcxxjlccjcxx)))))))))))))))))))))))))))))))))exxccxcxjjjxxxxjjxjlxxlkzzzjxjxa)))))))))))))))",
")))))))))))))))))1xxjxkkxxkjjjkjxjjxxjxxjjjjjxhka))))))))))))))))))))))))))))))))akjjjjjkkjjhkkkjjkkjjjjkkkkjjkk1)))))))))))))))",
")))))))))))))))))+1tekhhkkkhkhkkkkhjkhxhkkkhhkhkk)))))))))))))))))))))))))))))))4hkkhkkkkkhkhjxkkxkhkkhkkhkkkee,))))))))))))))))",
"))))))))))))))))))XXO&,tkhkhhkhhkhhhhkhkhkhhkhkhha))))))))))))))))))))))))))))))akhhhhhhhhkhkhhhhhhkkhhhhh1=&O))))))))))))))))))",
")))))))))))))))))))   .o&6hhhhhhhhhhhhhhhhhhhhhhhh)))))))))))))))))))))))))))))4hhhhhhhhhhhhhhhhhhhhhhhf4&o  )))))))))))))))))))",
"))))))))))))))))))))     #6hhhhhhhhhhhhhhhhhhhhhhhh))))))))))))))))))))))))))))ahhhhhhhhhhhhhhhhhhhhhha*o   ))))))))))))))))))))",
"))))))))))))))))))))))    #6hhhshhhfhhshhahhhhghdhhi))))))))))))))))))))))))))tdhdhhahshfhfhhghhfhfhsh,o )))))))))))))))))))))))",
"))))))))))))))))))))))))   ;hahhhfhfshhahfhaahhdhahha))))))))))))))))))))))))6ahhashhghdhfhhahgghfdfhd&)))))))))))))))))))))))))",
")))))))))))))))))))))))))) #thsashshhsdhghahhhahgahahi))))))))))))))))))))))efhashhdaghhahhahafgfsdhh<o)))))))))))))))))))))))))",
"))))))))))))))))))))))))))).>fahafsaahaahadhafhaahahada))))))))))))))))))))aafahhaahhaagaassahffsssas*))))))))))))))))))))))))))",
"))))))))))))))))))))))))))) &aahahaaahafsahaafhaahahdhaa)))))))))))))))))iihafahfafadassagaffaffsafai#))))))))))))))))))))))))))",
"))))))))))))))))))))))))))))O6aaaashaaaafaaasaafaaaaaafadai))))))))))))tadaafaaasaasaaaafaaafaaaaaaa>)))))))))))))))))))))))))))",
")))))))))))))))))))))))))))));aaaaaaaaaaaaaaaaaaaaaaaaaaaaaaat))))))iiaaaaaaaaaaaaaaaaaaaaaaaaaaaaaa$)))))))))))))))))))))))))))",
")))))))))))))))))))))))))))))$aaaaaaaaaaaaaaaaaaaaaaaaaaaaaiaaaaaaaaaaaaaaaaaaaaaaaaaaaaaaaaaaaaaaa4))))))))))))))))))))))))))))",
"))))))))))))))))))))))))))))).:iaaaiaaiaiaaaaaaiiaaaaiaaaaayiiaiiaaiaaaaiaaiaaiaiaiiaaiaiaiiaaiiiit;))))))))))))))))))))))))))))",
"))))))))))))))))))))))))))))))$piiiaiiiaiiiititaiiiiiaiityiyiiiaaiiiiiptiiiiiiiyyatriiyyiiaipprtirt)))))))))))))))))))))))))))))",
"))))))))))))))))))))))))))))))@tiiiiiiitiaytiutpiuiiiyptiiiittiitpiyuttiurrrytytytttttyyrtetptttiye)))))))))))))))))))))))))))))",
"))))))))))))))))))))))))))))))#etttpetttiittttttttuiyttttttttttetttttttttettytttttttettttetttttttyt,))))))))))))))))))))))))))))",
"))))))))))))))))))))))))))))))&tttteterteretttetteuuteetttetteetetettetteetrteteieeeeereteettetttet4))))))))))))))))))))))))))))",
")))))))))))))))))))))))))))))),eteteteeetetreteeueeeeteteeteteteeueeteeeteeeeteeeieeeuieeeteeeeeette<)))))))))))))))))))))))))))",
"))))))))))))))))))))))))))))):eeeeeeeeeeeeeeeeeeeeeeeeeeeeeeeeeeeeeeeeeeeeeeeeeeeeeeeeeeeeeeeeeeeeee6)))))))))))))))))))))))))))",
")))))))))))))))))))))))))))))6eeeeeeeeeeeeqeeeeeeeeqeeweeeeeeqeeeeeeeqeeeeqeeqeeeeeeqeeeeqeeeq7eeqeqe6))))))))))))))))))))))))))",
")))))))))))))))))))))))))))),eeeee6eeeweqeeqeeewe8ee0qeee0eqe7eqeeqeeew6ee7eee9eqeqeeee7e6eee0eee6ee86))))))))))))))))))))))))))",
"))))))))))))))))))))))))))))698960ee6wweqqq000wwe66ee96e6e6e6e6eqqe66e8e6ee66e77qqq76e6e6ee68e776e6e6e6)))))))))))))))))))))))))",
"))))))))))))))))))))))))))),e9e7e66898e6qqqe6e99qe9866e0999qe6e66e6ee66ee669e8e66e06e66e6e68e6e66q6we66)))))))))))))))))))))))))",
")))))))))))))))))))))))))))>e66ee6e6e66e776q69966e686e6q6876e66ee67668966796606676076w69w6866866e6e6674)))))))))))))))))))))))))",
"))))))))))))))))))))))))))))66666869066660066066666896660w66666666666666666666666766666666666666866666))))))))))))))))))))))))))",
")))))))))))))))))))))))))))):66q6666666w6666066666666666666666666666666666666666666666666666666666666>))))))))))))))))))))))))))",
")))))))))))))))))))))))))))));6666665666666666666666666666666666666666666666662666666666666666666662:)))))))))))))))))))))))))))",
"))))))))))))))))))))))))))))).*5566666656644:>66636266565666636266266662666666666641::;:46646626666*))))))))))))))))))))))))))))",
")))))))))))))))))))))))))))))  &626632261>&+ X@*6666246462663666635626624636626341&+    +&66262643-)))))))))))))))))))))))))))))",
")))))))))))))))))))))))))))))) .-326366>#       @*>2265423334422436222324344244:%+.      .%:22224;))))))))))))))))))))))))))))))",
"))))))))))))))))))))))))))))))) X-<64>%X         .X%:,4433334343443333244444,*$X           X$;,;$.))))))))))))))))))))))))))))))",
")))))))))))))))))))))))))))))))) .@&&@  )))))))     X+*1313341414131442141,*+   )))))))))     o ))))))))))))))))))))))))))))))))",
")))))))))))))))))))))))))))))))))     ))))))))))))     %113313131314414411%   ))))))))))))))  ))))))))))))))))))))))))))))))))))",
"))))))))))))))))))))))))))))))))))))))))))))))))))))    %1111111111111111:X ))))))))))))))))))))))))))))))))))))))))))))))))))))",
"))))))))))))))))))))))))))))))))))))))))))))))))))))))  X:111111111111111&))))))))))))))))))))))))))))))))))))))))))))))))))))))",
")))))))))))))))))))))))))))))))))))))))))))))))))))))))  %1111111111<11<,+))))))))))))))))))))))))))))))))))))))))))))))))))))))",
")))))))))))))))))))))))))))))))))))))))))))))))))))))))) %11<1<1111<<1<1>)))))))))))))))))))))))))))))))))))))))))))))))))))))))",
")))))))))))))))))))))))))))))))))))))))))))))))))))))))))$<<<<<<1,<<<<<<&)))))))))))))))))))))))))))))))))))))))))))))))))))))))",
")))))))))))))))))))))))))))))))))))))))))))))))))))))))))o:1<<<<<<<<<<<<%)))))))))))))))))))))))))))))))))))))))))))))))))))))))",
"))))))))))))))))))))))))))))))))))))))))))))))))))))))))))&<<<<<<<<<<<1,))))))))))))))))))))))))))))))))))))))))))))))))))))))))",
"))))))))))))))))))))))))))))))))))))))))))))))))))))))))))X*<<1<<<<,<<<;))))))))))))))))))))))))))))))))))))))))))))))))))))))))",
")))))))))))))))))))))))))))))))))))))))))))))))))))))))))))X*>>>>>>>>>-)))))))))))))))))))))))))))))))))))))))))))))))))))))))))",
"))))))))))))))))))))))))))))))))))))))))))))))))))))))))))) .X....XXX)))))))))))))))))))))))))))))))))))))))))))))))))))))))))))",
")))))))))))))))))))))))))))))))))))))))))))))))))))))))))))))       ))))))))))))))))))))))))))))))))))))))))))))))))))))))))))))",
"))))))))))))))))))))))))))))))))))))))))))))))))))))))))))))))))))))))))))))))))))))))))))))))))))))))))))))))))))))))))))))))))",
"))))))))))))))))))))))))))))))))))))))))))))))))))))))))))))))))))))))))))))))))))))))))))))))))))))))))))))))))))))))))))))))))",
"))))))))))))))))))))))))))))))))))))))))))))))))))))))))))))))))))))))))))))))))))))))))))))))))))))))))))))))))))))))))))))))))",
"))))))))))))))))))))))))))))))))))))))))))))))))))))))))))))))))))))))))))))))))))))))))))))))))))))))))))))))))))))))))))))))))",
"))))))))))))))))))))))))))))))))))))))))))))))))))))))))))))))))))))))))))))))))))))))))))))))))))))))))))))))))))))))))))))))))",
"))))))))))))))))))))))))))))))))))))))))))))))))))))))))))))))))))))))))))))))))))))))))))))))))))))))))))))))))))))))))))))))))",
"))))))))))))))))))))))))))))))))))))))))))))))))))))))))))))))))))))))))))))))))))))))))))))))))))))))))))))))))))))))))))))))))",
"))))))))))))))))))))))))))))))))))))))))))))))))))))))))))))))))))))))))))))))))))))))))))))))))))))))))))))))))))))))))))))))))",
"))))))))))))))))))))))))))))))))))))))))))))))))))))))))))))))))))))))))))))))))))))))))))))))))))))))))))))))))))))))))))))))))",
"))))))))))))))))))))))))))))))))))))))))))))))))))))))))))))))))))))))))))))))))))))))))))))))))))))))))))))))))))))))))))))))))",
"))))))))))))))))))))))))))))))))))))))))))))))))))))))))))))))))))))))))))))))))))))))))))))))))))))))))))))))))))))))))))))))))",
"))))))))))))))))))))))))))))))))))))))))))))))))))))))))))))))))))))))))))))))))))))))))))))))))))))))))))))))))))))))))))))))))",
"))))))))))))))))))))))))))))))))))))))))))))))))))))))))))))))))))))))))))))))))))))))))))))))))))))))))))))))))))))))))))))))))",
"))))))))))))))))))))))))))))))))))))))))))))))))))))))))))))))))))))))))))))))))))))))))))))))))))))))))))))))))))))))))))))))))",
"))))))))))))))))))))))))))))))))))))))))))))))))))))))))))))))))))))))))))))))))))))))))))))))))))))))))))))))))))))))))))))))))",
"))))))))))))))))))))))))))))))))))))))))))))))))))))))))))))))))))))))))))))))))))))))))))))))))))))))))))))))))))))))))))))))))"
};
