/* XPM */
static char *opera[] = {
/* columns rows colors chars-per-pixel */
"128 128 79 1 ",
"  c #000000",
". c gray5",
"X c #131313",
"o c #1A1A1A",
"O c #232323",
"+ c #2C2C2C",
"@ c #333232",
"# c #3C3C3C",
"$ c #413F3F",
"% c #424242",
"& c #4C4B4C",
"* c #504E50",
"= c #525252",
"- c #5C5B5B",
"; c #646464",
": c #6B6A6A",
"> c #716F6F",
", c #757575",
"< c #7B7B7B",
"1 c #817F7E",
"2 c #858585",
"3 c #888787",
"4 c #888788",
"5 c #8B8B8B",
"6 c #908F8F",
"7 c #90908F",
"8 c #8F8F90",
"9 c #8F9090",
"0 c #949494",
"q c #989797",
"w c #979897",
"e c #979798",
"r c #989798",
"t c #979898",
"y c #9C9C9C",
"u c #A09E9E",
"i c #A0A09F",
"p c #9F9FA0",
"a c #A09FA0",
"s c #9FA0A0",
"d c #A3A3A3",
"f c #A8A7A7",
"g c #A7A8A7",
"h c #A7A7A8",
"j c #A8A7A8",
"k c #A7A8A8",
"l c #ABABAB",
"z c #B1AFAF",
"x c #AFB0AF",
"c c #AFAFB0",
"v c #B0AFB0",
"b c #AFB0B0",
"n c #B3B3B3",
"m c #B9B7B7",
"M c #B8B8B7",
"N c #B7B7B8",
"B c #B8B7B8",
"V c #B7B8B8",
"C c #BBBBBB",
"Z c #C0BFBF",
"A c #BFC0BF",
"S c #C0C0BF",
"D c #C3C3C3",
"F c #C8C7C8",
"G c #C7C8C8",
"H c #CBCBCB",
"J c #D0CECF",
"K c #CFD0CF",
"L c #CFCFD0",
"P c #CFD1D1",
"I c #D3D3D3",
"U c #D8D7D7",
"Y c #D7D8D7",
"T c #D8D8D7",
"R c #D7D7D8",
"E c #D8D7D8",
"W c #D7D8D8",
"Q c #D9D9D9",
"! c None",
/* pixels */
"!!!!!!!!!!!!!!!!!!!!!!!!!!!!!!!!!!!!!!!!!!!!!!!!!!!!!!!!!!!!!!!!!!!!!!!!!!!!!!!!!!!!!!!!!!!!!!!!!!!!!!!!!!!!!!!!!!!!!!!!!!!!!!!!",
"!!!!!!!!!!!!!!!!!!!!!!!!!!!!!!!!!!!!!!!!!!!!!!!!!!!!!!!!!!!!!!!!!!!!!!!!!!!!!!!!!!!!!!!!!!!!!!!!!!!!!!!!!!!!!!!!!!!!!!!!!!!!!!!!",
"!!!!!!!!!!!!!!!!!!!!!!!!!!!!!!!!!!!!!!!!!!!!!!!!!!!!!!!!!!!!!!!!!!!!!!!!!!!!!!!!!!!!!!!!!!!!!!!!!!!!!!!!!!!!!!!!!!!!!!!!!!!!!!!!",
"!!!!!!!!!!!!!!!!!!!!!!!!!!!!!!!!!!!!!!!!!!!!!!!!!!!!!!!!!!!!!!!!!!!!!!!!!!!!!!!!!!!!!!!!!!!!!!!!!!!!!!!!!!!!!!!!!!!!!!!!!!!!!!!!",
"!!!!!!!!!!!!!!!!!!!!!!!!!!!!!!!!!!!!!!!!!!!!!!!!!!!!!!!!!!!!!!!!!!!!!!!!!!!!!!!!!!!!!!!!!!!!!!!!!!!!!!!!!!!!!!!!!!!!!!!!!!!!!!!!",
"!!!!!!!!!!!!!!!!!!!!!!!!!!!!!!!!!!!!!!!!!!!!!!!!!!!!!!!!!!!!!!!!!!!!!!!!!!!!!!!!!!!!!!!!!!!!!!!!!!!!!!!!!!!!!!!!!!!!!!!!!!!!!!!!",
"!!!!!!!!!!!!!!!!!!!!!!!!!!!!!!!!!!!!!!!!!!!!!!!!!!!!!!!!!!!!!!!!!!!!!!!!!!!!!!!!!!!!!!!!!!!!!!!!!!!!!!!!!!!!!!!!!!!!!!!!!!!!!!!!",
"!!!!!!!!!!!!!!!!!!!!!!!!!!!!!!!!!!!!!!!!!!!!!!!!!!!!!!!!!!!!!!!!!!!!!!!!!!!!!!!!!!!!!!!!!!!!!!!!!!!!!!!!!!!!!!!!!!!!!!!!!!!!!!!!",
"!!!!!!!!!!!!!!!!!!!!!!!!!!!!!!!!!!!!!!!!!!!!!!!!!!!!!!!!!!!!!!!!!!!!!!!!!!!!!!!!!!!!!!!!!!!!!!!!!!!!!!!!!!!!!!!!!!!!!!!!!!!!!!!!",
"!!!!!!!!!!!!!!!!!!!!!!!!!!!!!!!!!!!!!!!!!!!!!!!!!!!!!!!!!!!!!!!!!!!!!!!!!!!!!!!!!!!!!!!!!!!!!!!!!!!!!!!!!!!!!!!!!!!!!!!!!!!!!!!!",
"!!!!!!!!!!!!!!!!!!!!!!!!!!!!!!!!!!!!!!!!!!!!!!!!!!!!!!!!!!!!!!!!!!!!!!!!!!!!!!!!!!!!!!!!!!!!!!!!!!!!!!!!!!!!!!!!!!!!!!!!!!!!!!!!",
"!!!!!!!!!!!!!!!!!!!!!!!!!!!!!!!!!!!!!!!!!!!!!!!!!!!!!!!!!!!!!!!!!!!!!!!!!!!!!!!!!!!!!!!!!!!!!!!!!!!!!!!!!!!!!!!!!!!!!!!!!!!!!!!!",
"!!!!!!!!!!!!!!!!!!!!!!!!!!!!!!!!!!!!!!!!!!!!!!!!!!!!!!!!!!!!!!!!!!!!!!!!!!!!!!!!!!!!!!!!!!!!!!!!!!!!!!!!!!!!!!!!!!!!!!!!!!!!!!!!",
"!!!!!!!!!!!!!!!!!!!!!!!!!!!!!!!!!!!!!!!!!!!!!!!!!!!!!!!!!!!!!!!!!!!!!!!!!!!!!!!!!!!!!!!!!!!!!!!!!!!!!!!!!!!!!!!!!!!!!!!!!!!!!!!!",
"!!!!!!!!!!!!!!!!!!!!!!!!!!!!!!!!!!!!!!!!!!!!!!!!!!!!!!!!!!!!!!!!!!!!!!!!!!!!!!!!!!!!!!!!!!!!!!!!!!!!!!!!!!!!!!!!!!!!!!!!!!!!!!!!",
"!!!!!!!!!!!!!!!!!!!!!!!!!!!!!!!!!!!!!!!!!!!!!!!!!!!!!!!!!!EQEQQQQQQQQQ!!!!!!!!!!!!!!!!!!!!!!!!!!!!!!!!!!!!!!!!!!!!!!!!!!!!!!!!!!",
"!!!!!!!!!!!!!!!!!!!!!!!!!!!!!!!!!!!!!!!!!!!!!!!!!!!!TQQQQQQQQQQQQQQQQQQQQQQE!!!!!!!!!!!!!!!!!!!!!!!!!!!!!!!!!!!!!!!!!!!!!!!!!!!!",
"!!!!!!!!!!!!!!!!!!!!!!!!!!!!!!!!!!!!!!!!!!!!!!!!!TQQQQQQQQQQQQQQQQQQQQQQQQQQQQYY!!!!!!!!!!!!!!!!!!!!!!!!!!!!!!!!!!!!!!!!!!!!!!!!",
"!!!!!!!!!!!!!!!!!!!!!!!!!!!!!!!!!!!!!!!!!!!!!!IYQQQQQQQEQQQQQQQQQQQQQQQQEEQEQEQWEY!!!!!!!!!!!!!!!!!!!!!!!!!!!!!!!!!!!!!!!!!!!!!!",
"!!!!!!!!!!!!!!!!!!!!!!!!!!!!!!!!!!!!!!!!!!!!IEEEEEEQEQEEQQQQQQEEQQQQQQQQWETEYWYWWEIEI!!!!!!!!!!!!!!!!!!!!!!!!!!!!!!!!!!!!!!!!!!!",
"!!!!!!!!!!!!!!!!!!!!!!!!!!!!!!!!!!!!!!!!!!IYYITYTYYIEEEEQYYYEEEEYTTEQETEIEEETTEEYYYWYYI!!!!!!!!!!!!!!!!!!!!!!!!!!!!!!!!!!!!!!!!!",
"!!!!!!!!!!!!!!!!!!!!!!!!!!!!!!!!!!!!!!!!IIEEYEEEYYIYITYIYYYIIEYIIEIEEEIYYEYIIEIIIYIEYIUII!!!!!!!!!!!!!!!!!!!!!!!!!!!!!!!!!!!!!!!",
"!!!!!!!!!!!!!!!!!!!!!!!!!!!!!!!!!!!!!!HIIIEIIITIIYIETIITIYIIIIIIIYIIWIIYEIIYIYIIIIEIIEIIII!!!!!!!!!!!!!!!!!!!!!!!!!!!!!!!!!!!!!!",
"!!!!!!!!!!!!!!!!!!!!!!!!!!!!!!!!!!!!!IIIIIIIIIIIIIIIIIIIIIIHVd2::,5nDIIIIIIIIIIIIIIIIIIIIIIP!!!!!!!!!!!!!!!!!!!!!!!!!!!!!!!!!!!!",
"!!!!!!!!!!!!!!!!!!!!!!!!!!!!!!!!!!!HLIIIIIIIIIIIIIIIIIIIIIy-X      X+,nIIIIIIIIIIIIIIIIIIIIIJ!!!!!!!!!!!!!!!!!!!!!!!!!!!!!!!!!!!",
"!!!!!!!!!!!!!!!!!!!!!!!!!!!!!!!!!!DIIIIIPIKIIKIKIIKIIJIPb:            O2IIPJKIIKIIIIIIJIKIIKIJ!!!!!!!!!!!!!!!!!!!!!!!!!!!!!!!!!!",
"!!!!!!!!!!!!!!!!!!!!!!!!!!!!!!!!!HIIIIIIILIIJIIIIPIIIIKv&  !!!!!!!!     1JIKPIIPKIIJILJIIPJIKIJ!!!!!!!!!!!!!!!!!!!!!!!!!!!!!!!!!",
"!!!!!!!!!!!!!!!!!!!!!!!!!!!!!!!!HPKPJKJKJILPKJPIIJKPJKn& !!!!!!!!!!!!!   2KJPKJKLJPKKPKPJKJJIJPPJ!!!!!!!!!!!!!!!!!!!!!!!!!!!!!!!",
"!!!!!!!!!!!!!!!!!!!!!!!!!!!!!!!HPKPKKPPPJKPKPKPKPKKKJV=!!!!!!!!!!!!!!!!   2JKKKJJJKKJKPPJJJKJKPJJH!!!!!!!!!!!!!!!!!!!!!!!!!!!!!!",
"!!!!!!!!!!!!!!!!!!!!!!!!!!!!!!DJKKJJJJKPJKJJKPJJJKJKJ<!!!!!!!!!!!!!!!!!!!  0JJJJJJKKPHHJKHPHPHPHHJH!!!!!!!!!!!!!!!!!!!!!!!!!!!!!",
"!!!!!!!!!!!!!!!!!!!!!!!!!!!!!CJJKJHKJJJHJKJHKHKKJHJJs!!!!!!!!!!!!!!!!!!!!! &nKJKHHKHHHHKHJHJHHHJHJH!!!!!!!!!!!!!!!!!!!!!!!!!!!!!",
"!!!!!!!!!!!!!!!!!!!!!!!!!!!!CHJHHKHJHHKHHHKHJHHHJHJD:!!!!!!!!!!!!!!!!!!!!!! ,KHHHKHJHKLHKHHKHJKHHHHH!!!!!!!!!!!!!!!!!!!!!!!!!!!!",
"!!!!!!!!!!!!!!!!!!!!!!!!!!!!HHHHHHHKHHHHHHHHHHHHHHHd!!!!!!!!!!!!!!!!!!!!!!! +nHHHHHHHHHKHHHHHHHHHHHHH!!!!!!!!!!!!!!!!!!!!!!!!!!!",
"!!!!!!!!!!!!!!!!!!!!!!!!!!!DHHHHHHHHHHHHHHHHHHHHHHD:!!!!!!!!!!!!!!!!!!!!!!!! 1HHHHHHHHHHHHHHHGHHHHHHHD!!!!!!!!!!!!!!!!!!!!!!!!!!",
"!!!!!!!!!!!!!!!!!!!!!!!!!!nJHFHHHHFHHFHFHHHHFHHHHGn!!!!!!!!!!!!!!!!!!!!!!!!!!&DHHHGHGHHGHHHHHHHHHHGHHH!!!!!!!!!!!!!!!!!!!!!!!!!!",
"!!!!!!!!!!!!!!!!!!!!!!!!!!GHHGFHHGHGFHHHHFFFFFHFHH7!!!!!!!!!!!!!!!!!!!!!!!!!! 0HFGHFHGGGHDGGHGGFGHHGFHD!!!!!!!!!!!!!!!!!!!!!!!!!",
"!!!!!!!!!!!!!!!!!!!!!!!!!CHFHGFGFFHGFHHFGHSHHFFFGD!!!!!!!!!!!!!!!!!!!!!!!!!!!!:FFGGFFFFFFHDHGGHFFFFFDHGC!!!!!!!!!!!!!!!!!!!!!!!!",
"!!!!!!!!!!!!!!!!!!!!!!!!fHFFGGFFGFFFGGFHSHHFGFFFHn!!!!!!!!!!!!!!!!!!!!!!!!!!!!$ZGGGGFFGGDGHDGGFFGGGFHDFF!!!!!!!!!!!!!!!!!!!!!!!!",
"!!!!!!!!!!!!!!!!!!!!!!!!ZHFFGFDFFGGGGFFSHFFGFHFFF0!!!!!!!!!!!!!!!!!!!!!!!!!!!!XlGGSFFFDFDHDDFDDFDGFGFDDFD!!!!!!!!!!!!!!!!!!!!!!!",
"!!!!!!!!!!!!!!!!!!!!!!!xDDDGDGFGGGSGSFGGHSHSGSHSF,!!!!!!!!!!!!!!!!!!!!!!!!!!!!!2SDGFDDFFDDGDDFDDDDDGDGDDD!!!!!!!!!!!!!!!!!!!!!!!",
"!!!!!!!!!!!!!!!!!!!!!!!DGDDDDDDDFDDDDDDDSHGSGGSFV!!!!!!!!!!!!!!!!!!!!!!!!!!!!!!-FGDGDDGDDFDDDFDDDDDDDDDDDC!!!!!!!!!!!!!!!!!!!!!!",
"!!!!!!!!!!!!!!!!!!!!!!yDDDDDDDDDDDDDDDDDGSGSSGSGn!!!!!!!!!!!!!!!!!!!!!!!!!!!!!!#SSGDDDSDDDDDDDDDGDDDDDDDDD!!!!!!!!!!!!!!!!!!!!!!",
"!!!!!!!!!!!!!!!!!!!!!!VDDDDDDDDDDDDDDDDDSSGGGSSGp!!!!!!!!!!!!!!!!!!!!!!!!!!!!!!!zSDDDDGSDDDDDDDDDDDDDDDDDDB!!!!!!!!!!!!!!!!!!!!!",
"!!!!!!!!!!!!!!!!!!!!!!DDDDDDDDDDDDDDDDDDSGSSSGSS7!!!!!!!!!!!!!!!!!!!!!!!!!!!!!!!uSDSDDSDZDDZDZDDDSDDDDDCDDC!!!!!!!!!!!!!!!!!!!!!",
"!!!!!!!!!!!!!!!!!!!!!lZDDDDDDDDDDDADDADACDDSSSSD!!!!!!!!!!!!!!!!!!!!!!!!!!!!!!!!2DCDSDSDZZDDDDZDSSDDZDDDZDD!!!!!!!!!!!!!!!!!!!!!",
"!!!!!!!!!!!!!!!!!!!!!VDADCSZCDDCAAZADCADDDCASDSZ!!!!!!!!!!!!!!!!!!!!!!!!!!!!!!!!:CDDSSSSZAZZCZAZSDCDDCDCDCDV!!!!!!!!!!!!!!!!!!!!",
"!!!!!!!!!!!!!!!!!!!!5DZDDSSDDZDCZZAZDDADAASDSSSm!!!!!!!!!!!!!!!!!!!!!!!!!!!!!!!!&BDCCDSZAZAAAAZZZSZSCCDDCCDC!!!!!!!!!!!!!!!!!!!!",
"!!!!!!!!!!!!!!!!!!!!dCDCCDCCCDCDAAAACDCCDCSSSSSn!!!!!!!!!!!!!!!!!!!!!!!!!!!!!!!!$VSCSCZCZACAACZZCSCACDCCCDCC!!!!!!!!!!!!!!!!!!!!",
"!!!!!!!!!!!!!!!!!!!!nACSCZCZCZDCAZCAZAZCZCZDCCZl!!!!!!!!!!!!!!!!!!!!!!!!!!!!!!!!+nCCCZCACDCCCCZCCZCCCZCCCZCCv!!!!!!!!!!!!!!!!!!!",
"!!!!!!!!!!!!!!!!!!!!VCCCZCZCCCCSZCZCCCCZCZCCCZCd!!!!!!!!!!!!!!!!!!!!!!!!!!!!!!!!!lCCCCACCCCCCCCCCCCCCCCCCCCCn!!!!!!!!!!!!!!!!!!!",
"!!!!!!!!!!!!!!!!!!!5CCCCCCCCCCCCCCCCCCCCCCCCCCCd!!!!!!!!!!!!!!!!!!!!!!!!!!!!!!!!!lCCCCCCCCCCCCCCCCCCCCCCCCCCC!!!!!!!!!!!!!!!!!!!",
"!!!!!!!!!!!!!!!!!!!yCCCCCCCCCCCCCCCCCCCCCCCCCCC0!!!!!!!!!!!!!!!!!!!!!!!!!!!!!!!!!yCCCCCCCCCCCCCCCCCCCCCCCCCCC!!!!!!!!!!!!!!!!!!!",
"!!!!!!!!!!!!!!!!!!!lCCCCCVCCCCCVBCCVCCNCCCCCVCC5!!!!!!!!!!!!!!!!!!!!!!!!!!!!!!!!!0CCVCCVCCCCCVCCCCCVCCCCVCMCVl!!!!!!!!!!!!!!!!!!",
"!!!!!!!!!!!!!!!!!!!nCCCVmCBCMMCCCCVCNCCNVVMVCCV!!!!!!!!!!!!!!!!!!!!!!!!!!!!!!!!!!7VVCCVCVVVCmCVCVVVCVCVVCMVMmn!!!!!!!!!!!!!!!!!!",
"!!!!!!!!!!!!!!!!!!!nCVVVVCVVVCCVBBVVNCNNVVBBmmV!!!!!!!!!!!!!!!!!!!!!!!!!!!!!!!!!!<VVmmVVVVVVmVVVVVVVVVVVVVVCVn!!!!!!!!!!!!!!!!!!",
"!!!!!!!!!!!!!!!!!!:mmCVVCVVMmmVVVBVVNBNNVBBNNBn!!!!!!!!!!!!!!!!!!!!!!!!!!!!!!!!!!:mBnmVVVVVBmnVBmmVVnmmmMnmmNn!!!!!!!!!!!!!!!!!!",
"!!!!!!!!!!!!!!!!!!2nVVMVMVmmNnVVNBNNVMmMmVnVVBn!!!!!!!!!!!!!!!!!!!!!!!!!!!!!!!!!!:nVmnVVnVmVMVnnmnnVNVmnnNnVmn!!!!!!!!!!!!!!!!!!",
"!!!!!!!!!!!!!!!!!!7nnVnMnVnnmVBnNnVnVVnBnVmVVnn!!!!!!!!!!!!!!!!!!!!!!!!!!!!!!!!!!:nnVnnnmnnnnnnnmnmnnnVnnnNnnn!!!!!!!!!!!!!!!!!!",
"!!!!!!!!!!!!!!!!!!enVnnnnVVnnnnnnnnnnnnnnVnnnnn!!!!!!!!!!!!!!!!!!!!!!!!!!!!!!!!!!:nnnnNnnnnnnnnnnnnnnnnnnnnnnn!!!!!!!!!!!!!!!!!!",
"!!!!!!!!!!!!!!!!!!0nnnnnnnnnnnnnnmnnnnnnnnnnnnn!!!!!!!!!!!!!!!!!!!!!!!!!!!!!!!!!!:nnnnnnnnnmnnnnnnnnnnnnnnnnnny!!!!!!!!!!!!!!!!!",
"!!!!!!!!!!!!!!!!!!ynnnnnnnnnnnnnnnnnnnnnnnnnvnn!!!!!!!!!!!!!!!!!!!!!!!!!!!!!!!!!!:nnnnnnnnnnnnbnnvnnnnnnvnnnvnu!!!!!!!!!!!!!!!!!",
"!!!!!!!!!!!!!!!!!!dvnnznnnnznxnnnnnnnxvnnnnnnnx!!!!!!!!!!!!!!!!!!!!!!!!!!!!!!!!!!:nnxnnnnnznnnnnvnxnnnznnnncnnd!!!!!!!!!!!!!!!!!",
"!!!!!!!!!!!!!!!!!!dnnnxnnnznxxvxnnccxnxnnnbxxvx!!!!!!!!!!!!!!!!!!!!!!!!!!!!!!!!!!:vvvnvvnnnxxvxnnvnvxnbnvvnxxxd!!!!!!!!!!!!!!!!!",
"!!!!!!!!!!!!!!!!!!dnxvvznznxvncnnxvnvvxvvzxnxxl!!!!!!!!!!!!!!!!!!!!!!!!!!!!!!!!!!:nxxxxxxvxxnvxvvxvcxxxxxxxnvxd!!!!!!!!!!!!!!!!!",
"!!!!!!!!!!!!!!!!!!avvvvxvvvvvvxxnvvvxcxcvvxvxxx!!!!!!!!!!!!!!!!!!!!!!!!!!!!!!!!!!:xxxxvxxvxxvvvvcxxxlvxlxxxcxlp!!!!!!!!!!!!!!!!!",
"!!!!!!!!!!!!!!!!!!axvlxxccvvvlxxxcvvxxxxclxvxxl!!!!!!!!!!!!!!!!!!!!!!!!!!!!!!!!!!:xlxlvllvcllxxllxxvvxlvlxlxxva!!!!!!!!!!!!!!!!!",
"!!!!!!!!!!!!!!!!!!uxxxxxxxxlxllxxlvllxxlcxlvlll!!!!!!!!!!!!!!!!!!!!!!!!!!!!!!!!!!:llllvxxlllxllxxllllvxllxxllly!!!!!!!!!!!!!!!!!",
"!!!!!!!!!!!!!!!!!!8xllllllcllxxlxllxlllxllxllxl!!!!!!!!!!!!!!!!!!!!!!!!!!!!!!!!!!;llllllllxllllllllxllllllllll8!!!!!!!!!!!!!!!!!",
"!!!!!!!!!!!!!!!!!!5lllxllllxlllllllllllllllllld!!!!!!!!!!!!!!!!!!!!!!!!!!!!!!!!!!;xlllllllllljllllllllllllllll!!!!!!!!!!!!!!!!!!",
"!!!!!!!!!!!!!!!!!!<llllllllllllllllllllllllllll!!!!!!!!!!!!!!!!!!!!!!!!!!!!!!!!!!:lllllllllllljlglllllljlkjlll!!!!!!!!!!!!!!!!!!",
"!!!!!!!!!!!!!!!!!!:llllllljllldlllljlllllllllll!!!!!!!!!!!!!!!!!!!!!!!!!!!!!!!!!!;lllhlljjlllllljllgglljlllkfd!!!!!!!!!!!!!!!!!!",
"!!!!!!!!!!!!!!!!!!;ldlgldjljjllldjljdlhjhjljlld!!!!!!!!!!!!!!!!!!!!!!!!!!!!!!!!!!;dldldljljjjjjjjggflfljhldllf!!!!!!!!!!!!!!!!!!",
"!!!!!!!!!!!!!!!!!!&ddllghhldlhdlldldldlkjldldld!!!!!!!!!!!!!!!!!!!!!!!!!!!!!!!!!!<dldldlldlddldlglffjldldldlju!!!!!!!!!!!!!!!!!!",
"!!!!!!!!!!!!!!!!!!+yldldlldlkjljdlhhdldhflggldj!!!!!!!!!!!!!!!!!!!!!!!!!!!!!!!!!!5ldldlddldllfglgfffdlldldlddy!!!!!!!!!!!!!!!!!!",
"!!!!!!!!!!!!!!!!!!!5dldlldldddlllldlkfldlddddld!!!!!!!!!!!!!!!!!!!!!!!!!!!!!!!!!!2dddldldldkddddlddglddddlddf5!!!!!!!!!!!!!!!!!!",
"!!!!!!!!!!!!!!!!!!!<dkdddddlldddddgdddlddfglddj!!!!!!!!!!!!!!!!!!!!!!!!!!!!!!!!!!5dldddddddldddddfdddgddddkdd,!!!!!!!!!!!!!!!!!!",
"!!!!!!!!!!!!!!!!!!!;ddddddddddddlddddlddddddjdd8!!!!!!!!!!!!!!!!!!!!!!!!!!!!!!!!!7ddddddddddddddddddddddddddd!!!!!!!!!!!!!!!!!!!",
"!!!!!!!!!!!!!!!!!!!#ddddddddddddddddddddddddddd0!!!!!!!!!!!!!!!!!!!!!!!!!!!!!!!!!0dddddddddddddddddddddddddd0!!!!!!!!!!!!!!!!!!!",
"!!!!!!!!!!!!!!!!!!!!5dddddddddddddddddddddddddd0!!!!!!!!!!!!!!!!!!!!!!!!!!!!!!!!!0dddddddsddsddddaddidddddsd2!!!!!!!!!!!!!!!!!!!",
"!!!!!!!!!!!!!!!!!!!!:dddddddddddddyddddddidddddy!!!!!!!!!!!!!!!!!!!!!!!!!!!!!!!!!ysddyididddddsddduddsssdddy:!!!!!!!!!!!!!!!!!!!",
"!!!!!!!!!!!!!!!!!!!!&dddyddidddyyddddadidyydddyy!!!!!!!!!!!!!!!!!!!!!!!!!!!!!!!!!yddyddaddsdaddyddydadsddyae!!!!!!!!!!!!!!!!!!!!",
"!!!!!!!!!!!!!!!!!!!!O5yddydiyuyddydyadydyddpyddy!!!!!!!!!!!!!!!!!!!!!!!!!!!!!!!!-dyddydyydyddydyyyddyyddyds2!!!!!!!!!!!!!!!!!!!!",
"!!!!!!!!!!!!!!!!!!!!!:ydsayapdyusuyydydyddyddyyy!!!!!!!!!!!!!!!!!!!!!!!!!!!!!!!!:dyddyyddyydyiyddydydyiyidd:!!!!!!!!!!!!!!!!!!!!",
"!!!!!!!!!!!!!!!!!!!!!#yypydypssdyaydysydyysyydyu!!!!!!!!!!!!!!!!!!!!!!!!!!!!!!!!<yuyydyyyydyypdyiyyydyydyy7!!!!!!!!!!!!!!!!!!!!!",
"!!!!!!!!!!!!!!!!!!!!!X<dyddyypyyiyydyyiyyiydyuyp5!!!!!!!!!!!!!!!!!!!!!!!!!!!!!!!5yyyyyysyyyyyyyyyydyyyyyyy,!!!!!!!!!!!!!!!!!!!!!",
"!!!!!!!!!!!!!!!!!!!!!!=yyyyyyydydyyysyyyyyyyuyyy0!!!!!!!!!!!!!!!!!!!!!!!!!!!!!!!0yyyyyyyyyyyyyyyyyyyyyyyy0!!!!!!!!!!!!!!!!!!!!!!",
"!!!!!!!!!!!!!!!!!!!!!!o5yyyyyyyyyyyyyyyyyyyyyyyy0!!!!!!!!!!!!!!!!!!!!!!!!!!!!!!!yyyyyyyyyyyyyyyyyyyyyyyyy2!!!!!!!!!!!!!!!!!!!!!!",
"!!!!!!!!!!!!!!!!!!!!!!!-yyyyyyyyyyyyyyyyyyyyyyyyy!!!!!!!!!!!!!!!!!!!!!!!!!!!!!!:yyyryyyyyeyyyyyr0yyytyyy7-!!!!!!!!!!!!!!!!!!!!!!",
"!!!!!!!!!!!!!!!!!!!!!!!O2yyy0yyyyyyyyyyyyyy0yyyyy!!!!!!!!!!!!!!!!!!!!!!!!!!!!!!2tytyqy0qyy0yyttyyyqy0yy0<!!!!!!!!!!!!!!!!!!!!!!!",
"!!!!!!!!!!!!!!!!!!!!!!! -y0ryyqy0y0y0y0yyyywy00yy5!!!!!!!!!!!!!!!!!!!!!!!!!!!!!5ywy0ywyy0y0yy0tyqeyyyey6$!!!!!!!!!!!!!!!!!!!!!!!",
"!!!!!!!!!!!!!!!!!!!!!!!!.<yy0yy0y0y0y0y00y0yyyy0q7!!!!!!!!!!!!!!!!!!!!!!!!!!!!!00yttyy0y0yy0tyyye0y0ye0,!!!!!!!!!!!!!!!!!!!!!!!!",
"!!!!!!!!!!!!!!!!!!!!!!!! %70y00y0ywq0ywqqqy0000yy0!!!!!!!!!!!!!!!!!!!!!!!!!!!!,yy0y000ytye0yy0000y0y002!!!!!!!!!!!!!!!!!!!!!!!!!",
"!!!!!!!!!!!!!!!!!!!!!!!!! :0q0yrqy0re0tw0q0y00y0w05!!!!!!!!!!!!!!!!!!!!!!!!!!!5000y00yy000y00qy00y0y00-!!!!!!!!!!!!!!!!!!!!!!!!!",
"!!!!!!!!!!!!!!!!!!!!!!!!!!+<t00000t00y0qrt000w000w7!!!!!!!!!!!!!!!!!!!!!!!!!!:00q0000000000t000w00000,!!!!!!!!!!!!!!!!!!!!!!!!!!",
"!!!!!!!!!!!!!!!!!!!!!!!!!! &00000y00000y00w00ee0w00!!!!!!!!!!!!!!!!!!!!!!!!!!270000000000000000000002@!!!!!!!!!!!!!!!!!!!!!!!!!!",
"!!!!!!!!!!!!!!!!!!!!!!!!!!! ;00000000000000000000007!!!!!!!!!!!!!!!!!!!!!!!!!70000000000000000000075&!!!!!!!!!!!!!!!!!!!!!!!!!!!",
"!!!!!!!!!!!!!!!!!!!!!!!!!!! .,0000000000000000000000!!!!!!!!!!!!!!!!!!!!!!!!10090000070000000000700;!!!!!!!!!!!!!!!!!!!!!!!!!!!!",
"!!!!!!!!!!!!!!!!!!!!!!!!!!!! @<7807007077008008770005!!!!!!!!!!!!!!!!!!!!!!>9090878808078787877707;!!!!!!!!!!!!!!!!!!!!!!!!!!!!!",
"!!!!!!!!!!!!!!!!!!!!!!!!!!!!! @<7077870078870907070785!!!!!!!!!!!!!!!!!!!!!3099977008870877087897,!!!!!!!!!!!!!!!!!!!!!!!!!!!!!!",
"!!!!!!!!!!!!!!!!!!!!!!!!!!!!!! @<7778887807977778888875!!!!!!!!!!!!!!!!!!!5999990777787777880785<#!!!!!!!!!!!!!!!!!!!!!!!!!!!!!!",
"!!!!!!!!!!!!!!!!!!!!!!!!!!!!!!  @,7997878899577756775855!!!!!!!!!!!!!!!!!1779999888878878857777<#!!!!!!!!!!!!!!!!!!!!!!!!!!!!!!!",
"!!!!!!!!!!!!!!!!!!!!!!!!!!!!!!!  @,7558758955957788578565!!!!!!!!!!!!!!!5775595985858757885859<#!!!!!!!!!!!!!!!!!!!!!!!!!!!!!!!!",
"!!!!!!!!!!!!!!!!!!!!!!!!!!!!!!!!  @,8585885755875959595775!!!!!!!!!!!!!5575595955755755758585;+!!!!!!!!!!!!!!!!!!!!!!!!!!!!!!!!!",
"!!!!!!!!!!!!!!!!!!!!!!!!!!!!!!!!!  @,85855858555555575555595!!!!!!!!355555555555555555555555- !!!!!!!!!!!!!!!!!!!!!!!!!!!!!!!!!!",
"!!!!!!!!!!!!!!!!!!!!!!!!!!!!!!!!!!  O;5555555555555555555555555555555555555555555555555555<=!!!!!!!!!!!!!!!!!!!!!!!!!!!!!!!!!!!!",
"!!!!!!!!!!!!!!!!!!!!!!!!!!!!!!!!!!!   &,5555555555555545554555535555535555532555554545545>@!!!!!!!!!!!!!!!!!!!!!!!!!!!!!!!!!!!!!",
"!!!!!!!!!!!!!!!!!!!!!!!!!!!!!!!!!!!!   @;4554555555555553555532555444535555555225455554<-.!!!!!!!!!!!!!!!!!!!!!!!!!!!!!!!!!!!!!!",
"!!!!!!!!!!!!!!!!!!!!!!!!!!!!!!!!!!!!!!   %,4525224553544553352552545435225242555454435;@ !!!!!!!!!!!!!!!!!!!!!!!!!!!!!!!!!!!!!!!",
"!!!!!!!!!!!!!!!!!!!!!!!!!!!!!!!!!!!!!!!   o=<355444444443352525244444444445544444455:% !!!!!!!!!!!!!!!!!!!!!!!!!!!!!!!!!!!!!!!!!",
"!!!!!!!!!!!!!!!!!!!!!!!!!!!!!!!!!!!!!!!!!   O=,24234334423332242334433334222333331;%. !!!!!!!!!!!!!!!!!!!!!!!!!!!!!!!!!!!!!!!!!!",
"!!!!!!!!!!!!!!!!!!!!!!!!!!!!!!!!!!!!!!!!!!    X%;222222223222522332232222222224<-+  !!!!!!!!!!!!!!!!!!!!!!!!!!!!!!!!!!!!!!!!!!!!",
"!!!!!!!!!!!!!!!!!!!!!!!!!!!!!!!!!!!!!!!!!!!!     +=><22222222222222222222221,;%o  !!!!!!!!!!!!!!!!!!!!!!!!!!!!!!!!!!!!!!!!!!!!!!",
"!!!!!!!!!!!!!!!!!!!!!!!!!!!!!!!!!!!!!!!!!!!!!!     .o%-;,1<22222222222<<:-*+.   !!!!!!!!!!!!!!!!!!!!!!!!!!!!!!!!!!!!!!!!!!!!!!!!",
"!!!!!!!!!!!!!!!!!!!!!!!!!!!!!!!!!!!!!!!!!!!!!!!!!       .O+%$*-;-;-%$#Oo.     !!!!!!!!!!!!!!!!!!!!!!!!!!!!!!!!!!!!!!!!!!!!!!!!!!",
"!!!!!!!!!!!!!!!!!!!!!!!!!!!!!!!!!!!!!!!!!!!!!!!!!!!!                      !!!!!!!!!!!!!!!!!!!!!!!!!!!!!!!!!!!!!!!!!!!!!!!!!!!!!!",
"!!!!!!!!!!!!!!!!!!!!!!!!!!!!!!!!!!!!!!!!!!!!!!!!!!!!!!!!!            !!!!!!!!!!!!!!!!!!!!!!!!!!!!!!!!!!!!!!!!!!!!!!!!!!!!!!!!!!!",
"!!!!!!!!!!!!!!!!!!!!!!!!!!!!!!!!!!!!!!!!!!!!!!!!!!!!!!!!!!!!!!!!!!!!!!!!!!!!!!!!!!!!!!!!!!!!!!!!!!!!!!!!!!!!!!!!!!!!!!!!!!!!!!!!",
"!!!!!!!!!!!!!!!!!!!!!!!!!!!!!!!!!!!!!!!!!!!!!!!!!!!!!!!!!!!!!!!!!!!!!!!!!!!!!!!!!!!!!!!!!!!!!!!!!!!!!!!!!!!!!!!!!!!!!!!!!!!!!!!!",
"!!!!!!!!!!!!!!!!!!!!!!!!!!!!!!!!!!!!!!!!!!!!!!!!!!!!!!!!!!!!!!!!!!!!!!!!!!!!!!!!!!!!!!!!!!!!!!!!!!!!!!!!!!!!!!!!!!!!!!!!!!!!!!!!",
"!!!!!!!!!!!!!!!!!!!!!!!!!!!!!!!!!!!!!!!!!!!!!!!!!!!!!!!!!!!!!!!!!!!!!!!!!!!!!!!!!!!!!!!!!!!!!!!!!!!!!!!!!!!!!!!!!!!!!!!!!!!!!!!!",
"!!!!!!!!!!!!!!!!!!!!!!!!!!!!!!!!!!!!!!!!!!!!!!!!!!!!!!!!!!!!!!!!!!!!!!!!!!!!!!!!!!!!!!!!!!!!!!!!!!!!!!!!!!!!!!!!!!!!!!!!!!!!!!!!",
"!!!!!!!!!!!!!!!!!!!!!!!!!!!!!!!!!!!!!!!!!!!!!!!!!!!!!!!!!!!!!!!!!!!!!!!!!!!!!!!!!!!!!!!!!!!!!!!!!!!!!!!!!!!!!!!!!!!!!!!!!!!!!!!!",
"!!!!!!!!!!!!!!!!!!!!!!!!!!!!!!!!!!!!!!!!!!!!!!!!!!!!!!!!!!!!!!!!!!!!!!!!!!!!!!!!!!!!!!!!!!!!!!!!!!!!!!!!!!!!!!!!!!!!!!!!!!!!!!!!",
"!!!!!!!!!!!!!!!!!!!!!!!!!!!!!!!!!!!!!!!!!!!!!!!!!!!!!!!!!!!!!!!!!!!!!!!!!!!!!!!!!!!!!!!!!!!!!!!!!!!!!!!!!!!!!!!!!!!!!!!!!!!!!!!!",
"!!!!!!!!!!!!!!!!!!!!!!!!!!!!!!!!!!!!!!!!!!!!!!!!!!!!!!!!!!!!!!!!!!!!!!!!!!!!!!!!!!!!!!!!!!!!!!!!!!!!!!!!!!!!!!!!!!!!!!!!!!!!!!!!",
"!!!!!!!!!!!!!!!!!!!!!!!!!!!!!!!!!!!!!!!!!!!!!!!!!!!!!!!!!!!!!!!!!!!!!!!!!!!!!!!!!!!!!!!!!!!!!!!!!!!!!!!!!!!!!!!!!!!!!!!!!!!!!!!!",
"!!!!!!!!!!!!!!!!!!!!!!!!!!!!!!!!!!!!!!!!!!!!!!!!!!!!!!!!!!!!!!!!!!!!!!!!!!!!!!!!!!!!!!!!!!!!!!!!!!!!!!!!!!!!!!!!!!!!!!!!!!!!!!!!",
"!!!!!!!!!!!!!!!!!!!!!!!!!!!!!!!!!!!!!!!!!!!!!!!!!!!!!!!!!!!!!!!!!!!!!!!!!!!!!!!!!!!!!!!!!!!!!!!!!!!!!!!!!!!!!!!!!!!!!!!!!!!!!!!!"
};
