/* XPM */
static char *picasa[] = {
/* columns rows colors chars-per-pixel */
"128 128 74 1",
"  c #010101",
". c #0D0D0D",
"X c #131314",
"o c #1C1C1C",
"O c #1E1E20",
"+ c #242424",
"@ c #282626",
"# c #2B2B2C",
"$ c #30302E",
"% c #333333",
"& c #3A3A3A",
"* c #444444",
"= c #484748",
"- c #4B4B4B",
"; c #545454",
": c #5D5D5D",
"> c #615F5F",
", c #5F605F",
"< c #626262",
"1 c #686867",
"2 c #6C6C6C",
"3 c #70706F",
"4 c #716F71",
"5 c #737272",
"6 c #7C7C7C",
"7 c #807E7E",
"8 c #838383",
"9 c #888686",
"0 c #878888",
"q c #8C8C8C",
"w c #908E8E",
"e c #90908F",
"r c #8F8F91",
"t c #908F90",
"y c #939393",
"u c #979798",
"i c #9C9C9C",
"p c #A09FA0",
"a c #A4A4A4",
"s c #A8A7A7",
"d c #A7A8A7",
"f c #A7A7A8",
"g c #ACACAC",
"h c #B0AFAF",
"j c #AFB0AF",
"k c #B0AFB0",
"l c #B4B4B4",
"z c #B7B8B7",
"x c #B8B8B7",
"c c #B7B7B8",
"v c #BCBCBC",
"b c #C0BFBF",
"n c #BFC0BF",
"m c #BFBFC0",
"M c #C0BFC0",
"N c #C4C4C4",
"B c #C9C7C7",
"V c #C8C8C7",
"C c #C7C7C8",
"Z c #C8C7C8",
"A c #CBCBCB",
"S c #D0CFCF",
"D c #CFD0CF",
"F c #D0D0CF",
"G c #CFCFD0",
"H c #D0CFD0",
"J c #CFD0D0",
"K c #D3D3D3",
"L c #D7D8D7",
"P c #D9D9D7",
"I c #D7D7D8",
"U c #D8D7D8",
"Y c #DBDBDB",
"T c None",
/* pixels */
"TTTTTTTTTTTTTTTTTTTTTTTTTTTTTTTTTTTTTTTTTTTTTTTTTTTTTTTTTTTTTTTTTTTTTTTTTTTTTTTTTTTTTTTTTTTTTTTTTTTTTTTTTTTTTTTTTTTTTTTTTTTTTTTT",
"TTTTTTTTTTTTTTTTTTTTTTTTTTTTTTTTTTTTTTTTTTTTTTTTTTTTTTTTTTTTTTTTTTTTTTTTTTTTTTTTTTTTTTTTTTTTTTTTTTTTTTTTTTTTTTTTTTTTTTTTTTTTTTTT",
"TTTTTTTTTTTTTTTTTTTTTTTTTTTTTTTTTTTTTTTTTTTTTTTTTTTTTTTTTTTTTTTTTTTTTTTTTTTTTTTTTTTTTTTTTTTTTTTTTTTTTTTTTTTTTTTTTTTTTTTTTTTTTTTT",
"TTTTTTTTTTTTTTTTTTTTTTTTTTTTTTTTTTTTTTTTTTTTTTTTTTTTTTTTTTTTTTTTTTTTTTTTTTTTTTTTTTTTTTTTTTTTTTTTTTTTTTTTTTTTTTTTTTTTTTTTTTTTTTTT",
"TTTTTTTTTTTTTTTTTTTTTTTTTTTTTTTTTTTTTTTTTTTTTTTTTTTTTTTTTTTTTTTTTTTTTTTTTTTTTTTTTTTTTTTTTTTTTTTTTTTTTTTTTTTTTTTTTTTTTTTTTTTTTTTT",
"TTTTTTTTTTTTTTTTTTTTTTTTTTTTTTTTTTTTTTTTTTTTTTTTTTTTTTTTTTTTTTTTTTTTTTTTTTTTTTTTTTTTTTTTTTTTTTTTTTTTTTTTTTTTTTTTTTTTTTTTTTTTTTTT",
"TTTTTTTTTTTTTTTTTTTTTTTTTTTTTTTTTTTTTTTTTTTTTTTTTTTTTTTTTTTTTTTTTTTTTTTTTTTTTTTTTTTTTTTTTTTTTTTTTTTTTTTTTTTTTTTTTTTTTTTTTTTTTTTT",
"TTTTTTTTTTTTTTTTTTTTTTTTTTTTTTTTTTTTTTTTTTTTTTTTTTTTTTTTYYYYYYYYYYYYYYYTTTTTTTTTTTTTTTTTTTTTTTTTTTTTTTTTTTTTTTTTTTTTTTTTTTTTTTTT",
"TTTTTTTTTTTTTTTTTTTTTTTTTTTTTTTTTTTTTTTTTTTTTTTTTTYYYYYYYYYYYYYYYYYYYYYYYYYYYTTTTTTTTTTTTTTTTTTTTTTTTTTTTTTTTTTTTTTTTTTTTTTTTTTT",
"TTTTTTTTTTTTTTTTTTTTTTTTTTTTTTTTTTTTTTTTTTTTTTPYYYYYYYYYYYYYYYYYYYYYYYYYYYYYYYYYYTTTTTTTTTTTTTTTTTTTTTTTTTTTTTTTTTTTTTTTTTTTTTTT",
"TTTTTTTTTTTTTTTTTTTTTTTTTTTTTTTTTTTTTTTTTTTTYYYYYYYYYYYYYYYYYYYYYYYYYYYYYYYYYYYYYYYLTTTTTTTTTTTTTTTTTTTTTTTTTTTTTTTTTTTTTTTTTTTT",
"TTTTTTTTTTTTTTTTTTTTTTTTTTTTTTTTTTTTTTTTTTTTAYYYYYYYYYYYYYYYYYYYYYYYYYYYYYYYYYYYYYYYYYTTTTTTTTTTTTTTTTTTTTTTTTTTTTTTTTTTTTTTTTTT",
"TTTTTTTTTTTTTTTTTTTTTTTTTTTTTTTTTTTTTTTTTTTTTlKYYYYYYYYYYYYYYYYYYYYYYYYYYYYYYYYYYYYYYUTTTTTTTTTTTTTTTTTTTTTTTTTTTTTTTTTTTTTTTTTT",
"TTTTTTTTTTTTTTTTTTTTTTTTTTTTTTTTTTTTTTTTTTTTTT7VYYYUYUYUYYYYYYYYYYYYYYUYYYYYYYYYYYUYYUTTTTTTTTTTTTTTTTTTTTTTTTTTTTTTTTTTTTTTTTTT",
"TTTTTTTTTTTTTTTTTTTTTTTTTTTTTTTTTTTLYLTTTTTTTTT2AYUYYUYYYYYYYYYYYYYYUYYYYYYYYYYYYUYUUKTTTTTTTTTTTTTTTTTTTTTTTTTTTTTTTTTTTTTTTTTT",
"TTTTTTTTTTTTTTTTTTTTTTTTTTTTTTTTTTKUULUKTTTTTTTT2nLULLLLYYYYYYYYYYYYYUUYYYYYYYYYUULUUKTTTTTTTKTTTTTTTTTTTTTTTTTTTTTTTTTTTTTTTTTT",
"TTTTTTTTTTTTTTTTTTTTTTTTTTTTTTTTKKUUUUUIKTTTTTTT :vKUUUULLLLLIKLYYLKILLLLLKIILUUULKUUDTTTTTTTULTTTTTTTTTTTTTTTTTTTTTTTTTTTTTTTTT",
"TTTTTTTTTTTTTTTTTTTTTTTTTTTTTTTKUULKKLUKKATTTTTTT <vLKLULLLLKUUIYYLKILIKLLUIUKKIUKLLLATTTTTTTLUKKTTTTTTTTTTTTTTTTTTTTTTTTTTTTTTT",
"TTTTTTTTTTTTTTTTTTTTTTTTTTTTTGKKLKKKLILLLKZTTTTTT  ;aKKKKLLKUKKUYLLLKLKIKIKKLUKULILILATTTTTTTKKLKKTTTTTTTTTTTTTTTTTTTTTTTTTTTTTT",
"TTTTTTTTTTTTTTTTTTTTTTTTTTTTZKKKKUKKKKKKKKLZTTTTTT  oyKKKKUKKLKKYLKLKIKKIKKKKKLKKKKKKZTTTTTTlKKLKKKTTTTTTTTTTTTTTTTTTTTTTTTTTTTT",
"TTTTTTTTTTTTTTTTTTTTTTTTTTTAKKKKKKKKKKKKKKKKNTTTTTTT oyKKKKKKKKKKKKKKKKLKKKKKKKKKKKKKZTTTTTTaKKKKKKKSTTTTTTTTTTTTTTTTTTTTTTTTTTT",
"TTTTTTTTTTTTTTTTTTTTTTTTTTAKKKKKKKKKKKKKKKKKKATTTTTTT oyKKKKKKKKKKKKKKKKKKKKKKKKKKKKKZTTTTTTuKKKKKKKKATTTTTTTTTTTTTTTTTTTTTTTTTT",
"TTTTTTTTTTTTTTTTTTTTTTTTTAKKKKKKKKAKKKKDKKFKKKZTTTTTTT oySKKKHKKKGKKJKKJKKFKKKKKKKKDKVTTTTTTyKKKKKKKKKATTTTTTTTTTTTTTTTTTTTTTTTT",
"TTTTTTTTTTTTTTTTTTTTTTTTAKKKAKAKAKKKKAKKKKFKKKKATTTTTTT oyAHKKAKAKJKJKJKKAKKKAAKKAKDKCTTTTTTqAKASFKFKKKZTTTTTTTTTTTTTTTTTTTTTTTT",
"TTTTTTTTTTTTTTTTTTTTTTTAHFKAKAKAKAKAKFKAAKAKAKAKATTTTTTT X5vAKKAKAKAKDJAKKAKKAKSDAKKKNTTTTTTqFKKAKJJKKADATTTTTTTTTTTTTTTTTTTTTTT",
"TTTTTTTTTTTTTTTTTTTTTTZDAGGGAKAKSDAKKADKKDFDKDJDHATTTTTTT  >vAGHAKAKAKAKDDJAAKAKAKGADNTTTTTT0KSSKAKAADDDSATTTTTTTTTTTTTTTTTTTTTT",
"TTTTTTTTTTTTTTTTTTTTTVDAKKAFASKAFDFAAHDAAJKAAADDAAAvTTTTTT  ,vAGAKKAKASAJAAKKAAKAKAFDNTTTTTTqAFAASDKAKDAKATTTTTTTTTTTTTTTTTTTTTT",
"TTTTTTTTTTTTTTTTTTTTvADAAAAJGAKAFAAKSAADJAJAJAADAKGAMTTTTTT  :vAAAGAADAKAJAAAAJAAAFAANTTTTTT0DADAFAASADAAAATTTTTTTTTTTTTTTTTTTTT",
"TTTTTTTTTTTTTTTTTTTvADADADAAAAHAADAAAADAAADAAAADADADAmTTTTTT  :vDAAAAJDAAJDAAHDAAJAAANTTTTTT0AFAAHAAASAAADAATTTTTTTTTTTTTTTTTTTT",
"TTTTTTTTTTTTTTTTTTTZAAAAAAAAAAAAAAAAAAAAAAAAAAAAAAAAAAvTTTTTT  :kAAAAAAAAAAAAAAAAAAAANTTTTTT0AAAAAAAAAAAAAAAVTTTTTTTTTTTTTTTTTTT",
"TTTTTTTTTTTTTTTTTTNAAAAAAAAAAAAAAAAAAAAAAAAAAAAAAAAAAAAvTTTTTT  &qZAAAAAAAAAAAAAAAAAAmTTTTTT0ZAAAAAAAAAAAAAAATTTTTTTTTTTTTTTTTTT",
"TTTTTTTTTTTTTTTTTvZAZAAZAAAZAAZAAZAZAAAZAAZAAAZAZAZAZAZAvTTTTTT  +yZAZAZAZAZAZAZAZAAZNTTTTTT0AAZZAZAZAZAZAZAAZTTTTTTTTTTTTTTTTTT",
"TTTTTTTTTTTTTTTTTZZZACVVAVAVVAVACAVZVVZVZAVVAAVZVVAVAVVVVNTTTTTTT +eZZAZVAVCAZZZZAVVAvTTTTTT0ZZZAZVVVVZAAZAVAVCTTTTTTTTTTTTTTTTT",
"TTTTTTTTTTTTTTTTnZZACCCCCCVVCCVVCVAZVVZAVVVVCVZVCCCVVCCCVZvTTTTTTT +yCZZCVVCCVAVVVVCZvTTTTTT9AZZZZCCVACCZZCCVCVTTTTTTTTTTTTTTTTT",
"TTTTTTTTTTTTTTTlZVNZCCVCVVCCVNCCCCCCCCCVVCCCVVCCCCCCCCCVNvTTTTTTTTT OeNZCCCVCCVCCCCCZvTTTTTT9CCCZCCCCCCCZZCZCCCNTTTTTTTTTTTTTTTT",
"TTTTTTTTTTTTTTTNNCZCCVVNNVCCVNVCVCNVCVNVCCNCNVCCCNVCCCVNgTTTTTTTTTTT O9vVCVNVCCZCCCCCvTTTTTT8NVVVCCCVNVVNVNZCCVNnTTTTTTTTTTTTTTT",
"TTTTTTTTTTTTTTjNNVNCCNNNNNNCNCVNNNNVNVNNNCNCNNCNNNCNCNvuTTTTTTTTTTTTT .:lVNNNNCNNVCNNvTTTTTT8NNNVNNVNNVNNNNNCZNNNTTTTTTTTTTTTTTT",
"TTTTTTTTTTTTTTNNNNNNNNNNNNNNNNNNVNNNNNNNNCNNNCCNNNNCNl2TTTTTTTTTTTTTTT  ,jVNNNNNNNNNNvTTTTTT8NNNNNNNNVNNNNNCNNNNNvTTTTTTTTTTTTTT",
"TTTTTTTTTTTTTgNNNNNNNNNNVNNNNNNNNNNNNNNNNNNNNNNNNNNNl1TTTTTTTTTTTTTTTTT  :lNNNNNNNNNNvTTTTTT8NNNNNNNNNNNNNNNNNNNNnTTTTTTTTTTTTTT",
"TTTTTTTTTTTTTvNNNNNNNNNNNNNNNNNNNNNNNNNNNNnNNNNNNNNl<TTTTTTTTTTTTTTTTTTT  :lNNNNNNNNNvTTTTTT8NNNNNNNNNNNNNNNNNNNNNvTTTTTTTTTTTTT",
"TTTTTTTTTTTTgNNNNbNNNbNNmNNNmNmNNNNNNNNNNnNNvnNNNNk1TTTTTTTTTTTTTTTTTTTTT  :lNNvNnNNMxTTTTTT8NNvnNnNMNNNvnNNNNMNNNNTTTTTTTTTTTTT",
"TTTTTTTTTTTTvvNvNnvNvNvNNNvNNnNNvNvNvNvNNnnNNNNvvu-TTTTTTTTTTTTTTTTTTTTTTT  ;uNmNnnNNlTTTTTT6NNmnNNnNbvNNNNvNvNvvNvlTTTTTTTTTTTT",
"TTTTTTTTTTTuvNvNvNbNNNnmvnNvnnmmNvNvMNNvnnnNNvvNr@TTTTTTTTTTTTTTTTTTTTTTTTT  @qNnnnnNxTTTTTT8vNNnNnnnNnnNMvNNNvNNvNvTTTTTTTTTTTT",
"TTTTTTTTTTTlvbnmNvbnvvvNNvnnnvmmnmvNvvvNnnbvvNvq@TTTTTTTTTTTTTTTTTTTTTTTTTTT  @qbnbbvlTTTTTT6NvmvvnbbbbbvNvvvMMMvNvmTTTTTTTTTTTT",
"TTTTTTTTTTTvvvnbMnbvnvmvvvNvmmvmvnvNNvmvnvvNMby@TTTTTTTTTTTTTTTTTTTTTTTTTTTTTT @qbbbvlTTTTTT8mmvbvnnbvnbvvvnbvvMvvnvlTTTTTTTTTTT",
"TTTTTTTTTTpvvNvvvnvnvNvvvbvvvvmvvmvvvbvmvnvvlq@TTTTTTTTTTTTTTTTTTTTTTTTTTTTTTTT @qvvMlTTTTTT6vvvvbvbvnnnvNnvvbbMvNvnvTTTTTTTTTTT",
"TTTTTTTTTTgvvnmvbvvMvvvNvvvbvvvvvnvvvvbvbvvg<XTTTTTTTTTTTTTTTTTTTTTTTTTTTTTTTTTT @wvvlTTTTTT6vvvvvbvvnvvvvvnvMvvbvvnvTTTTTTTTTTT",
"TTTTTTTTTTcvvvvvvvvvvvvvvvvvvvvvvvvvvvvvvvg1TTTTTTTTTTTTTTTTTTTTTTTTTTTTTTTTTTTTTT+6llTTTTTT6vvvvvvvvvvvvvvvvvvvvvvvvlTTTTTTTTTT",
"TTTTTTTTT0vvvvvvvvvvvvvcvvvvvvvvvvvvzvvvvg<TTTTTTTTTTTTTTTTTTTTTTTTTTTTTTTTTTTTTTTTT6gTTTTTT6vvvvvvvvvvvvvcvvvvvvvvvvlTTTTTTTTTT",
"TTTTTTTTTivvvllvvvxvcvvvvxlvvxcvvvvvvcvxg1TTTTTTTTTTTTTTTTTTTTTTTTTTTTTTTTTTTTTTTTTTTTTTTTTT6vvxcvxxcvxxvxvvvlvxvvlvvlTTTTTTTTTT",
"TTTTTTTTTglvvvcvlvvvvvlvvvvxcvcvczvzvllu;TTTTTTTTTTTTTTTTTTTTTTTTTTTTTTTTTTTTTTTTTTTTTTTTTTT6lvlxvxvxvvvlvvvvlvvvlvvcvTTTTTTTTTT",
"TTTTTTTTTlvvlxlvvllxllvllvlvcxlvcvlvxvq#TTTTTTTTTTTTTTTTTTTTTTTTTTTTTTTTTTTTTTTTTTTTTTTTTTTT6vxvccvlvllvvllvlvlvlvxlvlgTTTTTTTTT",
"TTTTTTTTTllllvvllvvlclczvlxllvzzlvlvlq#TTTTTTTTTTTTTTTTTTTTTTTTTTTTTTTTTTTTTTTTTTTTTTTTTTTTT6lzzcvlvxccvllczvlzvvlxlvlgTTTTTTTTT",
"TTTTTTTTyzlvlllvlllvlvvllxlvcllzclxlq#TTTTTTTTTTTTTTTTTTTTTTTTTTTTTTTTTTTTTTTTTTTTTTTTTTTTTT6lzcllllxxlllvxlclllvllvvllTTTTTTTTT",
"TTTTTTTTyllllllllccllcllxlxllzlllxl0#TTTTTTTTTTTTTTTTTTTTTTTTTTTTTTTTTTTTTTTTTTTTTTTTTTTTTTT6lllzllcxllxxlllczlllllllclTTTTTTTTT",
"TTTTTTTTullllvlllllllllllllzlllllg2oTTTTTTTTTTTTTTTTTTTTTTTTTTTTTTTTTTTTTTTTTTTTTTTTTTTTTTTT6llllzllllllllclllllllclllkTTTTTTTTT",
"TTTTTTTTglllllllllllllllllllllllf1TTTTTTTTTTTTTTTTTTTTTTTTTTTTTTTTTTTTTTTTTTTTTTTTTTTTTTTTTT5llllllllllllllllllllllllllTTTTTTTTT",
"TTTTTTTTgllllllllllllllllllllllf<TTTTTTTTTTTTTTTTTTTTTTTTTTTTTTTTTTTTTTTTTTTTTTTTTTTTTTTTTTT6lllllllllllllllllkllklllllpTTTTTTTT",
"TTTTTTTTglkllgllljlllkklllklllf1TTTTTTTTTTTTTTTTTTTTTTTTTTTTTTTTTTTTTTTTTTTTTTTTTTTTTTTTTTTT5llgllllklklllglhlllljklllliTTTTTTTT",
"TTTTTTTTflkkllglhljllkkljkkjky:TTTTTTTTTTTTTTTTTTTTTTTTTTTTTTTTTTTTTTTTTTTTTTTTTTTTTTTTTTTTT5llhkkkkllkjgllllgjlljlklgluTTTTTTTT",
"TTTTTTTTfglglhlgglgljjlkjklg0%TTTTTTTTTTTTTTTTTTTTTTTTTTTTTTTTTTTTTTTTTTTTTTTTTTTTTTTTTTTTTT5lllglgljjjjlhlllglgjlglljluTTTTTTTT",
"TTTTTTTTfljjjgjjlglglggjjjk0$TTTTTTTTTTTTTTTTTTTTTTTTTTTTTTTTTTTTTTTTTTTTTTTTTTTTTTTTTTTTTTT5jghkglgjjkgglggglglgjjgglguTTTTTTTT",
"TTTTTTTTfgjjhlgkgjjlggkjgj0$TTTTTTTTTTTTTTTTTTTTTTTTTTTTTTTTTTTTTTTTTTTTTTTTTTTTTTTTTTTTTTTT6gjgglgljkjgggjgglhgglgljggyTTTTTTTT",
"TTTTTTTTaggggggggggggkgjg0%TTTTTTTTTTTTTTTTTTTTTTTTTTTTTTTTTTTTTTTTTTTTTTTTTTTTTTTTTTTTTTTTT5ggjggjgggkglgghggjgggggghguTTTTTTTT",
"TTTTTTTTsgjgggggggggjgga3@TTTTTTTTdTTTTTTTTTTTTTTTTTTTTTTTTTTTTTTTTTTTTTTTTTTTTTTTTTTTTTTTTT5gggghgggggkgghgghggggghggdyTTTTTTTT",
"TTTTTTTTfgggggjggggggdf<TTTTTTTTTdgTTTTTTTTTTTTTTTTTTTTTTTTTTTTTTTTTTTTTTTTTTTTTTTTTTTTTTTTT5ggggggggggggggggggggggggggyTTTTTTTT",
"TTTTTTTTaggdggggggggga<TTTTTTTTTgdjTTTTTTTTTTTTTTTTTTTTTTTTTTTTTTTTTTTTTTTTTTTTTTTTTTTTTTTTT5dggggggggggggjdgggggggggggyTTTTTTTT",
"TTTTTTTTadggdggdggsga<TTTTTTTTiddgdTTTTTTTTTTTTTTTTTTTTTTTTTTTTTTTTTTTTTTTTTTTTTTTTTTTTTTTTT5fgggggsdgggdgddggsgsggggdgeTTTTTTTT",
"TTTTTTTTigdgsgsdfgdu,TTTTTTTTidgggaTTTTTTTTTTTTTTTTTTTTTTTTTTTTTTTTTTTTTTTTTTTTTTTTTTTTTTTTT5dgdddsgsfsgdddjddddsgsgssgqTTTTTTTT",
"TTTTTTTTugffssssfs8%TTTTTTTTudddgdaTTTTTTTTTTTTTTTTTTTTTTTTTTTTTTTTTTTTTTTTTTTTTTTTTTTTTTTTT5ddddsdsdgffddddddddffssgsdTTTTTTTTT",
"TTTTTTTT8sffdffff9%TTTTTTTTuddddafaTTTTTTTTTTTTTTTTTTTTTTTTTTTTTTTTTTTTTTTTTTTTTTTTTTTTTTTTT3dddgdsdafdfddddddddffffddpTTTTTTTTT",
"TTTTTTTT6afafafd8%TTTTTTTTidddadffaTTTTTTTTTTTTTTTTTTTTTTTTTTTTTTTTTTTTTTTTTTTTTTTTTTTTTTTTT3dfafdsadffaddddddddfaaffaaTTTTTTTTT",
"TTTTTTTT5faafaf8$TTTTTTTTaddadadaapTTTTTTTTTTTTTTTTTTTTTTTTTTTTTTTTTTTTTTTTTTTTTTTTTTTTTTTTT3daafafaadadaddaadaasaaffaiTTTTTTTTT",
"TTTTTTTT*iafai5#TTTTTTTTpaaaaaaaaaiTTTTTTTTTTTTTTTTTTTTTTTTTTTTTTTTTTTTTTTTTTTTTTTTTTTTTTTTT2aaaaaaaaaaaaaaaaaaaaafaafqTTTTTTTTT",
"TTTTTTTT%iafi<TTTTTTTTTiaaadaaaaaaiTTTTTTTTTTTTTTTTTTTTTTTTTTTTTTTTTTTTTTTTTTTTTTTTTTTTTTTTT2aaaaaaaaaaaaaaaaaaaaaaaaa9TTTTTTTTT",
"TTTTTTTTT9ai<TTTTTTTTTiadiaaaaaaaaiTTTTTTTTTTTTTTTTTTTTTTTTTTTTTTTTTTTTTTTTTTTTTTTTTTTTTTTTT2aaaaaaaaaaaaaaaaaaaaaaaaiTTTTTTTTTT",
"TTTTTTTTT6u<TTTTTTTTyiaadidaaapaaaiTTTTTTTTTTTTTTTTTTTTTTTTTTTTTTTTTTTTTTTTTTTTTTTTTTTTTTTTT2apaaapaapapapaaappaaapaauTTTTTTTTTT",
"TTTTTTTTT;:TTTTTTTTyiaiaidiappappauTTTTTTTTTTTTTTTTTTTTTTTTTTTTTTTTTTTTTTTTTTTTTTTTTTTTTTTTT2aapppappppappppapaappppa0TTTTTTTTTT",
"TTTTTTTTTTTTTTTTTTepppaiiippppppppuTTTTTTTTTTTTTTTTTTTTTTTTTTTTTTTTTTTTTTTTTTTTTTTTTTTTTTTTT1ppppppppapppppppaiappppa6TTTTTTTTTT",
"TTTTTTTTTTTTTTTTTqippaipppppppppppuTTTTTTTTTTTTTTTTTTTTTTTTTTTTTTTTTTTTTTTTTTTTTTTTTTTTTTTTT2pppppppppipppppippippppuTTTTTTTTTTT",
"TTTTTTTTTTTTTTTTeiipppppipipiippipyTTTTTTTTTTTTTTTTTTTTTTTTTTTTTTTTTTTTTTTTTTTTTTTTTTTTTTTTT2pppppppippppippiipiippieTTTTTTTTTTT",
"TTTTTTTTTTTTTTTuiiiiiiipipiiiiiiiiuTTTTTTTTTTTTTTTTTTTTTTTTTTTTTTTTTTTTTTTTTTTTTTTTTTTTTTTTT-555333533353335535535561TTTTTTTTTTT",
"TTTTTTTTTTTTTTuiiiiiiiiiiiiiiiiiiiuTTTTTTTTTTTTTTTTTTTTTTTTTTTTTTTTTTTTTTTTTTTTTTTTTTTTTTTTTTT                    TTTTTTTTTTTTTT",
"TTTTTTTTTTTTTuiiiiiiiiiiiiiiiiiiipyTTTTTTTTTTTTTTTTTTTTTTTTTTTTTTTTTTTTTTTTTTTTTTTTTTTTTTTTTTTT                  TTTTTTTTTTTTTTT",
"TTTTTTTTTTTTquiiiiuiiiuiiiiiuiiiiiyTTTTTTTTTTTTTTTTTTTTTTTTTTTTTTTTTTTTTTTTTTTTTTTTTTTTTTTTTTTTTTTTTTTTTTTTTTTTTTTTTTTTTTTTTTTTT",
"TTTTTTTTTTTT8uiuiuiuiuiiiuuiuiuiiuyTTTTTTTTTTTTTTTTTTTTTTTTTTTTTTTTTTTTTTTTTTTTTTTTTTTTTTTTTTTTTTTTTTTTTTTTTTTTTTTTTTTTTTTTTTTTT",
"TTTTTTTTTTTTTquiiiiiyiuiuiuiuiuiuuyTTTTTTTTTTTTTTTTTTTTTTTTTTTTTTTTTTTTTTTTTTTTTTTTTTTTTTTTTTTTTTTTTTTTTTTTTTTTTTTTTTTTTTTTTTTTT",
"TTTTTTTTTTTTT2uuyiyyiyuuuuuuuuuuuueTTTTTTTTTTTTTTTTTTTTTTTTTTTTTTTTTTTTTTTTTTTTTTTTTTTTTTTTTTTTTTTTTTTTTTTTTTTTTTTTTTTTTTTTTTTTT",
"TTTTTTTTTTTTT#9uuuyuuuuuuuuuuuyuuuyTTTTTTTyuyyyyuyyyyyyyyyuyyyyyuyyyyyyyyyyyyyyyyyyyyyyyyyyeeeeeyqwwweqeeeeeqeqeeTTTTTTTTTTTTTTT",
"TTTTTTTTTTTTTT<yuuuyyuuuuyuuyyuuyueTTTTTTyuyuuuuuyuyuuyuuyuuyuuuuyuuuuyyuuuuuyuuuuuuuuuyuuuuuuuuuuyuuyuuuyyuuuuuyTTTTTTTTTTTTTTT",
"TTTTTTTTTTTTTT+8uyuyuyuuyyuuuyuuyyeTTTTTTyyuyuyuyuyyyuuuuyyuuyyuyuyuuyuuyuyuiyyyyuuyyuuuyuyuuyuyuyuuyuyyyyyuyyuuTTTTTTTTTTTTTTTT",
"TTTTTTTTTTTTTTT;eyyyyyyyyyyyyyyyyyeTTTTTTeuyyyyyyuyyyyyyuyyyyyyyyuyyyyyyyyyyyyyyyyuyyyyyyyyyyyyyyyyyyyyyuyyyyyu0TTTTTTTTTTTTTTTT",
"TTTTTTTTTTTTTTTX3yyyyyyyyyyyyyyyyu0TTTTTTqyyyyyyyyyyyyyyeyyyyyyyyyyyyyyyyuyyyyyyyyyyyyyyyyyyyyyyyyyyyyyyyyyyyyyTTTTTTTTTTTTTTTTT",
"TTTTTTTTTTTTTTTT*9yyyyyyyyyyyyyeyyeTTTTTT0yyyyyyyyyyyyyyyyyyyyyyyyyeyyyyyyyyyyyyyyyyyyyyyyyyyyyyyyyeyyyyyyyyye6TTTTTTTTTTTTTTTTT",
"TTTTTTTTTTTTTTTT :eeeyyyeyyeyyeyyy0TTTTTT9yyyyeyyeyyyyyeyyeyyryryeyyryeyeyeyyyyeyyeyyyeyyyyyyyeyyeyyyyyyyryye6TTTTTTTTTTTTTTTTTT",
"TTTTTTTTTTTTTTTTTo3yeeeyeeyeeeyyeyqTTTTTT8eeeeeeyeeyeeyeeeyeeyeyryeyryyqeyeyeeeyeeeyeeeyeeeeeyyeeyeyeeyeyeey0-TTTTTTTTTTTTTTTTTT",
"TTTTTTTTTTTTTTTTT #7rreyreryqryqye0TTTTTT8yqyqyyqyytyyeyywyyyqyeqyqyyeeeeryrttttreerqyqyyyyyqyyqeerrereryqyy<TTTTTTTTTTTTTTTTTTT",
"TTTTTTTTTTTTTTTTTT -9qeqqeeeeeeeqy0TTTTTT8qyqyqeyqqyqqqqqyqqqrqyyqyqqyqyeeqywtttqyqyrqyeqqqqytqyeeeeeeeeerq2TTTTTTTTTTTTTTTTTTTT",
"TTTTTTTTTTTTTTTTTTT -9qtererqyqqrq0TTTTTT7qeyqqrqqyqqerqtqqweyqqqqqyqqwqqqwqqttqeqeqqeqeqqyqqqyqqrereqqeqe5TTTTTTTTTTTTTTTTTTTTT",
"TTTTTTTTTTTTTTTTTTTTX2qqqqqqqqqeqq9TTTTTT8qqqqeqqqqqqqeqqrqqqqqeqqqqyqqwqeqrqqqweqqeqqeqqeqeqqqqqqqqqeqqq8*TTTTTTTTTTTTTTTTTTTTT",
"TTTTTTTTTTTTTTTTTTTT o10qqqqqqqqqq0TTTTTT7qqqqqqqqqqqqqqqqrqqqqqqqqqqqqqqqrqw0wqqqqqqqqqqqqqqqqwqqqqqqqq7-TTTTTTTTTTTTTTTTTTTTTT",
"TTTTTTTTTTTTTTTTTTTTT o1qqqqqqqqqq9TTTTTT7qqqqqqqqqqqqqqq9qqqqqqqqqrqqqqqqqqqwqqqqqqqqqqqqqqqqqqqqqqqqq7-TTTTTTTTTTTTTTTTTTTTTTT",
"TTTTTTTTTTTTTTTTTTTTTT o100qqqqqqq9TTTTTT7qqqqqqq0qqqqqqqqqqqqqqqqq0qqqqqq0qt0q00qqqqqq00qqqqqqqqqqqqq7=TTTTTTTTTTTTTTTTTTTTTTTT",
"TTTTTTTTTTTTTTTTTTTTTTT o1qq0q0q008TTTTTT6q0q00q0qqq0q0qq0q0q00q0q0q0q0q0q0q0q0tqqq0q0qqqqq00q0q0q0q07=TTTTTTTTTTTTTTTTTTTTTTTTT",
"TTTTTTTTTTTTTTTTTTTTTTTT o10000q008TTTTTT600000000q0000q000q00q00q000q0q000000000q0000q0000q00000q006=TTTTTTTTTTTTTTTTTTTTTTTTTT",
"TTTTTTTTTTTTTTTTTTTTTTTTT o:6000008TTTTTT60000009q0900000q09000000000099000000000000000000009q000004*TTTTTTTTTTTTTTTTTTTTTTTTTTT",
"TTTTTTTTTTTTTTTTTTTTTTTTTT  *600098TTTTTT600000009900090909900009900000908000009909000090900909000<oTTTTTTTTTTTTTTTTTTTTTTTTTTTT",
"TTTTTTTTTTTTTTTTTTTTTTTTTTT  *39007TTTTTT69999089999808099998080909999990008999999999999089099986;oTTTTTTTTTTTTTTTTTTTTTTTTTTTTT",
"TTTTTTTTTTTTTTTTTTTTTTTTTTTT  o1806TTTTTT6988080888080088008088880088080808008009989989889889895* TTTTTTTTTTTTTTTTTTTTTTTTTTTTTT",
"TTTTTTTTTTTTTTTTTTTTTTTTTTTTTT .-67TTTTTT59888808908888888880808888888888808888888888988898987,@TTTTTTTTTTTTTTTTTTTTTTTTTTTTTTTT",
"TTTTTTTTTTTTTTTTTTTTTTTTTTTTTTTTTT:TTTTTT6888888888888888888888888888888888888888888988888882&.TTTTTTTTTTTTTTTTTTTTTTTTTTTTTTTTT",
"TTTTTTTTTTTTTTTTTTTTTTTTTTTTTTTTTTTTTTTTT58788888887888888888887888788887888887888888888885;OTTTTTTTTTTTTTTTTTTTTTTTTTTTTTTTTTTT",
"TTTTTTTTTTTTTTTTTTTTTTTTTTTTTTTTTTTTTTTTT508788888886868866878888887886788886788888888885;@ TTTTTTTTTTTTTTTTTTTTTTTTTTTTTTTTTTTT",
"TTTTTTTTTTTTTTTTTTTTTTTTTTTTTTTTTTTTTTTTT5788787686888888888887887788788868888866868865;+ TTTTTTTTTTTTTTTTTTTTTTTTTTTTTTTTTTTTTT",
"TTTTTTTTTTTTTTTTTTTTTTTTTTTTTTTTTTTTTTTTT=<578778686686868686886778778876686686878862;+ TTTTTTTTTTTTTTTTTTTTTTTTTTTTTTTTTTTTTTTT",
"TTTTTTTTTTTTTTTTTTTTTTTTTTTTTTTTTTTTTTTTTT.+-2666868868786878678778787788868868665:&. TTTTTTTTTTTTTTTTTTTTTTTTTTTTTTTTTTTTTTTTTT",
"TTTTTTTTTTTTTTTTTTTTTTTTTTTTTTTTTTTTTTTTTTT  .%*<666787866867777877878777877662;%o  TTTTTTTTTTTTTTTTTTTTTTTTTTTTTTTTTTTTTTTTTTTT",
"TTTTTTTTTTTTTTTTTTTTTTTTTTTTTTTTTTTTTTTTTTTT     +%;1156688886788778876662<,*$.   TTTTTTTTTTTTTTTTTTTTTTTTTTTTTTTTTTTTTTTTTTTTTT",
"TTTTTTTTTTTTTTTTTTTTTTTTTTTTTTTTTTTTTTTTTTTTTT        @#&::,1<:<,<<<,<-##X .   TTTTTTTTTTTTTTTTTTTTTTTTTTTTTTTTTTTTTTTTTTTTTTTTT",
"TTTTTTTTTTTTTTTTTTTTTTTTTTTTTTTTTTTTTTTTTTTTTTTTTT                         TTTTTTTTTTTTTTTTTTTTTTTTTTTTTTTTTTTTTTTTTTTTTTTTTTTTT",
"TTTTTTTTTTTTTTTTTTTTTTTTTTTTTTTTTTTTTTTTTTTTTTTTTTTTTTTT              TTTTTTTTTTTTTTTTTTTTTTTTTTTTTTTTTTTTTTTTTTTTTTTTTTTTTTTTTT",
"TTTTTTTTTTTTTTTTTTTTTTTTTTTTTTTTTTTTTTTTTTTTTTTTTTTTTTTTTTTTTTTTTTTTTTTTTTTTTTTTTTTTTTTTTTTTTTTTTTTTTTTTTTTTTTTTTTTTTTTTTTTTTTTT",
"TTTTTTTTTTTTTTTTTTTTTTTTTTTTTTTTTTTTTTTTTTTTTTTTTTTTTTTTTTTTTTTTTTTTTTTTTTTTTTTTTTTTTTTTTTTTTTTTTTTTTTTTTTTTTTTTTTTTTTTTTTTTTTTT",
"TTTTTTTTTTTTTTTTTTTTTTTTTTTTTTTTTTTTTTTTTTTTTTTTTTTTTTTTTTTTTTTTTTTTTTTTTTTTTTTTTTTTTTTTTTTTTTTTTTTTTTTTTTTTTTTTTTTTTTTTTTTTTTTT",
"TTTTTTTTTTTTTTTTTTTTTTTTTTTTTTTTTTTTTTTTTTTTTTTTTTTTTTTTTTTTTTTTTTTTTTTTTTTTTTTTTTTTTTTTTTTTTTTTTTTTTTTTTTTTTTTTTTTTTTTTTTTTTTTT",
"TTTTTTTTTTTTTTTTTTTTTTTTTTTTTTTTTTTTTTTTTTTTTTTTTTTTTTTTTTTTTTTTTTTTTTTTTTTTTTTTTTTTTTTTTTTTTTTTTTTTTTTTTTTTTTTTTTTTTTTTTTTTTTTT",
"TTTTTTTTTTTTTTTTTTTTTTTTTTTTTTTTTTTTTTTTTTTTTTTTTTTTTTTTTTTTTTTTTTTTTTTTTTTTTTTTTTTTTTTTTTTTTTTTTTTTTTTTTTTTTTTTTTTTTTTTTTTTTTTT",
"TTTTTTTTTTTTTTTTTTTTTTTTTTTTTTTTTTTTTTTTTTTTTTTTTTTTTTTTTTTTTTTTTTTTTTTTTTTTTTTTTTTTTTTTTTTTTTTTTTTTTTTTTTTTTTTTTTTTTTTTTTTTTTTT"
};
