/* XPM */
static char *terminal[] = {
/* columns rows colors chars-per-pixel */
"128 128 55 1 ",
"  c #000000",
". c #0E0E0E",
"X c #121212",
"o c #1C1C1C",
"O c #242424",
"+ c gray16",
"@ c gray20",
"# c #3D3D3D",
"$ c #444444",
"% c #4C4C4C",
"& c #545454",
"* c #5A5A5A",
"= c #636363",
"- c #6C6C6C",
"; c #706F6F",
": c #757575",
"> c #797779",
", c #777979",
"< c #7D7D7D",
"1 c #807F7F",
"2 c #7F807F",
"3 c #7F7F80",
"4 c #7F8080",
"5 c #868686",
"6 c #888787",
"7 c #888887",
"8 c #878788",
"9 c #888788",
"0 c #878888",
"q c #8A8A8A",
"w c #90908F",
"e c #949494",
"r c #989798",
"t c #9B9B9B",
"y c #A09F9F",
"u c #9F9FA0",
"i c #A4A4A4",
"p c #A6A8A6",
"a c #ACACAC",
"s c #AFAFB1",
"d c #B4B4B4",
"f c #BBBBBB",
"g c #C4C4C4",
"h c #C7C8C7",
"j c #C8C7C8",
"k c #CBCBCB",
"l c #D4D4D4",
"z c #D8D7D7",
"x c #D7D8D7",
"c c #D8D8D7",
"v c #D7D7D8",
"b c #D8D7D8",
"n c #D7D8D8",
"m c #DADADA",
"M c None",
/* pixels */
"MMMMMMMMMMMMMMMMMMMMMMMMMMMMMMMMMMMMMMMMMMMMMMMMMMMMMMMMMMMMMMMMMMMMMMMMMMMMMMMMMMMMMMMMMMMMMMMMMMMMMMMMMMMMMMMMMMMMMMMMMMMMMMMM",
"MMMMMMMMMMMMMMMMMMMMMMMMMMMMMMMMMMMMMMMMMMMMMMMMMMMMMMMMMMMMMMMMMMMMMMMMMMMMMMMMMMMMMMMMMMMMMMMMMMMMMMMMMMMMMMMMMMMMMMMMMMMMMMMM",
"MMMMMMMMMMMMMMMMMMMMMMMMMMMMMMMMMMMMMMMMMMMMMMMMMMMMMMMMMMMMMMMMMMMMMMMMMMMMMMMMMMMMMMMMMMMMMMMMMMMMMMMMMMMMMMMMMMMMMMMMMMMMMMMM",
"MMMMMMMMMMMMMMMMMMMMMMMMMMMMMMMMMMMMMMMMMMMMMMMMMMMMMMMMMMMMMMMMMMMMMMMMMMMMMMMMMMMMMMMMMMMMMMMMMMMMMMMMMMMMMMMMMMMMMMMMMMMMMMMM",
"MMMMMMMMMMMMMMMMMMMMMMMMMMMMMMMMMMMMMMMMMMMMMMMMMMMMMMMMMMMMMMMMMMMMMMMMMMMMMMMMMMMMMMMMMMMMMMMMMMMMMMMMMMMMMMMMMMMMMMMMMMMMMMMM",
"MMMMMMMMMMMMMMMMMMMMMMMMMMMMMMMMMMMMMMMMMMMMMMMMMMMMMMMMMMMMMMMMMMMMMMMMMMMMMMMMMMMMMMMMMMMMMMMMMMMMMMMMMMMMMMMMMMMMMMMMMMMMMMMM",
"MMMMMMMMMMMMMMMMMMMMMMMMMMMMMMMMMMMMMMMMMMMMMMMMMMMMMMMMMMMMMMMMMMMMMMMMMMMMMMMMMMMMMMMMMMMMMMMMMMMMMMMMMMMMMMMMMMMMMMMMMMMMMMMM",
"MMMMMMMMMMMMMMMMMMMMMMMMMMMMMMMMMMMMMMMMMMMMMMMMMMMMMMMMMMMMMMMMMMMMMMMMMMMMMMMMMMMMMMMMMMMMMMMMMMMMMMMMMMMMMMMMMMMMMMMMMMMMMMMM",
"MMMMMMMMMMMMMMMMMMMMMMMMMMMMMMMMMMMMMMMMMMMMMMMMMMMMMMMMMMMMMMMMMMMMMMMMMMMMMMMMMMMMMMMMMMMMMMMMMMMMMMMMMMMMMMMMMMMMMMMMMMMMMMMM",
"MMMMMMMMMMMMMMMMMMMMMMMMMMMMMMMMMMMMMMMMMMMMMMMMMMMMMMMMMMMMMMMMMMMMMMMMMMMMMMMMMMMMMMMMMMMMMMMMMMMMMMMMMMMMMMMMMMMMMMMMMMMMMMMM",
"MMMMMMMMMMMMMMMMMMMMMMMMMMMMMMMMMMMMMMMMMMMMMMMMMMMMMMMMMMMMMMMMMMMMMMMMMMMMMMMMMMMMMMMMMMMMMMMMMMMMMMMMMMMMMMMMMMMMMMMMMMMMMMMM",
"MMMMMMMMMMMMMMMMMMMMMMMMMMMMMMMMMMMMMMMMMMMMMMMMMMMMMMMMMMMMMMMMMMMMMMMMMMMMMMMMMMMMMMMMMMMMMMMMMMMMMMMMMMMMMMMMMMMMMMMMMMMMMMMM",
"MMMMMMMMMMMMMMMMMMMMMMMMMMMMMMMMMMMMMMMMMMMMMMMMMMMMMMMMMMMMMMMMMMMMMMMMMMMMMMMMMMMMMMMMMMMMMMMMMMMMMMMMMMMMMMMMMMMMMMMMMMMMMMMM",
"MMMMMMMMMMMMMMMMMMMMMMMMMMMMMMMMMMMMMMMMMMMMMMMMMMMMMMMMMMMMMMMMMMMMMMMMMMMMMMMMMMMMMMMMMMMMMMMMMMMMMMMMMMMMMMMMMMMMMMMMMMMMMMMM",
"MMMMMMMMMMMMMMMMMMMMMMMMMMMMMMMMMMMMMMMMMMMMMMMMMMMMMMMMMMMMMMMMMMMMMMMMMMMMMMMMMMMMMMMMMMMMMMMMMMMMMMMMMMMMMMMMMMMMMMMMMMMMMMMM",
"MMMMMMMMMMMMMMMMMMMMMMMMMMMMMMMMMMMMMMMMMMMMMMMMMMMMMMMMMMMMMMMMMMMMMMMMMMMMMMMMMMMMMMMMMMMMMMMMMMMMMMMMMMMMMMMMMMMMMMMMMMMMMMMM",
"MMMMMMMMMMMMMMMMMMMMMMMMMMMMMMMMMMMMMMMMMMMMMMMMMMMMMMMMMMMMMMMMMMMMMMMMMMMMMMMMMMMMMMMMMMMMMMMMMMMMMMMMMMMMMMMMMMMMMMMMMMMMMMMM",
"MMMMMMMMMMMMMMMMMMMMMMMMMMMMMMMMMMMMMMMMMMMMMMMMMMMMMMMMMMMMMMMMMMMMMMMMMMMMMMMMMMMMMMMMMMMMMMMMMMMMMMMMMMMMMMMMMMMMMMMMMMMMMMMM",
"MMMMMMMMMMMMMMMMMMMMMMMMMMMMMMMMMMMMMMMMMMMMMMMMMMMMMMMMMMMMMMMMMMMMMMMMMMMMMMMMMMMMMMMMMMMMMMMMMMMMMMMMMMMMMMMMMMMMMMMMMMMMMMMM",
"MMMMMMMMMMMMMMMMMMMMMMMMMMMMMMMMMMMMMMMMMMMMMMMMMMMMMMMMMMMMMMMMMMMMMMMMMMMMMMMMMMMMMMMMMMMMMMMMMMMMMMMMMMMMMMMMMMMMMMMMMMMMMMMM",
"MMMMMMMMMMMMmmmmmmmmmmmmmmmmmmmmmmmmmmmmmmmmmmmmmmmmmmmmmmmmmmmmmmmmmmmmmmmmmmmmmmmmmmmmmmmmmmmmmmmmmmmmmmmmmmmmmmmMMMMMMMMMMMMM",
"MMMMMMMMMMmmmmmmmmmmmmmmmmmmmmmmmmmmmmmmmmmmmmmmmmmmmmmmmmmmmmmmmmmmmmmmmmmmmmmmmmmmmmmmmmmmmmmmmmmmmmmmmmmmmmmmmmmmmMMMMMMMMMMM",
"MMMMMMMMMmmmmmmmmmmmmmmmmmmmmmmmmmmmmmmmmmmmmmmmmmmmmmmmmmmmmmmmmmmmmmmmmmmmmmmmmmmmmmmmmmmmmmmmmmmmmmmmmmmmmmmmmmmmmmMMMMMMMMMM",
"MMMMMMMMkmmmmmmmmmmmmmmmmmmmmmmmmmmmmmmmmmmmmmmmmmmmmmmmmmmmmmmmmmmmmmmmmmmmmmmmmmmmmmmmmmmmmmnnmmmmmmmmmmmmmmnmmmmmmmmMMMMMMMMM",
"MMMMMMMMznmmmvmnmmnnmnnmmmmmmmmmmmxmmvxnmnnnmmmnmmmmmmmnmnmmnmnnmmmmmmnmmnnmmnmmmmmmvnmvnmxmzxnnmmnnnnnnnnnnnnnnnnnnnnnlMMMMMMMM",
"MMMMMMMMnnnnnnnnnnnnzzmvmmmmmmmbzmznnzzzzmnvznnzmmmmmnmnnnzxvzzzmmmmnnznzzzxxnzxmmmmzzzvzvzzzzzzmmzzzzzzzxzzzzxnzzzznlvlMMMMMMMM",
"MMMMMMMpnnlzzzzzzzzzzzzzmmmmzlzznvzzzzzlzzzzzzzlmmmmzzzzzzzzzlzlmmmmxzzzxxzzzlzzccmmzzlzlzzzzzlzmzzzlzzzllzzzzzllzvzzzllMMMMMMMM",
"MMMMMMMtllzzzzlllzlzlzzlmmmmllllkllllllllllkllllmmmmlklllkllllllmmmmkllzlklllklllzmmlkllllkllkllzzlklklllllzllllllllllllMMMMMMMM",
"MMMMMMMelzlllllllllldw,=****&***********&************************************************&**************-<efllllllllllllMMMMMMMM",
"MMMMMMMwklllllllllk<O                                                                                      #qlllllllllklMMMMMMMM",
"MMMMMMMqllllllllllq                                                                                         oilllllkllllMMMMMMMM",
"MMMMMMM9lkllkllklh&MMMMMMMMMMMMMMMMMMMMMMMMMMMMMMMMMMMMMMMMMMMMMMMMMMMMMMMMMMMMMMMMMMMMMMMMMMMMMMMMMMMMMMMM  :klkkllkllnMMMMMMMM",
"MMMMMMM9lklkllkllh#MMMMMMMMMMMMMMMMMMMMMMMMMMMMMMMMMMMMMMMMMMMMMMMMMMMMMMMMMMMMMMMMMMMMMMMMMMMMMMMMMMMMMMMMM =lklklkllklMMMMMMMM",
"MMMMMMM5kllklkklkhMMMMMMMMMMMMMMMMMMMMMMMMMMMMMMMMMMMMMMMMMMMMMMMMMMMMMMMMMMMMMMMMMMMMMMMMMMMMMMMMMMMMMMMMMMM-kkklklklkkMMMMMMMM",
"MMMMMMM5kklllkkllhMMMMMMMMMMMMMMMMMMMMMMMMMMMMMMMMMMMMMMMMMMMMMMMMMMMMMMMMMMMMMMMMMMMMMMMMMMMMMMMMMMMMMMMMMMM-klklklkkkkMMMMMMMM",
"MMMMMMM5klkkklkkkkMMMMMMMMMMMMMMMMMMMMMMMMMMMMMMMMMMMMMMMMMMMMMMMMMMMMMMMMMMMMMMMMMMMMMMMMMMMMMMMMMMMMMMMMMMM;kkkkkklkkkMMMMMMMM",
"MMMMMMM5kkkkkklkkkMMMMMMMMMMMMMMMMMMMMMMMMMMMMMMMMMMMMMMMMMMMMMMMMMMMMMMMMMMMMMMMMMMMMMMMMMMMMMMMMMMMMMMMMMMM;kkkkkkkkkkMMMMMMMM",
"MMMMMMM5kkkkkkkkkhMMMMMMMMMMMMMMMMMMMMMMMMMMMMMMMMMMMMMMMMMMMMMMMMMMMMMMMMMMMMMMMMMMMMMMMMMMMMMMMMMMMMMMMMMMM;kkkkkkkkkkMMMMMMMM",
"MMMMMMM5kkkkkkkkkhMMMMMMMMhjkkkhMMMMMMMMMMMMMMMMMMMMMMMMMMMMMMMMMMMMMMMMMMMMMMMMMMMMMMMMMMMMMMMMMMMMMMMMMMMMM:kkkkkkkkhhMMMMMMMM",
"MMMMMMM5kkkkkkkkkhMMMMMMMMhkkkkkkkkMMMMMMMMMMMMMMMMMMMMMMMMMMMMMMMMMMMMMMMMMMMMMMMMMMMMMMMMMMMMMMMMMMMMMMMMMM:hkkkkhkkjhMMMMMMMM",
"MMMMMMM5kkkjkjkjjhMMMMMMMMhjjkkjkkjkjhMMMMMMMMMMMMMMMMMMMMMMMMMMMMMMMMMMMMMMMMMMMMMMMMMMMMMMMMMMMMMMMMMMMMMMM:hhkjjjjhhhMMMMMMMM",
"MMMMMMM<hhjjhhjjhgMMMMMMMMgkhjjjhjjjhjjhhMMMMMMMMMMMMMMMMMMMMMMMMMMMMMMMMMMMMMMMMMMMMMMMMMMMMMMMMMMMMMMMMMMMM;hhhjjjhhhgMMMMMMMM",
"MMMMMMM5hhghhhhhhgMMMMMMMMfjhhhghhhghhjjhghgMMMMMMMMMMMMMMMMMMMMMMMMMMMMMMMMMMMMMMMMMMMMMMMMMMMMMMMMMMMMMMMMM;gghghgghggMMMMMMMM",
"MMMMMMM1hhhggghhhgMMMMMMMMahghhhhghghhjghhghhhgMMMMMMMMMMMMMMMMMMMMMMMMMMMMMMMMMMMMMMMMMMMMMMMMMMMMMMMMMMMMMM;gghggjgghgMMMMMMMM",
"MMMMMMM1gggggjghhgMMMMMMMM=pfhgggggjggghghggghggggMMMMMMMMMMMMMMMMMMMMMMMMMMMMMMMMMMMMMMMMMMMMMMMMMMMMMMMMMMM;ggggggggggMMMMMMMM",
"MMMMMMM<ggggggggggMMMMMMMMMo%<yfgggggggggggggggggggggMMMMMMMMMMMMMMMMMMMMMMMMMMMMMMMMMMMMMMMMMMMMMMMMMMMMMMMM;gggggggggfMMMMMMMM",
"MMMMMMM<gggggggghfMMMMMMMMMM  .#-edfgggggggggggggggggggMMMMMMMMMMMMMMMMMMMMMMMMMMMMMMMMMMMMMMMMMMMMMMMMMMMMMM;gggfggggggMMMMMMMM",
"MMMMMMM,ggggfggggfMMMMMMMMMMM    .@*5pffggggfggggfgggfggMMMMMMMMMMMMMMMMMMMMMMMMMMMMMMMMMMMMMMMMMMMMMMMMMMMMM;fggggfgfgfMMMMMMMM",
"MMMMMMM<gfgggfgggfMMMMMMMMMMMMM      o%,tfgggggfgggfgggfMMMMMMMMMMMMMMMMMMMMMMMMMMMMMMMMMMMMMMMMMMMMMMMMMMMMM;gffgfgfgffMMMMMMMM",
"MMMMMMM<fgfgfgfgffMMMMMMMMMMMMMMMMM     X#9fgfgfgfgfgfgfMMMMMMMMMMMMMMMMMMMMMMMMMMMMMMMMMMMMMMMMMMMMMMMMMMMMM;fggfgfgfgfMMMMMMMM",
"MMMMMMM,fgfgggffgfMMMMMMMMMMMMMMMMMMMM    &dffggffgggfffMMMMMMMMMMMMMMMMMMMMMMMMMMMMMMMMMMMMMMMMMMMMMMMMMMMMM;fffffffgffMMMMMMMM",
"MMMMMMM,fgfffffgffMMMMMMMMMMMMMMMMMMMMMMO*egfgfffgfffffgMMMMMMMMMMMMMMMMMMMMMMMMMMMMMMMMMMMMMMMMMMMMMMMMMMMMM-ffgfgffgffMMMMMMMM",
"MMMMMMM<ffffffffffMMMMMMMMMMMMMMMMMMMM>epfffgffffgffffffMMMMMMMMMMMMMMMMMMMMMMMMMMMMMMMMMMMMMMMMMMMMMMMMMMMMM-ffffffffffMMMMMMMM",
"MMMMMMM,ffffffffffMMMMMMMMMMMMMMMMMradfffffffffffffffgfdMMMMMMMMMMMMMMMMMMMMMMMMMMMMMMMMMMMMMMMMMMMMMMMMMMMMM-ffffffffffMMMMMMMM",
"MMMMMMM,dfffffffffMMMMMMMMMMMMMMddffffffffffffffffffffsqMMMMMMMMMMMMMMMMMMMMMMMMMMMMMMMMMMMMMMMMMMMMMMMMMMMMM-dfffffffffMMMMMMMM",
"MMMMMMM>fffffffffdMMMMMMMMMMMddffffdffffffdfffffffdpw;MMMMMMMMMMMMMMMMMMMMMMMMMMMMMMMMMMMMMMMMMMMMMMMMMMMMMMM-ffdfdfdfddMMMMMMMM",
"MMMMMMM:ffdfffdffdMMMMMMMMMfffdffdffdfffdfdfffddpq*+.MMMMMMMMMMMMMMMMMMMMMMMMMMMMMMMMMMMMMMMMMMMMMMMMMMMMMMMM-dffdfddfdfMMMMMMMM",
"MMMMMMM:dffddffdddMMMMMMMMdffdfddffdffdffddfdi5&+  MMMMMMMMMMMMMMMMMMMMMMMMMMMMMMMMMMMMMMMMMMMMMMMMMMMMMMMMMM-dfdfdffdfdMMMMMMMM",
"MMMMMMM:dfdffddffdMMMMMMMMdddfdfdfddfdfdddi5*o   MMMMMMMMMMMMMMMMMMMMMMMMMMMMMMMMMMMMMMMMMMMMMMMMMMMMMMMMMMMM-ddddfdddddMMMMMMMM",
"MMMMMMM:dddddfddddMMMMMMMMdddfdddddfddsy<%o   MMMMMMMMMMMMMMMMMMMMMMMMMMMMMMMMMMMMMMMMMMMMMMMMMMMMMMMMMMMMMMM=ddfdddddddMMMMMMMM",
"MMMMMMM:ddddddddddMMMMMMMMsddddddddsr,&o   MMMMMMMMMMMMMMMMMMMMMMMMMMMMMMMMMMMMMMMMMMMMMMMMMMMMMMMMMMMMMMMMMM=dddddddddsMMMMMMMM",
"MMMMMMM:dddddddddsMMMMMMMMtdddddst:$X   MMMMMMMMMMMMMMMMMMMMMMMMMMMMMMMMMMMMMMMMMMMMMMMMMMMMMMMMMMMMMMMMMMMMM=sddddsdddsMMMMMMMM",
"MMMMMMM;dddddsdddsMMMMMMMM*rspe;$o   MMMMMMMMMMMMMMMMMMMMMMMMMMMMMMMMMMMMMMMMMMMMMMMMMMMMMMMMMMMMMMMMMMMMMMMM-dddddsdsdsMMMMMMMM",
"MMMMMMM:ddssddsdsaMMMMMMMMMO@@X   MMMMMMMMMMMMMMMMMMMMMMMMMMMMMMMMMMMMMMMMMMMMMMMMMMMMMMMMMMMMMMMMMMMMMMMMMMM=asssdssdssMMMMMMMM",
"MMMMMMM;daddssssdaMMMMMMMMMMM MMMMMMMMMMMMMMMMMMMMMMMMMMMMMMMMMMMMMMMMMMMMMMMMMMMMMMMMMMMMMMMMMMMMMMMMMMMMMMM=assdssadaaMMMMMMMM",
"MMMMMMM:adaassssssMMMMMMMMMMMMMMMMMMMMMMMMMMMMMMMMMMMMMMMMMMMMMMMMMMMMMMMMMMMMMMMMMMMMMMMMMMMMMMMMMMMMMMMMMMM=sasssadadaMMMMMMMM",
"MMMMMMM;adadddssspMMMMMMMMMMMMMMMMMMMMMMMMMMMMMMMMMMMMMMMMMMMMMMMMMMMMMMMMMMMMMMMMMMMMMMMMMMMMMMMMMMMMMMMMMMM=ssdaadadaaMMMMMMMM",
"MMMMMMM:aadaaasaaaMMMMMMMMMMMMMMMMMMMMMMMMMMMMMMMMMMMMMMMMMMMMMMMMMMMMMMMMMMMMMMMMMMMMMMMMMMMMMMMMMMMMMMMMMMM=asaaaaaaaaMMMMMMMM",
"MMMMMMM;aaadaaassaMMMMMMMMMMMMMMMMMMMMMMMMMMMMMMMMMMMMMMMMMMMMMMMMMMMMMMMMMMMMMMMMMMMMMMMMMMMMMMMMMMMMMMMMMMM=aaaaaaaaaaMMMMMMMM",
"MMMMMMM;aaaaaaaaapMMMMMMMMMMMMMMMMMMMMMMMMMMMMMMMMMMMMMMMMMMMMMMMMMMMMMMMMMMMMMMMMMMMMMMMMMMMMMMMMMMMMMMMMMMM=aaaaaaaaaaMMMMMMMM",
"MMMMMMM-aaaaaaaaspMMMMMMMMMMMMMMMMMMMMMMMMMMMMMMMMMMMMMMMMMMMMMMMMMMMMMMMMMMMMMMMMMMMMMMMMMMMMMMMMMMMMMMMMMMM=paapaaaappMMMMMMMM",
"MMMMMMM-aiaapaapppMMMMMMMMMMMMMMMMMMMMMMMMMMMMMMMMMMMMMMMMMMMMMMMMMMMMMMMMMMMMMMMMMMMMMMMMMMMMMMMMMMMMMMMMMMM*pppapppaapMMMMMMMM",
"MMMMMMM;apaaiaaaaiMMMMMMMMMMMMMMMMMMMMMMMMMMMMMMMMMMMMMMMMMMMMMMMMMMMMMMMMMMMMMMMMMMMMMMMMMMMMMMMMMMMMMMMMMMM=ppiapapapaMMMMMMMM",
"MMMMMMM;iaiaappaipMMMMMMMMMMMMMMMMMMMMMMMMMMMMMMMMMMMMMMMMMMMMMMMMMMMMMMMMMMMMMMMMMMMMMMMMMMMMMMMMMMMMMMMMMMM*ppappppppiMMMMMMMM",
"MMMMMMM-ppppiaiiaiMMMMMMMMMMMMMMMMMMMMMMMMMMMMMMMMMMMMMMMMMMMMMMMMMMMMMMMMMMMMMMMMMMMMMMMMMMMMMMMMMMMMMMMMMMM=ipiippppiiMMMMMMMM",
"MMMMMMM-ipppipiaiiMMMMMMMMMMMMMMMMMMMMMMMMMMMMMMMMMMMMMMMMMMMMMMMMMMMMMMMMMMMMMMMMMMMMMMMMMMMMMMMMMMMMMMMMMMM*iiiiipiiiiMMMMMMMM",
"MMMMMMM-iipiipiipyMMMMMMMMMMMMMMMMMMMMMMMMMMMMMMMMMMMMMMMMMMMMMMMMMMMMMMMMMMMMMMMMMMMMMMMMMMMMMMMMMMMMMMMMMMM=iiiiiiiiiyMMMMMMMM",
"MMMMMMM=iiiiiiiiiiMMMMMMMMMMMMMMMMMMMMMMMMMMMMMMMMMMMMMMMMMMMMMMMMMMMMMMMMMMMMMMMMMMMMMMMMMMMMMMMMMMMMMMMMMMM*uiiiiiiiiiMMMMMMMM",
"MMMMMMM-iiiiiiiiitMMMMMMMMMMMMMMMMMMMMMMMMMMMMMMMMMMMMMMMMMMMMMMMMMMMMMMMMMMMMMMMMMMMMMMMMMMMMMMMMMMMMMMMMMMM*iiyiiiiyiiMMMMMMMM",
"MMMMMMM=yiyiyiiiiyMMMMMMMMMMMMMMMMMMMMMMMMMMMMMMMMMMMMMMMMMMMMMMMMMMMMMMMMMMMMMMMMMMMMMMMMMMMMMMMMMMMMMMMMMMM*uiiiyyiyyyMMMMMMMM",
"MMMMMMM-itiitiuyyuMMMMMMMMMMMMMMMMMMMMMMMMMMMMMMMMMMMMMMMMMMMMMMMMMMMMMMMMMMMMMMMMMMMMMMMMMMMMMMMMMMMMMMMMMMM*uuyyyyyyyyMMMMMMMM",
"MMMMMMM=titiiutiitMMMMMMMMMMMMMMMMMMMMMMMMMMMMMMMMMMMMMMMMMMMMMMMMMMMMMMMMMMMMMMMMMMMMMMMMMMMMMMMMMMMMMMMMMMM*tuyyyyuuyyMMMMMMMM",
"MMMMMMM=ytiiuyyuutMMMMMMMMMMMMMMMMMMMMMMMMMMMMMMMMMMMMMMMMMMMMMMMMMMMMMMMMMMMMMMMMMMMMMMMMMMMMMMMMMMMMMMMMMMM*tuyuuyutuuMMMMMMMM",
"MMMMMMM-tittuutuutMMMMMMMMMMMMMMMMMMMMMMMMMMMMMMMMMMMMMMMMMMMMMMMMMMMMMMMMMMMMMMMMMMMMMMMMMMMMMMMMMMMMMMMMMMM*tuttyttuttMMMMMMMM",
"MMMMMMM=tyytttututMMMMMMMMMMMMMMMMMMMMMMMMMMMMMMMMMMMMMMMMMMMMMMMMMMMMrtttttutttttttuttytttttttttttMMMMMMMMMM*ttyttttyttMMMMMMMM",
"MMMMMMM=tttytuyttrMMMMMMMMMMMMMMMMMMMMMMMMMMMMMMMMMMMMMMMMMMMMMMMMMMMMtttttttttttttttttttttttttttttMMMMMMMMMM*rttttttttrMMMMMMMM",
"MMMMMMM=rttttttttrMMMMMMMMMMMMMMMMMMMMMMMMMMMMMMMMMMMMMMMMMMMMMMMMMMM9tttttttrttttttrtttttttttttrttMMMMMMMMMM*etttrttttrMMMMMMMM",
"MMMMMMM=rttrtttrtrMMMMMMMMMMMMMMMMMMMMMMMMMMMMMMMMMMMMMMMMMMMMMMMMMMM5trrtrrtrrtrttrttrtrtrtrtrrttrMMMMMMMMMM&rtrttrrrrrMMMMMMMM",
"MMMMMMM=rtrrtrtrreMMMMMMMMMMMMMMMMMMMMMMMMMMMMMMMMMMMMMMMMMMMMMMMMMMM,rrrrrrrrrrreterrrrrrrtrrrrrrrMMMMMMMMMM&rrrrrrrtreMMMMMMMM",
"MMMMMMM=rrrrettereMMMMMMMMMMMMMMMMMMMMMMMMMMMMMMMMMMMMMMMMMMMMMMMMMMM;rrrrrrrrrerrrtrrrerrrrrrrrrreMMMMMMMMMM*etrrrrereeMMMMMMMM",
"MMMMMMM*errreterreMMMMMMMMMMMMMMMMMMMMMMMMMMMMMMMMMMMMMMMMMMMMMMMMMMM%eerrreerrrerrererrrererererreMMMMMMMMMM&eererrereeMMMMMMMM",
"MMMMMMM=errreereeeMMMMMMMMMMMMMMMMMMMMMMMMMMMMMMMMMMMMMMMMMMMMMMMMMMMM&,2222222222222222222222255<=MMMMMMMMMM&eereeeeeeeMMMMMMMM",
"MMMMMMM=eeeeeeereeMMMMMMMMMMMMMMMMMMMMMMMMMMMMMMMMMMMMMMMMMMMMMMMMMMMMM......X....X.......X....XMMMMMMMMMMMMM&weeeeeeeeeMMMMMMMM",
"MMMMMMM=eeeeeeeeewMMMMMMMMMMMMMMMMMMMMMMMMMMMMMMMMMMMMMMMMMMMMMMMMMMMMMM                       MMMMMMMMMMMMMM&weeeeeeewwMMMMMMMM",
"MMMMMMM=weeeeeeeewMMMMMMMMMMMMMMMMMMMMMMMMMMMMMMMMMMMMMMMMMMMMMMMMMMMMMMMMMMMMMMMMMMMMMMMMMMMMMMMMMMMMMMMMMMM&wewewwewewMMMMMMMM",
"MMMMMMM*wwweweweewMMMMMMMMMMMMMMMMMMMMMMMMMMMMMMMMMMMMMMMMMMMMMMMMMMMMMMMMMMMMMMMMMMMMMMMMMMMMMMMMMMMMMMMMMMM&wwwwewwewwMMMMMMMM",
"MMMMMMM*wwwewwewewMMMMMMMMMMMMMMMMMMMMMMMMMMMMMMMMMMMMMMMMMMMMMMMMMMMMMMMMMMMMMMMMMMMMMMMMMMMMMMMMMMMMMMMMMMM&wwwwwwwwwwMMMMMMMM",
"MMMMMMM*wwwwwwwwwqMMMMMMMMMMMMMMMMMMMMMMMMMMMMMMMMMMMMMMMMMMMMMMMMMMMMMMMMMMMMMMMMMMMMMMMMMMMMMMMMMMMMMMMMMMM=wwwwwwwwwqMMMMMMMM",
"MMMMMMM=wwwwwwqwww5MMMMMMMMMMMMMMMMMMMMMMMMMMMMMMMMMMMMMMMMMMMMMMMMMMMMMMMMMMMMMMMMMMMMMMMMMMMMMMMMMMMMMMMMMM<wwqwqwwwwwMMMMMMMM",
"MMMMMMM*qwwqwwwqqww5MMMMMMMMMMMMMMMMMMMMMMMMMMMMMMMMMMMMMMMMMMMMMMMMMMMMMMMMMMMMMMMMMMMMMMMMMMMMMMMMMMMMMMMM,ww9wwqqqwqqMMMMMMMM",
"MMMMMMM*qwqwwqqwwqqwqqqqqqqqqqqq9qq999qqqq9qqqqqqqqqqqqqqqqqqqqqqqqqqqqqqq9qq9qqqqqqq79qqq9q9qqqqqqqq99q9059qqqwqqwqqqqqMMMMMMMM",
"MMMMMMM*qwwqqwqwwqwqqqqqqwqqwqqqqwwqwwqqqqqwqqqqqqqqwqqqqqqqwqqqqqwqqqqqqqqqqqqqqqqqqqqqqqqqqqqqqqqqqw9wqqqqqwqqqqqqwqqqMMMMMMMM",
"MMMMMMM*qqqqqqqqqqqqqqwqqqqwqqqqqqqq9qqqqqqqqqqqqwqqqqqqqqqq9qqqqq9qqqqqqqqqqqq9qqqqqqqqqqqqqqqqqqqqqqqqqqqqqqqqqqqqqqq8MMMMMMMM",
"MMMMMMM%9qqqqqqqqqqqqqqqqqqqqqqqqq9qqqq7q9qqq9q9900q0qq09q7q9q990qq9qq97q9qqq9q70qq9qq97q9qqqq999q0qq9q99qq9q999qqq88q88MMMMMMMM",
"MMMMMMMM207999qq9q99q9998qq8qqq8999qqq779777q9999999999779999997077779999999997700777777999779799779999779999999998899q,MMMMMMMM",
"MMMMMMMM&5q999999q99999988888588679970757505099900009500750965000005050757900005000505500900005500009500050765700555083MMMMMMMMM",
"MMMMMMMM.*500595707577858855q55505575505555500555505555555055555555555555555055555555555555555555505555555055555555583*MMMMMMMMM",
"MMMMMMMMM %:55555050555585585555555555555555555555555555555555555555555555555555555555555555555555555555555555555555;$MMMMMMMMMM",
"MMMMMMMMMM o%=:::,::::,:::,,:::::::::>::::,::::::::::,::::::::,:::,:::::::::::,:::>:::::::::::,::::::,::::::::,::;=$oMMMMMMMMMMM",
"MMMMMMMMMMM   XXXXXXXXXXXXXXXXXXXXXXXXXXXXXXXXXXXXXXXXXXXXXXXXXXXXXXXXXXXXXXXXXXXXXXXXXXXXXXXXXXXXXXXXXXXXXXXXXXXX MMMMMMMMMMMMM",
"MMMMMMMMMMMM                                                                                                     MMMMMMMMMMMMMMM",
"MMMMMMMMMMMMMMMMMMMMMMMMMMMMMMMMMMMMMMMMMMMMMMMMMMMMMMMMMMMMMMMMMMMMMMMMMMMMMMMMMMMMMMMMMMMMMMMMMMMMMMMMMMMMMMMMMMMMMMMMMMMMMMMM",
"MMMMMMMMMMMMMMMMMMMMMMMMMMMMMMMMMMMMMMMMMMMMMMMMMMMMMMMMMMMMMMMMMMMMMMMMMMMMMMMMMMMMMMMMMMMMMMMMMMMMMMMMMMMMMMMMMMMMMMMMMMMMMMMM",
"MMMMMMMMMMMMMMMMMMMMMMMMMMMMMMMMMMMMMMMMMMMMMMMMMMMMMMMMMMMMMMMMMMMMMMMMMMMMMMMMMMMMMMMMMMMMMMMMMMMMMMMMMMMMMMMMMMMMMMMMMMMMMMMM",
"MMMMMMMMMMMMMMMMMMMMMMMMMMMMMMMMMMMMMMMMMMMMMMMMMMMMMMMMMMMMMMMMMMMMMMMMMMMMMMMMMMMMMMMMMMMMMMMMMMMMMMMMMMMMMMMMMMMMMMMMMMMMMMMM",
"MMMMMMMMMMMMMMMMMMMMMMMMMMMMMMMMMMMMMMMMMMMMMMMMMMMMMMMMMMMMMMMMMMMMMMMMMMMMMMMMMMMMMMMMMMMMMMMMMMMMMMMMMMMMMMMMMMMMMMMMMMMMMMMM",
"MMMMMMMMMMMMMMMMMMMMMMMMMMMMMMMMMMMMMMMMMMMMMMMMMMMMMMMMMMMMMMMMMMMMMMMMMMMMMMMMMMMMMMMMMMMMMMMMMMMMMMMMMMMMMMMMMMMMMMMMMMMMMMMM",
"MMMMMMMMMMMMMMMMMMMMMMMMMMMMMMMMMMMMMMMMMMMMMMMMMMMMMMMMMMMMMMMMMMMMMMMMMMMMMMMMMMMMMMMMMMMMMMMMMMMMMMMMMMMMMMMMMMMMMMMMMMMMMMMM",
"MMMMMMMMMMMMMMMMMMMMMMMMMMMMMMMMMMMMMMMMMMMMMMMMMMMMMMMMMMMMMMMMMMMMMMMMMMMMMMMMMMMMMMMMMMMMMMMMMMMMMMMMMMMMMMMMMMMMMMMMMMMMMMMM",
"MMMMMMMMMMMMMMMMMMMMMMMMMMMMMMMMMMMMMMMMMMMMMMMMMMMMMMMMMMMMMMMMMMMMMMMMMMMMMMMMMMMMMMMMMMMMMMMMMMMMMMMMMMMMMMMMMMMMMMMMMMMMMMMM",
"MMMMMMMMMMMMMMMMMMMMMMMMMMMMMMMMMMMMMMMMMMMMMMMMMMMMMMMMMMMMMMMMMMMMMMMMMMMMMMMMMMMMMMMMMMMMMMMMMMMMMMMMMMMMMMMMMMMMMMMMMMMMMMMM",
"MMMMMMMMMMMMMMMMMMMMMMMMMMMMMMMMMMMMMMMMMMMMMMMMMMMMMMMMMMMMMMMMMMMMMMMMMMMMMMMMMMMMMMMMMMMMMMMMMMMMMMMMMMMMMMMMMMMMMMMMMMMMMMMM",
"MMMMMMMMMMMMMMMMMMMMMMMMMMMMMMMMMMMMMMMMMMMMMMMMMMMMMMMMMMMMMMMMMMMMMMMMMMMMMMMMMMMMMMMMMMMMMMMMMMMMMMMMMMMMMMMMMMMMMMMMMMMMMMMM",
"MMMMMMMMMMMMMMMMMMMMMMMMMMMMMMMMMMMMMMMMMMMMMMMMMMMMMMMMMMMMMMMMMMMMMMMMMMMMMMMMMMMMMMMMMMMMMMMMMMMMMMMMMMMMMMMMMMMMMMMMMMMMMMMM",
"MMMMMMMMMMMMMMMMMMMMMMMMMMMMMMMMMMMMMMMMMMMMMMMMMMMMMMMMMMMMMMMMMMMMMMMMMMMMMMMMMMMMMMMMMMMMMMMMMMMMMMMMMMMMMMMMMMMMMMMMMMMMMMMM",
"MMMMMMMMMMMMMMMMMMMMMMMMMMMMMMMMMMMMMMMMMMMMMMMMMMMMMMMMMMMMMMMMMMMMMMMMMMMMMMMMMMMMMMMMMMMMMMMMMMMMMMMMMMMMMMMMMMMMMMMMMMMMMMMM",
"MMMMMMMMMMMMMMMMMMMMMMMMMMMMMMMMMMMMMMMMMMMMMMMMMMMMMMMMMMMMMMMMMMMMMMMMMMMMMMMMMMMMMMMMMMMMMMMMMMMMMMMMMMMMMMMMMMMMMMMMMMMMMMMM",
"MMMMMMMMMMMMMMMMMMMMMMMMMMMMMMMMMMMMMMMMMMMMMMMMMMMMMMMMMMMMMMMMMMMMMMMMMMMMMMMMMMMMMMMMMMMMMMMMMMMMMMMMMMMMMMMMMMMMMMMMMMMMMMMM"
};
