/* XPM */
static char *uextras[] = {
/* columns rows colors chars-per-pixel */
"128 128 81 1",
"  c #000000",
". c #0F0F0F",
"X c #141414",
"o c #1D1D1D",
"O c #262626",
"+ c #292929",
"@ c #333333",
"# c #3C3C3C",
"$ c #434343",
"% c #4B4B4B",
"& c #4F514F",
"* c #545454",
"= c #5B5B5B",
"- c #605F5F",
"; c #636363",
": c #676768",
"> c #686668",
", c #6D6C6C",
"< c #737473",
"1 c #787877",
"2 c #7C7C7C",
"3 c #7E807E",
"4 c #848484",
"5 c #888788",
"6 c #878888",
"7 c #8C8C8C",
"8 c #8F8F90",
"9 c #908F90",
"0 c #8F9090",
"q c #939393",
"w c #989797",
"e c #979897",
"r c #989897",
"t c #979798",
"y c #989798",
"u c #979898",
"i c #9C9C9C",
"p c #A09F9F",
"a c #9FA09F",
"s c #A0A09F",
"d c #9F9FA0",
"f c #A09FA0",
"g c #9FA0A0",
"h c #A4A4A4",
"j c #A8A8A7",
"k c #ABABAB",
"l c #B0AFAF",
"z c #AFB0AF",
"x c #B0B0AF",
"c c #AFAFB0",
"v c #B0AFB0",
"b c #AFB0B0",
"n c #B4B4B4",
"m c #B8B7B7",
"M c #B7B8B7",
"N c #B8B8B7",
"B c #B8B7B8",
"V c #BCBCBC",
"C c #C0BEBE",
"Z c #BFC0BF",
"A c #C0C0BF",
"S c #C0BFC0",
"D c #BFC0C0",
"F c #C4C3C4",
"G c #C8C7C7",
"H c #C7C8C7",
"J c #C8C8C7",
"K c #C7C7C8",
"L c #C8C7C8",
"P c #C7C8C8",
"I c #CBCBCB",
"U c #D0CFCF",
"Y c #CFD0CF",
"T c #D0CFD0",
"R c #D4D4D4",
"E c #D7D8D7",
"W c #D8D8D7",
"Q c #D8D7D8",
"! c #D7D8D8",
"~ c #DADADA",
"^ c None",
/* pixels */
"^^^^^^^^^^^^^^^^^^^^^^^^^^^^^^^^^^^^^^^^^^^^^^^^^^^^^^^^^^^^^^^^^^^^^^^^^^^^^^^^^^^^^^^^^^^^^^^^^^^^^^^^^^^^^^^^^^^^^^^^^^^^^^^^",
"^^^^^^^^^^^^^^^^^^^^^^^^^^^^^^^^^^^^^^^^^^^^^^^^^^^^^^^^^^^^^^^^^^^^^^^^^^^^^^^^^^^^^^^^^^^^^^^^^^^^^^^^^^^^^^^^^^^^^^^^^^^^^^^^",
"^^^^^^^^^^^^^^^^^^^^^^^^^^^^^^^^^^^^^^^^^^^^^^^^^^^^^^^^^^^^^^^^^^^^^^^^^^^^^^^^^^^^^^^^^^^^^^^^^^^^^^^^^^^^^^^^^^^^^^^^^^^^^^^^",
"^^^^^^^^^^^^^^^^^^^^^^^^^^^^^^^^^^^^^^^^^^^^^^^^^^^^^^^^^^^^^^^^^^^^^^^^^^^^^^^^^^^^^^^^^^^^^^^^^^^^^^^^^^^^^^^^^^^^^^^^^^^^^^^^",
"^^^^^^^^^^^^^^^^^^^^^^^^^^^^^^^^^^^^^^^^^^^^^^^^^^^^^^^^^^^^^^^^^^^^^^^^^^^^^^^^^^^^^^^^^^^^^^^^^^^^^^^^^^^^^^^^^^^^^^^^^^^^^^^^",
"^^^^^^^^^^^^^^^^^^^^^^^^^^^^^^^^^^^^^^^^^^^^^^^^^^^^^^^^^^^^^^^^^^^^^^^^^^^^^^^^^^^^^^^^^^^^^^^^^^^^^^^^^^^^^^^^^^^^^^^^^^^^^^^^",
"^^^^^^^^^^^^^^^^^^^^^^^^^^^^^^^^^^^^^^^^^^^^^^^^^^^^^^^^^^^^^^^^^^^^^^^^^^^^^^^^^^^^^^^^^^^^^^^^^^^^^^^^^^^^^^^^^^^^^^^^^^^^^^^^",
"^^^^^^^^^^^^^^^^^^^^^^^^^^^^^^^^^^^^^^^^^^^^^^^^^^^^^^^^^^^^^^^^^^^^^^^^^^^^^^^^^^^^^^^^^^^^^^^^^^^^^^^^^^^^^^^^^^^^^^^^^^^^^^^^",
"^^^^^^^^^^^^^^^^^^^^^^^^^^^^^^^^^^^^^^^^^^^^^^^^^^^^^^^^^^^^^^^^^^^^^^^^^^^^^^^^^^^^^^^^^^^^^^^^^^^^^^^^^^^^^^^^^^^^^^^^^^^^^^^^",
"^^^^^^^^^^^^^^^^^^^^^^^^^^^^^^^^^^^^^^^^^^^^^^^^^^^^^^^^^^^^^^^^^^^^^^^^^^^^^^^^^^^^^^^^^^^^^^^^^^^^^^^^^^^^^^^^^^^^^^^^^^^^^^^^",
"^^^^^^^^^^^^^^^^^^^^^^^^^^^^^^^^^^^^^^^^^^^^^^^^^^^^^^^^^^^^^^^^^^^^^^^^^^^^^^^^^^^^^^^^^^^^^^^^^^^^^^^^^^^^^^^^^^^^^^^^^^^^^^^^",
"^^^^^^^^^^^^^^^^^^^^^^^^^^^^^^^^^^^^^^^^^^^^^^^^^^^^^^^^^^^^^^^^^^^^^^^^^^^^^^^^^^^^^^^^^^^^^^^^^^^^^^^^^^^^^^^^^^^^^^^^^^^^^^^^",
"^^^^^^^^^^^^^^^^^^^^^^^^^^^^^^^^^^^^^^^^^^^^^^^^^^^^^^^^^^^^^^^^^^^^^^^^^^^^^^^^^^^^^^^^^^^^^^^^^^^^^^^^^^^^^^^^^^^^^^^^^^^^^^^^",
"^^^^^^^^^^^^^^^^^^^^^^^^^^^^^^^^^^^^^^^^^^^^^^^^^^^^^^^^^^^^^^^^^^^^^^^^^^^^^^^^^^^^^^^^^^^^^^^^^^^^^^^^^^^^^^^^^^^^^^^^^^^^^^^^",
"^^^^^^^^^^^^^^^^^^^^^^^^~~~~~~~~~~~~~~~E^^^^^^^^^^^^^^^^^^^^^^^^^^^^^^^^^^^^^^^^^E~~~~~~~~~~~~~~~^^^^^^^^^^^^^^^^^^^^^^^^^^^^^^^",
"^^^^^^^^^^^^^^^^^^^^^^^^~~~~~~~~~~~~~~~~^^^^^^^^^^^^^^^^^^^^^^^^^^^^^^^^^^^^^^^^^~~~~~~~~~~~~~~~~^^^^^^^^^^^^^^^^^^^^^^^^^^^^^^^",
"^^^^^^^^^^^^^^^^^^^^^^^^~~~~~~Q~~~!~~~Q~^^^^^^^^^^^^^^^^^^^^^^^^^^^^^^^^^^^^^^^^^~~~~W~~~~~~~Q~~~^^^^^^^^^^^^^^^^^^^^^^^^^^^^^^^",
"^^^^^^^^^^^^^^^^^^^^^^^^~~QQQ~~Q~~E~!~QE^^^^^^^^^^^^^^^^^^^^^^^^^^^^^^^^^^^^^^^^^QQ~~QEWQQ!!~QWQ~^^^^^^^^^^^^^^^^^^^^^^^^^^^^^^^",
"^^^^^^^^^^^^^^^^^^^^^^^^~EQQQQQQQQQQ!!QE^^^^^^^^^^^^^^^^^^^^^^^^^^^^^^^^^^^^^^^^^QQQQQWWQQQQQQQE!^^^^^^^^^^^^^^^^^^^^^^^^^^^^^^^",
"^^^^^^^^^^^^^^^^^^^^^^^^EEEEEEE!!!QQEEEE^^^^^^^^^^^^^^^^^^^^^^^^^^^^^^^^^^^^^^^^^QEEEEEEEE!QEEEEE^^^^^^^^^^^^^^^^^^^^^^^^^^^^^^^",
"^^^^^^^^^^^^^^^^^^^^^^^^REREERER!R!QERER^^^^^^^^^^^^^^^^^^^^^^^^^^^^^^^^^^^^^^^^^EEREERER!EQE!!!E^^^^^^^^^^^^^^^^^^^^^^^^^^^^^^^",
"^^^^^^^^^^^^^^^^^^^^^^^^RQRQRER!R!RRRERR^^^^^^^^^^^^^^^^^^^^^^^^^^^^^^^^^^^^^^^^^RRERERR!RRRRRRRR^^^^^^^^^^^^^^^^^^^^^^^^^^^^^^^",
"^^^^^^^^^^^^^^^^^^^^^^^^RQRRRRRRRRRRRRRR^^^^^^^^^^^^^^^^^^^^^^^^^^^^^^^^^^^^^^^^^ERRRRRRRRRRRRRRE^^^^^^^^^^^^^^^^^^^^^^^^^^^^^^^",
"^^^^^^^^^^^^^^^^^^^^^^^^RRRRRRRRRRRRRRRR^^^^^^^^^^^^^^^^^^^^^^^^^^^^^^^^^^^^^^^^^RRRRRRRRRRRRRRRR^^^^^^^^^^^^^^^^^^^^^^^^^^^^^^^",
"^^^^^^^^^^^^^^^^^^^^^^^^RRRTRURRRYRRTRRR^^^^^^^^^^^^^^^^^^^^^^^^^^^^^^^^^^^^^^^^^RRRRRTTRRYRYRRRR^^^^^^^^^^^^^^^^^^^^^^^^^^^^^^^",
"^^^^^^^^^^^^^^^^^^^^^^^^RTRRRRRURRRRRTRY^^^^^^^^^^^^^^^^^^^^^^^^^^^^^^^^^^^^^^^^^RRIRRRRTRYRRRTTR^^^^^^^^^^^^^^^^^^^^^^^^^^^^^^^",
"^^^^^^^^^^^^^^^^^^^^^^^^TRTURRYRRYRRIRIR^^^^^^^^^^^^^^^^^^^^^^^^^^^^^^^^^^^^^^^^^RRUIRRITRYRRYTRI^^^^^^^^^^^^^^^^^^^^^^^^^^^^^^^",
"^^^^^^^^^^^^^^^^^^^^^^^^TTURIIRIURIIRTRY^^^^^^^^^^^^^^^^^^^^^^^^^^^^^^^^^^^^^^^^^TRIRIRRIYTTYYTYR^^^^^^^^^^^^^^^^^^^^^^^^^^^^^^^",
"^^^^^^^^^^^^^^^^^^^^^^^^IYRIYYTIRIRRUUUU^^^^^^^^^^^^^^^^^^^^^^^^^^^^^^^^^^^^^^^^^IRIYTYTYYYYYYYTI^^^^^^^^^^^^^^^^^^^^^^^^^^^^^^^",
"^^^^^^^^^^^^^^^^^^^^^^^^RYIRITIRIYIIUUUU^^^^^^^^^^^^^^^^^^^^^^^^^^^^^^^^^^^^^^^^^IYIYIIRITITITITR^^^^^^^^^^^^^^^^^^^^^^^^^^^^^^^",
"^^^^^^^^^^^^^^^^^^^^^^^^IIIIITIUYIITII~R^^^^^^^^^^^^^^^^^^^^^^^^^^^^^^^^^^^^^^^^^IIYIRIIIITTITIII^^^^^^^^^^^^^^^^^^^^^^^^^^^^^^^",
"^^^^^^^^^^^^^^^^^^^^^^^^YIIIRIIIUIIIUI~~^^^^^^^^^^^^^^^^^^^^^^^^^^^^^^^^^^^^^^^^^ITIIIIITIIIITITI^^^^^^^^^^^^^^^^^^^^^^^^^^^^^^^",
"^^^^^^^^^^^^^^^^^^^^^^^^IIIIIIIIIIIIIIII^^^^^^^^^^^^^^^^^^^^^^^^^^^^^^^^^^^^^^^^^IIIIIIIIIIIIIIII^^^^^^^^^^^^^^^^^^^^^^^^^^^^^^^",
"^^^^^^^^^^^^^^^^^^^^^^^^IIIIIIIIIIIIIIII^^^^^^^^^^^^^^^^^^^^^^^^^^^^^^^^^^^^^^^^^IIIIIIIIIIIIIIII^^^^^^^^^^^^^^^^^^^^^^^^^^^^^^^",
"^^^^^^^^^^^^^^^^^^^^^^^^IIIIIIHIIIIIIIII^^^^^^^^^^^^^^^^^^^^^^^^^^^^^^^^^^^^^^^^^IIIIFIIIIIIIIIFI^^^^^^^^^^^^^^^^^^^^^^^^^^^^^^^",
"^^^^^^^^^^^^^^^^^^^^^^^^IFIIFIJIIFIKFIGI^^^^^^^^^^^^^^^^^^^^^^^^^^^^^^^^^^^^^^^^^FIFIIJIIFFIKIIGI^^^^^^^^^^^^^^^^^^^^^^^^^^^^^^^",
"^^^^^^^^^^^^^^^^^^^^^^^^FIHHIFIHFIIFIFJF^^^^^^^^^^^^^^^^^^^^^^^^^^^^^^^^^^^^^^^^^FIFIJIIKIPIGIFII^^^^^^^^^^^^^^^^^^^^^^^^^^^^^^^",
"^^^^^^^^^^^^^^^^^^^^^^^^IFIFFIHPIFIFFIIF^^^^^^^^^^^^^^^^^^^^^^^^^^^^^^^^^^^^^^^^^IFIFIFFHFFFGIPKF^^^^^^^^^^^^^^^^^^^^^^^^^^^^^^^",
"^^^^^^^^^^^^^^^^^^^^^^^^FFIIIIFFFIFKJIFI^^^^^^^^^^^^^^^^^^^^^^^^^^^^^^^^^^^^^^^^^IGFGFIJIFIFLFFKH^^^^^^^^^^^^^^^^^^^^^^^^^^^^^^^",
"^^^^^^^^^^^^^^^^^^^^^^^^FIFFFFFIFHFKFKFF^^^^^^^^^^^^^^^^^^^^^^^^^^^^^^^^^^^^^^^^^FFPHFFFFGGFJFJFF^^^^^^^^^^^^^^^^^^^^^^^^^^^^^^^",
"^^^^^^^^^^^^^^^^^^^^^^^^FFFFFFFFFFFFFFFF^^^^^^^^^^^^^^^^^^^^^^^^^^^^^^^^^^^^^^^^^FFFFFFFFFFFFKFFF^^^^^^^^^^^^^^^^^^^^^^^^^^^^^^^",
"^^^^^^^^^^^^^^^^^^^^^^^^FFFFFFFFFFFFFFFF^^^^^^^^^^^~~~~~~~~~~~^^^^^^^^^^^^^^^^^^^FFFFFFFFFFFFFFFF^^^^^^^^^^^^^^^^^^^^^^^^^^^^^^^",
"^^^^^^^^^^^^^^^^^^^^^^^^FFFFFFFFFFFFFFFD^^^^^^^^^^~~~~~~~~~~~~~~~^^^^^^^^^^^^^^^^FFFFFFFFFFFFFFFF^^^^^^^^^^^^^^^^^^^^^^^^^^^^^^^",
"^^^^^^^^^^^^^^^^^^^^^^^^FFFFFFFFFFFFFFFF^^^^^^^^^^~~~~~~~~~~~~~~~~~^^^^^^^^^^^^^^FFFFFFFFFDFFFFFF^^^^^^^^^^^^^^^^^^^^^^^^^^^^^^^",
"^^^^^^^^^^^^^^^^^^^^^^^^FFAFFSFFFZFSZFDF^^^^^^^^^^^3~~~~~~~~~~~~~~~~~^^^^^^^^^^^^FCFFFVFFFDFFFDFF^^^^^^^^^^^^^^^^^^^^^^^^^^^^^^^",
"^^^^^^^^^^^^^^^^^^^^^^^^FAFVSFDVSFFSFFSS^^^^^^^^^^^ ^V~~~~~~Q~~~~~~Q~~^^^^^^^^^^^SDFVFFVDFSSVSSFF^^^^^^^^^^^^^^^^^^^^^^^^^^^^^^^",
"^^^^^^^^^^^^^^^^^^^^^^^^FVCFSSSSVFVFFVFC^^^^^^^^^^^^  ,~~~~~QQEE~!QQE~E^^^^^^^^^^AFVDDAFFVSSFVFVV^^^^^^^^^^^^^^^^^^^^^^^^^^^^^^^",
"^^^^^^^^^^^^^^^^^^^^^^^^VFVVDDDSFCSVVFVV^^^^^^^^^^^^^^.^n~~~!QREEEEEEQ!I^^^^^^^^^VSSVFVVVFVFVSVFD^^^^^^^^^^^^^^^^^^^^^^^^^^^^^^^",
"^^^^^^^^^^^^^^^^^^^^^^^^DVDDVDSSVVAVFVFV^^^^^^^^^^^^^^^^ =!EEEEEEEREEERR^^^^^^^^^VDSDVFVVSVFVDVVV^^^^^^^^^^^^^^^^^^^^^^^^^^^^^^^",
"^^^^^^^^^^^^^^^^^^^^^^^^VDVVVVVSZVVAVVVV^^^^^^^^^^^^^^^^^ ^<RRRRRRRRRRRR^^^^^^^^^VVVDVVVDVVVVVVDV^^^^^^^^^^^^^^^^^^^^^^^^^^^^^^^",
"^^^^^^^^^^^^^^^^^^^^^^^^VVVVVVVVVVVVVVVV^^^^^^^^^^^^^^^^^^^ ,RRRRRRRRRRYF^^^^^^^^VVVVVVVVVVVVVVVV^^^^^^^^^^^^^^^^^^^^^^^^^^^^^^^",
"^^^^^^^^^^^^^^^^^^^^^^^^VVVVVVVVVVVVVVVV^^^^^^^^^^^^^^^^^^^^#RRUTRRTTRRRR^^^^^^^^VVVVVVVVVVVVVVVV^^^^^^^^^^^^^^^^^^^^^^^^^^^^^^^",
"^^^^^^^^^^^^^^^^^^^^^^^^VVVVVVVVVVVVVVVm^^^^RI^^^^^^^^^^^^^^^RRRTYRYYRRRR^^^^^^^^VVVVMVMVVVVNVVVV^^^^^^^^^^^^^^^^^^^^^^^^^^^^^^^",
"^^^^^^^^^^^^^^^^^^^^^^^^BVBVMVBVMMVBVVVB^^^^IRII^^^^^^^^^^^^^IIUTYTRTIIRI^^^^^^^^MVMVVVVVVVBMVMVV^^^^^^^^^^^^^^^^^^^^^^^^^^^^^^^",
"^^^^^^^^^^^^^^^^^^^^^^^^VMVBBVVMVMMVMmBm^^^^IRRII^^^^^^^^^^^kIIUIIYIITIII^^^^^^^^VBMMMMVmVMVNmMVV^^^^^^^^^^^^^^^^^^^^^^^^^^^^^^^",
"^^^^^^^^^^^^^^^^^^^^^^^^BBMMMMMMMMmVMVMm^^^^IITIUII^^^^^^^^^IUIIITITITITI^^^^^^^^MMVBMMMmMmMmVMBM^^^^^^^^^^^^^^^^^^^^^^^^^^^^^^^",
"^^^^^^^^^^^^^^^^^^^^^^^^NmmmmmnMMmmmmnMM^^^^iIIIIIIIF^^^^^^mIIIIIIIIIIIIm^^^^^^^^mmmmmMMMnMMnmmmm^^^^^^^^^^^^^^^^^^^^^^^^^^^^^^^",
"^^^^^^^^^^^^^^^^^^^^^^^^mmnmmmMnBBMnmMMn^^^^^IIIIIIIKI^^^^^IIIIIILIIIIII^^^^^^^^^mmnmnMnMmMnmmnmm^^^^^^^^^^^^^^^^^^^^^^^^^^^^^^^",
"^^^^^^^^^^^^^^^^^^^^^^^^nmmnmnnmmMnnmnnn^^^^^KIKIIIIIKFIFHIFFIKIIFJIFIPF^^^^^^^^^mnmnMnMnMnmnnmnm^^^^^^^^^^^^^^^^^^^^^^^^^^^^^^^",
"^^^^^^^^^^^^^^^^^^^^^^^^mnmnnmnnnnnmnnmn^^^^^^FIFFIFJGIFIIFIIIFJFIIFILII^^^^^^^^^nnnnnMnnnmnMnnnn^^^^^^^^^^^^^^^^^^^^^^^^^^^^^^^",
"^^^^^^^^^^^^^^^^^^^^^^^^nnnnnnnnnnnnnnnn^^^^^^<FLGIFJFFIFLIFLGFILIFFFIFF^^^^^^^^^nnnnnnnnnnnnnnnm^^^^^^^^^^^^^^^^^^^^^^^^^^^^^^^",
"^^^^^^^^^^^^^^^^^^^^^^^^nnnnnnnnnnnnnnnn^^^^^^^FFFFFFPIFFFFKFFKFFFFHFFFk^^^^^^^^^nnnnnnnnnnnnnnnn^^^^^^^^^^^^^^^^^^^^^^^^^^^^^^^",
"^^^^^^^^^^^^^^^^^^^^^^^^bnbnbnnnbnnnnnnn^^^^^^^^FFFFFFFFFFFFFFFFFFFFFFFk^^^^^^^^^nbncnnncnnnnnnnn^^^^^^^^^^^^^^^^^^^^^^^^^^^^^^^",
"^^^^^^^^^^^^^^^^^^^^^^^^bnnznzcbnccccbkn^^^^^^^^^2FFFFFFFFFFFFFFFFFFFFFn^^^^^^^^^knnnkbcnnccnknkn^^^^^^^^^^^^^^^^^^^^^^^^^^^^^^^",
"^^^^^^^^^^^^^^^^^^^^^^^^vvccvcccknknknnn^^^^^^^^^ ;FFFDFFFFFDFFFFFFFFSFS^^^^^^^^^nccnkkncnnknnknk^^^^^^^^^^^^^^^^^^^^^^^^^^^^^^^",
"^^^^^^^^^^^^^^^^^^^^^^^^vkccccccnknbbbkb^^^^^^^^^^ ^VDDAVFVFCFVFFVFVSSDD^^^^^^^^^kcckcnkckknkxnkn^^^^^^^^^^^^^^^^^^^^^^^^^^^^^^^",
"^^^^^^^^^^^^^^^^^^^^^^^^vvkcccccknxlknbk^^^^^^^^^^^ ^;VFVFFVVFFVVFVDSDDD^^^^^^^^^cccnnknxknkxvknk^^^^^^^^^^^^^^^^^^^^^^^^^^^^^^^",
"^^^^^^^^^^^^^^^^^^^^^^^^vkcccccckkknkkkc^^^^^^^^^^^^^ ^7VVVDVVVAVVDVDVVVV^^^^^^^^kkckklkkknkkvkkk^^^^^^^^^^^^^^^^^^^^^^^^^^^^^^^",
"^^^^^^^^^^^^^^^^^^^^^^^^kckcckckknkkkckk^^^^^^^^^^^^^^^ *VVVVVVVVVVVVVVVVV^^^^^^^cccckcklkkknkknk^^^^^^^^^^^^^^^^^^^^^^^^^^^^^^^",
"^^^^^^^^^^^^^^^^^^^^^^^^kkkkkkkkkkkkkkkk^^^^^^^^^^^^^^^^ ^;VVVVVVVVVVVVVVVB^^^^^^jcjkkkkkkkkkkkkk^^^^^^^^^^^^^^^^^^^^^^^^^^^^^^^",
"^^^^^^^^^^^^^^^^^^^^^^^^kkkkjkkkkkkkkkkk^^^^^^^^^^^^^^^^^^ ^hVVVVVVVMVVVBVM^^^^^^ckkkkkkkkkkkkkkk^^^^^^^^^^^^^^^^^^^^^^^^^^^^^^^",
"^^^^^^^^^^^^^^^^^^^^^^^^kjkkkkkjjkkkkjkk^^^^^^^^^^^^^^^^^^^ ^=mVVVmMVMMMVmVm^^^^^kkjkjkkkkjkjkkjk^^^^^^^^^^^^^^^^^^^^^^^^^^^^^^^",
"^^^^^^^^^^^^^^^^^^^^^^^^kjcjkjkkjkkkjkkj^^^^^^^^^^^^^^^^^^^^^ ^5mMMMmmmmmmMMn^^^^cjcjjkjjkjjjkkkk^^^^^^^^^^^^^^^^^^^^^^^^^^^^^^^",
"^^^^^^^^^^^^^^^^^^^^^^^^jjjjkjjjkjjjjjjj^^^^^^^^^^^^^^^^^^^^^^^ %nmMnmmmmnnmmk^^^jjjjjjkjjjjkjjjj^^^^^^^^^^^^^^^^^^^^^^^^^^^^^^^",
"^^^^^^^^^^^^^^^^^^^^^^^^jjjjkhkhjjjjjjjj^^^^^^^^^^^^^^^^^^^^^^^^ &nnnmnnnnmnnmd^^jjjjjjjjjjjjjjjj^^^^^^^^^^^^^^^^^^^^^^^^^^^^^^^",
"^^^^^^^^^^^^^^^^^^^^^^^^jhjjhkhkjjjjhjjj^^^^^^^^^^^^^^^^^^^^^^^^^ ;nnnnnnnnnnnn78hhjjhjjjjjjjjjjj^^^^^^^^^^^^^^^^^^^^^^^^^^^^^^^",
"^^^^^^^^^^^^^^^^^^^^^^^^jjjjjjhhhkjhjkhhr^^^^^^^^^^^^^^^^^^^^^^^^^ 5nnnnnnlnnbnkjdhjhkhjhjjjhjjjj^^^^^^^^^^^^^^^^^^^^^^^^^^^^^^^",
"^^^^^^^^^^^^^^^^^^^^^^^^hjhhhjhhhhhkhhjhr^^^^^^^^^^^^^^^^^^^^^^^^^^^knvnnknncnnnchghhhjhjghhhhhhh^^^^^^^^^^^^^^^^^^^^^^^^^^^^^^^",
"^^^^^^^^^^^^^^^^^^^^^^^^hhhhhhhhhhhhhhhhr^^^^^^^^^^^^^^^^^^^^^^^^^^^^vnnknnznkkncchdhhhjhhhhhhhhh^^^^^^^^^^^^^^^^^^^^^^^^^^^^^^^",
"^^^^^^^^^^^^^^^^^^^^^^^^hhhhhhfhhhhhhhhhh^^^^^^^^^^^^^^^^^^^^^^^^^^^^*kklkknknkkcccddhghhhhhhhhhh^^^^^^^^^^^^^^^^^^^^^^^^^^^^^^^",
"^^^^^^^^^^^^^^^^^^^^^^^#hhfhhhhhhhhghhhhh^^^^^^^^^^^^^^^^^^^^^^^^^^^^ >kcckcckckckkkddhghhhhhhshh^^^^^^^^^^^^^^^^^^^^^^^^^^^^^^^",
"^^^^^^^^^^^^^^^^^^^^^^^^hhfhhhfhdhghhhihh^^^^^^^^^^^^^^^^^^^^^^^^^^^^^^kkkkkkkkkkkkkjddhhsihphhhh^^^^^^^^^^^^^^^^^^^^^^^^^^^^^^^",
"^^^^^^^^^^^^^^^^^^^^^^^^dhfhhiihhgghhahgpq^^^^^^^^^^^^^^^^^^^^^^^^^^^^^^jkkkkkkkkkkkkhddhhhishihd^^^^^^^^^^^^^^^^^^^^^^^^^^^^^^^",
"^^^^^^^^^^^^^^^^^^^^^^^^5ihihihhddddggdgdr^^^^^^^^^^^^^^^^^^^^^^^^^^^^^^%jkkkjkjkjjkjjhriadhihhiq^^^^^^^^^^^^^^^^^^^^^^^^^^^^^^^",
"^^^^^^^^^^^^^^^^^^^^^^^^4ihisihiddddddddih^^^^^^^^^^^^^^^^^^^^^^^^^^^^^^ =jjjjjjjjjjjjjdidhhdddd5^^^^^^^^^^^^^^^^^^^^^^^^^^^^^^^",
"^^^^^^^^^^^^^^^^^^^^^^^^=iihihidddudididii^^^^^^^^^^^^^^^^^^^^^^^^^^^^^^^ 2jjjjjjjjjjjjhiiriiidd^^^^^^^^^^^^^^^^^^^^^^^^^^^^^^^^",
"^^^^^^^^^^^^^^^^^^^^^^^^@ipiiiigdddddiddhit^^^^^^^^^^^^^^^^^^^^^^^^^^^^^^^^ijjhhhjjhhjhjhriigiii^^^^^^^^^^^^^^^^^^^^^^^^^^^^^^^^",
"^^^^^^^^^^^^^^^^^^^^^^^^^iiiiagiddudiiiiiii^^^^^^^^^^^^^^^^^^^^^^^^^^^^^^^^#ihhhhhhjhhhhhhiiiiii^^^^^^^^^^^^^^^^^^^^^^^^^^^^^^^^",
"^^^^^^^^^^^^^^^^^^^^^^^^^2iiiiiiiiiiiiiiiiiq^^^^^^^^^^^^^^^^^^^^^^^^^^^^^^^ %ihhhhhghhhhhhirrii6^^^^^^^^^^^^^^^^^^^^^^^^^^^^^^^^",
"^^^^^^^^^^^^^^^^^^^^^^^^^=iiiiiiiiiiiiiiiiii^^^^^^^^^^^^^^^^^^^^^^^^^^^^^^^^o1hhdhhhhhdhihhitii^^^^^^^^^^^^^^^^^^^^^^^^^^^^^^^^^",
"^^^^^^^^^^^^^^^^^^^^^^^^^^trtiriitirtiiiiiiir^^^^^^^^^^^^^^^^^^^^^^^^^^^^^^^%;idhdddhdghhhhirqr^^^^^^^^^^^^^^^^^^^^^^^^^^^^^^^^^",
"^^^^^^^^^^^^^^^^^^^^^^^^^^2tititirirttrirrrri9^^^^^^^^^^^^^^^^^^^^^^^^^^^^^;:*<idhgdddddidihdr2^^^^^^^^^^^^^^^^^^^^^^^^^^^^^^^^^",
"^^^^^^^^^^^^^^^^^^^^^^^^^^%tririttttrrrrrrrrriq^^^^^^^^^^^^^^^^^^^^^^^^^^^572;%<dddddidiiihipi<^^^^^^^^^^^^^^^^^^^^^^^^^^^^^^^^^",
"^^^^^^^^^^^^^^^^^^^^^^^^^^ 2rrurttrrttrrirrrrrtt^^^^^^^^^^^^^^^^^^^^^^^^^qwq51=%,dtddiidsiiiii7^^^^^^^^^^^^^^^^^^^^^^^^^^^^^^^^^",
"^^^^^^^^^^^^^^^^^^^^^^^^^^^%qqwtqttwrtrrtqtqttqtqq^^^^^^^^^^^^^^^^^^^^^qrtqtq6<*$4ddiiiiiiiiiii7^^^^^^^^^^^^^^^^^^^^^^^^^^^^^^^^",
"^^^^^^^^^^^^^^^^^^^^^^^^^^^ 2tqtrwrquqtqttwrqrqtrrqqq^^^^^^^^^^^^^^^qqqtqrrqq73,*,qtuiiuiriiiiriq^^^^^^^^^^^^^^^^^^^^^^^^^^^^^^^",
"^^^^^^^^^^^^^^^^^^^^^^^^^^^^^qqqqqqqrqeqeqrqqqquququqqtqq^^^^^^^999qqrrrqwrqqq72:%,qiririrrrrirrtq^^^^^^^^^^^^^^^^^^^^^^^^^^^^^^",
"^^^^^^^^^^^^^^^^^^^^^^^^^^^^ =tqqqqrqqqqqqtqqqqqqqqqqqqqqqreqqqqrqrrqq9qqqqqqq941-%,trrrtirrrrrrrq^^^^^^^^^^^^^^^^^^^^^^^^^^^^^^",
"^^^^^^^^^^^^^^^^^^^^^^^^^^^^^ ;qqqqqqqqqqqqqqqqqqqqqqqqqqqqqqqqqqqqqqqqqqqqqqqq94<=$<trrttrtrtrrrrt^^^^^^^^^^^^^^^^^^^^^^^^^^^^^",
"^^^^^^^^^^^^^^^^^^^^^^^^^^^^^ Oq0qqqqqqqqqqqqqqqqqqqqqqqqq0qqqqqq9qq9qqqqqq9qqq973,*;qqqtqqwtqqwtqqq^^^^^^^^^^^^^^^^^^^^^^^^^^^^",
"^^^^^^^^^^^^^^^^^^^^^^^^^^^^^^ $q0qq0q00qq0q7qqqq90qq9q999qq9q99qq09999q00q9qq99852;%,qqqqqqqqqqqqqqq^^^^^^^^^^^^^^^^^^^^^^^^^^^",
"^^^^^^^^^^^^^^^^^^^^^^^^^^^^^^^ $7090q0qq7qqq97q9q0qqq8q009q9q99000q99q90qq90q0q0761=%:qqqqqqqqqqqqqq9^^^^^^^^^^^^^^^^^^^^^^^^^^",
"^^^^^^^^^^^^^^^^^^^^^^^^^^^^^^^  $9000qq87q77qqq99q07q7q9000q09900000000999900098773,=#*5qqqqqq0qqqqqq9^^^^^^^^^^^^^^^^^^^^^^^^^",
"^^^^^^^^^^^^^^^^^^^^^^^^^^^^^^^^  $799787q7q97777977q7q700000099000000907999799088772;o =79qq0007q7q77q^^^^^^^^^^^^^^^^^^^^^^^^^",
"^^^^^^^^^^^^^^^^^^^^^^^^^^^^^^^^^  o*qq707707007907007007007990779797007007097007877*X  X27997070q7qq707^^^^^^^^^^^^^^^^^^^^^^^^",
"^^^^^^^^^^^^^^^^^^^^^^^^^^^^^^^^^^   %777077777777777777777777777777777777777777777* ^^  @677007777777707^^^^^^^^^^^^^^^^^^^^^^^",
"^^^^^^^^^^^^^^^^^^^^^^^^^^^^^^^^^^^   o*77777777777777777777777777777777777777777=o ^^^^^ $777777777777777^^^^^^^^^^^^^^^^^^^^^^",
"^^^^^^^^^^^^^^^^^^^^^^^^^^^^^^^^^^^^^   ^,7577777777775777775777777777775777777,^ ^^^^^^^^ -777775777777775^^^^^^^^^^^^^^^^^^^^^",
"^^^^^^^^^^^^^^^^^^^^^^^^^^^^^^^^^^^^^^    o%,77757777577677767577777757777755%O  ^^^^^^^^^^^555575575555575^^^^^^^^^^^^^^^^^^^^^",
"^^^^^^^^^^^^^^^^^^^^^^^^^^^^^^^^^^^^^^^^     o%,5557577576766777565777745,%o^  ^^^^^^^^^^^^^^55575555;-55555^^^^^^^^^^^^^^^^^^^^",
"^^^^^^^^^^^^^^^^^^^^^^^^^^^^^^^^^^^^^^^^^^      .+$;,,6555556665555,,>$O.    ^^^^^^^^^^^^^^^^#665656$  ^4666^^^^^^^^^^^^^^^^^^^^",
"^^^^^^^^^^^^^^^^^^^^^^^^^^^^^^^^^^^^^^^^^^^^^         .............        ^^^^^^^^^^^^^^^^^^ %66664^^^ ^644^^^^^^^^^^^^^^^^^^^^",
"^^^^^^^^^^^^^^^^^^^^^^^^^^^^^^^^^^^^^^^^^^^^^^^^                       ^^^^^^^^^^^^^^^^^^^^^^^^,4644^^^^^444^^^^^^^^^^^^^^^^^^^^",
"^^^^^^^^^^^^^^^^^^^^^^^^^^^^^^^^^^^^^^^^^^^^^^^^^^^^^^^         ^^^^^^^^^^^^^^^^^^^^^^^^^^^^^^^^3444;^^^4444^^^^^^^^^^^^^^^^^^^^",
"^^^^^^^^^^^^^^^^^^^^^^^^^^^^^^^^^^^^^^^^^^^^^^^^^^^^^^^^^^^^^^^^^^^^^^^^^^^^^^^^^^^^^^^^^^^^^^^^^4444324434^^^^^^^^^^^^^^^^^^^^^",
"^^^^^^^^^^^^^^^^^^^^^^^^^^^^^^^^^^^^^^^^^^^^^^^^^^^^^^^^^^^^^^^^^^^^^^^^^^^^^^^^^^^^^^^^^^^^^^^^^#32444433^^^^^^^^^^^^^^^^^^^^^^",
"^^^^^^^^^^^^^^^^^^^^^^^^^^^^^^^^^^^^^^^^^^^^^^^^^^^^^^^^^^^^^^^^^^^^^^^^^^^^^^^^^^^^^^^^^^^^^^^^^ ^;2422-^^^^^^^^^^^^^^^^^^^^^^^",
"^^^^^^^^^^^^^^^^^^^^^^^^^^^^^^^^^^^^^^^^^^^^^^^^^^^^^^^^^^^^^^^^^^^^^^^^^^^^^^^^^^^^^^^^^^^^^^^^^^^ X++^^^^^^^^^^^^^^^^^^^^^^^^^",
"^^^^^^^^^^^^^^^^^^^^^^^^^^^^^^^^^^^^^^^^^^^^^^^^^^^^^^^^^^^^^^^^^^^^^^^^^^^^^^^^^^^^^^^^^^^^^^^^^^^^^^^^^^^^^^^^^^^^^^^^^^^^^^^^",
"^^^^^^^^^^^^^^^^^^^^^^^^^^^^^^^^^^^^^^^^^^^^^^^^^^^^^^^^^^^^^^^^^^^^^^^^^^^^^^^^^^^^^^^^^^^^^^^^^^^^^^^^^^^^^^^^^^^^^^^^^^^^^^^^",
"^^^^^^^^^^^^^^^^^^^^^^^^^^^^^^^^^^^^^^^^^^^^^^^^^^^^^^^^^^^^^^^^^^^^^^^^^^^^^^^^^^^^^^^^^^^^^^^^^^^^^^^^^^^^^^^^^^^^^^^^^^^^^^^^",
"^^^^^^^^^^^^^^^^^^^^^^^^^^^^^^^^^^^^^^^^^^^^^^^^^^^^^^^^^^^^^^^^^^^^^^^^^^^^^^^^^^^^^^^^^^^^^^^^^^^^^^^^^^^^^^^^^^^^^^^^^^^^^^^^",
"^^^^^^^^^^^^^^^^^^^^^^^^^^^^^^^^^^^^^^^^^^^^^^^^^^^^^^^^^^^^^^^^^^^^^^^^^^^^^^^^^^^^^^^^^^^^^^^^^^^^^^^^^^^^^^^^^^^^^^^^^^^^^^^^",
"^^^^^^^^^^^^^^^^^^^^^^^^^^^^^^^^^^^^^^^^^^^^^^^^^^^^^^^^^^^^^^^^^^^^^^^^^^^^^^^^^^^^^^^^^^^^^^^^^^^^^^^^^^^^^^^^^^^^^^^^^^^^^^^^",
"^^^^^^^^^^^^^^^^^^^^^^^^^^^^^^^^^^^^^^^^^^^^^^^^^^^^^^^^^^^^^^^^^^^^^^^^^^^^^^^^^^^^^^^^^^^^^^^^^^^^^^^^^^^^^^^^^^^^^^^^^^^^^^^^",
"^^^^^^^^^^^^^^^^^^^^^^^^^^^^^^^^^^^^^^^^^^^^^^^^^^^^^^^^^^^^^^^^^^^^^^^^^^^^^^^^^^^^^^^^^^^^^^^^^^^^^^^^^^^^^^^^^^^^^^^^^^^^^^^^",
"^^^^^^^^^^^^^^^^^^^^^^^^^^^^^^^^^^^^^^^^^^^^^^^^^^^^^^^^^^^^^^^^^^^^^^^^^^^^^^^^^^^^^^^^^^^^^^^^^^^^^^^^^^^^^^^^^^^^^^^^^^^^^^^^",
"^^^^^^^^^^^^^^^^^^^^^^^^^^^^^^^^^^^^^^^^^^^^^^^^^^^^^^^^^^^^^^^^^^^^^^^^^^^^^^^^^^^^^^^^^^^^^^^^^^^^^^^^^^^^^^^^^^^^^^^^^^^^^^^^"
};
