/* XPM */
static char *varicadview[] = {
/* columns rows colors chars-per-pixel */
"128 128 72 1 ",
"  c #000000",
". c #060608",
"X c #0A0A0A",
"o c gray7",
"O c #1C1C1C",
"+ c #222222",
"@ c #2C2C2C",
"# c #343434",
"$ c #3A3A3A",
"% c #3F413F",
"& c #403E40",
"* c #444444",
"= c #4C4C4C",
"- c #535353",
"; c #5B5B5B",
": c #646464",
"> c #6B6B6B",
", c #747474",
"< c #787877",
"1 c #7B7B7B",
"2 c #7F8080",
"3 c #858585",
"4 c #878887",
"5 c #888887",
"6 c #8C8C8C",
"7 c #908F8F",
"8 c #8F908F",
"9 c #90908F",
"0 c #908F90",
"q c #8F9090",
"w c #949494",
"e c #989797",
"r c #979897",
"t c #989897",
"y c #979798",
"u c #989798",
"i c #979898",
"p c #9B9B9B",
"a c #A09F9F",
"s c #9EA09E",
"d c #A0A09F",
"f c #9F9FA0",
"g c #A09FA0",
"h c #9FA0A0",
"j c #A3A3A3",
"k c #A8A7A7",
"l c #A8A8A7",
"z c #A7A7A8",
"x c #A8A7A8",
"c c #A7A8A8",
"v c #ACACAC",
"b c #B3B3B3",
"n c #B8B7B7",
"m c #B7B7B8",
"M c #BCBCBC",
"N c #BFC0BF",
"B c #BFBFC0",
"V c #C3C3C3",
"C c #C8C7C7",
"Z c #C7C8C7",
"A c #C7C7C8",
"S c #C7C8C8",
"D c #CBCBCB",
"F c #D0CFCF",
"G c #D0D0CF",
"H c #CFCFD0",
"J c #CFD0D0",
"K c #D4D4D4",
"L c #D8D8D6",
"P c #D7D7D8",
"I c #D8D8D8",
"U c None",
/* pixels */
"UUUUUUUUUUUUUUUUUUUUUUUUUUUUUUUUUUUUUUUUUUUUUUUUUUUUUUUUUUUUUUUUUUUUUUUUUUUUUUUUUUUUUUUUUUUUUUUUUUUUUUUUUUUUUUUUUUUUUUUUUUUUUUUU",
"UUUUUUUUUUUUUUUUUUUUUUUUUUUUUUUUUUUUUUUUUUUUUUUUUUUUUUUUUUUUUUUUUUUUUUUUUUUUUUUUUUUUUUUUUUUUUUUUUUUUUUUUUUUUUUUUUUUUUUUUUUUUUUUU",
"UUUUUUUUUUUUUUUUUUUUUUUUUUUUUUUUUUUUUUUUUUUUUUUUUUUUUUUUUUUUUUUUUUUUUUUUUUUUUUUUUUUUUUUUUUUUUUUUUUUUUUUUUUUUUUUUUUUUUUUUUUUUUUUU",
"UUUUUUUUUUUUUUUUUUUUUUUUUUUUUUUUUUUUUUUUUUUUUUUUUUUUUUUUUUUUUUUUUUUUUUUUUUUUUUUUUUUUUUUUUUUUUUUUUUUUUUUUUUUUUUUUUUUUUUUUUUUUUUUU",
"UUUUUUUUUUUUUUUUUUUUUUUUUUUUUUUUUUUUUUUUUUUUUUUUUUUUUUUUUUUUUUUUUUUUUUUUUUUUUUUUUUUUUUUUUUUUUUUUUUUUUUUUUUUUUUUUUUUUUUUUUUUUUUUU",
"UUUUUUUUUUUUUUUUUUUUUUUUUUUUUUUUUUUUUUUUUUUUUUUUUUUUUUUUUUUUUUUUUUUUUUUUUUUUUUUUUUUUUUUUUUUUUUUUUUUUUUUUUUUUUUUUUUUUUUUUUUUUUUUU",
"UUUUUUUUUUUUUUUUUUUUUUUUUUUUUUUUUUUUUUUUUUUUUUUUUUUUUUUUUUUUUUUUUUUUUUUUUUUUUUUUUUUUUUUUUUUUUUUUUUUUUUUUUUUUUUUUUUUUUUUUUUUUUUUU",
"UUUUUUUUUUUUUUUUUUUUUUUUUUUUUUUUUUUUUUUUUUUUUUUUUUUUUUUUUUUUUUUUUUUUUUUUUUUUUUUUUUUUUUUUUUUUUUUUUUUUUUUUUUUUUUUUUUUUUUUUUUUUUUUU",
"UUUUUUUUUUUUUUUUUUUUUUUUUUUUUUUUUUUUUUUUUUUUUUUUUUUUUUUUUUUUUUUUUUUUUUUUUUUUUUUUUUUUUUUUUUUUUUUUUUUUUUUUUUUUUUUUUUUUUUUUUUUUUUUU",
"UUUUUUUUUUUUUUUUUUUUUUUUUUUUUUUUUUUUUUUUUUUUUUUUUUUUUUUUUUUUUUUUUUUUUUUUUUUUUUUUUUUUUUUUUUUUUUUUUUUUUUUUUUUUUUUUUUUUUUUUUUUUUUUU",
"UUUUUUUUUUUUUUUUUUUUUUUUUUUUUUUUUUUUUUUUUUUUUUUUUUUUUUUUUUUUUUUUUUUUUUUUUUUUUUUUUUUUUUUUUUUUUUUUUUUUUUUUUUUUUUUUUUUUUUUUUUUUUUUU",
"UUUUUUUUUUUUUUUUUUUUUUUUUUUUUUUUUUUUUUUUUUUUUUUUUUUUUUUUUUUUUUUUUUUUUUUUUUUUUUUUUUUUUUUUUUUUUUUUUUUUUUUUUUUUUUUUUUUUUUUUUUUUUUUU",
"UUUUUUUUUUUUUUUUUUUUUUUUUUUUUUUUUUUUUUUUUUUUUUUUUUUUUUUUUUUUUUPIKUUUUUUUUUUUUUUUUUUUUUUUUUUUUUUUUUUUUUUUUUUUUUUUUUUUUUUUUUUUUUUU",
"UUUUUUUUUUUUUUUUUUUUUUUUUUUUUUUUUUUUUUUUUUUUUUUUUUUUUUUUUUUUKIIIIIIUUUUUUUUUUUUUUUUUUUUUUUUUUUUUUUUUUUUUUUUUUUUUUUUUUUUUUUUUUUUU",
"UUUUUUUUUUUUUUUUUUUUUUUUUUUUUUUUUUUUUUUUUUUUUUUUUUUUUUUUUUULKIIIIIIIKUUUUUUUUUUUUUUUUUUUUUUUUUUUUUUUUUUUUUUUUUUUUUUUUUUUUUUUUUUU",
"UUUUUUUUUUUUUUUUUUUUUUUUUUUUUUUUUUUUUUUUUUUUUUUUUUUUUUUUUUKIIKLKKKIKLGUUUUUUUUUUUUUUUUUUUUUUUUUUUUUUUUUUUUUUUUUUUUUUUUUUUUUUUUUU",
"UUUUUUUUUUUUUUUUUUUUUUUUUUUUUUUUUUUUUUUUUUUUUUUUUUUUUUUUUFKKKKKKPKKKPPGUUUUUUUUUUUUUUUUUUUUUUUUUUUUUUUUUUUUUUUUUUUUUUUUUUUUUUUUU",
"UUUUUUUUUUUUUUUUUUUUUUUUUUUUUUUUUUUUUUUUUUUUUUUUUUUUUUUUSKPKKFbzcVKKKKKKUUUUUUUUUUUUUUUUUUUUUUUUUUUUUUUUUUUUUUUUUUUUUUUUUUUUUUUU",
"UUUUUUUUUUUUUUUUUUUUUUUUUUUUUUUUUUUUUUUUUUUUUUUUUUUUUUUUKKKKF2OUU=jGKKKKFUUUUUUUUUUUUUUUUUUUUUUUUUUUUUUUUUUUUUUUUUUUUUUUUUUUUUUU",
"UUUUUUUUUUUUUUUUUUUUUUUUUUUUUUUUUUUUUUUUUUUUUUUUUUUUUUUVKKKGroUUUUUMGKKKKUUUUUUUUUUUUUUUUUUUUUUUUUUUUUUUUUUUUUUUUUUUUUUUUUUUUUUU",
"UUUUUUUUUUUUUUUUUUUUUUUUUUUUUUUUUUUUUUUUUUUUUUUUUUUUUUUFKKKF:UUUUUUyGKKGGUUUUUUUUUUUUUUUUUUUUUUUUUUUUUUUUUUUUUUUUUUUUUUUUUUUUUUU",
"UUUUUUUUUUUUUUUUUUUUUUUUUUUUUUUUUUUUUUUUUUUUUUUUUUUUUUUFGGGH>UUUUUU,HGGKGUUUUUUUUUUUUUUUUUUUUUUUUUUUUUUUUUUUUUUUUUUUUUUUUUUUUUUU",
"UUUUUUUUUUUUUUUUUUUUUUUUUUUUUUUUUUUUUUUUUUUUUUUUUUUUUUUDKGFHrUUUUUUjHKGGFUUUUUUUUUUUUUUUUUUUUUUUUUUUUUUUUUUUUUUUUUUUUUUUUUUUUUUU",
"UUUUUUUUUUUUUUUUUUUUUUUUUUUUUUUUUUUUUUUUUUUUUUUUUUUUUUUDHGJGVUUUUU<SHGFFGVUUUUUUUUUUUUUUUUUUUUUUUUUUUUUUUUUUUUUUUUUUUUUUUUUUUUUU",
"UUUUUUUUUUUUUUUUUUUUUUUUUUUUUUUUUUUUUUUUUUUUUUUUUUUUUU9FFFFFFMcUUcVFFFDJJVUUUUUUUUUUUUUUUUUUUUUUUUUUUUUUUUUUUUUUUUUUUUUUUUUUUUUU",
"UUUUUUUUUUUUUUUUUUUUUUUUUUUUUUUUUUUUUUUUUUUUUUUUUUUUUUvFFFDFFFJSVFDFFFFDFNUUUUUUUUUUUUUUUUUUUUUUUUUUUUUUUUUUUUUUUUUUUUUUUUUUUUUU",
"UUUUUUUUUUUUUUUUUUUUUUUUUUUUUUUUUUUUUUUUUUUUUUUUUUUUUUvFFDDFDDFDDFFDFDFDFNUUUUUUUUUUUUUUUUUUUUUUUUUUUUUUUUUUUUUUUUUUUUUUUUUUUUUU",
"UUUUUUUUUUUUUUUUUUUUUUUUUUUUUUUUUUUUUUUUUUUUUUUUUUUUUUvDFDDDDDDDDDDDDFSFSSUUUUUUUUUUUUUUUUUUUUUUUUUUUUUUUUUUUUUUUUUUUUUUUUUUUUUU",
"UUUUUUUUUUUUUUUUUUUUUUUUUUUUUUUUUUUUUUUUUUUUUUUUUUUUUUvFDDDDDDDDDDFDDDDDFSUUUUUUUUUUUUUUUUUUUUUUUUUUUUUUUUUUUUUUUUUUUUUUUUUUUUUU",
"UUUUUUUUUUUUUUUUUUUUUUUUUUUUUUUUUUUUUUUUUUUUUUUUUUUUUUVSDDDDDDDDDDSFDSDDFSUUUUUUUUUUUUUUUUUUUUUUUUUUUUUUUUUUUUUUUUUUUUUUUUUUUUUU",
"UUUUUUUUUUUUUUUUUUUUUUUUUUUUUUUUUUUUUUUUUUUUUUUUUUUUUUVDDSDDDSDSSDSSDDDDSSUUUUUUUUUUUUUUUUUUUUUUUUUUUUUUUUUUUUUUUUUUUUUUUUUUUUUU",
"UUUUUUUUUUUUUUUUUUUUUUUUUUUUUUUUUUUUUUUUUUUUUUUUUUUUUUVSCDZCZDDSSDSDSSSSSSUUUUUUUUUUUUUUUUUUUUUUUUUUUUUUUUUUUUUUUUUUUUUUUUUUUUUU",
"UUUUUUUUUUUUUUUUUUUUUUUUUUUUUUUUUUUUUUUUUUUUUUUUUUUUUUVSSSSDSDSSSSSSSSACSSMUUUUUUUUUUUUUUUUUUUUUUUUUUUUUUUUUUUUUUUUUUUUUUUUUUUUU",
"UUUUUUUUUUUUUUUUUUUUUUUUUUUUUUUUUUUUUUUUUUUUUUUUUUUUU7VCSZCCVZSSCAAASVCCCVMUUUUUUUUUUUUUUUUUUUUUUUUUUUUUUUUUUUUUUUUUUUUUUUUUUUUU",
"UUUUUUUUUUUUUUUUUUUUUUUUUUUUUUUUUUUUUUUUUUUUUUUUUUUUUzVZSVVAACSSCCSCCCCCCVmUUUUUUUUUUUUUUUUUUUUUUUUUUUUUUUUUUUUUUUUUUUUUUUUUUUUU",
"UUUUUUUUUUUUUUUUUUUUUUUUUUUUUUUUUUUUUUUUUUUUUUUUUUUUUzVZVAVCCSVVVCVCVCVCCAnUUUUUUUUUUUUUUUUUUUUUUUUUUUUUUUUUUUUUUUUUUUUUUUUUUUUU",
"UUUUUUUUUUUUUUUUUUUUUUUUUUUUUUUUUUUUUUUUUUUUUUUUUUUUUjVVCVVVVAVVCVVZVVVCVVVUUUUUUUUUUUUUUUUUUUUUUUUUUUUUUUUUUUUUUUUUUUUUUUUUUUUU",
"UUUUUUUUUUUUUUUUUUUUUUUUUUUUUUUUUUUUUUUUUUUUUUUUUUUUUzVVVVVVVVVVVVVVVVVVVVVUUUUUUUUUUUUUUUUUUUUUUUUUUUUUUUUUUUUUUUUUUUUUUUUUUUUU",
"UUUUUUUUUUUUUUUUUUUUUUUUUUUUUUUUUUUUUUUUUUUUUUUUUUUUUMVVVVVVVVVVVVVVVVVVVVVUUUUUUUUUUUUUUUUUUUUUUUUUUUUUUUUUUUUUUUUUUUUUUUUUUUUU",
"UUUUUUUUUUUUUUUUUUUUUUUUUUUUUUUUUUUUUUUUUUUUUUUUUUUUUMVNVVVVVVVVVVVVVVNNVVVUUUUUUUUUUUUUUUUUUUUUUUUUUUUUUUUUUUUUUUUUUUUUUUUUUUUU",
"UUUUUUUUUUUUUUUUUUUUUUUUUUUUUUUUUUUUUUUUUUUUUUUUUUUUUMVVVVVVVNVVVBVBVBVVVNNUUUUUUUUUUUUUUUUUUUUUUUUUUUUUUUUUUUUUUUUUUUUUUUUUUUUU",
"UUUUUUUUUUUUUUUUUUUUUUUUUUUUUUUUUUUUUUUUUUUUUUUUUUUUUMVVBVMVNVNNNVVBBVBNVBBbUUUUUUUUUUUUUUUUUUUUUUUUUUUUUUUUUUUUUUUUUUUUUUUUUUUU",
"UUUUUUUUUUUUUUUUUUUUUUUUUUUUUUUUUUUUUUUUUUUUUUUUUUUU4MVMMVVMBVNNNNNBBBBBVNMbUUUUUUUUUUUUUUUUUUUUUUUUUUUUUUUUUUUUUUUUUUUUUUUUUUUU",
"UUUUUUUUUUUUUUUUUUUUUUUUUUUUUUUUUUUUUUUUUUUUUUUUUUUUjMMVVMBBBMNNNNNNBBBBBBMbUUUUUUUUUUUUUUUUUUUUUUUUUUUUUUUUUUUUUUUUUUUUUUUUUUUU",
"UUUUUUUUUUUUUUUUUUUUUUUUUUUUUUUUUUUUUUUUUUUUUUUUUUUUpNMNMNMVMNMNMNNNNNNNBNBbUUUUUUUUUUUUUUUUUUUUUUUUUUUUUUUUUUUUUUUUUUUUUUUUUUUU",
"UUUUUUUUUUUUUUUUUUUUUUUUUUUUUUUUUUUUUUUUUUUUUUUUUUUUpMVBMNMMNNNMNNMNNMNMMBMMUUUUUUUUUUUUUUUUUUUUUUUUUUUUUUUUUUUUUUUUUUUUUUUUUUUU",
"UUUUUUUUUUUUUUUUUUUUUUUUUUUUUUUUUUUUUUUUUUUUUUUUUUUUjMMMVMMNNMMNMMNMNMMNBMMMUUUUUUUUUUUUUUUUUUUUUUUUUUUUUUUUUUUUUUUUUUUUUUUUUUUU",
"UUUUUUUUUUUUUUUUUUUUUUUUUUUUUUUUUUUUUUUUUUUUUUUUUUUUmMMMMMMMMMMMMMMMMMMMMMMMUUUUUUUUUUUUUUUUUUUUUUUUUUUUUUUUUUUUUUUUUUUUUUUUUUUU",
"UUUUUUUUUUUUUUUUUUUUUUUUUUUUUUUUUUUUUUUUUUUUUUUUUUUUmMMMnNnMMMMMMMMMMMMMMMMnUUUUUUUUUUUUUUUUUUUUUUUUUUUUUUUUUUUUUUUUUUUUUUUUUUUU",
"UUUUUUUUUUUUUUUUUUUUUUUUUUUUUUUUUUUUUUUUUUUUUUUUUUUUmMMmNnMMmMMnMnnMmMMmmMMnUUUUUUUUUUUUUUUUUUUUUUUUUUUUUUUUUUUUUUUUUUUUUUUUUUUU",
"UUUUUUUUUUUUUUUUUUUUUUUUUUUUUUUUUUUUUUUUUUUUUUUUUUUUbMMmMMNnnMnMMMMnMMMnMnMncUUUUUUUUUUUUUUUUUUUUUUUUUUUUUUUUUUUUUUUUUUUUUUUUUUU",
"UUUUUUUUUUUUUUUUUUUUUUUUUUUUUUUUUUUUUUUUUUUUUUUUUUU<bmMnnnnnMmMmnnMnmMnMnMnMvUUUUUUUUUUUUUUUUUUUUUUUUUUUUUUUUUUUUUUUUUUUUUUUUUUU",
"UUUUUUUUUUUUUUUUUUUUUUUUUUUUUUUUUUUUUUUUUUUUUUUUUUUrmnnnnmmmnnmmnnnnnnmmmMnncUUUUUUUUUUUUUUUUUUUUUUUUUUUUUUUUUUUUUUUUUUUUUUUUUUU",
"UUUUUUUUUUUUUUUUUUUUUUUUUUUUUUUUUUUUUUUUUUUUUUUUUUUrmmnnnnnnnmbmnnnnbmmmmnnncUUUUUUUUUUUUUUUUUUUUUUUUUUUUUUUUUUUUUUUUUUUUUUUUUUU",
"UUUUUUUUUUUUUUUUUUUUUUUUUUUUUUUUUUUUUUUUUUUUUUUUUUUrnmmmnnnnmmmmnnbnmnnbbmmbbUUUUUUUUUUUUUUUUUUUUUUUUUUUUUUUUUUUUUUUUUUUUUUUUUUU",
"UUUUUUUUUUUUUUUUUUUUUUUUUUUUUUUUUUUUUUUUUUUUUUUUUUUrbmbnmbnbmbbmnnnnnbbnnbbmmUUUUUUUUUUUUUUUUUUUUUUUUUUUUUUUUUUUUUUUUUUUUUUUUUUU",
"UUUUUUUUUUUUUUUUUUUUUUUUUUUUUUUUUUUUUUUUUUUUUUUUUUUcbbmmbmbbbmbmbmbmmbbbbbbbbUUUUUUUUUUUUUUUUUUUUUUUUUUUUUUUUUUUUUUUUUUUUUUUUUUU",
"UUUUUUUUUUUUUUUUUUUUUUUUUUUUUUUUUUUUUUUUUUUUUUUUUUUbbbbbbbbbmbbbbbbbbbbbbbbbbUUUUUUUUUUUUUUUUUUUUUUUUUUUUUUUUUUUUUUUUUUUUUUUUUUU",
"UUUUUUUUUUUUUUUUUUUUUUUUUUUUUUUUUUUUUUUUUUUUUUUUUUUvbbbbbbbbbbbbbbbbbbbbbbbbbUUUUUUUUUUUUUUUUUUUUUUUUUUUUUUUUUUUUUUUUUUUUUUUUUUU",
"UUUUUUUUUUUUUUUUUUUUUUUUUUUUUUUUUUUUUUUUUUUUUUUUUUUvbbbbvbbbbbvbbbbbvbbbbbbbbzUUUUUUUUUUUUUUUUUUUUUUUUUUUUUUUUUUUUUUUUUUUUUUUUUU",
"UUUUUUUUUUUUUUUUUUUUUUUUUUUUUUUUUUUUUUUUUUUUUUUUUU>vbbbvbbvbbbbbvvbbbbbbvbbbvjUUUUUUUUUUUUUUUUUUUUUUUUUUUUUUUUUUUUUUUUUUUUUUUUUU",
"UUUUUUUUUUUUUUUUUUUUUUUUUUUUUUUUUUUUUUUUUUUUUUUUUU7bvbbbvbbbbvvbbbvbvbvbbbvbbjUUUUUUUUUUUUUUUUUUUUUUUUUUUUUUUUUUUUUUUUUUUUUUUUUU",
"UUUUUUUUUUUUUUUUUUUUUUUUUUUUUUUUUUUUUUUUUUUUUUUUUUwvbvbvbbbbvbvbbvbvvbvbvbbvbjUUUUUUUUUUUUUUUUUUUUUUUUUUUUUUUUUUUUUUUUUUUUUUUUUU",
"UUUUUUUUUUUUUUUUUUUUUUUUUUUUUUUUUUUUUUUUUUUUUUUUUU9bvbvbvvvvbvbvvbvbbvbvbvvbvcUUUUUUUUUUUUUUUUUUUUUUUUUUUUUUUUUUUUUUUUUUUUUUUUUU",
"UUUUUUUUUUUUUUUUUUUUUUUUUUUUUUUUUUUUUUUUUUUUUUUUUU9vvvvbbvvvvbvbvvvbbvvvvbvbvvUUUUUUUUUUUUUUUUUUUUUUUUUUUUUUUUUUUUUUUUUUUUUUUUUU",
"UUUUUUUUUUUUUUUUUUUUUUUUUUUUUUUUUUUUUUUUUUUUUUUUU>jbvbvvvvbbvvvvbvvvvvvbvvvbvvUUUUUUUUUUUUUUUUUUUUUUUUUUUUUUUUUUUUUUUUUUUUUUUUUU",
"UUUUUUUUUUUUUUUUUUUUUUUUUUUUUUUUUUUUUUUUUUUUUUUUUjvvvbvvvvvvvvvvvvvbbvvvvvvvvvaUUUUUUUUUUUUUUUUUUUUUUUUUUUUUUUUUUUUUUUUUUUUUUUUU",
"UUUUUUUUUUUUUUUUUUUUUUUUUUUUUUUUUUUUUUUUUUUUUUUUzvvvvvvvvvvvlw5455dcvvvvvvvvvvvcUUUUUUUUUUUUUUUUUUUUUUUUUUUUUUUUUUUUUUUUUUUUUUUU",
"UUUUUUUUUUUUUUUUUUUUUUUUUUUUUUUUUUUUUUUUUUUUUUdccvvvvvvvvvc4-O...X$:pvvvvvvvvvvvcUUUUUUUUUUUUUUUUUUUUUUUUUUUUUUUUUUUUUUUUUUUUUUU",
"UUUUUUUUUUUUUUUUUUUUUUUUUUUUUUUUUUUUUUUUUUUUUdcvvccvcvvxvp;O        $1cvkvcvvccvvvkUUUUUUUUUUUUUUUUUUUUUUUUUUUUUUUUUUUUUUUUUUUUU",
"UUUUUUUUUUUUUUUUUUUUUUUUUUUUUUUUUUUUUUUUUUUUklcllvcvcvcxj-  UUUUU    +1ccvvlclvccczzUUUUUUUUUUUUUUUUUUUUUUUUUUUUUUUUUUUUUUUUUUUU",
"UUUUUUUUUUUUUUUUUUUUUUUUUUUUUUUUUUUUUUUUUUUllvclclvcxvck1oUUUUUUUUUU  $pcllvcvcclkzkzUUUUUUUUUUUUUUUUUUUUUUUUUUUUUUUUUUUUUUUUUUU",
"UUUUUUUUUUUUUUUUUUUUUUUUUUUUUUUUUUUUUUUUUdzkllllkclccccy@UUUUUUUUUUUU  :kkzlllllllkkzzUUUUUUUUUUUUUUUUUUUUUUUUUUUUUUUUUUUUUUUUUU",
"UUUUUUUUUUUUUUUUUUUUUUUUUUUUUUUUUUUUUUUUdlzzzzzzkkkkkkz2UUUUUUUUUUUUUU $pkzzzjllklkzzzzUUUUUUUUUUUUUUUUUUUUUUUUUUUUUUUUUUUUUUUUU",
"UUUUUUUUUUUUUUUUUUUUUUUUUUUUUUUUUUUUUUUjzjjzjllzkzzjzkj:UUUUUUUUUUUUUUUo7zzzjzzzzjzjzlzljUUUUUUUUUUUUUUUUUUUUUUUUUUUUUUUUUUUUUUU",
"UUUUUUUUUUUUUUUUUUUUUUUUUUUUUUUUUUUUUUjzkjzlzjjzzjjkjjd:UUUUUUUUUUUUUUUo7jjjzjzjzjjzjjjjzjUUUUUUUUUUUUUUUUUUUUUUUUUUUUUUUUUUUUUU",
"UUUUUUUUUUUUUUUUUUUUUUUUUUUUUUUUUUUUpjzjzjzjjjjjjzkjjkj>UUUUUUUUUUUUUUUU6zjjjjzjjjjjjzjjjzjUUUUUUUUUUUUUUUUUUUUUUUUUUUUUUUUUUUUU",
"UUUUUUUUUUUUUUUUUUUUUUUUUUUUUUUUUUUtzjjjjjjjjzjjjjjjjjj,UUUUUUUUUUUUUUUU8jjjjjjjjjjzjjjjjjjjUUUUUUUUUUUUUUUUUUUUUUUUUUUUUUUUUUUU",
"UUUUUUUUUUUUUUUUUUUUUUUUUUUUUUUUUUpjjjjjjjjjjjjjjjjjjjj9UUUUUUUUUUUUUUU=pjjjjjjjjjjjjjjjjjjjjpUUUUUUUUUUUUUUUUUUUUUUUUUUUUUUUUUU",
"UUUUUUUUUUUUUUUUUUUUUUUUUUUUUUUUUpjjdjjjdjjjjjjjjjjjdjjpUUUUUUUUUUUUUUU<djjdjjjjjjdjjjjjsjjjjzpUUUUUUUUUUUUUUUUUUUUUUUUUUUUUUUUU",
"UUUUUUUUUUUUUUUUUUUUUUUUUUUUUUUUjjhjjjjfjsjjajpjjjgjsjja9UUUUUUUUUUUUUUyjjjhjpjjjpjpjjjgjpjjjjapUUUUUUUUUUUUUUUUUUUUUUUUUUUUUUUU",
"UUUUUUUUUUUUUUUUUUUUUUUUUUUUUUpjjghfpjfjfjdjjadjpjjfhaajfUUUUUUUUUUUUU9dpjpjjjpjsjfjjpjpfjjpjpjjfUUUUUUUUUUUUUUUUUUUUUUUUUUUUUUU",
"UUUUUUUUUUUUUUUUUUUUUUUUUUUUUtpjpjjpjjjjpjjjjjhdjdjphdjjffUUUUUUUUUUUyjfjhgfpjpadggdhjhhhhjppjapgpUUUUUUUUUUUUUUUUUUUUUUUUUUUUUU",
"UUUUUUUUUUUUUUUUUUUUUUUUUUUUppjgjjpdpdppjpppppjppjpjpjpppjgtUUUUUUU9tpjppjpjjphhpjpjppjpfhpjgppjjhfpUUUUUUUUUUUUUUUUUUUUUUUUUUUU",
"UUUUUUUUUUUUUUUUUUUUUUUUUUUpjpgfpppjpppjjpsdpppjapjfpfpfjpppgppUtppfpjppapggpjgppjpjjgpjpjpjffffpjpppUUUUUUUUUUUUUUUUUUUUUUUUUUU",
"UUUUUUUUUUUUUUUUUUUUUUUUUypggppajppjpfpjpapppjppgpppfhpfppjpjphppspphpjpgppppppfppppppppfpppppppppphfpUUUUUUUUUUUUUUUUUUUUUUUUUU",
"UUUUUUUUUUUUUUUUUUUUUUUUyppppfpgppapdpgpppjpphpdpsgppppphpppppspsppfppppgppgpspppapagpppfppppppppppppppUUUUUUUUUUUUUUUUUUUUUUUUU",
"UUUUUUUUUUUUUUUUUUUUUUUyppppppppppppppppppppppppppphpppppppdppppppppfppppppppppppppppppppppppppppppppppptUUUUUUUUUUUUUUUUUUUUUUU",
"UUUUUUUUUUUUUUUUUUUUUUyppppppppppppppppppppppppppppppppppppppppppppppppppppppppppppppppptppppptpppppppppptUUUUUUUUUUUUUUUUUUUUUU",
"UUUUUUUUUUUUUUUUUUUU9tpptppptptptpyptppppppptptppptppttpptpppptpppptpptptpippptpptpptppppppypppppppptpptpptUUUUUUUUUUUUUUUUUUUUU",
"UUUUUUUUUUUUUUUUUUU9pttptppttpptpypppttttpttpppytptttpypytpiittttptptpttpttpttttpttttpttpyytpttttpptpttpttttUUUUUUUUUUUUUUUUUUUU",
"UUUUUUUUUUUUUUUUUUyrtpptutttpttttituptttptpiytuytpttpuutyptiptiittttttttyuiytpttypttttttyptttttttttuyyyyttttiUUUUUUUUUUUUUUUUUUU",
"UUUUUUUUUUUUUUUUUyttttttpyyyyyyttuttttttttryyyytttttttrryytitttwpytiiiyruutetettyyryeytyyyyyywttrrrryyryttrwwyyUUUUUUUUUUUUUUUUU",
"UUUUUUUUUUUUUUU9weyyyyytyyyyyyywyyyywyttyyyyyyyywyttyyytyyyyye7,1yiiyywyyywyyywryyyyyyetyyyyryetyyyryyyytwyyyyy9UUUUUUUUUUUUUUUU",
"UUUUUUUUUUUUUU7ytywryyywrwyyyyyyyyyyyyetwywyyyyytywyywywyyyy5>$.O=29yiyyyyyyyywyyyyyyywtywyywwewwywrwyywywrwwryywUUUUUUUUUUUUUUU",
"UUUUUUUUUUUUU9wywwywywyywywwwywwwwwywywwwwywy9ywwwewywwyww1=+.    O$>5yyy9ywwwwyy9y9wwwwwywwwywywwywwwywwywywwwwyyUUUUUUUUUUUUUU",
"UUUUUUUUUUUUwywwwywwywwywywywywwwwwwwwwwywywwwwwwwywwww4,*O          $>49yy9wwwywwwwwwwwwwwwwwwwwwwwwywwwwwwwwwwwwwqUUUUUUUUUUUU",
"UUUUUUUUUUU9wwwwwwwwwwwwy9wwwwwwwwwwywwwwwwwwwwwwwwww2;$.  UUUUUUUU    +=19ywww9w9wwwww9wwwwwwwwwwwww9y9wwww9wwwwwww7UUUUUUUUUUU",
"UUUUUUUUUU3w9www9wwwwwww9wwwww9ywwww9wwwwwqwwwwywq51-+  UUUUUUUUUUUUU    +*>499wwwwww9wwwqw9wqw999wwww99w0www0ww9wq9yqUUUUUUUUUU",
"UUUUUUUUUU6ww9q4440w9w9ww99w9w990wqww9w9qwqw9w994,#O  UUUUUUUUUUUUUUUUU    .$>49w09ww9w9qww90wqwww99999ww0q0q63360qw990UUUUUUUUU",
"UUUUUUUUUU9995-+O+:799999w99w9w0999w990q0ww0w01;#. UUUUUUUUUUUUUUUUUUUUUUU   .@-<9ww9w0w09w9q99ww9009q9w099w3*OO$<9w090UUUUUUUUU",
"UUUUUUUUU499q;    o:q90qw9900090qq9990qqqq04<-O  UUUUUUUUUUUUUUUUUUUUUUUUUUU    O=<30009q090qq9909009wqq0094&   U@10qw0UUUUUUUUU",
"UUUUUUUUU5qq5#U    *700qqqqq0099qq779q77q3:#o  UUUUUUUUUUUUUUUUUUUUUUUUUUUUUUU    o$:3q6qqqqq767qqqq77qq0qq1o  UUU:qqq66UUUUUUUU",
"UUUUUUUUU777,UUUUU O1qq7qq777qqq777q7q7<-+X UUUUUUUUUUUUUUUUUUUUUUUUUUUUUUUUUUUUU   .#;<6q6qq6q7776q6q676qq;UUUUUU*46q04UUUUUUUU",
"UUUUUUUU17672UUUUUU$4qq66q60qq6077664>=O  UUUUUUUUUUUUUUUUUUUUUUUUUUUUUUUUUUUUUUUUU    O=<5776766667q666676,UUUUUU-66q66UUUUUUUU",
"UUUUUUUU36666:UUUUU,666666666666751>$.  UUUUUUUUUUUUUUUUUUUUUUUUUUUUUUUUUUUUUUUUUUUUU    O*:36676766666q7663UUUUUU266666UUUUUUUU",
"UUUUUUUU266764>UUU:46666666676661-OX UUUUUUUUUUUUUUUUUUUUUUUUUUUUUUUUUUUUUUUUUUUUUUUUUUU   X#:156666766666662UUUU,666666UUUUUUUU",
"UUUUUUUU>665666314666666666663:*O  UUUUUUUUUUUUUUUUUUUUUUUUUUUUUUUUUUUUUUUUUUUUUUUUUUUUUUU   .O-,64665666656643145466666UUUUUUUU",
"UUUUUUUU%4665766566666465641;#X  UUUUUUUUUUUUUUUUUUUUUUUUUUUUUUUUUUUUUUUUUUUUUUUUUUUUUUUUUUU    O*:355564664646456655663UUUUUUUU",
"UUUUUUUUU;256556566566643,-O  UUUUUUUUUUUUUUUUUUUUUUUUUUUUUUUUUUUUUUUUUUUUUUUUUUUUUUUUUUUUUUUU    .#:3456546646463566541UUUUUUUU",
"UUUUUUUUUU#:26336336543:#o  UUUUUUUUUUUUUUUUUUUUUUUUUUUUUUUUUUUUUUUUUUUUUUUUUUUUUUUUUUUUUUUUUUUUU   .@-,363444446456551UUUUUUUUU",
"UUUUUUUUUUUX@=;,11<<,-#X  UUUUUUUUUUUUUUUUUUUUUUUUUUUUUUUUUUUUUUUUUUUUUUUUUUUUUUUUUUUUUUUUUUUUUUUUU    O=,33444636331,UUUUUUUUUU",
"UUUUUUUUUUUUUUUoooooo  UUUUUUUUUUUUUUUUUUUUUUUUUUUUUUUUUUUUUUUUUUUUUUUUUUUUUUUUUUUUUUUUUUUUUUUUUUUUUU    o#=-,<<<,;*@UUUUUUUUUUU",
"UUUUUUUUUUUUUUUUUUUUUUUUUUUUUUUUUUUUUUUUUUUUUUUUUUUUUUUUUUUUUUUUUUUUUUUUUUUUUUUUUUUUUUUUUUUUUUUUUUUUUUUU     ooooo. UUUUUUUUUUUU",
"UUUUUUUUUUUUUUUUUUUUUUUUUUUUUUUUUUUUUUUUUUUUUUUUUUUUUUUUUUUUUUUUUUUUUUUUUUUUUUUUUUUUUUUUUUUUUUUUUUUUUUUUUUUU     UUUUUUUUUUUUUUU",
"UUUUUUUUUUUUUUUUUUUUUUUUUUUUUUUUUUUUUUUUUUUUUUUUUUUUUUUUUUUUUUUUUUUUUUUUUUUUUUUUUUUUUUUUUUUUUUUUUUUUUUUUUUUUUUUUUUUUUUUUUUUUUUUU",
"UUUUUUUUUUUUUUUUUUUUUUUUUUUUUUUUUUUUUUUUUUUUUUUUUUUUUUUUUUUUUUUUUUUUUUUUUUUUUUUUUUUUUUUUUUUUUUUUUUUUUUUUUUUUUUUUUUUUUUUUUUUUUUUU",
"UUUUUUUUUUUUUUUUUUUUUUUUUUUUUUUUUUUUUUUUUUUUUUUUUUUUUUUUUUUUUUUUUUUUUUUUUUUUUUUUUUUUUUUUUUUUUUUUUUUUUUUUUUUUUUUUUUUUUUUUUUUUUUUU",
"UUUUUUUUUUUUUUUUUUUUUUUUUUUUUUUUUUUUUUUUUUUUUUUUUUUUUUUUUUUUUUUUUUUUUUUUUUUUUUUUUUUUUUUUUUUUUUUUUUUUUUUUUUUUUUUUUUUUUUUUUUUUUUUU",
"UUUUUUUUUUUUUUUUUUUUUUUUUUUUUUUUUUUUUUUUUUUUUUUUUUUUUUUUUUUUUUUUUUUUUUUUUUUUUUUUUUUUUUUUUUUUUUUUUUUUUUUUUUUUUUUUUUUUUUUUUUUUUUUU",
"UUUUUUUUUUUUUUUUUUUUUUUUUUUUUUUUUUUUUUUUUUUUUUUUUUUUUUUUUUUUUUUUUUUUUUUUUUUUUUUUUUUUUUUUUUUUUUUUUUUUUUUUUUUUUUUUUUUUUUUUUUUUUUUU",
"UUUUUUUUUUUUUUUUUUUUUUUUUUUUUUUUUUUUUUUUUUUUUUUUUUUUUUUUUUUUUUUUUUUUUUUUUUUUUUUUUUUUUUUUUUUUUUUUUUUUUUUUUUUUUUUUUUUUUUUUUUUUUUUU",
"UUUUUUUUUUUUUUUUUUUUUUUUUUUUUUUUUUUUUUUUUUUUUUUUUUUUUUUUUUUUUUUUUUUUUUUUUUUUUUUUUUUUUUUUUUUUUUUUUUUUUUUUUUUUUUUUUUUUUUUUUUUUUUUU",
"UUUUUUUUUUUUUUUUUUUUUUUUUUUUUUUUUUUUUUUUUUUUUUUUUUUUUUUUUUUUUUUUUUUUUUUUUUUUUUUUUUUUUUUUUUUUUUUUUUUUUUUUUUUUUUUUUUUUUUUUUUUUUUUU",
"UUUUUUUUUUUUUUUUUUUUUUUUUUUUUUUUUUUUUUUUUUUUUUUUUUUUUUUUUUUUUUUUUUUUUUUUUUUUUUUUUUUUUUUUUUUUUUUUUUUUUUUUUUUUUUUUUUUUUUUUUUUUUUUU",
"UUUUUUUUUUUUUUUUUUUUUUUUUUUUUUUUUUUUUUUUUUUUUUUUUUUUUUUUUUUUUUUUUUUUUUUUUUUUUUUUUUUUUUUUUUUUUUUUUUUUUUUUUUUUUUUUUUUUUUUUUUUUUUUU",
"UUUUUUUUUUUUUUUUUUUUUUUUUUUUUUUUUUUUUUUUUUUUUUUUUUUUUUUUUUUUUUUUUUUUUUUUUUUUUUUUUUUUUUUUUUUUUUUUUUUUUUUUUUUUUUUUUUUUUUUUUUUUUUUU",
"UUUUUUUUUUUUUUUUUUUUUUUUUUUUUUUUUUUUUUUUUUUUUUUUUUUUUUUUUUUUUUUUUUUUUUUUUUUUUUUUUUUUUUUUUUUUUUUUUUUUUUUUUUUUUUUUUUUUUUUUUUUUUUUU"
};
