/* XPM */
static char *xfce4_mcs_manager[] = {
/* columns rows colors chars-per-pixel */
"128 128 78 1 ",
"  c black",
". c #0F0F0F",
"X c #121212",
"o c gray11",
"O c #272727",
"+ c #282628",
"@ c #2B2B2B",
"# c #2F312F",
"$ c #333333",
"% c #3C3C3C",
"& c #444444",
"* c #4C4C4C",
"= c #545454",
"- c #5C5C5C",
"; c #615F5F",
": c #5F615F",
"> c #5F5F61",
", c #615F61",
"< c #5F6161",
"1 c #636363",
"2 c #686668",
"3 c #6A6A6A",
"4 c #767676",
"5 c #797977",
"6 c #7A7A7A",
"7 c #807F80",
"8 c #848484",
"9 c #868886",
"0 c #878888",
"q c #8D8D8D",
"w c #908F8F",
"e c #8F908F",
"r c #90908F",
"t c #8F8F90",
"y c #908F90",
"u c #8F9090",
"i c #949494",
"p c #989797",
"a c #979897",
"s c #989897",
"d c #979798",
"f c #989798",
"g c #979898",
"h c #9B9B9B",
"j c #A09F9F",
"k c #A0A09F",
"l c #9F9FA0",
"z c #A09FA0",
"x c #9FA0A0",
"c c #A3A3A3",
"v c #A8A7A7",
"b c #A7A8A7",
"n c #A8A8A7",
"m c #A7A7A8",
"M c #A8A7A8",
"N c #A7A8A8",
"B c #ACACAC",
"V c #B0AFAF",
"C c #AFB0AF",
"Z c #B0B0AF",
"A c #AFAFB0",
"S c #B0AFB0",
"D c #AFB0B0",
"F c #B3B3B3",
"G c #B8B7B7",
"H c #B7B8B7",
"J c #B8B8B7",
"K c #B7B7B8",
"L c #B8B7B8",
"P c #BBBBBB",
"I c #C0C0BF",
"U c #C4C4C4",
"Y c #C7C7C8",
"T c #CBCBCB",
"R c #D0D0CF",
"E c #CFD0D0",
"W c #D2D2D2",
"Q c None",
/* pixels */
"QQQQQQQQQQQQQQQQQQQQQQQQQQQQQQQQQQQQQQQQQQQQQQQQQQQQQQQQQQQQQQQQQQQQQQQQQQQQQQQQQQQQQQQQQQQQQQQQQQQQQQQQQQQQQQQQQQQQQQQQQQQQQQQQ",
"QQQQQQQQQQQQQQQQQQQQQQQQQQQQQQQQQQQQQQQQQQQQQQQQQQQQQQQQQQQQQQQQQQQQQQQQQQQQQQQQQQQQQQQQQQQQQQQQQQQQQQQQQQQQQQQQQQQQQQQQQQQQQQQQ",
"QQQQQQQQQQQQQQQQQQQQQQQQQQQQQQQQQQQQQQQQQQQQQQQQQQQQQQQQQQQQQQQQQQQQQQQQQQQQQQQQQQQQQQQQQQQQQQQQQQQQQQQQQQQQQQQQQQQQQQQQQQQQQQQQ",
"QQQQQQQQQQQQQQQQQQQQQQQQQQQQQQQQQQQQQQQQQQQQQQQQQQQQQQQQQQQQQQQQQQQQQQQQQQQQQQQQQQQQQQQQQQQQQQQQQQQQQQQQQQQQQQQQQQQQQQQQQQQQQQQQ",
"QQQQQQQQQQQQQQQQQQQQQQQQQQQQQQQQQQQQQQQQQQQQQQQQQQQQQQQQQQQQQQQQQQQQQQQQQQQQQQQQQQQQQQQQQQQQQQQQQQQQQQQQQQQQQQQQQQQQQQQQQQQQQQQQ",
"QQQQQQQQQQQQQQQQQQQQQQQQQQQQQQQQQQQQQQQQQQQQQQQQQQQQQQQQQQQQQQQQQQQQQQQQQQQQQQQQQQQQQQQQQQQQQQQQQQQQQQQQQQQQQQQQQQQQQQQQQQQQQQQQ",
"QQQQQQQQQQQQQQQQQQQQQQQQQQQQQQQQQQQQQQQQQQQQQQQQQQQQQQQQQQQQQQQQQQQQQQQQQQQQQQQQQQQQQQQQQQQQQQQQQQQQQQQQQQQQQQQQQQQQQQQQQQQQQQQQ",
"QQQQQQQQQQQQQQQQQQQQQQQQQQQQQQQQQQQQQQQQQQQQQQQQQQQQQQQQQQQQQQQQQQQQQQQQQQQQQQQQQQQQQQQQQQQQQQQQQQQQQQQQQQQQQQQQQQQQQQQQQQQQQQQQ",
"QQQQQQQQQQQQQQQQQQQQQQQQQQQQQQQQQQQQQQQQQQQQQQQQQQQQQQQQQQQQQQQQQQQQQQQQQQQQQQQQQQQQQQQQQQQQQQQQQQQQQQQQQQQQQQQQQQQQQQQQQQQQQQQQ",
"QQQQQQQQQQQQQQQQQQQQQQQQQQQQQQQQQQQQQQQQQQQQQQQQQQQQQQQQQQQQQQQQQQQQQQQQQQQQQQQQQQQQQQQQQQQQQQQQQQQQQQQQQQQQQQQQQQQQQQQQQQQQQQQQ",
"QQQQQQQQQQQQQQQQQQQQQQQQQQQQQQQQQQQQQQQQQQQQQQQQQQQQQQQQQQQQQQQQQQQQQQQQQQQQQQQQQQQQQQQQQQQQQQQQQQQQQQQQQQQQQQQQQQQQQQQQQQQQQQQQ",
"QQQQQQQQQQQQQQQQQQQQQQQQQQQQQQQQQQQQQQQQQQQQQQQQQQQQQQQQQQQQQQQQQQQQQQQQQQQQQQQQQQQQQQQQQQQQQQQQQQQQQQQQQQQQQQQQQQQQQQQQQQQQQQQQ",
"QQQQQQQQQQQQQQQQQQQQQQQQQQQQQQQQQQQQQQQQQQQQQQQQQQQQQQQQQQQQQQQQQQQQQQQQQQQQQQQQQQQQQQQQQQQQQQQQQQQQQQQQQQQQQQQQQQQQQQQQQQQQQQQQ",
"QQQQQQQQQQQQQQQQQQQQQQQQQQQQQQQQQQQQQQQQQQQQQQQQQQQQQQQQQQQQQQQQQQQQQQQQQQQQQQQQQQQQQQQQQQQQQQQQQQQQQQQQQQQQQQQQQQQQQQQQQQQQQQQQ",
"QQQQQQQQQQQQQQQQQQQQQQQQQQQQQQQQQQQQQQQQQQQQQQQQQQQQQQQQQQQQQQQQQQQQQQQQQQQQQQQQQQQQQQQQQQQQQQQQQQQQQQQQQQQQQQQQQQQQQQQQQQQQQQQQ",
"QQQQQQQQQQQQQQQQQQQQQQQQQQQQQQQQQQQQQQQQQQQQQQQQQQQQQQQQQQQQQQQQQQQQQQQQQQQQQQQQQQQQQQQQQQQQQQQQQQQQQQQQQQQQQQQQQQQQQQQQQQQQQQQQ",
"QQQQQQQQQQQQQQQQQQQQQQQQQQQQQQQQQQQQQQQQQQQQQQQQQQQQQQQQQQQQQQQQQQQQQQQQQQQQQQQQQQQQQQQQQQQQQQQQQQQQQQQQQQQQQQQQQQQQQQQQQQQQQQQQ",
"QQQQQQQQQQQQQQQQQQQQQQQQQQQQQQQQQQQQQQQQQQQQQQQQQQQQQQQQQQQQQQQQQQQQQQQQQQQQQQQQQQQQQQQQQQQQQQQQQQQQQQQQQQQQQQQQQQQQQQQQQQQQQQQQ",
"QQQQQQQQQQQQQQQQQQQQQQQQQQQQQQQQQQQQQQQQQQQQQQQQQQQQQQQQQQQQQQQQQQQQQQQQQQQQQQQQQQQQQQQQQQQQQQQQQQQQQQQQQQQQQQQQQQQQQQQQQQQQQQQQ",
"QQQQQQQQQQQQQQQQQQQQQQQQQQQQQQQQQQQQQQQQQQQQQQQQQQQQQQQQQQQQQQQQQQQQQQQQQQQQQQQQQQQQQQQQQQQQQQQQQQQQQQQQQQQQQQQQQQQQQQQQQQQQQQQQ",
"QQQQQQQQQQQQQQQQQQQQQQQQQQQQQQQQQQQQQQQQQQQQQQQQQQQQQQQQQQQQQQQQQQQQQQQQQQQQQQQQQQQQQQQQQQQQQQQQQQQQQQQQQQQQQQQQQQQQQQQQQQQQQQQQ",
"QQQQQQQQQQQQQQQQQQQQQQQQQQQQQQQQQQQQQQQQQQQQQQQQQQQQQQQQQQQQQQQQQQQQQQQQQQQQQQQQQQQQQQQQQQQQQQQQQQQQQQQQQQQQQQQQQQQQQQQQQQQQQQQQ",
"QQQQQQQQQQQQQQQQQQQQQQEWWWWWWWWWWWWWQQQQQQQQQQQQQQQQQQQQQQWWWWWWWWWWWWWQQQQQQQQQQQQQQQQQQQQQQWWWWWWWWWWWWWWQQQQQQQQQQQQQQQQQQQQQ",
"QQQQQQQQQQQQQQQQQQQQQQWWWWWWWWWWWWWWEQQQQQQQQQQQQQQQQQQQQWWWWWWWWWWWWWWWQQQQQQQQQQQQQQQQQQQQTWWWWWWWWWWWWWWQQQQQQQQQQQQQQQQQQQQQ",
"QQQQQQQQQQQQQQQQQQQQQTWWWWWWWWWWWWWWWQQQQQQQQQQQQQQQQQQQQWWWWWWWWWWWWWWWTQQQQQQQQQQQQQQQQQQQRWWWWWWWWWWWWWWEQQQQQQQQQQQQQQQQQQQQ",
"QQQQQQQQQQQQQQQQQQQQQTWWWWWWWWWWWWWWWQQQQQQQQQQQQQQQQQQQQWWWWWWWWWWWWRWWTQQQQQQQQQQQQQQQQQQQRRRWWWWWWWWWWWRRQQQQQQQQQQQQQQQQQQQQ",
"QQQQQQQQQQQQQQQQQQQQQYRRWWWWWWWWWWRWWQQQQQQQQQQQQQQQQQQQQWWRWWWRWWWWWWRRYQQQQQQQQQQQQQQQQQQQRWRWWWWWWWWWWWWTQQQQQQQQQQQQQQQQQQQQ",
"QQQQQQQQQQQQQQQQQQQQQURRWWWWWWWWRWRREQQQQQQQQQQQQQQQQQQQrRRRWEEEWWWWRWRRYQQQQQQQQQQQQQQQQQQQTRRRWWWWWWWWRRRTQQQQQQQQQQQQQQQQQQQQ",
"QQQQQQQQQQQQQQQQQQQQQUEERRRRWWWERETRWQQQQQQQQQQQQQQQQQQQ9RRRRRRRWWRREERRIQQQQQQQQQQQQQQQQQQQTEETTREREEEERETYQQQQQQQQQQQQQQQQQQQQ",
"QQQQQQQQQQQQQQQQQQQQQITETTETWWEEERRTRQQQQQQQQQQQQQQQQQQQ7RTRTRRRWWRTTTRRPQQQQQQQQQQQQQQQQQQQYEEERRTREETERRRUQQQQQQQQQQQQQQQQQQQQ",
"QQQQQQQQQQQQQQQQQQQQQPTTTRTEETTTTTTEEQQQQQQQQQQQQQQQQQQQ6RRTTRRTWETERTRTPQQQQQQQQQQQQQQQQQQQYTETTTETTETETTTYQQQQQQQQQQQQQQQQQQQQ",
"QQQQQQQQQQQQQQQQQQQQQPRTETETTTETETTTTQQQQQQQQQQQQQQQQQQQ6TTTTTTTETTTTTTTPQQQQQQQQQQQQQQQQQQQYTTTTTTTTTTTETTYQQQQQQQQQQQQQQQQQQQQ",
"QQQQQQQQQQQQQQQQQQQQQPTTTTTTTTTTTTTTYQQQQQQQQQQQQQQQQQQQ6TTTTTTTTTTTTRTTPQQQQQQQQQQQQQQQQQQQYTTTTTTTTTTTTTTUQQQQQQQQQQQQQQQQQQQQ",
"QQQQQQQQQQQQQQQQQQQQQPTTTTTTTTTTTTTTTQQQQQQQQQQQQQQQQQQQ9TTTTTTTTRITTTTIGQQQQQQQQQQQQQQQQQQQUTTTTTTTYTTYYTTIQQQQQQQQQQQQQQQQQQQQ",
"QQQQQQQQQQQQQQQQQQQQQKTTTTTTTTTTYTTTYQQQQQQQQQQQQYYTYUIPPTTYTTTTTTTTTYTTYUYYTTTYQQQQQQQQQQQQUTTYTTYTTTYTTTYIQQQQQQQQQQQQQQQQQQQQ",
"QQQQQQQQQQQQQQQQQQQQQGTYYYTYYTTTTTYYYQQQQQQQQQQUTYTYTYTYTYTYITTTITYTYTTYYYYYTYYYYYQQQQQQQQQQUYYTYTYTYYTYYYTIQQQQQQQQQQQQQQQQQQQQ",
"QQQQQQQQQQQQQQQQQQQQQKYYYYYYYYTIITTITQQQQQQQQQQYYYYYYYYYYYYYYYTITTTTYTITYYYTYYYYYYQQQQQQQQQQUYYYTYYYYYYYYYYIQQQQQQQQQQQQQQQQQQQQ",
"QQQQQQQQQQQQQQQQQQQQQFYYYYYYYYYYIYYYYQQQQQQQQQJYYYUYYYYYYYYYYYYYTITIYYTYYYYYYYYYYYUQQQQQQQQQIYYYIYYYYYYYYYYIQQQQQQQQQQQQQQQQQQQQ",
"QQQQQQQQQQQQQQQQQQQQQGUYUYUYITYYTYITUQQQQQQQQQGYUYYYYYYYYYYYITYYYTITTYYTYYYIYUYUUYIQQQQQQQQQIYYYTIYYIYYYYYUIQQQQQQQQQQQQQQQQQQQQ",
"QQQQQQQQQQQQQQQQQQQQQDYYUYUYTIIYITTIIQQQQQQQQQBUYUUUYUUUUUUUTIIYIITIIYIIYIYYYUUUUYPQQQQQQQQQIUUUYYIYYYYIUYUIQQQQQQQQQQQQQQQQQQQQ",
"QQQQQQQQQQQQQQQQQQQQQKYUYUUUUUUUUUUUUQQQQQQQQQvYUUYUUUUIh61<:<<<;;1:115hPUUUUUUUUUGQQQQQQQQQIUUUIITIUUUUUUULQQQQQQQQQQQQQQQQQQQQ",
"QQQQQQQQQQQQQQQQQQQQQFUUUUUUUUUUUUUUPQQQQQQQQQcUUUUUUUm=                =cUUUUUUUUGQQQQQQQQQPYUUIYIYUUIUUUUPQQQQQQQQQQQQQQQQQQQQ",
"QQQQQQQQQQQQQQQQQQQQQAUIUUUUUUUUUUUUUQQQQQQQQQhUUIUUUU1                  1UUUUUUUUDQQQQQQQQQIUUUYIIYUUUUUUULQQQQQQQQQQQQQQQQQQQQ",
"QQQQQQQQQQQQQQQQQQQQQFUUUIUIUIUUUIUYPQQQQQQQQQhUUIUIIcXQQQQQQQQQQQQQQQQ  XhUUIIUUIZQQQQQQQQQPUIIIYIIIUIUIUULQQQQQQQQQQQQQQQQQQQQ",
"QQQQQQQQQQQQQQQQQQQQQAIUIIUIIIUIPUUIIQQQQQQQQQhUUIIUUiQQQQQQQQQQQQQQQQQQ  rIUPUUPUBQQQQQQQQQPIIUIIIUIIIIIUILQQQQQQQQQQQQQQQQQQQQ",
"QQQQQQQQQQQQQQQQQQQQQAIIIIIIIIIIUPUPPQQQQQQQQQhPIIIIPcQQQQQQQQQQQQQQQQQQQ hUUUPPUUBQQQQQQQQQPIIIIIIIUIIIIIIKQQQQQQQQQQQQQQQQQQQQ",
"QQQQQQQQQQQQQQQQQQQQQFPIPIIIIIIIPUPUPQQQQQQQQQhPIIPUUGQQQQQQQQQQQQQQQQQQQ%DPPPPUPUBQQQQQQQQQPIIIIIIIIIIIIIIKQQQQQQQQQQQQQQQQQQQQ",
"QQQQQQQQQQQQQQQQQQQQQAIIIIIPPIPIPPIPPQQQQQQQQQhIPUPPPPbQQQQQQQQQQQQQQQQQQyUUPIUPPPBQQQQQQQQQPPPIIIIIPIPIPIPFQQQQQQQQQQQQQQQQQQQQ",
"QQQQQQQQQQQQQQQQQQQQQBPIPIPIPIIIIIIIPQQQQQQQQQpPPIPIIIPFQQQQQQQQQQQQQQQQcPPUPIPPIPBQQQQQQQQQHPPIIPPIPIPIIPPFQQQQQQQQQQQQQQQQQQQQ",
"QQQQQQQQQQQQQQQQQQQQQBPPPPIPPPPPPPPIKQQQQQQQQQsPPPPUPPPPPPPPPPPPPPPPPPPPPPPPPPPIPPMQQQQQQQQQGPPPPIPPPPPPPPPGQQQQQQQQQQQQQQQQQQQQ",
"QQQQQQQQQQQQQQQQQQQQQBPPPPPPPPIPPPPPPQQQQQQQQQpPPPPPPPPIPPPPPPPPPPPPPPPPPPPPPPPPPPMQQQQQQQQQGPPPPPPPPPPPPPPFQQQQQQQQQQQQQQQQQQQQ",
"QQQQQQQQQQQQQQQQQQQQQBPPPPPPPPPPPPPPKQQQQQQQQQpPPPPPPPPPPPPPPPPPPPPPPPPPPPPPPPPPPPMQQQQQQQQQGPPPPPPPPPPPPPPFQQQQQQQQQQQQQQQQQQQQ",
"QQQQQQQQQQQQQQQQQQQQQMPPPPKPPPPPKPPKKQQQQQQQQQqPKPPKPPPPPPPPPKPPPPPPPKKPPPPPPPPKPPxQQQQQQQQQHPKPPPPPPPPPPPPDQQQQQQQQQQQQQQQQQQQQ",
"QQQQQQQQQQQQQQQQQQQQQMPPGPKPHKHKPPKKHQQQQQQQQQ-FPPKPPKKKKPHKHPHKPLKKHPPGGGGPPKHPKGQQQQQQQQQQFPPKKKKKKKKKPKPDQQQQQQQQQQQQQQQQQQQQ",
"QQQQQQQQQQQQQQQQQQQQQbGGHHPKHKGHHKGGGQQQQQQQQQQ6GHGGLPKPKKGGHPHHGGKKHKKPGHHJGGHHPuQQQQQQQQQQDPGHHHKPKKKGGPGBQQQQQQQQQQQQQQQQQQQQ",
"QQQQQQQQQQQQQQQQQQQQQbGGGHGHGJGGHHGGGQQQQQQQQQQ -echchchNFGGGGGGGGGGHGHHDxxxxcca3QQQQQQQQQQQFKGGGGHHGGGGGGKSQQQQQQQQQQQQQQQQQQQQ",
"QQQQQQQQQQQQQQQQQQQQQbGGGGFKGGGGGGGGGQQQQQQQQQQQ XXXXXXX2GGGGGFGGGGGGGGG9.XXXXXXQQQQQQQQQQQQAGFGGFKGGHGFGGFBQQQQQQQQQQQQQQQQQQQQ",
"QQQQQQQQQQQQQQQQQQQQQbGFFGGGFGFGGFHFFQQQQQQQQQQQQ       -FGFGGGFFFFFGDGG9     QQQQQQQQQQQQQQAFGGHFFFFFHFGFFBQQQQQQQQQQQQQQQQQQQQ",
"QQQQQQQQQQQQQQQQQQQQQbFFFKFFGGFGGKFFFQQQQQQQQQQQQQQQQ   -FFFGFFGFFGFFFGF0 QQQQQQQQQQQQQQQQQQBGGFFGFGKFFFFGGBQQQQQQQQQQQQQQQQQQQQ",
"QQQQQQQQQQQQQQQQQQQQQbFFFFFFFFFFFFFFFQQQQQQQQQQQQQQQQQQ -GFFFFFFGFGDGFFFqQQQQQQQQQQQQQQQQQQQBFFFFFFFFFGFFFFBQQQQQQQQQQQQQQQQQQQQ",
"QQQQQQQQQQQQQQQQQQQQQcFFFFGDGDFFFFFFDQQQQQQQQQQQQQQQQQQQ1DFFFFFFFFFFFFFFiQQQQQQQQQQQQQQQQQQQVFFFFFFFFFFFFFFBQQQQQQQQQQQQQQQQQQQQ",
"QQQQQQQQQQQQQQQQQQQ65vFFFFDFDFDFFDFFBhQQQQQQQQQQQQQQQQQQ2FFFFDDFFDFDFFDFhQQQQQQQQQQQQQQQQQQQBFDFFDFFDFFDFDDBQQQQQQQQQQQQQQQQQQQQ",
"QQQQQQQQQQQQBDDFDFDFDZDVDDDFFFDFDDDDDFFDDDFFDBQQQQQQQQQQ1DDDDFDFDFDDFDFDhQQQQQQQQQQQQQQQQQQQBDFDDFFDFDDDGDDMQQQQQQQQQQQQQQQQQQQQ",
"QQQQQQQQQQQQDDFDDDDDDFDFDDDDDDSDDDFDDDZZDDDDDDQQQQQQQQQQ3CDDZDZDDDDDDDDDhQQQQQQQQQQQQQQQQQQQBSVVVVDDDDDDDDDMQQQQQQQQQQQQQQQQQQQQ",
"QQQQQQQQQQQBZDDDDZSSDDDDDDZZZSDDDDCCDBZDZVSDZDDQQQQQQQQQ3VBVDDCZDZBDBDCDhQQQQQQQQQQQQQQQQQQQBCBDDDSBDDDDDCCMQQQQQQQQQQQQQQQQQQQQ",
"QQQQQQQQQQQBVVZDVVSSVZDDSDBDVVSDSDBCDVZDBVVDZDBQQQQQQQQQ2SDZVBCZZVBZCCCBhQQQQQQQQQQQQQQQQQQQMZDBBVVBVBBVBCBNQQQQQQQQQQQQQQQQQQQQ",
"QQQQQQQQQQQBBVBDBBVBVVBBBABCBBZBVBBCVBBDDVBDBCBQQQQQQQQQ3BBZBVCBBSVBCBBChQQQQQQQQQQQQQQQQQQQBBDBVDVVBSVBCBBbQQQQQQQQQQQQQQQQQQQQ",
"QQQQQQQQQQQBBBBBBCBBBbhipdihihipihhMBBCBBBABBBBQQQQQQQQQ2BVBBBBBBBVBBCBBxQQQQQQQQQQQQQQQQQQQMBBBBBBBBBVBBBBcQQQQQQQQQQQQQQQQQQQQ",
"QQQQQQQQQQQMBBBBBBBh1#..........X..#1iBBBBBBBBBQQQQQQQQQ2BBBBBBBBBBBBBBBhQQQQQQQQQQQQQQQQQQQMBBBBBBBBBBBBBBbQQQQQQQQQQQQQQQQQQQQ",
"QQQQQQQQQQQnBBBBBBh%                 %hBBBMBBBMQQQQQQQQQ2BMBBBBBBBBBBBBBhQQQQQQQQQQQQQQQQQQQbBBBBnBBBBBBMBBcQQQQQQQQQQQQQQQQQQQQ",
"QQQQQQQQQQQbBMBMMM6  QQQQQQQQQQQQQ    4BBMBBBMMQQQQQQQQQ1BBMBMBMBBBBMMBBhQQQQQQQQQQQQQQQQQQQbMMBMBBBMBMBBBMcQQQQQQQQQQQQQQQQQQQQ",
"QQQQQQQQQQQbMBMMMb&QQQQQQQQQQQQQQQQQ  %cMBMMMMbQQQQQQQQQ1NbBMBMMMMMMMBbMhQQQQQQQQQQQQQQQQQQQcmMMMbMBMBMMMMMcQQQQQQQQQQQQQQQQQQQQ",
"QQQQQQQQQQQbbmMMMb%QQQQQQQQQQQQQQQQQQQ#cMMMBnnbQQQQQQQQQ2bbbvMMMMMmbMMMMsQQQQQQQQQQQQbcchfttMMMMBbbbMMMMMMMbfzcbcbbQQQQQQQQQQQQQ",
"QQQQQQQQQQQcMMMbMM3QQQQQQQQQQQQQQQQQQQ-mMMnMbnbQQQQQQQQQ2mbbmbvMMvbbnMMMdQQQQQQQQQQbbbmMMvmMvbbbbbbbmMbbbbbbbbMMMbbvbQQQQQQQQQQQ",
"QQQQQQQQQQQjbbbbNbrQQQQQQQQQQQQQQQQQQQ0bbcbbbbcQQQQQQQQQ,MbbbbbMbbbbbbbciQQQQQQQQQcbbbccmMcMbccvMcbbcmmcMcbcmvbvbccbbQQQQQQQQQQQ",
"QQQQQQQQQQQcbbcbbbbtQQQQQQQQQQQQQQQQQ6cbbcbbbbcQQQQQQQQQ1bcbbcbcbccbbbcbiQQQQQQQQQccbcmbbbbcbvbbbbccbcmbcbcbcmcccMbcbcQQQQQQQQQQ",
"QQQQQQQQQQQcbccccbccchQQQQQQQQQQQQQwhbccccbccbcQQQQQQQQQ1bbcbcbcccvccccciQQQQQQQQQbbMccbccbcbcbcccmcmcmcmccbcccbmccMccQQQQQQQQQQ",
"QQQQQQQQQQQccbcccccccccbccbccbccbcccbccccccccccQQQQQQQQQ-ccccccccccccccbiQQQQQQQQ4ccccccccccccccccccccccccccccccccccccQQQQQQQQQQ",
"QQQQQQQQQQQhcccccccccccccccccccccccccccccccccckQQQQQQQQQ1ccccccccccccccciQQQQQQQQ4ccccccccci94645555555557tcccccccccbhQQQQQQQQQQ",
"QQQQQQQQQQQhckcczccczczccchcccccczcczccccxcxcccQQQQQQQQQ1chcczjcczcccccciQQQQQQQQ3zczczccc3#X             .=9czczczcchQQQQQQQQQQ",
"QQQQQQQQQQQrcxcccjccjcckccxccclxhjckcccchckcxkhQQQQQQQQQ1cxkhccczccchcchiQQQQQQQQ2cchcccc4                  &hclczczchQQQQQQQQQQ",
"QQQQQQQQQQQ2cllxjcjkckxxhcchhczccckxhchcjcccxc6QQQQQQQQQ-cckczhcchhcckhcrQQQQQQQQ1xlchchh* QQQQQQQQQQQQQQ    4hczzczhhQQQQQQQQQQ",
"QQQQQQQQQQQQ3ichczzchchczchchchchcchhcczjchhi4QQQQQQQQQQ,zhcczlczjccxccxrQQQQQQQQ1hczchxrXQQQQQQQQQQQQQQQQQ  -hchchhcsQQQQQQQQQQ",
"QQQQQQQQQQQQ #******-rzlhhchchcccchxd1****==$QQQQQQQQQQQ-chhhchhhchhhhchrQQQQQQQQ-chhhchrQQQQQQQQQQQQQQQQQQQ -zjhzhckhQQQQQQQQQQ",
"QQQQQQQQQQQQQ       .0chchhchhhhhhchh@     QQQQQQQQQQQQQ-chxhchchchckchkqQQQQQQQQ1chcjhch-QQQQQQQQQQQQQQQQQQQ6hlkhchhhQQQQQQQQQQ",
"QQQQQQQQQQQQQQQ     .0hhhhhcchchchhhi#   QQQQQQQQQQQQQQQ-hchhhhchhhhhhhhqQQQQQQQQ-hhhhhhh0QQQQQQQQQQQQQQQQQQ=hhhhxhhhiQQQQQQQQQQ",
"QQQQQQQQQQQQQQQQQQQ .qhhhjhhhhhhhhhhf#QQQQQQQQQQQQQQQQQQ-hzhhhhhhxhhhchhqQQQQQQQQ-hchhhhhhqQQQQQQQQQQQQQQQQ3qhhhhhhchiQQQQQQQQQQ",
"QQQQQQQQQQQQQQQQQQQQX0hhhhhhhhhhhhhhf%QQQQQQQQQQQQQQQQQQ-hhhhhhhhhhhhhhhqQQQQQQQQ-hhhhhhhhhhhihishgghifhiiihhhhhhhhhhiQQQQQQQQQQ",
"QQQQQQQQQQQQQQQQQQQQQqhhhhhhhhhhhhhhhQQQQQQQQQQQQQQQQQQQ-hhhhhhhhhhhhhph0QQQQQQQQ-hhhhahhhhhhhhhhhhhhhphhhhhhhhhhhhhhiQQQQQQQQQQ",
"QQQQQQQQQQQQQQQQQQQQQqshhhihhfhhfhahiQQQQQQQQQQQQQQQQQQQ-hghihaghhhihshiqQQQQQQQQ-hhhahihphiihhdihshphhihhihhiihihdhhrQQQQQQQQQQ",
"QQQQQQQQQQQQQQQQQQQQQqhhahhhihhishhhhQQQQQQQQQQQQQQQQQQQ-ihihhhhphhihhhg0QQQQQQQQ-ddghahihshhpshhhishshihigdihhhhihifrQQQQQQQQQQ",
"QQQQQQQQQQQQQQQQQQQQQ0pphiihihhihiihiQQQQQQQQQQQQQQQQQQQ-hhihiihphihihih0QQQQQQQQ$qfahishihiahihifhpihihasphhiigihdpp8QQQQQQQQQQ",
"QQQQQQQQQQQQQQQQQQQQQ0hiigaihighiihiiQQQQQQQQQQQQQQQQQQQ-hifddidihhihihi0QQQQQQQQQ2iaaaaihihighiihhiasihhihfhfgghihi0QQQQQQQQQQQ",
"QQQQQQQQQQQQQQQQQQQQQ0ihisihihipihhiiQQQQQQQQQQQQQQQQQQQ=iaidihiiiihhiih0QQQQQQQQQQ-9teeyqresiiiiiihigiiiaiiqqerqer6QQQQQQQQQQQQ",
"QQQQQQQQQQQQQQQQQQQQQ0diifiiiiihiiiiiQQQQQQQQQQQQQQQQQQQ-fiiiddiipiiiiii0QQQQQQQQQQ o++@++@*uiihihiihifiiii8$++@+@#QQQQQQQQQQQQQ",
"QQQQQQQQQQQQQQQQQQQQQ9iiiiiiiiiiiiiiiQQQQQQQQQQQQQQQQQQQ-iiiiiiiiiiiiiii9QQQQQQQQQQQ       Oqiiiiiiiiiiiiii8.     QQQQQQQQQQQQQQ",
"QQQQQQQQQQQQQQQQQQQQQ9iiriiiuiiiiiiiuQQQQQQQQQQQQQQQQQQQ-iiiiriiiiiiiiii9QQQQQQQQQQQQQQ    +qiiiriiiiiiiiii8.  QQQQQQQQQQQQQQQQQ",
"QQQQQQQQQQQQQQQQQQQQQ8iiiiiiiiitiiiurQQQQQQQQQQQQQQQQQQQ=iriiiriruiitiri8QQQQQQQQQQQQQQQQQ +qiriirriitirirr8QQQQQQQQQQQQQQQQQQQQ",
"QQQQQQQQQQQQQQQQQQQQQ9riuiyrriitirrirQQQQQQQQQQQQQQQQQQQ=iiryririuiuriri8QQQQQQQQQQQQQQQQQQ#qurirriititrriy9QQQQQQQQQQQQQQQQQQQQ",
"QQQQQQQQQQQQQQQQQQQQQ8irriyiitirrirrtQQQQQQQQQQQQQQQQQQQ=irrritiuitirtyi8QQQQQQQQQQQQQQQQQQ#qrrrirrrttirryy9QQQQQQQQQQQQQQQQQQQQ",
"QQQQQQQQQQQQQQQQQQQQQ8rrrrrrttttrrrrqQQQQQQQQQQQQQQQQQQQ=rirrryytuurrrrr8QQQQQQQQQQQQQQQQQQ$qyyyrrrrttutrrr0QQQQQQQQQQQQQQQQQQQQ",
"QQQQQQQQQQQQQQQQQQQQQ8trtttrttrqtrttqQQQQQQQQQQQQQQQQQQQ=rttyyqyttttqyrr6QQQQQQQQQQQQQQQQQQ$0yyytttrttqtyyt0QQQQQQQQQQQQQQQQQQQQ",
"QQQQQQQQQQQQQQQQQQQQQ6reqtrtqttqrtqqqQQQQQQQQQQQQQQQQQQQ=rqyqtqwyqqqrtqt8QQQQQQQQQQQQQQQQQQ$qqtqtqrtqtqrwqq0QQQQQQQQQQQQQQQQQQQQ",
"QQQQQQQQQQQQQQQQQQQQQ8qqqqqqqqqqqqqqqQQQQQQQQQQQQQQQQQQQ=qqqqqqqqtqqqqqq6QQQQQQQQQQQQQQQQQQQ0qqqqqqqqqqqqqq9QQQQQQQQQQQQQQQQQQQQ",
"QQQQQQQQQQQQQQQQQQQQQ4qqqq0qqqqqqqqq9QQQQQQQQQQQQQQQQQQQ*qqqqqqqqqqqqqq04QQQQQQQQQQQQQQQQQQQ9qqqqqq0qq0qqqq7QQQQQQQQQQQQQQQQQQQQ",
"QQQQQQQQQQQQQQQQQQQQQ*q0qqqqqqq0qqq04QQQQQQQQQQQQQQQQQQQQ4q0qq0qq00qqqq7QQQQQQQQQQQQQQQQQQQQ-q0qqqqqqqqq0q02QQQQQQQQQQQQQQQQQQQQ",
"QQQQQQQQQQQQQQQQQQQQQQ-80qqqqq0qqq92QQQQQQQQQQQQQQQQQQQQQ$3q00qqq0qqq06QQQQQQQQQQQQQQQQQQQQQQ-8qq00q0q0q082QQQQQQQQQQQQQQQQQQQQQ",
"QQQQQQQQQQQQQQQQQQQQQQ +&&&&&&&&&&%QQQQQQQQQQQQQQQQQQQQQQQ.%&&&&&&&&&&QQQQQQQQQQQQQQQQQQQQQQQ #&&&&&&&&&*#QQQQQQQQQQQQQQQQQQQQQQ",
"QQQQQQQQQQQQQQQQQQQQQQQ          QQQQQQQQQQQQQQQQQQQQQQQQQ           QQQQQQQQQQQQQQQQQQQQQQQQQ          QQQQQQQQQQQQQQQQQQQQQQQQ",
"QQQQQQQQQQQQQQQQQQQQQQQQQ      QQQQQQQQQQQQQQQQQQQQQQQQQQQQQ       QQQQQQQQQQQQQQQQQQQQQQQQQQQQQ      QQQQQQQQQQQQQQQQQQQQQQQQQQ",
"QQQQQQQQQQQQQQQQQQQQQQQQQQQQQQQQQQQQQQQQQQQQQQQQQQQQQQQQQQQQQQQQQQQQQQQQQQQQQQQQQQQQQQQQQQQQQQQQQQQQQQQQQQQQQQQQQQQQQQQQQQQQQQQQ",
"QQQQQQQQQQQQQQQQQQQQQQQQQQQQQQQQQQQQQQQQQQQQQQQQQQQQQQQQQQQQQQQQQQQQQQQQQQQQQQQQQQQQQQQQQQQQQQQQQQQQQQQQQQQQQQQQQQQQQQQQQQQQQQQQ",
"QQQQQQQQQQQQQQQQQQQQQQQQQQQQQQQQQQQQQQQQQQQQQQQQQQQQQQQQQQQQQQQQQQQQQQQQQQQQQQQQQQQQQQQQQQQQQQQQQQQQQQQQQQQQQQQQQQQQQQQQQQQQQQQQ",
"QQQQQQQQQQQQQQQQQQQQQQQQQQQQQQQQQQQQQQQQQQQQQQQQQQQQQQQQQQQQQQQQQQQQQQQQQQQQQQQQQQQQQQQQQQQQQQQQQQQQQQQQQQQQQQQQQQQQQQQQQQQQQQQQ",
"QQQQQQQQQQQQQQQQQQQQQQQQQQQQQQQQQQQQQQQQQQQQQQQQQQQQQQQQQQQQQQQQQQQQQQQQQQQQQQQQQQQQQQQQQQQQQQQQQQQQQQQQQQQQQQQQQQQQQQQQQQQQQQQQ",
"QQQQQQQQQQQQQQQQQQQQQQQQQQQQQQQQQQQQQQQQQQQQQQQQQQQQQQQQQQQQQQQQQQQQQQQQQQQQQQQQQQQQQQQQQQQQQQQQQQQQQQQQQQQQQQQQQQQQQQQQQQQQQQQQ",
"QQQQQQQQQQQQQQQQQQQQQQQQQQQQQQQQQQQQQQQQQQQQQQQQQQQQQQQQQQQQQQQQQQQQQQQQQQQQQQQQQQQQQQQQQQQQQQQQQQQQQQQQQQQQQQQQQQQQQQQQQQQQQQQQ",
"QQQQQQQQQQQQQQQQQQQQQQQQQQQQQQQQQQQQQQQQQQQQQQQQQQQQQQQQQQQQQQQQQQQQQQQQQQQQQQQQQQQQQQQQQQQQQQQQQQQQQQQQQQQQQQQQQQQQQQQQQQQQQQQQ",
"QQQQQQQQQQQQQQQQQQQQQQQQQQQQQQQQQQQQQQQQQQQQQQQQQQQQQQQQQQQQQQQQQQQQQQQQQQQQQQQQQQQQQQQQQQQQQQQQQQQQQQQQQQQQQQQQQQQQQQQQQQQQQQQQ",
"QQQQQQQQQQQQQQQQQQQQQQQQQQQQQQQQQQQQQQQQQQQQQQQQQQQQQQQQQQQQQQQQQQQQQQQQQQQQQQQQQQQQQQQQQQQQQQQQQQQQQQQQQQQQQQQQQQQQQQQQQQQQQQQQ",
"QQQQQQQQQQQQQQQQQQQQQQQQQQQQQQQQQQQQQQQQQQQQQQQQQQQQQQQQQQQQQQQQQQQQQQQQQQQQQQQQQQQQQQQQQQQQQQQQQQQQQQQQQQQQQQQQQQQQQQQQQQQQQQQQ",
"QQQQQQQQQQQQQQQQQQQQQQQQQQQQQQQQQQQQQQQQQQQQQQQQQQQQQQQQQQQQQQQQQQQQQQQQQQQQQQQQQQQQQQQQQQQQQQQQQQQQQQQQQQQQQQQQQQQQQQQQQQQQQQQQ",
"QQQQQQQQQQQQQQQQQQQQQQQQQQQQQQQQQQQQQQQQQQQQQQQQQQQQQQQQQQQQQQQQQQQQQQQQQQQQQQQQQQQQQQQQQQQQQQQQQQQQQQQQQQQQQQQQQQQQQQQQQQQQQQQQ",
"QQQQQQQQQQQQQQQQQQQQQQQQQQQQQQQQQQQQQQQQQQQQQQQQQQQQQQQQQQQQQQQQQQQQQQQQQQQQQQQQQQQQQQQQQQQQQQQQQQQQQQQQQQQQQQQQQQQQQQQQQQQQQQQQ",
"QQQQQQQQQQQQQQQQQQQQQQQQQQQQQQQQQQQQQQQQQQQQQQQQQQQQQQQQQQQQQQQQQQQQQQQQQQQQQQQQQQQQQQQQQQQQQQQQQQQQQQQQQQQQQQQQQQQQQQQQQQQQQQQQ",
"QQQQQQQQQQQQQQQQQQQQQQQQQQQQQQQQQQQQQQQQQQQQQQQQQQQQQQQQQQQQQQQQQQQQQQQQQQQQQQQQQQQQQQQQQQQQQQQQQQQQQQQQQQQQQQQQQQQQQQQQQQQQQQQQ",
"QQQQQQQQQQQQQQQQQQQQQQQQQQQQQQQQQQQQQQQQQQQQQQQQQQQQQQQQQQQQQQQQQQQQQQQQQQQQQQQQQQQQQQQQQQQQQQQQQQQQQQQQQQQQQQQQQQQQQQQQQQQQQQQQ",
"QQQQQQQQQQQQQQQQQQQQQQQQQQQQQQQQQQQQQQQQQQQQQQQQQQQQQQQQQQQQQQQQQQQQQQQQQQQQQQQQQQQQQQQQQQQQQQQQQQQQQQQQQQQQQQQQQQQQQQQQQQQQQQQQ"
};
