/* XPM */
static char *baobab[] = {
/* columns rows colors chars-per-pixel */
"24 24 142 2 ",
"   c #16E715F41F8A",
".  c #17FB17FA180D",
"X  c #194F194D1956",
"o  c #1A8C1A8C1A8C",
"O  c #1AF51AF41AF7",
"+  c #1C051C051C05",
"@  c #1D751D751D75",
"#  c #1DE71DE61DEF",
"$  c #1F301F301F32",
"%  c #1D2A1C3A2591",
"&  c #188713743CF2",
"*  c #1FF31FF21FF5",
"=  c #2319231A2319",
"-  c #277127712771",
";  c #29E329E329E3",
":  c #2C682C682C68",
">  c #33B933B933B9",
",  c #3D5F3D5F3D5F",
"<  c #1FF51B254247",
"1  c #36E930F95FA6",
"2  c #32D82C086172",
"3  c #272420B07ABD",
"4  c #269B22167EFD",
"5  c #49DC49DC49DC",
"6  c #7EC17EB47EE9",
"7  c #2BEE26088950",
"8  c #31FE2D529F9B",
"9  c #359B32BA93C5",
"0  c #7D047A0A891E",
"q  c #40BB411EADF5",
"w  c #84027DAB9A33",
"e  c #84E47F2E9889",
"r  c #85917DD39F84",
"t  c #80E8807E82E5",
"y  c #820D82068227",
"u  c #83B483AE83C8",
"i  c #858A857F85AB",
"p  c #86A186A2869F",
"a  c #86E786DE870A",
"s  c #881D88258807",
"d  c #826180398B4E",
"f  c #883A87C189E6",
"g  c #88A487878C70",
"h  c #893287D18DE0",
"j  c #882688238831",
"k  c #8870880D89DB",
"l  c #89AD89A889BF",
"z  c #8A9C8A9B8A9D",
"x  c #8BA58BA58BA4",
"c  c #892588318C5E",
"v  c #8C608C608C60",
"b  c #8D608D608D60",
"n  c #8EA38EA38EA5",
"m  c #8FBC8FBC8FBC",
"M  c #908A908A908A",
"N  c #917691769179",
"B  c #92799279927B",
"V  c #939B939B939B",
"C  c #94AC94AC94AC",
"Z  c #95CB95CB95CB",
"A  c #966996699669",
"S  c #97BE97BE97BE",
"D  c #989C989C989C",
"F  c #999E999E999E",
"G  c #9ADA9ADA9ADA",
"H  c #9BD89BD89BD8",
"J  c #9C849C849C84",
"K  c #9D8C9D8A9D8E",
"L  c #9E6E9E6E9E6E",
"P  c #9F9E9F9E9F9E",
"I  c #A054A054A055",
"U  c #A1D1A1D0A1D4",
"Y  c #A2B9A2B9A2B9",
"T  c #A3C3A3C3A3C3",
"R  c #A49FA49EA4A2",
"E  c #A56CA56CA56C",
"W  c #A693A693A693",
"Q  c #A7A1A7A1A7A1",
"!  c #A8DDA8DDA8DD",
"~  c #A9ACA9ABA9B0",
"^  c #AAB5AAB1AABD",
"/  c #AB27AB24AB2D",
"(  c #AB9DAB9DAB9D",
")  c #ACB1ACB0ACB4",
"_  c #ADCDADCDADCD",
"`  c #AE9AAE9AAE9B",
"'  c #AFECAFEBAFF0",
"]  c #B0BDB0BCB0C0",
"[  c #B1AFB1AFB1AF",
"{  c #B2A5B2A5B2A5",
"}  c #B32EB32CB333",
"|  c #B36DB36DB36D",
" . c #B483B483B483",
".. c #B5E4B5E4B5E4",
"X. c #B6B1B6B1B6B1",
"o. c #B788B788B788",
"O. c #B87BB87BB87C",
"+. c #B9B8B9B7B9BA",
"@. c #BAA4BAA4BAA4",
"#. c #BBABBBABBBAF",
"$. c #BCA9BCA9BCA9",
"%. c #BDEEBDEEBDEE",
"&. c #BE44BE45BE43",
"*. c #BF7ABF7ABF7A",
"=. c #C0B5C0B5C0B5",
"-. c #C1B6C1B6C1B6",
";. c #C2C5C2C5C2C5",
":. c #C371C371C371",
">. c #C470C470C470",
",. c #C5E3C5E3C5E3",
"<. c #C6CEC6CEC6CE",
"1. c #C799C799C799",
"2. c #C907C907C907",
"3. c #C9DEC9DEC9DE",
"4. c #CB32CB32CB32",
"5. c #CBC9CBC9CBC9",
"6. c #CC7ACC7ACC7A",
"7. c #CE18CE18CE18",
"8. c #CECFCECFCECF",
"9. c #D02ED02ED02E",
"0. c #D0A6D0A6D0A6",
"q. c #D1E3D1E3D1E3",
"w. c #D2A2D2A2D2A2",
"e. c #D3D2D3D2D3D2",
"r. c #D4DBD4DBD4DB",
"t. c #D5DBD5DBD5DB",
"y. c #D69BD69BD69B",
"u. c #D7C8D7C8D7C8",
"i. c #D905D905D905",
"p. c #DA03DA03DA03",
"a. c #DAA9DAA9DAA9",
"s. c #DB95DB95DB95",
"d. c #DC9BDC9BDC9B",
"f. c #DE09DE09DE09",
"g. c #DF43DF43DF43",
"h. c #DFDCDFDCDFDC",
"j. c #E0B8E0B8E0B8",
"k. c #E1C5E1C5E1C5",
"l. c #E2CAE2CAE2CA",
"z. c #E3E8E3E8E3E8",
"x. c #E4E9E4E9E4E9",
"c. c None",
/* pixels */
"c.c.c.c.c.c.c.c.c.c.c.c.c.c.c.c.c.c.c.c.c.c.c.c.",
"c.c.c.c.c.c.c.c.c.c.c.c.c.c.c.c.c.c.c.c.c.c.c.c.",
"c.c.c.c.x.x.x.x.k.k.k.d.a.u.a.u.e.e.7.7.c.c.c.c.",
"c.c.c.c.x.x.k.k.k.d.a.a.a.u.u.e.e.7.7.5.c.c.c.c.",
"c.c.c.k.k.k.d.d.a.a.u.u.e.e.7.7.7.5.,.;.;.c.c.c.",
"c.c.c.d.d.d.a.u.u.u.e.7.7.7.5.5.,.;.;.%.#.c.c.c.",
"c.c.c.d.d.u.u.u.e.e.7.5.,.,.,.;.%.%.#.#.X.c.c.c.",
"c.c.c.u.e.e.7.5.5.,.;.X.X.#.#.X.X.X.} ' ' c.c.c.",
"c.c.e.7.;.;.%.%.#.X.X.X.#.#.X.' } } ~ ' ~ c.c.c.",
"c.c.7.5.%.#.O.X.X.} ' ' ~ ~ ~ R R R R R R U c.c.",
"c.c.5.5.%.#.#. .} ' ' ' ~ ~ R R U R U U U L c.c.",
"c.c.,.,.;.;.%.#.} } ' ~ ~ ! R R R U U L F F c.c.",
"c.c.;.%.$.#.X.X.} } ' ' ( ~ R U U L F F C C c.c.",
"c.%.#.#.X.} } ] ' ~ ! R R U L H F C C C V m m c.",
"c.X.X.X.} ' ' ~ R R U U L L F S C V m m m m l c.",
"c.} } ' ' ~ ! R U U L F F C C V m m m m l a l c.",
"c.' ' ~ R U U U L F F C C V V m l l l l f a a c.",
"~ ~ R R U U L F F C V V m m m l l l f g h h f 6 ",
"c.C C C V V m m m l l l a a a u u u e h r w 0 c.",
"c.5 > : = = * # * * * # * * # # # % & 3 8 7 1 c.",
"c., : * # # X X X X # # # # X X X   & 4 q 9 2 c.",
"c.c.c.c.c.c.c.c.c.c.c.c.c.c.c.c.c.c.c.c.c.c.c.c.",
"c.c.c.c.c.c.c.c.c.c.c.c.c.c.c.c.c.c.c.c.c.c.c.c.",
"c.c.c.c.c.c.c.c.c.c.c.c.c.c.c.c.c.c.c.c.c.c.c.c."
};
