/* XPM */
static char *bluefish[] = {
/* columns rows colors chars-per-pixel */
"24 24 104 2 ",
"   c #325D325D3242",
".  c #3F593F613F61",
"X  c #468C46884696",
"o  c #46ED46EF46EB",
"O  c #4BA44B9F4BB2",
"+  c #4CC64CC64CCA",
"@  c #4D074D034D0A",
"#  c #56DC56C95711",
"$  c #5F2B5F1B5F82",
"%  c #628962846296",
"&  c #6409640F6445",
"*  c #68B168AC68B0",
"=  c #692E6927694D",
"-  c #6F0B6F0A6EDA",
";  c #749E7491746D",
":  c #75B175C275C2",
">  c #788378877883",
",  c #7975797879E8",
"<  c #7B0F7B0F7AE8",
"1  c #7C7F7C647C57",
"2  c #803B802F80B9",
"3  c #8351834F8343",
"4  c #8471847F84D1",
"5  c #85C985AA8644",
"6  c #867F868386CA",
"7  c #8690869F8722",
"8  c #877D878087D7",
"9  c #87D687ED8820",
"0  c #88F188EF894F",
"q  c #8C9A8CA68D61",
"w  c #8D2B8D378DE8",
"e  c #8E2C8E3A8ED3",
"r  c #905790399051",
"t  c #9273926E9299",
"y  c #93A9939C93B8",
"u  c #942A94139417",
"i  c #94A8949F94B1",
"p  c #959E95929593",
"a  c #976397519736",
"s  c #999E99A9999F",
"d  c #9A119A279A0B",
"f  c #9A779A669A6D",
"g  c #9B1F9B1A9B13",
"h  c #9BAD9BAA9BA5",
"j  c #9C949C8B9CA7",
"k  c #9D729D789D70",
"l  c #9F4D9F599F76",
"z  c #A029A018A00C",
"x  c #A0AFA0C3A0A5",
"c  c #A0FFA115A12A",
"v  c #A1A7A1A3A1A9",
"b  c #A399A375A37B",
"n  c #A414A40AA439",
"m  c #A5B9A5B6A5D5",
"M  c #A66FA677A68B",
"N  c #A718A721A737",
"B  c #A799A7A0A7AB",
"V  c #A82CA818A82D",
"C  c #A963A94FA95D",
"Z  c #AB10AB20AB1A",
"A  c #AB29AB23AB35",
"S  c #AB79AB86AB85",
"D  c #AC20AC3DAC0E",
"F  c #AC9EACA4AC9C",
"G  c #ADC2ADC8ADA8",
"H  c #AE4DAE30AE2C",
"J  c #AEDAAED5AED5",
"K  c #B10DB10CB106",
"L  c #B1B6B1BCB1B5",
"P  c #B2B0B2B3B2B8",
"I  c #B32DB341B31F",
"U  c #B3D5B3D2B3D3",
"Y  c #B4E1B4DCB4E9",
"T  c #B6BFB6BCB6B3",
"R  c #B80AB803B819",
"E  c #B8A8B89AB8A4",
"W  c #B9BDB9C4B9BC",
"Q  c #BA4DBA4CBA64",
"!  c #BB73BB5FBB5F",
"~  c #BE39BE28BE32",
"^  c #BEAFBEBABEAB",
"/  c #BFBBBFB5BFBA",
"(  c #C28AC27DC2AB",
")  c #C400C404C42A",
"_  c #C4ADC4B1C4B6",
"`  c #C52AC52CC552",
"'  c #C5ACC5B5C5C4",
"]  c #C66BC66DC67A",
"[  c #CA7BCA7FCA42",
"{  c #CAC2CACACAAA",
"}  c #CB4DCB43CB41",
"|  c #CBDBCBE3CBCF",
" . c #CC60CC53CC3B",
".. c #CF9ECFABCFA9",
"X. c #D0C2D0D5D0D3",
"o. c #D15ED164D14C",
"O. c #D14FD14DD157",
"+. c #D1D1D1D8D1D3",
"@. c #D5BFD5EAD5CA",
"#. c #D6E8D6CDD6E7",
"$. c #D754D759D73B",
"%. c #D7F3D7EFD7F4",
"&. c #DAC8DAB5DAC6",
"*. c None",
/* pixels */
"*.*.*.*.*.*.*.*.*.*.*.*.*.*.*.*.*.*.*.*.*.*.*.*.",
"*.*.*.*.*.*.*.*.*.*.*.*.*.*.*.*.*.*.*.*.*.*.*.*.",
"*.*.*.*.*.*.*.*.*.*.*.*.*.*.*.*.*.*.*.*.*.*.*.*.",
"*.*.*.*.*.*.*.*.*.*.*.*.*.*.*.*.*.*.*.*.*.*.*.*.",
"*.*.*.*.*.*.*.*.*.*.*.*.*.*.*.&.&.&.*.*.*.*.*.*.",
"*.*.*.*.*.*.*.*.*.*.*.&.$.$.$.&.&.$.$.$.*.*.*.*.",
"*.*.*.*.*.*.*.*.*.X.X.X.X.X.X.X.X.X.X. .*.*.*.*.",
"*.*.*.*.*.*.*.[  . . . . .[ [ [ [ [ [ ] *.*.*.*.",
"*.*.*.*.*.*.) ] ] ] ] ] ] ] ( ] ( ] ( *.*.*.*.*.",
"*.*.*.*.*.*./ / ( / ^ ^ ^ ^ ^ ^ ^ ^ W *.*.*.*.*.",
"*.*.*.*.*.W W W W W W W R R R R R R R *.R R R *.",
"*.*.*.*.I U I R I I I I I I I I I I F I I F C *.",
"*.*.l l F I F F F F F F F F F F C F F C C C *.*.",
"*.*.*.. > n C V C V C N N N N N N N l l N N N *.",
"*.*.*.*.*.% a c c c c c c c l z l c 2 X : a h *.",
"*.*.*.*.*.*.O 1 a l j d d d d d d d d *.*.*.*.*.",
"*.*.*.*.*.*.*.*.@ 2 a r a r a r a r r *.*.*.*.*.",
"*.*.*.*.*.*.*.*.*.# 5 > & 9 q q q q q *.*.*.*.*.",
"*.*.*.*.*.*.*.*.*.*.$ 2 = & 5 0 0 0 5 *.*.*.*.*.",
"*.*.*.*.*.*.*.*.*.*.*.X - *.@ = > > : *.*.*.*.*.",
"*.*.*.*.*.*.*.*.*.*.*.*.*.*.*.*.  *.*.*.*.*.*.*.",
"*.*.*.*.*.*.*.*.*.*.*.*.*.*.*.*.*.*.*.*.*.*.*.*.",
"*.*.*.*.*.*.*.*.*.*.*.*.*.*.*.*.*.*.*.*.*.*.*.*.",
"*.*.*.*.*.*.*.*.*.*.*.*.*.*.*.*.*.*.*.*.*.*.*.*."
};
