/* XPM */
static char *browser[] = {
/* columns rows colors chars-per-pixel */
"24 24 109 2 ",
"   c #2B3F2B582B4B",
".  c #2EE92ED62ED5",
"X  c #447644794487",
"o  c #491A493F4940",
"O  c #558F559055A1",
"+  c #57D957DA5816",
"@  c #58C558D8590F",
"#  c #5A5A5A475A56",
"$  c #5E055DFE5E41",
"%  c #5F915F8F5FD2",
"&  c #630662F5630F",
"*  c #7DA87DBB7DBD",
"=  c #805880538056",
"-  c #83B183A583A7",
";  c #8A788AA48AA2",
":  c #8F628F698F73",
">  c #904590309039",
",  c #9173915E916E",
"<  c #925192589260",
"1  c #937B93879388",
"2  c #94E994CD94D1",
"3  c #95DD95E495E3",
"4  c #96869640964C",
"5  c #97C097D797DA",
"6  c #988E9895989B",
"7  c #999C99A799AB",
"8  c #9BC39BD59BCD",
"9  c #9CF59CF29CEF",
"0  c #9DB09DB89DB8",
"q  c #9E769E749E76",
"w  c #9F8D9F849F93",
"e  c #A099A09EA0A2",
"r  c #A16BA16AA16A",
"t  c #A268A25AA25F",
"y  c #A39DA38EA37A",
"u  c #A485A48FA491",
"i  c #A5CFA5D1A5D4",
"p  c #A6F1A6FCA6FC",
"a  c #A717A72DA720",
"s  c #A790A7A5A79A",
"d  c #A809A827A834",
"f  c #A85DA86AA863",
"g  c #A9C1A9AFA9B6",
"h  c #AA69AA76AA6E",
"j  c #AB01AB33AB24",
"k  c #ABCFABC6ABC8",
"l  c #ACB9ACBCACB8",
"z  c #AD8DAD81AD87",
"x  c #AECCAEC1AECE",
"c  c #AF3CAED5AED5",
"v  c #AFB7AFA4AFB3",
"b  c #B19CB1A1B1A5",
"n  c #B2D8B2D2B2D7",
"m  c #B347B2BDB2C0",
"M  c #B396B3A0B3A3",
"N  c #B456B447B451",
"B  c #B586B4EDB4EE",
"V  c #B617B612B61C",
"C  c #B68DB679B66C",
"Z  c #B720B745B73B",
"A  c #B7DDB7CBB7D3",
"S  c #B8B4B82DB82D",
"D  c #B7E6B81FB852",
"F  c #B89BB899B89B",
"G  c #B9D3B9A4B9A3",
"H  c #BAADBAB0BAB3",
"J  c #BB67BB35BB27",
"K  c #BBE6BBC6BBD4",
"L  c #BC91BCA4BC9F",
"P  c #BD48BD44BD2C",
"I  c #BDB2BDB2BDAB",
"U  c #BE8EBEA1BEAA",
"Y  c #C0BCC0BBC0C2",
"T  c #C14FC127C128",
"R  c #C14BC13AC146",
"E  c #C1AEC1B8C1AF",
"W  c #C2A6C2ADC2B4",
"Q  c #C353C33FC33A",
"!  c #C3A5C39FC39B",
"~  c #C47CC477C468",
"^  c #C5DBC5DDC5D5",
"/  c #C6C7C6C0C6C9",
"(  c #C746C765C752",
")  c #C7E3C7FDC7FF",
"_  c #C84BC845C843",
"`  c #C81CC853C820",
"'  c #C831C84BC858",
"]  c #C8D8C8E9C8BA",
"[  c #C9D9C9C8C9AF",
"{  c #CA57CA66CA32",
"}  c #CAD1CAC7CAC0",
"|  c #CB7CCB88CB7D",
" . c #CD10CD1DCCED",
".. c #CDF5CE00CDFC",
"X. c #CE2DCE4FCE4E",
"o. c #CEBCCED0CEBE",
"O. c #CF00CF52CF0F",
"+. c #CF97CFAACFA5",
"@. c #D1DCD1D8D1BF",
"#. c #D295D247D296",
"$. c #D32FD34FD338",
"%. c #D33BD354D35F",
"&. c #D5C5D5C8D5BD",
"*. c #D696D658D674",
"=. c #D90AD93AD92C",
"-. c #DA23DA0DDA0A",
";. c #DBAADBECDBE2",
":. c #DC7EDCD2DCCD",
">. c None",
/* pixels */
">.>.>.>.>.>.>.>.>.>.>.>.>.>.>.>.>.>.>.>.>.>.>.>.",
">.>.>.>.>.>.>.>.>.>.>.>.>.>.>.>.>.>.>.>.>.>.>.>.",
">.>.>.>.>.>.>.>.>.;.:.;.;.=.>.>.>.>.>.>.>.>.>.>.",
">.>.>.>.>.>.>.*.@.A { ;.;.K g I @.>.>.>.>.>.>.>.",
">.>.>.>.>.>.@.M g y K / M ! / M ! @.>.>.>.>.>.>.",
">.>.>.>.>.o.K I o.@.A A K *.;./ z / o.>.>.>.>.>.",
">.>.>.>.{ { / o.o.>.>.>.>.Y A M K / { _ >.>.>.>.",
">.>.>.! / / / ! g o.>.>.>.>./ I / / / / / >.>.>.",
">.>.>.! ! ! K z { >.>.>.>.o.M 0 0 z I ! Y >.>.>.",
">.>.A K K A M >.>.>.>.>.>.I z I A y g I K >.>.>.",
">.>.A M 0 p >.>.>.>.>.>.>.I K A K K z N z A >.>.",
">.>.g M / >.>.>.>.>.>.>.' M M M M M g 0 M M >.>.",
">.>.y 5 y / >.>.>.>.>.>.K k z M z z z y y z >.>.",
">.>.0 ! g y z z ! >.>.>.A 5 8 0 g g g g 0 p >.>.",
">.>., I >.A y p g K >.>.>.M p 0 y p p 0 8 >.>.>.",
">.>.>.p ;.g y 0 y y K >.>.>.>.I 0 y 0 y 0 >.>.>.",
">.>.>.- / g , 0 0 0 A >.>.>.>./ 0 0 8 8 1 >.>.>.",
">.>.>.>., { 0 5 5 8 K >.>.>.>.>.8 5 8 > >.>.>.>.",
">.>.>.>.O 5 M , , y >.>.>.>.>.>.8 , ; >.>.>.>.>.",
">.>.>.>.>.o * , , ! >.>.>.>.>.>.5 * >.>.>.>.>.>.",
">.>.>.>.>.>.. # * 8 y M z 0 1 - & >.>.>.>.>.>.>.",
">.>.>.>.>.>.>.>.  X O $ & # o >.>.>.>.>.>.>.>.>.",
">.>.>.>.>.>.>.>.>.>.>.>.>.>.>.>.>.>.>.>.>.>.>.>.",
">.>.>.>.>.>.>.>.>.>.>.>.>.>.>.>.>.>.>.>.>.>.>.>."
};
