/* XPM */
static char *ccc_large[] = {
/* columns rows colors chars-per-pixel */
"24 24 66 1 ",
"  c #66D566ED66C3",
". c #7A0F7A237A18",
"X c #8484848C846D",
"o c #878187818775",
"O c #8A758A758A4E",
"+ c #8C838C8E8C84",
"@ c #8F838F8B8F7D",
"# c #90D890D190BE",
"$ c #94D694C19498",
"% c #970297099702",
"& c #971697069719",
"* c #98A9989698AF",
"= c #992E9930992A",
"- c #9ADB9AD89ADE",
"; c #9CAE9CAC9CB0",
": c #9E069E009DEB",
"> c #9EB19EB29EAD",
", c #9F9D9F999F9D",
"< c #A014A01FA025",
"1 c #A01EA023A036",
"2 c #A17AA166A0E8",
"3 c #A17AA15FA169",
"4 c #A3A4A397A372",
"5 c #A42FA410A417",
"6 c #A4D0A4BCA4AB",
"7 c #A5DAA5CAA5BF",
"8 c #A631A610A614",
"9 c #A74FA780A725",
"0 c #A936A922A93A",
"q c #A9ACA9AEA953",
"w c #AA46AA20A9BF",
"e c #AA12AA37A9CB",
"r c #AB05AB0EAA91",
"t c #AB12AB2FAAAA",
"y c #ABD9ABFDAB94",
"u c #AC72AC8CABEC",
"i c #AD84AD81AD23",
"p c #B009B015AFE1",
"a c #B087B086B01D",
"s c #B118B113B12F",
"d c #B13AB12EB0CA",
"f c #B169B132B113",
"g c #B1A9B188B13D",
"h c #B2C9B2AAB287",
"j c #B3E7B3BAB3DC",
"k c #B6CBB6AFB6B4",
"l c #B7CDB7A9B7CF",
"z c #B8D5B8B6B8DC",
"x c #BADCBAD8BADB",
"c c #BCEABD03BCE1",
"v c #BD77BD7DBD6B",
"b c #BF03BF19BEFC",
"n c #BFADBFB6BFAF",
"m c #C27CC27DC274",
"M c #C3B5C3A1C3A4",
"N c #C4D3C4E1C4C1",
"B c #C5EAC5E3C5D3",
"V c #C7BAC7AEC796",
"C c #C85CC856C84C",
"Z c #CAAFCAC4CA78",
"A c #CBE8CBDECBC6",
"S c #CCB7CCADCCA1",
"D c #CD4ACD5FCD3E",
"F c #CD9DCD99CDAA",
"G c #D0A9D0B4D0C3",
"H c None",
/* pixels */
"HHHHHHHHHHHHHHHHHHHHHHHH",
"HHHHHHHHHHHHHHHHHHHHHHHH",
"HHHHHHHHHHHHHHHHHHHHHHHH",
"HHHHHHHHHHHHHHHHHHHHHHHH",
"HHHHHHHHHHHHHHHHHHHHHHHH",
"HHHHHHHHHHHHHHHHHHHHHHHH",
"HHHHHHHHHHHHHHHHHHHHHHHH",
"HHHHHHHHHGGHHGGGGGGHHHHH",
"HHHHHHHHZSZZMSSZZSSBHHHH",
"HHHHHHHMBBBMHX%BN,#HnMnH",
"HHHHHHnnnnncHHHxnHHHknxH",
"HHHHHkkxqszkHHHklHHHiksH",
"HHHHsssu ,saHHHssHHHqsiH",
"HHHqyq3%H8uqHHHqqHHH5q8H",
"HH885;H3;,83HHH88HHH,33H",
"HH,3;HH.H%,,HHH,,HHH%,;H",
"HH++HHHHHo+HHHHO+HHHH+#H",
"HHHHHHHHHHHHHHHHHHHHHHHH",
"HHHHHHHHHHHHHHHHHHHHHHHH",
"HHHHHHHHHHHHHHHHHHHHHHHH",
"HHHHHHHHHHHHHHHHHHHHHHHH",
"HHHHHHHHHHHHHHHHHHHHHHHH",
"HHHHHHHHHHHHHHHHHHHHHHHH",
"HHHHHHHHHHHHHHHHHHHHHHHH"
};
