/* XPM */
static char *cmake[] = {
/* columns rows colors chars-per-pixel */
"24 24 78 1 ",
"  c #242A242B242B",
". c #719771957195",
"X c #71F471E671ED",
"o c #71F171F671F7",
"O c #7238723F7237",
"+ c #734B734C734C",
"@ c #763B76407639",
"# c #84918492848C",
"$ c #85C785C785CC",
"% c #864686468646",
"& c #89C189BF89C3",
"* c #8A0C89FA89FE",
"= c #8A1B8A158A08",
"- c #8A0C8A068A0A",
"; c #8A5E8A658A61",
": c #8B5F8B398B12",
"> c #8CCD8CCF8CD2",
", c #8D838D898D85",
"< c #8E0C8E158E11",
"1 c #8E9A8E988E98",
"2 c #8F398F388F3F",
"3 c #905290448FAD",
"4 c #91DC91DF91DD",
"5 c #92AE92AD92AC",
"6 c #939C939A939A",
"7 c #95F995C795C4",
"8 c #9675966E966D",
"9 c #97E697F397EE",
"0 c #9869986F9861",
"q c #9A189A149A03",
"w c #9A369A339A2C",
"e c #9BFB9BFF9BD8",
"r c #9C219C1C9BDA",
"t c #9CE49CE29CCD",
"y c #9D2F9D2E9D08",
"u c #9D3E9D419D29",
"i c #9E639E619DD2",
"p c #9EFF9EFC9ECD",
"a c #A03CA02D9FE4",
"s c #A206A202A164",
"d c #A26AA266A1C9",
"f c #A4B1A48FA45E",
"g c #A61BA602A5AD",
"h c #A6F2A6E2A69F",
"j c #A748A719A6D4",
"k c #A773A767A73E",
"l c #A975A96BA93F",
"z c #AAD4AAC7AAB0",
"x c #ABB2ABBDABAA",
"c c #AC89ACB2AC8B",
"v c #AFA9AFA0AF95",
"b c #B04AB01CAFE0",
"n c #B005B037AFD3",
"m c #B067B073B01C",
"M c #B06DB065B064",
"N c #B18FB173B129",
"B c #B2C1B2BFB2B9",
"V c #B41AB41DB41F",
"C c #B474B47CB4AC",
"Z c #B844B843B874",
"A c #B914B913B97F",
"S c #B944B944B9A8",
"D c #BB5FBB5FBB68",
"F c #BDB1BDB1BDB4",
"G c #C1D4C1D4C1D4",
"H c #C2B6C2B6C2B6",
"J c #C52FC52EC52E",
"K c #C713C713C713",
"L c #C780C780C780",
"P c #CB08CAF5CAF5",
"I c #CC23CC20CC20",
"U c #CE68CE3FCE3F",
"Y c #D0CAD0C9D0C9",
"T c #D4D2D4CFD4CF",
"R c #D5EED5EDD5ED",
"E c #D849D849D849",
"W c #DA4EDA4FDA4F",
"Q c None",
/* pixels */
"QQQQQQQQQQQQQQQQQQQQQQQQ",
"QQQQQQQQQQQQQQQQQQQQQQQQ",
"QQQQQQQQQQQTWQQQQQQQQQQQ",
"QQQQQQQQQQQTTQQQQQQQQQQQ",
"QQQQQQQQQQITTTQQQQQQQQQQ",
"QQQQQQQQQQPIIIQQQQQQQQQQ",
"QQQQQQQQQKKKKKKQQQQQQQQQ",
"QQQQQQQQQHHHHHHQQQQQQQQQ",
"QQQQQQQQDFFFFDFFQQQQQQQQ",
"QQQQQQQQZDZDZDZDQQQQQQQQ",
"QQQQQQQBBBCBBZVVBQQQQQQQ",
"QQQQQQQvvvvBMMMMBQQQQQQQ",
"QQQQQQzzxzxz;pvzzzQQQQQQ",
"QQQQQQggggg8QeggggQQQQQQ",
"QQQQQddddp4QQ0dddddQQQQQ",
"QQQQQ0pp0QQQQ0ppprpQQQQQ",
"QQQQ80008QQQQ>000088QQQQ",
"QQQQ44844844Q>488488QQQQ",
"QQQ>>>>>>>>>>>4>>>4>>QQQ",
"QQQ;;;;;;;;;>;;;;;;;;QQQ",
"QQ#%%%%%%%%%%%%%%%%%;%QQ",
"QQOOOOOOOOOOOOOOOOOOO@QQ",
"QQQ QQQQQQQQQQQQQQQQQQQQ",
"QQQQQQQQQQQQQQQQQQQQQQQQ"
};
