/* XPM */
static char *control_center2[] = {
/* columns rows colors chars-per-pixel */
"24 24 113 2 ",
"   c #338C33A0339F",
".  c #345034793462",
"X  c #36CA36DB36D9",
"o  c #3B443B543B53",
"O  c #615D615D6155",
"+  c #6A1D6A186A26",
"@  c #6CD26CD06CDE",
"#  c #702870277011",
"$  c #71C171A071D7",
"%  c #73B873A0739A",
"&  c #768176787696",
"*  c #77F377ED77EE",
"=  c #7A6A7A797A62",
"-  c #7B997B897B99",
";  c #7C3D7C337C43",
":  c #7D657D827D80",
">  c #7F2F7F2A7F2D",
",  c #80CE80B980C7",
"<  c #819D81A381A5",
"1  c #822B8223822A",
"2  c #82CE82D18307",
"3  c #82FD83158307",
"4  c #83AA83C483BB",
"5  c #849F84AC84AC",
"6  c #856385728580",
"7  c #86D586CD86CD",
"8  c #86E9870F86FE",
"9  c #87808781877C",
"0  c #881A87F58815",
"q  c #898E8992898F",
"w  c #8D608D628D5C",
"e  c #8ED48EE58ED2",
"r  c #90D690D090D0",
"t  c #918B9186918A",
"y  c #92A692AB92B3",
"u  c #93699381935A",
"i  c #94E194C094DF",
"p  c #9548954B9566",
"a  c #96B396B296C0",
"s  c #97E097E497CD",
"d  c #988B9897988B",
"f  c #99FA9A0999E5",
"g  c #9AB49AAF9AAE",
"h  c #9AC09AC89B22",
"j  c #9BB59BB99BA8",
"k  c #9C299C439C16",
"l  c #9C7F9C869C62",
"z  c #9DCC9DCF9DE5",
"x  c #9E8B9E8A9EA4",
"c  c #9FE29FD69FBE",
"v  c #A0D8A0D6A0F8",
"b  c #A303A304A312",
"n  c #A3E9A3E9A40E",
"m  c #A40FA40FA435",
"M  c #A4A9A4A5A4BD",
"N  c #A518A519A535",
"B  c #A598A588A5A5",
"V  c #A69BA6A0A6B5",
"C  c #A760A75DA76B",
"Z  c #A82BA833A80B",
"A  c #A8D8A8DCA8EA",
"S  c #A984A97BA981",
"D  c #AAD0AAE9AAEF",
"F  c #AB2BAB22AB28",
"G  c #AB5AAB42AB8D",
"H  c #ACBEACBCACA2",
"J  c #ADEBADEFADF1",
"K  c #AE85AE82AE85",
"L  c #B11BB137B111",
"P  c #B1C0B1C1B1C2",
"I  c #B2BCB2CCB2C2",
"U  c #B499B4B0B4A9",
"Y  c #B5B8B59FB5A7",
"T  c #B63FB610B61A",
"R  c #B6CDB6B3B6B3",
"E  c #B74CB720B71E",
"W  c #B75DB731B748",
"Q  c #B79EB781B775",
"!  c #B892B865B867",
"~  c #B988B985B975",
"^  c #BA4DBA4FBA37",
"/  c #BABEBAB7BAA5",
"(  c #BB3DBB32BB36",
")  c #BB3EBB37BB3B",
"_  c #BBCCBBCABBB0",
"`  c #BC50BC5ABC2E",
"'  c #BC63BC5DBC4E",
"]  c #BDA8BDA9BDB4",
"[  c #BF3BBF3BBEC7",
"{  c #C00FC00EBFC1",
"}  c #C0F0C0F0C099",
"|  c #C153C152C0BE",
" . c #C2CEC2B6C2E9",
".. c #C317C315C35B",
"X. c #C3D5C3D0C428",
"o. c #C439C446C49B",
"O. c #C49BC499C4AF",
"+. c #C58CC58CC592",
"@. c #C826C824C896",
"#. c #C8AEC8ADC923",
"$. c #C921C924C98A",
"%. c #C9F5C9F7CA23",
"&. c #CA30CA32CA71",
"*. c #CA5DCA61CAA5",
"=. c #CB78CB90CB7F",
"-. c #CC54CC53CC44",
";. c #CDD2CDDECDC1",
":. c #CE83CE98CE83",
">. c #CF14CF5ECF47",
",. c #CFB9CFCCCFAB",
"<. c #D1D7D1DBD1D3",
"1. c #D2A3D2ACD2A6",
"2. c None",
/* pixels */
"2.2.2.2.2.2.2.2.2.2.2.2.2.2.2.2.2.2.2.2.2.2.2.2.",
"2.2.2.2.2.2.2.2.2.2.2.2.2.2.2.2.2.2.2.2.2.2.2.2.",
"2.2.2.2.2.2.2.2.2.2.2.2.2.2.2.2.2.2.2.2.2.2.2.2.",
"2.2.2.2.2.2.2.2.2.2.2.2.2.2.2.2.2.2.2.2.2.2.2.2.",
"2.2.2.2.<.<.<.2.2.2.2.<.<.2.2.2.2.<.<.<.2.2.2.2.",
"2.2.2.2.;.<.;.2.2.2.2.;.<.&.2.2.2.;.;.;.2.2.2.2.",
"2.2.2.2.@.&.&.2.2.&.+.&.&.&.&.2.2.&.&.&.2.2.2.2.",
"2.2.2.2.X.+.+.2.2.X.j : : i X.X.2.X.+.+.2.2.2.2.",
"2.2.2.2.] { X.2.2.) 2.2.2.O W ) 2.] X.{ 2.2.2.2.",
"2.2.2.2.) ) ) 2.2.) ] ] ] ) ) W 2.) ) ) 2.2.2.2.",
"2.2.2.2.W W W 2.2.@ 0 W ) k = 2.2.W W ) 2.2.2.2.",
"2.2.2.H L U W 2.2.2., L L b 2.2.2.L L L 2.2.2.2.",
"2.2.J c 6 , q B J 2.2.J J A 2.2.2.J J J 2.2.2.2.",
"2.2.A 6 2.2.2.r A 2.2.A A B 2.2.B A A A B 2.2.2.",
"2.2.B B B B b b B 2.2.b B x 2.x x , : : i B 2.2.",
"2.2.% % j x j = 2.2.2.x x x 2.i e 2.2.2.@ b 2.2.",
"2.2.2.2.r j r 2.2.2.0 k k d 2.e k x j j i j 2.2.",
"2.2.2.2.i j i 2.2.2., i d r 2.2.+ q j i & = 2.2.",
"2.2.2.2.r r u 2.2.2., r r e 2.2.2.= r r 2.2.2.2.",
"2.2.2.2., 6 q 2.2.2.2., 6 q 2.2.2.: 6 6 2.2.2.2.",
"2.2.2.2.2.X 2.2.2.2.2.. o 2.2.2.2.2.. 2.2.2.2.2.",
"2.2.2.2.2.2.2.2.2.2.2.2.2.2.2.2.2.2.2.2.2.2.2.2.",
"2.2.2.2.2.2.2.2.2.2.2.2.2.2.2.2.2.2.2.2.2.2.2.2.",
"2.2.2.2.2.2.2.2.2.2.2.2.2.2.2.2.2.2.2.2.2.2.2.2."
};
