/* XPM */
static char *DC__[] = {
/* columns rows colors chars-per-pixel */
"24 24 122 2 ",
"   c #498A499C496D",
".  c #4A104A3C4A10",
"X  c #4E444E444E38",
"o  c #5A445A515A21",
"O  c #5EAD5ED15EAE",
"+  c #6159615F6147",
"@  c #63B563B3639C",
"#  c #68ED68FD68F7",
"$  c #6B446B506B32",
"%  c #6E016E1D6E0D",
"&  c #6F5C6F646F67",
"*  c #7009701F6FF6",
"=  c #711E7135710A",
"-  c #74E7750474D7",
";  c #7557754D7526",
":  c #763D763F7637",
">  c #779F77BD7782",
",  c #791B79287923",
"<  c #7A6E7A857A6C",
"1  c #7B107B147B18",
"2  c #7BD77C097BCF",
"3  c #7BFD7C2F7BEB",
"4  c #7CB77C907C9F",
"5  c #7D547D867D55",
"6  c #7E137E4A7E11",
"7  c #7FC37FD67FC0",
"8  c #7FCF80047FCF",
"9  c #800680137FFE",
"0  c #80B580BB80B3",
"q  c #813081338130",
"w  c #81FB820281FD",
"e  c #8324831C8320",
"r  c #84E184F784D3",
"t  c #8675867E8676",
"y  c #882E88028825",
"u  c #88C188B388A3",
"i  c #89B789BD89EB",
"p  c #8A7B8A778A61",
"a  c #8BA68BA78B9A",
"s  c #8C8D8C808C79",
"d  c #8DF78E038E14",
"f  c #8E9D8E9D8EB1",
"g  c #8F408F378F4C",
"h  c #90C990B990D2",
"j  c #91A5919891B9",
"k  c #920B9229920B",
"l  c #928792849286",
"z  c #9366936C9374",
"x  c #94CD94DB94C5",
"c  c #959E95B295AE",
"v  c #962D960C9641",
"b  c #96AD96A696B4",
"n  c #9710970B9726",
"m  c #9790978F97A1",
"M  c #988C988B988C",
"N  c #9A8A9AA39A92",
"B  c #9BAD9BC59BBC",
"V  c #9C879C919C80",
"C  c #9DAD9DA99DA6",
"Z  c #9ECA9EC19ECE",
"A  c #9FAA9F9F9FA6",
"S  c #A0ACA0A8A09D",
"D  c #A18DA17BA188",
"F  c #A273A25FA259",
"G  c #A3D9A3D3A3D7",
"H  c #A4F4A4E8A4E9",
"J  c #A584A58BA59E",
"K  c #A689A675A69D",
"L  c #A725A756A759",
"P  c #A797A7B5A7C0",
"I  c #A92AA91FA90A",
"U  c #A916A955A951",
"Y  c #A945A969A96C",
"T  c #AABAAAA5AAAA",
"R  c #ABDEABBDABAB",
"E  c #AC9AAC9DAC9F",
"W  c #AD58AD4FAD40",
"Q  c #AEEEAEEDAEF7",
"!  c #B082B07BB09B",
"~  c #B1B3B1A8B194",
"^  c #B2BCB28FB2C5",
"/  c #B38DB38AB385",
"(  c #B4A4B498B4E7",
")  c #B4FDB508B537",
"_  c #B5F7B5F4B616",
"`  c #B822B7F8B826",
"'  c #B8C8B8BFB8B3",
"]  c #BA26BA31BA1C",
"[  c #BA85BA7FBA96",
"{  c #BB9EBB9EBBAB",
"}  c #BD2CBD12BD2E",
"|  c #BDE3BDABBDEC",
" . c #BEB4BEB5BEC1",
".. c #BF2BBF56BF3A",
"X. c #C0E1C0D7C0B8",
"o. c #C147C145C15D",
"O. c #C2E8C2EBC2F3",
"+. c #C3F4C3FBC3FD",
"@. c #C44AC41FC439",
"#. c #C5E6C5D5C5C8",
"$. c #C67FC690C66B",
"%. c #C75CC766C761",
"&. c #C996C9A6C942",
"*. c #C99CC99AC981",
"=. c #CB08CB0CCAE0",
"-. c #CBD5CBCCCBB4",
";. c #CCE5CCE7CCFF",
":. c #CDDBCDEECDE9",
">. c #CF02CEFFCF1F",
",. c #CFF4CFECCFF0",
"<. c #D061D07ED07F",
"1. c #D21CD208D20A",
"2. c #D317D31CD31B",
"3. c #D341D35DD345",
"4. c #D354D32AD357",
"5. c #D3D8D3E2D3E1",
"6. c #D57FD59BD592",
"7. c #D6DBD6F6D6D7",
"8. c #D80ED806D816",
"9. c #D95DD93FD964",
"0. c #DACBDAB8DACB",
"q. c None",
/* pixels */
"q.q.q.q.q.q.q.q.q.q.q.q.q.q.q.q.q.q.q.q.q.q.q.q.",
"q.q.q.q.q.q.q.q.q.0.0.0.0.0.0.q.q.q.q.q.q.q.q.q.",
"q.q.q.q.q.q.q.6.0.6.0.8.0.8.0.6.6.q.q.q.q.q.q.q.",
"q.q.q.q.q.q.5.6.3.3.6.3.3.3.5.3.3.3.3.q.q.q.q.q.",
"q.q.q.q.;.;.;.Q t 7 M O.;.;.;.3.;.3.;.;.q.q.q.q.",
"q.q.q.q.-.-.I q.q.q.q.# ] ;.-.-.#.#.-.-.-.q.q.q.",
"q.q.q.#.#.O.q.q.q.q.q.q.a @.~ M s z J O.#.q.q.q.",
"q.q.q.O.O.q.q.q.q.q.q.q.q.S t 7 7 7 8 v  .O.q.q.",
"q.q.]  . .q.q.q.q.q.q.q.q.7 7 0 0 0 0 0 J  .q.q.",
"q.q.] ] ] q.q.q.q.q.q.q.q.7 0 0 0 0 0 0 v ] q.q.",
"q.q.( _ _ _ q.q.q.q.q.q.y 0 0 0 0 0 0 9 s ~ _ q.",
"q.q.~ ~ ~ ~ ~ q.q.q.q.q.1 1 0 0 0 0 0 0 z Q Q q.",
"q.q.I Q Q E Q I q.q.q.q.q.. 7 0 0 0 0 9 M Q E q.",
"q.q.P I I I J q.q.q.q.q.q.q.O 1 1 1 1 s J P q.q.",
"q.q.Z J J J S q.q.q.q.q.q.q.; 0 7 7 z S J S q.q.",
"q.q.a S S S Z q.q.q.q.q.q.q.v S Z Z S Z Z Z q.q.",
"q.q.q.z Z Z M q.q.q.q.q.q.q.M M Z M M Z M q.q.q.",
"q.q.q.% z M M v q.q.q.q.q.q.v M M M v v s q.q.q.",
"q.q.q.q.% z v z z q.q.q.q.z z z z v z a q.q.q.q.",
"q.q.q.q.q.@ a g z s h s s h s s s s t q.q.q.q.q.",
"q.q.q.q.q.q.X ; t s a s a s a a 0 = q.q.q.q.q.q.",
"q.q.q.q.q.q.q.q.. @ = ; 1 ; # o q.q.q.q.q.q.q.q.",
"q.q.q.q.q.q.q.q.q.q.q.q.q.q.q.q.q.q.q.q.q.q.q.q.",
"q.q.q.q.q.q.q.q.q.q.q.q.q.q.q.q.q.q.q.q.q.q.q.q."
};
