/* XPM */
static char *dia_menu[] = {
/* columns rows colors chars-per-pixel */
"24 24 155 2 ",
"   c #36B836B436EA",
".  c #37A837A8379D",
"X  c #37CE37E4378E",
"o  c #37F737E037EB",
"O  c #3A133A163A1C",
"+  c #43D5519F3681",
"@  c #53CF6B0A3DEE",
"#  c #4C414C494C56",
"$  c #50945095508E",
"%  c #533753365347",
"&  c #55A555885580",
"*  c #56BD56CE5699",
"=  c #65EA660365E5",
"-  c #6663664E665C",
";  c #6DD66DDB6DB4",
":  c #74DE74E57495",
">  c #75257512751E",
",  c #759B765174D7",
"<  c #79B479F479AB",
"1  c #7CBB7CD47CC8",
"2  c #7CEF7CF87D04",
"3  c #7E037DFC7DCE",
"4  c #7DFD7E137E0F",
"5  c #7F5C7F5B7F5D",
"6  c #6FDE87645955",
"7  c #79C3AC9E4997",
"8  c #87439A53756A",
"9  c #897EB0C26402",
"0  c #8E23A3F47947",
"q  c #97A6B3987CE5",
"w  c #81F8820E81C3",
"e  c #82E582E082CC",
"r  c #82FF82F7832A",
"t  c #83A8839D8399",
"y  c #847C8471847B",
"u  c #86E286EA86F7",
"i  c #871286F186E7",
"p  c #881A8844881E",
"a  c #8A438A4B8A44",
"s  c #8B038B218B17",
"d  c #8B188B1C8B2C",
"f  c #8CCA8CBD8CA9",
"g  c #8DE68DEB8DFA",
"h  c #8DE88E368DBE",
"j  c #8E658E878E61",
"k  c #8FC58FC48FC9",
"l  c #8F39901A8E66",
"z  c #902690019072",
"x  c #906C9066906F",
"c  c #920E922E920B",
"v  c #92CD92C792BE",
"b  c #93AA93C393C0",
"n  c #949E949794A7",
"m  c #94E094DD951D",
"M  c #9622963A95F9",
"N  c #965C96569660",
"B  c #9792978797A5",
"V  c #95B099719229",
"C  c #990998FF98DA",
"Z  c #9980999A998E",
"A  c #9A1E9A0B9A12",
"S  c #9A479A599A60",
"D  c #9B4B9B5E9B77",
"F  c #9C189C1F9C2B",
"G  c #9C3F9C3C9C31",
"H  c #9DB19DAA9DB4",
"J  c #9E0C9E229E0E",
"K  c #9F819F7C9F99",
"L  c #91C6A2B281A5",
"P  c #9319A43582F6",
"I  c #9854A1EE8F2A",
"U  c #9E32B57387B2",
"Y  c #A415BC968C67",
"T  c #A225B11693EE",
"R  c #A8D5B84A99C1",
"E  c #A981B99D9A0B",
"W  c #AD5FBE469D18",
"Q  c #A0D0A0CDA0CD",
"!  c #A1C9A1C7A1D2",
"~  c #A305A2ECA2E2",
"^  c #A395A397A398",
"/  c #A408A42FA40D",
"(  c #A498A47AA47E",
")  c #A61FA5FCA5D4",
"_  c #A658A621A637",
"`  c #A6C4A69BA686",
"'  c #A813A817A7FA",
"]  c #A8B7A8C3A8BB",
"[  c #A99DA9B1A9A3",
"{  c #AACBAACBAAC4",
"}  c #AC31AD32AB46",
"|  c #AC2BAC3EAC2F",
" . c #AC8FAC80AC89",
".. c #AD1FAD1DAD6F",
"X. c #ADB5ADBDADC9",
"o. c #AE80AE84AE88",
"O. c #AFBAAFA1AFBC",
"+. c #B5CAC023ABB6",
"@. c #AFF5AFC5B04E",
"#. c #B04FB048B048",
"$. c #B192B182B19A",
"%. c #B2C9B30EB2DC",
"&. c #B3F2B416B3E6",
"*. c #B42AB46BB427",
"=. c #B47CB488B477",
"-. c #B544B55BB545",
";. c #B64AB655B634",
":. c #B690B697B6A5",
">. c #B51DB89EB20B",
",. c #BAACBE17B797",
"<. c #B824B83BB88F",
"1. c #B92CB8EBB925",
"2. c #B943B90FB942",
"3. c #B992B95EB98D",
"4. c #BB09BAFDBB1E",
"5. c #BB92BB8ABB8F",
"6. c #BDE6BDE4BDF8",
"7. c #BE67BE75BEA1",
"8. c #BF4CBF60BF34",
"9. c #BF5BBF3ABF4D",
"0. c #C461D099B822",
"q. c #C0CEC0D9C105",
"w. c #C1BBC1E2C1E9",
"e. c #C30DC301C2F5",
"r. c #C40FC3F8C439",
"t. c #C790C7C5C810",
"y. c #C5C3C9DBC1F8",
"u. c #CB41CEF7C7AA",
"i. c #C89CC8F8C8E7",
"p. c #C93DC947C949",
"a. c #C9C5C9F6CA3F",
"s. c #CBC9CBF9CBD2",
"d. c #CD10CF0FCB0B",
"f. c #CC9DCCC6CC8B",
"g. c #CDF2CDF1CDF9",
"h. c #CE4ECE28CE7E",
"j. c #CF66CF75CF62",
"k. c #CA47D2EEC15E",
"l. c #CBC2D380C3A9",
"z. c #D1C3D523CE07",
"x. c #D08BD091D08B",
"c. c #D1E4D1EBD1EE",
"v. c #D2AAD3B7D195",
"b. c #D318D2FED32B",
"n. c #D3CFD3D1D3DD",
"m. c #D450D452D480",
"M. c #D4C4D40AD562",
"N. c #D489D495D490",
"B. c #D569D569D538",
"V. c #D58CD58BD558",
"C. c #D668D5F5D703",
"Z. c #D893D768D972",
"A. c #D942D890D966",
"S. c #DB0BD9CFDBAF",
"D. c None",
/* pixels */
"D.D.D.D.D.D.D.D.D.D.D.D.D.D.D.D.D.D.D.D.D.D.D.D.",
"D.D.D.D.7 D.D.D.D.D.D.D.D.D.D.D.D.D.D.D.D.D.D.D.",
"D.D.D.9 0.l.l.Y D.D.D.D.D.D.D.D.D.D.D.D.D.D.D.D.",
"D.D.d.q z.Z.S.W E Z.V.V.V.V.D.D.D.D.D.D.D.D.D.D.",
"D.g.v.U u.v.M.R +.V.V.V.m.V.v.v.v.v.D.D.D.D.D.D.",
"D.X.} 0 y.g.g.T I @.X.X.X.:.6.p.g.g.s.s.D.D.D.D.",
"D.D.D.@ 8 P P 6 + D.D.D.& D.# = g <.p.p.t.D.D.D.",
"D.D.D.D.V ,.>.D.D.D.D.D.r.D.D.D.D.% m w.r.w.D.D.",
"D.D.D.D.X.w.6.D.D.D.D.5.6.D.D.D.D.D.D.v 6.6.D.D.",
"D.D.D.D.| 3.3.D.D.D.D.3.5.3.D.D.D.D.D.D.^ 5.3.D.",
"D.D.D.D.^ :.:.D.D.D.%.=.%.:.D.D.D.D.D.D.v %.:.D.",
"D.D.D.D.K X.X.D.D.D.@.F 1 @.@.D.D.D.D.D.D.X.X.D.",
"D.D.D.D.F X.| D.D.) | D.D.J | D.D.D.D.D.D.....D.",
"D.D.D.D.B ) ) D.D.) ^ D.D.a ) ) D.D.D.D./ ` ( D.",
"D.D.D.D.v ^ ^ D.^ ^ ^ ^ ^ ^ / ^ D.D.D.D.K ^ F D.",
"D.D.D.D.g J D g 1 1 1 1 1 1 1 1 z D.D.F F Z D.D.",
"D.D.D.D.a D m D.D.D.D.D.D.D.D.D.D.m m D m u D.D.",
"D.D.D.D.f m m l D.D.D.D.D.D.D.m m m m g 8 D.D.D.",
"D.a v g v g g v v g g v z v g v v a < D.D.D.D.D.",
"D.w w y a f a y t w w w w w 1 : = % D.D.D.D.D.D.",
"D.D.O O ; y w *   O   . O X D.D.D.D.D.D.D.D.D.D.",
"D.D.D.D.D.: : D.D.D.D.D.D.D.D.D.D.D.D.D.D.D.D.D.",
"D.D.D.D.D.D.D.D.D.D.D.D.D.D.D.D.D.D.D.D.D.D.D.D.",
"D.D.D.D.D.D.D.D.D.D.D.D.D.D.D.D.D.D.D.D.D.D.D.D."
};
