/* XPM */
static char *file_roller[] = {
/* columns rows colors chars-per-pixel */
"24 24 82 1 ",
"  c #B5D2B5D2B5B6",
". c #B765B765B729",
"X c #B8D9B8D9B8A9",
"o c #BC45BC45BBDB",
"O c #C22EC22EC1D7",
"+ c #C2ABC2ABC23B",
"@ c #C2B7C2B7C2B7",
"# c #C36BC36BC32A",
"$ c #C36BC36BC36A",
"% c #C4C2C4C2C4AC",
"& c #C5DAC5DAC5D1",
"* c #C6DEC6DEC6D9",
"= c #C7D4C7D4C7CA",
"- c #C8D4C8D4C8B0",
"; c #C977C977C93B",
": c #CA00CA00C9D9",
"> c #CA73CA73CA3B",
", c #CAFECAFECADC",
"< c #CBCCCBCCCBB0",
"1 c #CC6ACC6ACC10",
"2 c #CD09CD09CD09",
"3 c #CEFCCEFCCEFC",
"4 c #CFB8CFB8CFB8",
"5 c #D098D098D023",
"6 c #D0ECD0ECD0EC",
"7 c #D1E5D1E5D1E5",
"8 c #D2F1D2F1D1EB",
"9 c #D2A6D2A6D2A3",
"0 c #D368D368D28E",
"q c #D3FFD3FFD3E4",
"w c #D4CED4CED4B9",
"e c #D5E1D5E1D5DC",
"r c #D685D685D613",
"t c #D726D726D726",
"y c #D7D0D7D0D6DF",
"u c #D7D8D7D8D7D5",
"i c #D8E0D8E0D8D4",
"p c #D9F9D9F9D9ED",
"a c #DA5BDA5BD942",
"s c #DA97DA97DA51",
"d c #DAB7DAB7DAA4",
"f c #DBEFDBEFDBEF",
"g c #DCC0DCC0DC09",
"h c #DCD4DCD4DCCA",
"j c #DDF3DDF3DCFE",
"k c #DE01DE01DDD2",
"l c #DF14DF14DE56",
"z c #DEEBDEEBDEEB",
"x c #DFDDDFDDDE90",
"c c #E00BE00BE00B",
"v c #E12DE12DE022",
"b c #E0E2E0E2E0E2",
"n c #E200E200E200",
"m c #E31EE31EE1B8",
"M c #E305E305E305",
"N c #E423E423E300",
"B c #E403E403E403",
"V c #E4EBE4EBE3A7",
"C c #E4CEE4CEE4CE",
"Z c #E5D4E5D4E5D4",
"A c #E6D5E6D5E6D5",
"S c #E7C5E7C5E7C5",
"D c #E8DBE8DBE770",
"F c #E8DCE8DCE8DC",
"G c #E9F2E9F2E9F2",
"H c #EAAEEAAEEAAE",
"J c #EBF0EBF0EBF0",
"K c #ECEAECEAECEA",
"L c #EE2FEE2FEE2F",
"P c #EEFAEEFAEEFA",
"I c #EFEEEFEEEFEE",
"U c #F0B5F0B5F0B5",
"Y c #F20CF20CF20C",
"T c #F2F7F2F7F2F7",
"R c #F3E5F3E5F3E5",
"E c #F4C3F4C3F4C3",
"W c #F5E3F5E3F5E3",
"Q c #F70CF70CF70C",
"! c #F7F0F7F0F7F0",
"~ c #F8D4F8D4F8D4",
"^ c #FA80FA80FA80",
"/ c None",
/* pixels */
"////////////////////////",
"//////////JJJJKU////////",
"////////CJCJJCnUEEE/////",
"/////nnnCCChhCUUREEE~///",
"//nnnnnnhihCKUEEEE~EE~~/",
"JChe7eeihJUUUEEEEE~~~~RK",
"JJJni&$hKKUUUUEE~~~~UCff",
"nnCJJKn7cKUUEEE~~RJfeqee",
"ncBCCCSCnnKUEEEKne33347q",
"hfccnnnnnnnKKCe3-1-3-337",
"iifhhhffihhh3&&&&&&&---3",
"qqiiiiiiiiie-$$%$$&&==--",
"q7eiiiiieiie&$$$$$$&-&&-",
"7qiifiiiiiei-$$$$&&&&&=-",
"77qiffiiieie&O$$&&=&&-&-",
"eeeiiifiiiie&OO$&=&=&=--",
"/qiiiiihiiue=$$&&=---&$/",
"///ihvhiiuuu&$&=---=&///",
"/////innvjie-&-11-$ ////",
"//////7vVVvj1-3-&o//////",
"////////7nDV51=X////////",
"//////////jV1X//////////",
"////////////////////////",
"////////////////////////"
};
