/* XPM */
static char *gbrainy[] = {
/* columns rows colors chars-per-pixel */
"24 24 127 2 ",
"   c #5232526A525C",
".  c #538D53AC53A3",
"X  c #5A1B5A315A23",
"o  c #5C655C945C84",
"O  c #5C8A5CEB5CB2",
"+  c #5CC95D165CE9",
"@  c #5FF660546034",
"#  c #67216718671B",
"$  c #6FCB6FC26FC9",
"%  c #70F970F1711A",
"&  c #72EB730072FE",
"*  c #771B7725772D",
"=  c #7A467A6D7A69",
"-  c #7C097BFC7C05",
";  c #7DD77DE47DDF",
":  c #7E377E2E7E33",
">  c #808E80978094",
",  c #826B825E826F",
"<  c #82ED8307831D",
"1  c #84C084C184D4",
"2  c #84F784F78516",
"3  c #854D854B8555",
"4  c #86BB86C486E2",
"5  c #875687678762",
"6  c #88BA88BB88AE",
"7  c #892888FD88FC",
"8  c #892A8902890F",
"9  c #896D89508954",
"0  c #8B5D8B7A8B46",
"q  c #8CB68CB58CB9",
"w  c #8DA78DA28D9B",
"e  c #8E128E018E0B",
"r  c #8F6F8F6F8F73",
"t  c #905C90579061",
"y  c #91D191C991CD",
"u  c #9217920A91FD",
"i  c #923C92469245",
"p  c #93C393C393D4",
"a  c #94C794B894C6",
"s  c #95F795F595F4",
"d  c #960C960B9636",
"f  c #968596809682",
"g  c #97AE97B197B7",
"h  c #982298249813",
"j  c #98179808982D",
"k  c #98F198F198F5",
"l  c #99A1999E99A4",
"z  c #9AB59AB59ABB",
"x  c #9B1C9B1B9B14",
"c  c #9B479B489B43",
"v  c #9CC99CCD9CC4",
"b  c #9DDE9DF19DDD",
"n  c #9E249E4C9E01",
"m  c #9E9D9EBA9EA9",
"M  c #9FC39FCF9FC1",
"N  c #A021A02FA015",
"B  c #A0CCA0C7A0CD",
"V  c #A190A155A167",
"C  c #A2D9A2ECA2DC",
"Z  c #A421A432A421",
"A  c #A4CDA4D7A4D1",
"S  c #A5CDA5E9A5D4",
"D  c #A6EBA6FEA6E4",
"F  c #A71EA751A71F",
"G  c #A7ACA78DA78C",
"H  c #A8A2A8AFA8AA",
"J  c #A912A92CA92C",
"K  c #A9A4A9B2A9B2",
"L  c #AB9DAB86AB94",
"P  c #AC57AC4BAC47",
"I  c #ADB7ADB0ADA9",
"U  c #AE90AE7EAE82",
"Y  c #B0FCB103B100",
"T  c #B1BDB1BAB1B9",
"R  c #B2ADB2C4B2DA",
"E  c #B3B9B39EB3A8",
"W  c #B595B56CB56E",
"Q  c #B6E4B6F7B6F0",
"!  c #B7D6B7BCB7E0",
"~  c #B8A2B8A7B8A1",
"^  c #B9F0B9F1B9F7",
"/  c #BAACBAC9BAB4",
"(  c #BB46BB46BB2A",
")  c #BD37BCF5BD1C",
"_  c #BDECBDE9BDEC",
"`  c #BF0ABF06BEF9",
"'  c #BF50BF17BF45",
"]  c #C015C00CC014",
"[  c #C079C085C07F",
"{  c #C14FC12EC137",
"}  c #C283C29EC28E",
"|  c #C36CC34BC35E",
" . c #C465C43EC461",
".. c #C4E8C4EFC4E5",
"X. c #C628C606C61B",
"o. c #C6F3C6D9C6F0",
"O. c #C7DBC7E6C7E3",
"+. c #C887C89BC880",
"@. c #C967C96CC961",
"#. c #CB44CB52CB5A",
"$. c #CB6FCB50CB60",
"%. c #CD05CD03CD01",
"&. c #CE09CDF6CDFC",
"*. c #CF48CF36CF3D",
"=. c #CFC0CFCACFC7",
"-. c #D164D141D156",
";. c #D1BFD1D9D1D7",
":. c #D240D256D25B",
">. c #D275D289D282",
",. c #D477D46ED47E",
"<. c #D570D526D589",
"1. c #D636D628D633",
"2. c #D6DED6C5D6C7",
"3. c #D77CD756D74A",
"4. c #D857D83FD844",
"5. c #D9CED978D9E1",
"6. c #DB11DA96DB24",
"7. c #DB4EDADDDB7F",
"8. c #DB82DB07DB97",
"9. c #DC29DBA1DC42",
"0. c #DC94DBEDDC7F",
"q. c #DD36DCAFDD37",
"w. c #DED6DE17DEC2",
"e. c #DF3DDEB7DF1E",
"r. c #DF67DEE6DF54",
"t. c #DF83DF35DF79",
"y. c None",
/* pixels */
"y.y.y.y.y.y.y.y.y.y.y.y.y.y.y.y.y.y.y.y.y.y.y.y.",
"y.y.r.r.r.r.r.r.r.r.r.r.r.r.r.r.r.r.r.r.r.r.y.y.",
"y.2.7.7.7.7.7.7.7.r.7.7.r.7.7.7.7.7.7.7.7.7.4.y.",
"y.%.2.2.2.2.2.2.%.O.%.| Q | >.2.2.2.>.2.2.2.>.y.",
"y.O.>.>.>.>.| m * . = V = y.$ k | >.>.>.>.>.%.y.",
"y.| %.%.@.I y.y.y.y.y.y.| y.y.y.X p O.%.%.%.%.y.",
"y.' @.O.T y.y.y.y.y.y.y.' y.y.y.y.y.* ( @.+.O.y.",
"y.( O.Q y.y.y.y.y.y.y.Q y.y.y.y.y.y.y.* '  .| y.",
"y.Q ' y.y.y.y.y.y.y.T y.y.y.y.) ( Q ( y.I | ' y.",
"y.T ( y.y.y.y.y.y.y.y.y.y.I k A m y.y.A < T ( y.",
"y.I Q y.y.y.y.y.y.A P A V y.y.y.K y.y.y.y.K Q y.",
"y.K T y.y.y.y.y.y.t y.y.y.y.y.y.y.A y.y.y.A T y.",
"y.A I I y.y.y.A k y.y.y.y.y.y.y.y.V y.y.y.A K y.",
"y.V K K K A G k y.y.y.y.y.y.y.y.y.m m m V A K y.",
"y.m V A A A A y.y.y.y.y.y.y.y.y.k < y.y.m A V y.",
"y.h N V m V m V y.y.y.y.y.y.k k y.y.y.y.t m m y.",
"y.t v k v k m k v k c c 1 1 y.y.y.y.y.y.g m k y.",
"y.t k p p k k p p g g p > # r y.y.y.y.p p p p y.",
"y.6 p t t t t p t t p t t y.y.6 t t t r t t t y.",
"y.6 r r r r r r q r r r r r y.% r r r r r r r y.",
"y.< 6 6 6 6 6 6 6 6 6 6 6 6 1 > 6 6 6 6 6 6 1 y.",
"y.% < 1 1 1 1 1 1 1 1 1 1 1 1 1 1 1 1 1 1 < : y.",
"y.y.. + + + + + + + + + + + + + + + + + + @ y.y.",
"y.y.y.y.y.y.y.y.y.y.y.y.y.y.y.y.y.y.y.y.y.y.y.y."
};
