/* XPM */
static char *gcolor2[] = {
/* columns rows colors chars-per-pixel */
"24 24 104 2 ",
"   c #3C0F3C183C17",
".  c #478847984792",
"X  c #4A334A3A4A33",
"o  c #4BAF4BC04BAE",
"O  c #52555266526A",
"+  c #556F556A5573",
"@  c #583A58385837",
"#  c #5A545A405A5B",
"$  c #5D6E5D725D74",
"%  c #6239624E624F",
"&  c #66FE670966FB",
"*  c #6B4E6B6D6B74",
"=  c #6EB96EB06EA2",
"-  c #6FDF6FE86FF7",
";  c #713371347134",
":  c #72E872CE72E2",
">  c #75F975F075F0",
",  c #761F76307625",
"<  c #793D79577947",
"1  c #7A577A437A4E",
"2  c #7CA17CA67CAC",
"3  c #7D8B7D937D96",
"4  c #7F797F797F82",
"5  c #7FEF800C7FFA",
"6  c #80648081808C",
"7  c #810680F48114",
"8  c #8175815B8169",
"9  c #8238824E823D",
"0  c #84E684F984F9",
"q  c #8575857A8577",
"w  c #866986688669",
"e  c #885F88688868",
"r  c #8910890E8915",
"t  c #8B538B4A8B51",
"y  c #8C638C4B8C43",
"u  c #8D888D978D91",
"i  c #8EE08EE28ED3",
"p  c #8F678F708F66",
"a  c #910F91159110",
"s  c #919991A291BC",
"d  c #9212920D9223",
"f  c #928C92739289",
"g  c #932D93399339",
"h  c #9443945B9444",
"j  c #954B952B9557",
"k  c #966096529670",
"l  c #972E96C796CC",
"z  c #972A972B971F",
"x  c #9831982C983C",
"c  c #9923992098CC",
"v  c #99E199D799DC",
"b  c #9A709A899A8F",
"n  c #9B549B3A9B30",
"m  c #9D839DA39D86",
"M  c #9E619E609E64",
"N  c #9F489F679F5E",
"B  c #A0B7A097A0A0",
"V  c #A1A4A1BDA195",
"C  c #A2C7A2AFA2BB",
"Z  c #A3DBA39DA3A6",
"A  c #A4C0A4A9A4A3",
"S  c #A5E9A5D2A5C5",
"D  c #A6B5A6A7A6A6",
"F  c #A8D6A8F3A8E5",
"G  c #AA0BA9FEAA1C",
"H  c #A9F3AA37AA2D",
"J  c #AC8BACBAACC0",
"K  c #ADD8ADC9ADC5",
"L  c #AEC9AEC3AEC1",
"P  c #B026B022B034",
"I  c #B0B8B08AB0AC",
"U  c #B2E5B2FAB2E8",
"Y  c #B3AEB3DDB3C1",
"T  c #B591B590B5A5",
"R  c #B67AB61EB66B",
"E  c #B734B73DB73A",
"W  c #B7C4B7B2B7C5",
"Q  c #B8ACB899B8B5",
"!  c #B9DEB9E6B9E7",
"~  c #BA26BA55BA38",
"^  c #BA65BA87BA71",
"/  c #BB99BBA7BB7F",
"(  c #BC34BC65BC5D",
")  c #BDC4BDC5BDC5",
"_  c #BFFBC025BFFE",
"`  c #C0E0C0FFC0E5",
"'  c #C175C199C17B",
"]  c #C256C25DC25B",
"[  c #C380C37AC375",
"{  c #C4F9C4F4C507",
"}  c #C60AC64BC611",
"|  c #C76EC772C76C",
" . c #C8EDC8F4C8B3",
".. c #CBB8CBC7CBB4",
"X. c #CC68CC65CC67",
"o. c #CDFBCDF4CDF1",
"O. c #D008CFF4CFF9",
"+. c #D0A4D0A8D091",
"@. c #D668D661D65C",
"#. c #D7D1D7D7D798",
"$. c #DB43DB42DA82",
"%. c #DC7FDC7FDBD9",
"&. c #DD02DD04DD01",
"*. c None",
/* pixels */
"*.*.*.*.*.*.*.*.*.*.*.*.*.*.*.*.*.*.*.*.*.*.*.*.",
"*.*.*.*.*.*.*.*.*.*.*.&.&.*.*.*.*.*.*.*.*.*.*.*.",
"*.*.*.*.*.*.*.*.$.#. .m p ) $.$.*.*.*.*.*.*.*.*.",
"*.*.*.*.*.*.#.+.~ v *.*.*.*.2 L o.#.*.*.*.*.*.*.",
"*.*.*.*.o. .L r *.*.*.*.*.*.*.*.= m ` o.*.*.*.*.",
"*.*.{ o.T 2 *.*.*.*.*.*.*.*.*.*.*.*.# Z o. .*.*.",
"*.*.~ ) ~ ` *.*.*.*.*.*.*.*.*.*.*.*.*.U ` { *.*.",
"*.*.T m & F ` *.*.*.*.*.*.*.*.*.*.` ~ k p ) *.*.",
"*.*.T ) *.*.6 U ` *.*.*.*.*.*.) ~ H *.*.U ~ *.*.",
"*.*.T T *.*.*.# k T ~ *.*.*.~ L p *.*.*.U T *.*.",
"*.*.U U *.*.*.*.*.; Z T T L v *.*.*.*.*.H L *.*.",
"*.*.Z L *.*.*.*.*.*.X p H 6 *.*.*.*.*.*.J L *.*.",
"*.*.v A *.*.*.*.*.*.*.6 A *.*.*.*.*.*.*.A A *.*.",
"*.*.k A *.*.*.*.*.*.*.p Z *.*.*.*.*.*.*.Z Z *.*.",
"*.*.*.Z *.*.*.*.*.*.*.r m *.*.*.*.*.*.*.m *.*.*.",
"*.*.*.k m *.*.*.*.*.*.w v *.*.*.*.*.*.v v *.*.*.",
"*.*.*.+ w v *.*.*.*.*.6 k *.*.*.*.*.k g 2 *.*.*.",
"*.*.*.*.  ; g *.*.*.*.2 g *.*.*.*.g r *.*.*.*.*.",
"*.*.*.*.*.*.$ w g *.*.1 p *.*.p p 6 *.*.*.*.*.*.",
"*.*.*.*.*.*.*.X , y *., w *.r w = *.*.*.*.*.*.*.",
"*.*.*.*.*.*.*.*.*.% 6 6 w w 1 *.*.*.*.*.*.*.*.*.",
"*.*.*.*.*.*.*.*.*.*.o 1 2 = *.*.*.*.*.*.*.*.*.*.",
"*.*.*.*.*.*.*.*.*.*.*.*.O *.*.*.*.*.*.*.*.*.*.*.",
"*.*.*.*.*.*.*.*.*.*.*.*.*.*.*.*.*.*.*.*.*.*.*.*."
};
