/* XPM */
static char *gnome_activity_journal[] = {
/* columns rows colors chars-per-pixel */
"24 24 67 1 ",
"  c #6C576C6A6C68",
". c #6CD56D046CED",
"X c #7038703F7038",
"o c #72887299729A",
"O c #72FC7314731D",
"+ c #7ACD7ADA7AFD",
"@ c #83D783D683D5",
"# c #85A185BB8588",
"$ c #876B875D875B",
"% c #888888828885",
"& c #8989897D896D",
"* c #8DCB8DD08DC9",
"= c #8E6A8E648E4E",
"- c #91C991C191D0",
"; c #93D393ED93FB",
": c #94B694B894C8",
"> c #95319530953C",
", c #971A97079717",
"< c #9866985D9858",
"1 c #9A979A919A95",
"2 c #9BC29BBF9BBA",
"3 c #9C719C749C7F",
"4 c #A0049FF8A006",
"5 c #A025A021A024",
"6 c #A15AA122A11F",
"7 c #A1BAA1BBA1B2",
"8 c #A2C5A2BDA2B4",
"9 c #A4B4A486A49F",
"0 c #A54DA575A578",
"q c #A7A6A7C4A7DE",
"w c #A806A823A839",
"e c #A83BA827A84F",
"r c #ACC8ACD6ACA6",
"t c #ADCEADAEAD88",
"y c #AE45AE37AE20",
"u c #AE6AAE73AE58",
"i c #B189B1A2B17A",
"p c #B263B25AB25C",
"a c #B338B32CB338",
"s c #B3C5B3C4B3C9",
"d c #B4C9B4DBB4C7",
"f c #B6BEB6C0B6A8",
"g c #B9E4B9FCB9E0",
"h c #BBBDBBC9BBD1",
"j c #BD13BCF4BCEB",
"k c #BD7ABD69BD6B",
"l c #BED5BEC8BECB",
"z c #BF6ABF65BF89",
"x c #C105C11CC139",
"c c #C240C22DC256",
"v c #C352C378C349",
"b c #C4C6C4D2C4C3",
"n c #C6E5C6DCC6B9",
"m c #C872C87DC83D",
"M c #C87BC888C86A",
"N c #CA72CA3BCA6D",
"B c #CDADCDAACDA3",
"V c #CE9CCEAFCE98",
"C c #CF9CCFAECF9E",
"Z c #D3BED3DAD3F0",
"A c #D4BDD4C1D4B5",
"S c #D5A1D563D595",
"D c #D6EAD6DDD6F4",
"F c #D877D85ED875",
"G c #DA52DA18DA4D",
"H c #DBD2DBB6DBD4",
"J c None",
/* pixels */
"JJJJJJJJJJJJJJJJJJJJJJJJ",
"JJJJJJJJJJJJJJJJJJJJJJJJ",
"JJJJJJJJJJJJJJJJJJJJJJJJ",
"JJJJJJJJJJJJJJJJJJJJJJJJ",
"JJJJJJJJJJJJJJJJJJJJJJJJ",
"JJJJJJJJJFFFBBFJJJJJJJJJ",
"JJJJJJJJDDN0JJ3xZJJJJJJJ",
"JJJJJJJBCnJJJJJJzJJJJJJJ",
"JJJJJJbNnJJJJ8JJJnnJJJJJ",
"JJJJJJzxzJJJzfJJJzxxJJJJ",
"JJJJJJgggJJJafJJJggJJJJJ",
"JJJJJaffdJJJJ<JJJauJJJJJ",
"JJJJJuuuuJJJJ3JJJuJJJJJJ",
"JJJJJ30ee0JJJJJJeeJJJJJJ",
"JJJJJJ&88888JJ388<JJJJJJ",
"JJJJJJJ<3<<33333>JJJJJJJ",
"JJJJJJJ;>>>>>>>;JJJJJJJJ",
"JJJJJJ&*******#JJJJJJJJJ",
"JJJJJJ##&&&#@+JJJJJJJJJJ",
"JJJJJJ.XOOX.JJJJJJJJJJJJ",
"JJJJJJJJJJJJJJJJJJJJJJJJ",
"JJJJJJJJJJJJJJJJJJJJJJJJ",
"JJJJJJJJJJJJJJJJJJJJJJJJ",
"JJJJJJJJJJJJJJJJJJJJJJJJ"
};
