/* XPM */
static char *kxsldbg[] = {
/* columns rows colors chars-per-pixel */
"24 24 93 2 ",
"   c #4525452D4538",
".  c #5088505B5087",
"X  c #520851E85210",
"o  c #5FFF5FC65FA3",
"O  c #5FCE5FB45FE3",
"+  c #61FB62126219",
"@  c #71E5724D724E",
"#  c #73447398739D",
"$  c #754575B075BB",
"%  c #772E76B87730",
"&  c #77F477E577F1",
"*  c #78BC78A178CD",
"=  c #79C6799B79C7",
"-  c #7BE87BEB7BFB",
";  c #7C3C7C387C43",
":  c #806C805A8062",
">  c #80F980E58109",
",  c #82DA82B182C4",
"<  c #83BF83BB83BC",
"1  c #84CB84D984E8",
"2  c #853C85358540",
"3  c #86A486B786B3",
"4  c #87D687CB87E1",
"5  c #8841883F8842",
"6  c #89E789D889E5",
"7  c #8B768B6E8B87",
"8  c #8C288C2E8C37",
"9  c #8DF08DE58DED",
"0  c #8E8D8E928E8D",
"q  c #9207921B920B",
"w  c #92AD92A292C0",
"e  c #9360935F935D",
"r  c #9455946A9459",
"t  c #95D395CF95CC",
"y  c #969096919687",
"u  c #973D97459740",
"i  c #9A3499CE9A30",
"p  c #9BD99BCD9BC5",
"a  c #9CF49CD19CE6",
"s  c #9DC29DBE9DB7",
"d  c #9EAB9ECD9EC0",
"f  c #9F249F089EFC",
"g  c #9F4F9F699F59",
"h  c #A08EA082A091",
"j  c #A319A304A321",
"k  c #A340A2F6A348",
"l  c #A3FBA389A3C2",
"z  c #A555A560A550",
"x  c #A63DA63FA64A",
"c  c #A7A8A78EA7B4",
"v  c #A9FEA9BAA9F2",
"b  c #AACFAA55AACA",
"n  c #ACD8AC8FACC2",
"m  c #AD74ACF9AD71",
"M  c #ADB8AD64ADB4",
"N  c #AF5CAF06AF5B",
"B  c #B002AF7BAFEB",
"V  c #B07DAFE4B05D",
"C  c #B4FAB4F2B504",
"Z  c #B5E4B5D4B5DB",
"A  c #B64BB63BB65F",
"S  c #B72BB74CB727",
"D  c #B730B745B75F",
"F  c #B7A1B788B793",
"G  c #B8A3B8A0B8A5",
"H  c #B961B94FB96A",
"J  c #BD40BD5FBD80",
"K  c #BE92BE9BBEA5",
"L  c #BFD9BFB1BFE7",
"P  c #C229C253C22C",
"I  c #C31DC325C30F",
"U  c #C3A7C3BBC3A5",
"Y  c #C443C45EC447",
"T  c #C5ACC5B6C5A4",
"R  c #C6DEC6EEC6D9",
"E  c #C73AC74CC753",
"W  c #C793C7ADC78B",
"Q  c #CBB9CB9CCB97",
"!  c #CD04CCEDCCF8",
"~  c #CE0FCE22CE31",
"^  c #CE4CCE62CE5D",
"/  c #CEDFCEE1CEE9",
"(  c #CFB8CFB2CFA8",
")  c #D131D126D131",
"_  c #D4EAD4D2D4DA",
"`  c #D5F0D5AED5F0",
"'  c #D738D6EAD746",
"]  c #D744D71DD757",
"[  c #D98DD944D9C7",
"{  c #D9AAD990D9F9",
"}  c #DE18DE20DE97",
"|  c #DE95DE9EDF0E",
" . c None",
/* pixels */
" . . . . . . . . . . . . . . . . . . . . . . . .",
" . . . . . . . . . . . . . . . . . . . . . . . .",
" . . . . . . . . . . . . . . . . . . . . . . . .",
" . . . . . . . .| |  . . . . . . . . . . . . . .",
" . . . . . . ._ ] _ _  . . . . . . . . . . . . .",
" . . . .( ( ( ( ( ( ( ( ( (  . . . . . . . . . .",
" . . . . .R R R Y K R R R U  . . . . . . . . . .",
" . . . .S K L S < O < S K K  . . . . . . . . . .",
" . . .S S G S  . . . .h S S S  . . . . . . . . .",
" . . .n V n n  . . . . .n n n v  . . . . . . . .",
" . . .% p z v  . . . .z z z y  . . . . . . . . .",
" . . . .2 h s s  . .p s s s  . . . . . . . . . .",
" . . . . .y y y y y r y y e  . . . . . . . . . .",
" . . . .< 8 2 8 8 8 8 7 2 7  . . . . . . . . . .",
" . . . . .O  .X - 7 & X    . . . .[ [  . . . . .",
" . . . . . . . .+ @  . . . .Q ( ( ) ) ( (  . . .",
" . . . . . . . . . . . . . .G R U S S R U  . . .",
" . . . . . . . . . . . . . .S J v  . .n S C  . .",
" . . . . . . . . . . . . .l n n  . . .z n v  . .",
" . . . . . . . . . . . . . .r h h  . .s h e  . .",
" . . . . . . . . . . . . . .7 y y y e y y  . . .",
" . . . . . . . . . . . . . .; ; - 7 2 - -  . . .",
" . . . . . . . . . . . . . . . . .@ %  . . . . .",
" . . . . . . . . . . . . . . . . . . . . . . . ."
};
