/* XPM */
static char *opera[] = {
/* columns rows colors chars-per-pixel */
"24 24 95 2 ",
"   c #32613240323B",
".  c #3B6F3B403B4A",
"X  c #3CB03C773C88",
"o  c #3FC63F9D3F9E",
"O  c #3FEF3FD53FDA",
"+  c #4D034CDA4CCC",
"@  c #5188516A5181",
"#  c #648B6422644F",
"$  c #709170367072",
"%  c #747B747374A7",
"&  c #752474C174EF",
"*  c #76F376DF76E8",
"=  c #7B167AFE7B02",
"-  c #7EF77E8C7EB9",
";  c #7F827F227F56",
":  c #80EA80E280CB",
">  c #8192816A817D",
",  c #839383698374",
"<  c #8415839D83E3",
"1  c #8AD78A8C8ABC",
"2  c #8B898B768B77",
"3  c #8C848C818C87",
"4  c #8DD38DCE8DD3",
"5  c #8ED08F1C8F01",
"6  c #90B490B190A8",
"7  c #916B91709164",
"8  c #92439203920F",
"9  c #931A932B9330",
"0  c #94D794E094C3",
"q  c #95879585958B",
"w  c #967C9683967C",
"e  c #97E497DF97E3",
"r  c #992B99379934",
"t  c #9ADD9AD99AE0",
"y  c #9B829B799B75",
"u  c #9D039D0D9D00",
"i  c #9E3B9E389E39",
"p  c #9F2A9F0F9F16",
"a  c #9FAD9FAC9FA4",
"s  c #A09DA08BA09C",
"d  c #A1A8A1A9A1AA",
"f  c #A2E6A2ECA2F2",
"g  c #A3C6A3C5A3C2",
"h  c #A42DA409A3FC",
"j  c #A476A472A472",
"k  c #A5AAA574A587",
"l  c #A790A781A77E",
"z  c #A8B7A8A5A8B6",
"x  c #A92AA91BA93C",
"c  c #A993A972A987",
"v  c #AA9BAABAAAB0",
"b  c #AC97AC8DAC89",
"n  c #AD3AAD1EAD3A",
"m  c #AD94ADB1AD9C",
"M  c #AE82AE8EAE83",
"N  c #B20DB1F3B1F3",
"B  c #B22AB25AB231",
"V  c #B2A7B2A0B2A0",
"C  c #B546B521B4F1",
"Z  c #B584B560B56B",
"A  c #B6CDB6CBB6DC",
"S  c #B781B79AB7B4",
"D  c #B929B915B902",
"F  c #BA7EBA89BA7B",
"G  c #BB99BBA4BB99",
"H  c #BC3ABC5DBC46",
"J  c #BC78BC75BC6E",
"K  c #BDE5BDA9BDC8",
"L  c #BE8BBE89BE97",
"P  c #BFCABFCABF8F",
"I  c #C0E0C0C2C091",
"U  c #C16CC177C124",
"Y  c #C18FC194C178",
"T  c #C3F8C3E5C403",
"R  c #C443C44EC43C",
"E  c #C542C535C55A",
"W  c #C5C7C5CAC5E5",
"Q  c #C7C8C7CEC7F6",
"!  c #C856C82CC83A",
"~  c #C9CFC9B5C9F0",
"^  c #CA68CA1FCA65",
"/  c #CA9CCA97CABB",
"(  c #CF04CEFBCF09",
")  c #CFD3CFE0CFE6",
"_  c #D06FD070D066",
"`  c #D33ED341D34E",
"'  c #D41FD42FD427",
"]  c #D447D459D44E",
"[  c #D4AAD4C2D4A9",
"{  c #D6F4D72ED713",
"}  c #D834D834D83B",
"|  c #D8B0D899D8A2",
" . c #DA25DA14DA1D",
".. c #DACDDAA5DACA",
"X. c None",
/* pixels */
"X.X.X.X.X.X.X.X.X.X.X.X.X.X.X.X.X.X.X.X.X.X.X.X.",
"X.X.X.X.X.X.X.X.X.X.X.X.X.X.X.X.X.X.X.X.X.X.X.X.",
"X.X.X.X.X.X.X.X.X.X.X.X.X.X.X.X.X.X.X.X.X.X.X.X.",
"X.X.X.X.X.X.X.X.X. . . . . . .{ X.X.X.X.X.X.X.X.",
"X.X.X.X.X.X.X._ _ { F > * b _ { _ X.X.X.X.X.X.X.",
"X.X.X.X.X.X.) _ _ ! X.X.X.X.N _ ) ) X.X.X.X.X.X.",
"X.X.X.X.X.~ ~ ~ ~ P X.X.X.X.8 W ~ ~ ~ X.X.X.X.X.",
"X.X.X.X.Y W W W R X.X.X.X.X.X.P W W W W X.X.X.X.",
"X.X.X.X.P I Y P P X.X.X.X.X.X.Z Y Y P Y X.X.X.X.",
"X.X.X.X.F P F P F X.X.X.X.X.X.N F P F F X.X.X.X.",
"X.X.X.m Z S S S Z X.X.X.X.X.X.b Z S Z Z Z X.X.X.",
"X.X.X.m C N N N N X.X.X.X.X.X.f Z N N N m X.X.X.",
"X.X.X.j m m m m m X.X.X.X.X.X.a m m m m b X.X.X.",
"X.X.X.0 j b b z b X.X.X.X.X.X.a j b b j j X.X.X.",
"X.X.X.X.f f j f f X.X.X.X.X.X.a f f f f X.X.X.X.",
"X.X.X.X.0 f a a a X.X.X.X.X.X.t a a a a X.X.X.X.",
"X.X.X.X.= t a t t X.X.X.X.X.X.t t t t 8 X.X.X.X.",
"X.X.X.X.X.< t 0 0 0 X.X.X.X.X.0 0 0 8 X.X.X.X.X.",
"X.X.X.X.X.+ = 0 8 8 X.X.X.X.3 8 8 3 X.X.X.X.X.X.",
"X.X.X.X.X.X.o * 3 3 3 2 2 2 3 3 > X.X.X.X.X.X.X.",
"X.X.X.X.X.X.X.X.@ $ > < < = * # X.X.X.X.X.X.X.X.",
"X.X.X.X.X.X.X.X.X.X.  X O . X.X.X.X.X.X.X.X.X.X.",
"X.X.X.X.X.X.X.X.X.X.X.X.X.X.X.X.X.X.X.X.X.X.X.X.",
"X.X.X.X.X.X.X.X.X.X.X.X.X.X.X.X.X.X.X.X.X.X.X.X."
};
