/* XPM */
static char *picasa[] = {
/* columns rows colors chars-per-pixel */
"24 24 111 2 ",
"   c #374037183715",
".  c #3B4E3B1A3B1D",
"X  c #3BFC3BB23BA6",
"o  c #4C254BC94BEA",
"O  c #4C604C7B4C54",
"+  c #4D754D164D39",
"@  c #5ACB5AC65ACC",
"#  c #61A661416144",
"$  c #64CD64B564B4",
"%  c #6A536A316A46",
"&  c #702970036FFE",
"*  c #714670CA70CE",
"=  c #711770F370E8",
"-  c #752B752D752B",
";  c #798F79737970",
":  c #7CC37C4D7C48",
">  c #7D127C3C7C39",
",  c #7FC87FAB7FB2",
"<  c #800E80007FEF",
"1  c #84F884E984E8",
"2  c #857E856E856E",
"3  c #860985918591",
"4  c #85F085D7863B",
"5  c #87F387D287B2",
"6  c #884A88528850",
"7  c #891988D78913",
"8  c #88F189418941",
"9  c #899589BF89BD",
"0  c #89C18A048A0F",
"q  c #89E68A1A8A1E",
"w  c #8A278A668A64",
"e  c #8CD28CD68CCD",
"r  c #8DE78DDD8DC1",
"t  c #8EAB8E9B8E94",
"y  c #8FAA8FAF8F96",
"u  c #915191769157",
"i  c #92CF92CD92C3",
"p  c #93149315930F",
"a  c #9359934D9359",
"s  c #950095009557",
"d  c #9539953C958B",
"f  c #95FA95FA964C",
"g  c #97D397D69868",
"h  c #9943993B993C",
"j  c #9AA59AA29ABF",
"k  c #9C1D9C049C33",
"l  c #9C909C649C7A",
"z  c #9D179CE29D30",
"x  c #9DF79D9B9DFC",
"c  c #9E239DA49E18",
"v  c #9E569DE39E4C",
"b  c #9EF29EDE9EC0",
"n  c #9FBC9F6A9FE1",
"m  c #A11AA0F4A118",
"M  c #A21EA1C2A21E",
"N  c #A315A31CA313",
"B  c #A343A310A307",
"V  c #A434A405A432",
"C  c #A524A542A541",
"Z  c #A583A5E4A594",
"A  c #A619A613A642",
"S  c #A69FA6EFA6AB",
"D  c #A778A77DA76F",
"F  c #AB2DAB19AB14",
"G  c #AB89ABA9AB80",
"H  c #AD02ACF4AD0C",
"J  c #AD41AD25AD49",
"K  c #AFF2AFFEAFF4",
"L  c #B072B074B067",
"P  c #B395B3AFB3A6",
"I  c #B4EBB4ECB4EE",
"U  c #B547B52BB544",
"Y  c #B57FB577B578",
"T  c #B8E7B8C1B8E2",
"R  c #B9DCB9E1B9D7",
"E  c #BBA4BBB4BB98",
"W  c #BCA8BCADBCB4",
"Q  c #BDD7BDD7BDD5",
"!  c #BE33BE4ABE59",
"~  c #BEBDBEBDBEB0",
"^  c #C003C01AC00B",
"/  c #C133C138C137",
"(  c #C1AAC1ABC1A8",
")  c #C2D2C2D6C2BD",
"_  c #C376C37FC377",
"`  c #C6A2C682C6D1",
"'  c #C72CC70CC757",
"]  c #C753C735C77D",
"[  c #C7E6C7CDC7ED",
"{  c #C895C879C8A8",
"}  c #CBD9CBD7CBD4",
"|  c #CC67CC45CC4F",
" . c #CC76CC77CC71",
".. c #CDB0CDB8CDC0",
"X. c #CEE0CEEBCEDE",
"o. c #D03AD052D039",
"O. c #D112D11FD10A",
"+. c #D155D178D14D",
"@. c #D136D16DD155",
"#. c #D2CAD2D0D2E3",
"$. c #D511D515D51D",
"%. c #D555D545D55C",
"&. c #D627D654D651",
"*. c #D649D63FD65E",
"=. c #D6E5D71BD6FE",
"-. c #D855D864D85D",
";. c #DA33DA04DA35",
":. c #DB2ADB2CDB31",
">. c #DB58DB50DB61",
",. c #DBCBDBCDDBCD",
"<. c None",
/* pixels */
"<.<.<.<.<.<.<.<.<.<.<.<.<.<.<.<.<.<.<.<.<.<.<.<.",
"<.<.<.<.<.<.<.<.<.<.,.,.,.,.<.<.<.<.<.<.<.<.<.<.",
"<.<.<.<.<.<.<.<.<.X.,.,.,.,.,.:.<.<.<.<.<.<.<.<.",
"<.<.<.<.<.O.$.$.<.- _ $.-.$.$.$.<.X.<.<.<.<.<.<.",
"<.<.<.<.X.O.O.O.o.<.% I O.O.O.O.<._ O.X.<.<.<.<.",
"<.<.<.<.} X.| | } X.<.@ J X.X.} <.W } } <.<.<.<.",
"<.<.<.` ` ` ` ` ` ` _ <.<.V ` ` <.E ` ` ` <.<.<.",
"<.<.~ _ _ _ _ ` _ J <.<.<.<.h _ <.I _ _ _ _ <.<.",
"<.<.E ~ ~ ~ ~ E x <.<.<.<.<.<.x <.P ~ ~ ~ E <.<.",
"<.<.E E I E P x <.<.<.<.<.<.<.<.<.J T E E T <.<.",
"<.<.I I I P d <.<.<.<.<.<.<.<.<.<.C I I P I <.<.",
"<.<.J P C <.<.<.<.<.<.<.<.<.<.<.<.V K P J L <.<.",
"<.<.F V <.<.<.<.<.<.<.<.<.<.<.<.<.n G G F F <.<.",
"<.<.h <.<.V C <.<.<.<.<.<.<.<.<.<.h C D C C <.<.",
"<.<.<.<.V V x <.<.<.<.<.<.<.<.<.<.d n x x x <.<.",
"<.<.<.x x x h <.<.<.<.<.<.<.<.<.<.<.O O O <.<.<.",
"<.<.4 d h g d <.<.a d d d d a d <.<.7 5 <.<.<.<.",
"<.<.<., a a a <.a a a a a a a a a a a a y <.<.<.",
"<.<.<.<.< y e <.y y y y y y y y y y y 6 <.<.<.<.",
"<.<.<.<.O ; 5 <.7 7 6 7 7 7 7 7 7 7 < <.<.<.<.<.",
"<.<.<.<.<.<.<.<.4 4 1 4 1 4 4 4 , * <.<.<.<.<.<.",
"<.<.<.<.<.<.<.<.# * ; : : ; * $ <.<.<.<.<.<.<.<.",
"<.<.<.<.<.<.<.<.<.<.  . . . <.<.<.<.<.<.<.<.<.<.",
"<.<.<.<.<.<.<.<.<.<.<.<.<.<.<.<.<.<.<.<.<.<.<.<."
};
