/* XPM */
static char *python[] = {
/* columns rows colors chars-per-pixel */
"24 24 85 1 ",
"  c #6E816E776E51",
". c #727F728C727C",
"X c #7338732A732D",
"o c #75D375D77605",
"O c #77E277F577E3",
"+ c #78B078B878C8",
"@ c #7AEC7ADF7AEE",
"# c #7BCF7BC87BC9",
"$ c #7CAA7C787C81",
"% c #7D7A7D6C7D61",
"& c #7F037EF07F05",
"* c #7FB27FB07FAB",
"= c #6A5CA0A3B601",
"- c #7E49A8DFB870",
"; c #636BA9E5C3C1",
": c #71F7B380CBA5",
"> c #81E7820181EC",
", c #82E182DA82EA",
"< c #84A884A584A3",
"1 c #859585978593",
"2 c #86418667866B",
"3 c #88BC88AF88A6",
"4 c #892C892188D3",
"5 c #89B389B689AC",
"6 c #8A238A148A12",
"7 c #8BB68BAE8B9B",
"8 c #8C178C118BF9",
"9 c #8C588C4B8C36",
"0 c #8E868E738E7C",
"q c #8F1C8F0A8F10",
"w c #8F9A8F8E8F86",
"e c #91AF9186919F",
"r c #924892009209",
"t c #924892279219",
"y c #93499347937E",
"u c #952A950694EE",
"i c #980C97DB97D2",
"p c #995999209918",
"a c #9912998E998E",
"s c #99A5999399AE",
"d c #9BEF9BE69C0C",
"f c #9D279D2E9D64",
"g c #9E8D9E929EB9",
"h c #9F6E9F6B9FB9",
"j c #A00B9FFDA03D",
"k c #A0E1A0EFA149",
"l c #A29CA2A3A2E2",
"z c #A342A344A386",
"x c #A650A690A6A8",
"c c #A8D1A8D6A913",
"v c #A952A970A989",
"b c #AAE7AAF6AAF6",
"n c #ABD8AC59AC5D",
"m c #B0C3B08AB094",
"M c #B2E5B37BB37B",
"N c #B3CAB3DBB3E2",
"B c #B52AB578B574",
"V c #B587B587B582",
"C c #B6F1B736B761",
"Z c #B8CCB80AB7B7",
"A c #B7FEB82DB864",
"S c #B860B89CB8B5",
"D c #BA19BA24BA22",
"F c #BCDDBCE0BCE3",
"G c #BF7CBF82BF93",
"H c #B5F6BF49C31D",
"J c #C006C041C061",
"K c #B162CFE2DB0C",
"L c #C202C214C207",
"P c #C26AC269C26A",
"I c #C439C438C437",
"U c #C4E9C4EAC4EA",
"Y c #C597C59DC58B",
"T c #C70EC711C70F",
"R c #C774C773C785",
"E c #C8A7C8ADC8A9",
"W c #C969C95BC965",
"Q c #CBD0CBE0CBD4",
"! c #CD6CCD71CD79",
"~ c #CE30CE33CE51",
"^ c #CEBBCEC4CEC0",
"/ c #D10FD113D10F",
"( c #D35AD34FD345",
") c #DACEDAB7DAA7",
"_ c None",
/* pixels */
"________________________",
"________________________",
"________________________",
"________________________",
"________________________",
"________________________",
"___))/WWQQQIUQ/_________",
"___/UFUQQ/QWJ__ZGE______",
"__UWUUIFSCUFMHK___SH____",
"__FAb____CS__=:;-__bZ___",
"_________MM_________pn__",
"__b______xbb_________g__",
"_hkxk____rskhh________h_",
"_usssi____4r499r______w_",
"_99r9r94_992___%>244444_",
"_>222222>>________ ++%__",
"_%%%%%+o________________",
"_oXX____________________",
"________________________",
"________________________",
"________________________",
"________________________",
"________________________",
"________________________"
};
