/* XPM */
static char *uextras[] = {
/* columns rows colors chars-per-pixel */
"24 24 92 1 ",
"  c #4E274E0C4E1B",
". c #4F874F964FB3",
"X c #55FE55E255F6",
"o c #59D759C459D9",
"O c #60CE60D260E5",
"+ c #620561DE61FC",
"@ c #63A66379639E",
"# c #6BB26BAA6BD2",
"$ c #6C986C666C95",
"% c #706D7096708B",
"& c #75C7760F75C7",
"* c #7A097A0179FC",
"= c #7B137AE57B33",
"- c #7CC07CA47CCC",
"; c #7D907DA77DBF",
": c #830282D78326",
"> c #8B888B9E8B9C",
", c #8C478C4D8C45",
"< c #8CD28CC98D11",
"1 c #8DE28DD28DE0",
"2 c #8E6E8E698E84",
"3 c #8F888F858F6C",
"4 c #9060907390A3",
"5 c #90DA90E39121",
"6 c #92E592CF92E9",
"7 c #930693059323",
"8 c #939B939693A7",
"9 c #94E595039503",
"0 c #951E95189505",
"q c #977997689759",
"w c #98AF98AD988C",
"e c #995A995A9924",
"r c #9B9D9BAB9BB3",
"t c #9CB49CB79CCD",
"y c #9D0D9D219D78",
"u c #9EA19EAA9EC2",
"i c #A0B6A0C1A0E4",
"p c #A15FA16EA1AD",
"a c #A225A22BA21F",
"s c #A281A28FA283",
"d c #A40BA404A39C",
"f c #A46DA46EA402",
"g c #A505A511A4EF",
"h c #A5EDA5FBA596",
"j c #A62EA625A5E9",
"k c #A643A645A5E7",
"l c #A73FA749A754",
"z c #A906A8DCA8F2",
"x c #A947A949A911",
"c c #AA00AA00A9A9",
"v c #AA7DAA7BAA10",
"b c #AA97AA95AA47",
"n c #AC6CAC7AAC44",
"m c #AEF1AEEFAF07",
"M c #AEEBAEDAAF59",
"N c #AF48AF1DAF33",
"B c #B055B054B075",
"V c #B3FFB3FBB40B",
"C c #B444B431B42F",
"Z c #B844B834B807",
"A c #B89DB88CB857",
"S c #B992B965B947",
"D c #BD08BCFEBD14",
"F c #BD4CBD25BD34",
"G c #BE09BE05BE3D",
"H c #BEBCBE29BEB5",
"J c #C035C04AC028",
"K c #C07DC039C096",
"L c #C1FDC160C207",
"P c #C246C1A8C234",
"I c #C34EC34DC34B",
"U c #C62DC575C62A",
"Y c #C6C5C61BC6CA",
"T c #C956C91BC93A",
"R c #CA54CA1ECA48",
"E c #CA8ACA68CA89",
"W c #CB67CB29CB4F",
"Q c #CC05CBD6CC02",
"! c #CCCDCC9BCCC3",
"~ c #CF0CCF05CF05",
"^ c #CF8CCF68CF63",
"/ c #D176D125D123",
"( c #D2CDD2D6D2D2",
") c #D40DD41BD40E",
"_ c #D446D459D440",
"` c #D46FD43BD467",
"' c #D489D49FD486",
"] c #D7D8D7ECD7E0",
"[ c #D81FD864D832",
"{ c #D889D89AD897",
"} c #D96AD99AD974",
"| c None",
/* pixels */
"||||||||||||||||||||||||",
"||||||||||||||||||||||||",
"||||||||||||||||||||||||",
"||||{{{]|||||||{{{||||||",
"||||`___|||||||___||||||",
"||||~~~_|||||||~~~||||||",
"||||EEEE|||||||EEE||||||",
"||||UUU||||||||UUU||||||",
"||||LLL|||L{{||LLL||||||",
"||||DDHH|||L]_|HDH||||||",
"||||ZZSZEE|E~E|ZZS||||||",
"||||VVC||HUUU||VCC||||||",
"||||MMM|||zHJH|MMM||||||",
"||||cccc|||1nS|ccc||||||",
"||||fllf|||||MBlll||||||",
"||||qiii|||||5ccii||||||",
"|||||rtr||||||,lir||||||",
"|||||1qrq|||||;5tr||||||",
"|||||O>85qq55q1=1qq|||||",
"||||||.;154555>$o,1|||||",
"||||||||.O$$$OX||=:;||||",
"||||||||||||||||||%&||||",
"||||||||||||||||||||||||",
"||||||||||||||||||||||||"
};
