/* XPM */
static char *varicadview[] = {
/* columns rows colors chars-per-pixel */
"24 24 92 1 ",
"  c #36D836CA36D3",
". c #3AA13AC63A8E",
"X c #4264426F428B",
"o c #4D714D724D74",
"O c #5280527F5279",
"+ c #5B4F5B645B5C",
"@ c #5D6E5D875D6D",
"# c #5FD15FDD5FD8",
"$ c #638C63A06396",
"% c #67E867F567F9",
"& c #6CE36CFE6CDA",
"* c #6EB76ECA6EB8",
"= c #724E7256721F",
"- c #72FD730A7308",
"; c #747C74A6748B",
": c #79A979927972",
"> c #7A8E7A907A7E",
", c #7C087C137BDD",
"< c #7C2A7C3D7C05",
"1 c #7D4A7D777D62",
"2 c #7EC87ECC7EC8",
"3 c #7EEB7F4E7EDC",
"4 c #7F397F2F7F41",
"5 c #80D080E980AA",
"6 c #810D813280DB",
"7 c #81BF81BD81C3",
"8 c #84C584CB84D8",
"9 c #85EE85E285D3",
"0 c #8783878B8787",
"q c #889688A1889A",
"w c #89548961895D",
"e c #8A318A1E8A23",
"r c #8C9E8C8E8C81",
"t c #8DC18DC78DD0",
"y c #8DF18E168E06",
"u c #8E898E978EC4",
"i c #8FCD8FD79008",
"p c #918E919E91AA",
"a c #924C92459242",
"s c #9313930B92EB",
"d c #930E9313930A",
"f c #939B9396938D",
"g c #940494189402",
"h c #945A9459944B",
"j c #96C096AD9692",
"k c #9794979997A7",
"l c #98689869988E",
"z c #9A589A579A2C",
"x c #9BB39BAF9B9A",
"c c #9C2A9C349C33",
"v c #9D2F9D4E9D1A",
"b c #9DA09DAB9D97",
"n c #9EC59EAD9ED0",
"m c #9FE69FE09FF3",
"M c #A03BA03DA01F",
"N c #9FF1A00EA026",
"B c #A04FA058A053",
"V c #A3C8A3C2A3D8",
"C c #A410A410A429",
"Z c #A473A46DA489",
"A c #A7E3A7DCA7DC",
"S c #A8FBA909A908",
"D c #A96CA98DA97E",
"F c #AC67AC83AC79",
"G c #AED9AEE1AEEB",
"H c #B1A1B1A2B1A2",
"J c #B32FB331B332",
"K c #B33AB33CB33E",
"L c #B548B512B544",
"P c #B5E8B5A2B5DE",
"I c #B7C4B7C4B7B4",
"U c #B9E4B9A2B9C9",
"Y c #BA80BA2DBA4E",
"T c #BCD5BCF3BCE7",
"R c #BE10BE44BE58",
"E c #BE98BEFFBEAB",
"W c #C0DBC0E6C0E8",
"Q c #C1E0C1FEC20F",
"! c #C2DBC2FAC2EE",
"~ c #C3EDC3BCC3B0",
"^ c #C5CBC59FC5AC",
"/ c #C6F6C70EC71A",
"( c #C818C811C80A",
") c #CA72CA12C9F5",
"_ c #CA7ACAA3CAA3",
"` c #CB3DCB5ECB64",
"' c #CB6BCB88CB7F",
"] c #CD8ECD65CD2E",
"[ c #CFD8CFC6CFB0",
"{ c #D282D26FD233",
"} c #D52ED52DD520",
"| c None",
/* pixels */
"||||||||||||||||||||||||",
"||||||||||||||||||||||||",
"|||||||||||}}|||||||||||",
"||||||||||[I!{||||||||||",
"||||||||||'!~[||||||||||",
"||||||||||^'''||||||||||",
"||||||||||!^^^||||||||||",
"||||||||||!!!!||||||||||",
"||||||||||UEEE||||||||||",
"||||||||||UUUU||||||||||",
"||||||||||IIII||||||||||",
"|||||||||SGKKKG|||||||||",
"|||||||||SAw9SF|||||||||",
"||||||||SSr||7SA||||||||",
"|||||||VAVj||rCAV|||||||",
"|||||nnVnnn||nnnVn||||||",
"||||zznzzznnnzznzzzz||||",
"|||jzjkjzjr-;ijzkjklz|||",
"||72pjjp9*|||X%9pjpp29||",
"||=@rw:@||||||| @:rr$2||",
"||:2*O||||||||||||o*27||",
"||||||||||||||||||||.|||",
"||||||||||||||||||||||||",
"||||||||||||||||||||||||"
};
